<?xml version="1.0" encoding="UTF-8" standalone="no"?>
<!DOCTYPE svg PUBLIC "-//W3C//DTD SVG 1.1//EN" "http://www.w3.org/Graphics/SVG/1.1/DTD/svg11.dtd">
<svg width="100%" height="100%" viewBox="0 0 845 596" version="1.1" xmlns="http://www.w3.org/2000/svg" xmlns:xlink="http://www.w3.org/1999/xlink" xml:space="preserve" xmlns:serif="http://www.serif.com/" style="fill-rule:evenodd;clip-rule:evenodd;stroke-linejoin:round;stroke-miterlimit:2;">
    <circle cx="431.393" cy="548" r="46" style="fill:rgb(51,102,255);"/>
    <g transform="matrix(1,0,0,1,-177.662,-152.369)">
        <path d="M883.862,743.785C909.596,736.056 936.956,727.997 957.365,709.624C975.603,693.206 987.915,668.135 980.36,643.512C972.82,618.94 950.235,602.556 926.918,594.407C913.693,589.785 899.857,587.221 886.027,585.207C870.992,583.017 855.89,581.223 840.796,579.497C779.678,572.506 718.33,568.236 656.752,566.686C626.368,565.92 595.989,565.939 565.6,566.38C538.461,566.774 509.878,566.764 484.701,555.229C465.123,546.26 447.353,529.941 441.898,508.496C435.6,483.741 447.216,458.532 463.878,440.604C472.66,431.154 482.925,423.2 493.514,415.886C505.001,407.952 516.889,400.58 529.035,393.698C552.956,380.151 577.965,368.622 603.801,359.23C616.547,354.595 629.482,350.597 642.529,346.908C653.546,343.794 664.597,340.675 675.245,336.431C695.828,328.227 715.406,314.331 720.639,291.549C725.6,269.958 717.236,246.519 702.574,230.479C685.612,211.922 660.035,203.787 635.514,202.471C607.986,200.993 581.092,207.883 555.218,216.627C527.621,225.953 500.619,236.676 472.439,244.23C444.495,251.713 416.01,257.008 387.244,260.066C373.161,261.566 358.653,263.259 344.487,262.111C332.615,261.149 320.803,257.657 312.053,249.232C304.551,242.007 300.081,232.078 301.618,221.599C301.897,219.696 304.788,220.505 304.511,222.397C302.64,235.152 311.311,246.905 321.995,252.926C334.343,259.884 349.369,259.894 363.117,259.098C392.926,257.298 422.533,253.018 451.631,246.302C480.224,239.772 507.795,230.436 535.335,220.463C561.491,210.992 588.232,201.748 616.175,199.696C640.421,197.916 665.927,201.448 687.05,214.119C705.613,225.255 719.264,243.826 723.614,265.137C727.864,285.962 721.978,306.922 706.214,321.454C689.893,336.501 667.513,342.934 646.657,348.858C620.205,356.373 594.32,365.156 569.265,376.561C543.869,388.089 519.512,401.782 496.465,417.489C474.219,432.692 452.264,451.82 445.228,478.941C441.951,491.574 442.556,504.973 448.04,516.905C452.916,527.515 460.946,536.44 470.302,543.324C492.622,559.748 520.754,563.12 547.716,563.456C577.997,563.833 608.28,562.811 638.571,563.308C700.303,564.321 761.91,568.079 823.39,574.58C838.795,576.211 854.181,578.013 869.547,579.988C883.369,581.764 897.237,583.528 910.826,586.682C934.988,592.29 958.5,603.074 973.517,623.56C980.182,632.439 984.312,642.964 985.464,654.006C986.516,665.53 983.695,677.075 978.484,687.327C966.952,710.017 945.351,724.45 922.411,733.932C910.124,739.01 897.379,742.858 884.659,746.678C882.806,747.234 882.014,744.34 883.862,743.785L883.862,743.785Z" style="fill:rgb(242,242,242);fill-rule:nonzero;"/>
    </g>
    <circle cx="125.893" cy="69.5" r="24" style="fill:rgb(242,242,242);"/>
    <circle cx="292.393" cy="115" r="24" style="fill:rgb(242,242,242);"/>
    <circle cx="433.393" cy="24" r="24" style="fill:rgb(242,242,242);"/>
    <circle cx="521.393" cy="126" r="24" style="fill:rgb(242,242,242);"/>
    <circle cx="402.393" cy="244" r="24" style="fill:rgb(242,242,242);"/>
    <circle cx="251.393" cy="301" r="24" style="fill:rgb(242,242,242);"/>
    <circle cx="411.393" cy="390" r="24" style="fill:rgb(242,242,242);"/>
    <circle cx="583.393" cy="440" r="24" style="fill:rgb(242,242,242);"/>
    <circle cx="784.393" cy="429" r="24" style="fill:rgb(242,242,242);"/>
    <g transform="matrix(1,0,0,1,-177.662,-152.369)">
        <path d="M604.128,220.373C532.236,220.88 473.372,279.303 472.35,351.189C472.341,351.853 472.336,356.519 472.337,362.623C472.338,381.135 487.57,396.367 506.081,396.369L506.081,396.369C524.603,396.365 539.842,381.123 539.842,362.601C539.842,362.591 539.842,362.581 539.842,362.571C539.839,358.419 539.837,355.546 539.837,355.369C539.837,355.365 539.837,355.36 539.837,355.356C539.837,320.246 568.727,291.356 603.837,291.356C638.947,291.356 667.837,320.246 667.837,355.356C667.837,377.148 656.707,397.495 638.357,409.249L638.369,409.263C638.369,409.263 590.34,440.182 575.698,482.598L575.71,482.601C573.135,491.29 571.831,500.307 571.837,509.369C571.837,513.095 572.056,545.691 572.479,572.147C572.785,591.018 588.396,606.374 607.269,606.369L607.269,606.369C626.357,606.368 642.064,590.661 642.064,571.573C642.064,571.502 642.064,571.43 642.063,571.359C641.916,547.129 641.837,518.917 641.837,516.869C641.837,490.824 666.962,464.874 687.6,447.952C711.366,428.465 728.468,401.909 735.337,371.953C736.857,365.785 737.695,359.47 737.837,353.119C737.837,353.119 737.837,353.119 737.837,353.119C737.837,280.295 677.911,220.369 605.087,220.369C604.767,220.369 604.447,220.37 604.128,220.373Z" style="fill:rgb(51,102,255);fill-rule:nonzero;"/>
    </g>
    <g transform="matrix(1,0,0,1,-177.662,-152.369)">
        <path d="M1021.15,747.631L178.853,747.631C178.201,747.629 177.666,747.092 177.666,746.44C177.666,745.788 178.201,745.251 178.853,745.249L1021.15,745.249C1021.8,745.249 1022.34,745.787 1022.34,746.44C1022.34,747.093 1021.8,747.631 1021.15,747.631Z" style="fill:rgb(63,61,86);fill-rule:nonzero;"/>
    </g>
    <circle cx="628.449" cy="242.996" r="30" style="fill:rgb(47,46,65);"/>
    <path d="M573.012,582.129L560.753,582.129L554.92,534.841L573.015,534.841L573.012,582.129Z" style="fill:rgb(160,97,106);fill-rule:nonzero;"/>
    <path d="M551.996,578.626L575.639,578.626L575.639,593.512L537.109,593.512C537.109,593.512 537.109,593.512 537.109,593.512C537.109,585.346 543.829,578.626 551.996,578.626Z" style="fill:rgb(47,46,65);fill-rule:nonzero;"/>
    <path d="M668.012,582.129L655.753,582.129L649.92,534.841L668.015,534.841L668.012,582.129Z" style="fill:rgb(160,97,106);fill-rule:nonzero;"/>
    <path d="M646.996,578.626L670.639,578.626L670.639,593.512L632.109,593.512C632.109,593.512 632.109,593.512 632.109,593.512C632.109,585.346 638.829,578.626 646.996,578.626Z" style="fill:rgb(47,46,65);fill-rule:nonzero;"/>
    <circle cx="623.89" cy="248.61" r="24.561" style="fill:rgb(160,97,106);"/>
    <g transform="matrix(1,0,0,1,-177.662,-152.369)">
        <path d="M816.191,504.775L827.181,479.525C832.638,467.415 829.842,453.094 820.231,443.925C819.266,442.971 818.24,442.079 817.161,441.255C811.74,437.014 805.055,434.701 798.171,434.685C793.542,434.703 788.971,435.72 784.771,437.665C784.411,437.825 784.061,437.995 783.701,438.165C783.011,438.495 782.331,438.855 781.671,439.225C772.947,444.234 767.112,453.11 765.971,463.105L761.121,503.745C759.901,506.935 716.381,622.135 731.601,710.085C731.933,712.008 733.487,713.501 735.421,713.755L750.851,715.855C753.176,716.173 755.378,714.621 755.861,712.325L781.751,588.915C782.091,587.3 783.529,586.133 785.179,586.133C786.743,586.133 788.127,587.18 788.551,588.685L825.131,718.465C825.665,720.397 827.437,721.745 829.441,721.745C829.733,721.743 830.024,721.717 830.311,721.665L849.161,718.035C851.42,717.613 853.005,715.514 852.791,713.225C850.021,682.335 835.301,527.605 816.191,504.775Z" style="fill:rgb(47,46,65);fill-rule:nonzero;"/>
    </g>
    <g transform="matrix(1,0,0,1,-177.662,-152.369)">
        <path d="M706.102,421.419C706.056,421.806 706.034,422.195 706.034,422.585C706.034,428.101 710.573,432.641 716.09,432.641C716.292,432.641 716.494,432.635 716.696,432.623L730.425,465.615L740.81,450.221L726.181,421.251C725.541,416.225 721.218,412.416 716.151,412.416C711.021,412.416 706.663,416.32 706.102,421.419L706.102,421.419Z" style="fill:rgb(160,97,106);fill-rule:nonzero;"/>
    </g>
    <g transform="matrix(1,0,0,1,-177.662,-152.369)">
        <path d="M800.19,537.996C805.222,537.394 809.053,533.078 809.053,528.011C809.053,527.019 808.906,526.032 808.617,525.082L837.502,504.044L820.112,497.532L795.348,518.509C791.425,519.993 788.815,523.771 788.815,527.965C788.815,533.511 793.379,538.075 798.925,538.075C799.348,538.075 799.771,538.048 800.19,537.996L800.19,537.996Z" style="fill:rgb(160,97,106);fill-rule:nonzero;"/>
    </g>
    <g transform="matrix(1,0,0,1,-177.662,-152.369)">
        <path d="M753.102,487.61C751.994,487.609 750.89,487.5 749.804,487.285C744.473,486.271 739.986,482.659 737.856,477.669L718.622,454.216C717.962,453.411 717.601,452.402 717.601,451.362C717.601,449.805 718.409,448.355 719.733,447.535L733.417,439.064C734.129,438.624 734.949,438.39 735.786,438.39C737.356,438.39 738.817,439.212 739.632,440.555L753.189,462.889L779.15,443.702C780.543,442.972 782.092,442.59 783.664,442.59C788.997,442.59 793.386,446.979 793.386,452.312C793.386,454.927 792.33,457.435 790.46,459.264L764.548,482.9C761.504,485.917 757.388,487.611 753.102,487.61Z" style="fill:rgb(47,46,65);fill-rule:nonzero;"/>
    </g>
    <g transform="matrix(1,0,0,1,-177.662,-152.369)">
        <path d="M823.252,522.883C823.217,522.883 823.181,522.883 823.146,522.882C821.871,522.851 820.667,522.28 819.835,521.311L807.669,507.118C806.97,506.303 806.586,505.263 806.586,504.189C806.586,502.686 807.339,501.279 808.59,500.445L831.371,485.258L810.733,460.445C809.827,458.935 809.348,457.206 809.348,455.445C809.348,450.112 813.736,445.724 819.069,445.724C821.492,445.724 823.83,446.63 825.62,448.263L850.703,472.775C854.129,475.904 856.083,480.336 856.083,484.976C856.083,491.193 852.574,496.905 847.028,499.716L826.527,521.47C825.676,522.37 824.491,522.882 823.252,522.883Z" style="fill:rgb(47,46,65);fill-rule:nonzero;"/>
    </g>
    <g transform="matrix(1,0,0,1,-177.662,-152.369)">
        <path d="M795.307,470.584C795.112,470.584 794.917,470.571 794.723,470.546C792.996,470.336 791.543,469.135 791.013,467.478L781.87,439.448C781.399,437.99 782.083,436.39 783.464,435.724L783.761,435.584C784.03,435.456 784.296,435.329 784.568,435.208C788.831,433.231 793.472,432.2 798.171,432.185C804.271,432.196 810.237,433.989 815.333,437.342C816.745,438.282 817.149,440.208 816.234,441.636L799.084,468.504C798.267,469.799 796.838,470.586 795.307,470.584Z" style="fill:rgb(230,230,230);fill-rule:nonzero;"/>
    </g>
    <circle cx="652.101" cy="219.786" r="9.817" style="fill:rgb(47,46,65);"/>
    <g transform="matrix(1,0,0,1,-177.662,-152.369)">
        <path d="M796.111,361.365C781.848,361.365 770.111,373.102 770.111,387.365L770.111,398.365L783.64,398.365L790.111,387.365L792.053,398.365L833.111,398.365L822.111,387.365C822.111,373.102 810.374,361.365 796.111,361.365Z" style="fill:rgb(47,46,65);fill-rule:nonzero;"/>
    </g>
    <g transform="matrix(1,0,0,1,-177.662,-152.369)">
        <path d="M834.809,365.431C837.041,358.453 844.031,354.044 851.29,355.036C857.546,356.081 862.492,361.11 865.439,366.727C868.386,372.343 869.747,378.629 871.728,384.655C873.71,390.68 876.52,396.738 881.521,400.639C886.523,404.539 894.199,405.597 899.111,401.585C897.777,411.526 889.202,419.027 879.172,419.027C871.911,419.027 865.192,415.096 861.634,408.766C859.042,404.154 858.373,398.749 857.604,393.515C856.836,388.281 855.837,382.865 852.742,378.575C849.647,374.284 843.854,371.482 838.938,373.436L834.809,365.431Z" style="fill:rgb(47,46,65);fill-rule:nonzero;"/>
    </g>
    <g transform="matrix(1,0,0,1,-177.662,-152.369)">
        <path d="M515.609,380.408C497.097,380.405 481.866,365.173 481.865,346.662C481.864,340.558 481.869,335.891 481.878,335.227C482.162,314.322 487.428,293.782 497.237,275.319C481.123,297.378 472.259,323.912 471.878,351.227C471.869,351.891 471.864,356.558 471.865,362.662C471.866,381.173 487.097,396.405 505.609,396.408C520.675,396.402 534,386.315 538.097,371.817C531.92,377.356 523.906,380.418 515.609,380.408Z" style="fill:rgb(63,61,86);fill-rule:nonzero;"/>
    </g>
    <g transform="matrix(1,0,0,1,-177.662,-152.369)">
        <path d="M606.415,291.478C640.337,293.099 667.366,321.449 667.366,355.409C667.366,364.176 665.564,372.85 662.074,380.891C671.929,369.318 677.345,354.603 677.345,339.402C677.345,304.294 648.455,275.405 613.348,275.405C587.909,275.405 564.783,290.573 554.648,313.906C567.479,298.812 586.628,290.516 606.415,291.478Z" style="fill:rgb(63,61,86);fill-rule:nonzero;"/>
    </g>
    <g transform="matrix(1,0,0,1,-177.662,-152.369)">
        <path d="M616.797,590.408C597.924,590.412 582.313,575.056 582.007,556.185C581.583,529.729 581.364,497.133 581.364,493.408C581.358,484.345 582.663,475.329 585.238,466.64L585.226,466.637C586.746,462.275 588.582,458.03 590.72,453.936C584.158,462.68 578.936,472.353 575.226,482.637L575.238,482.64C572.663,491.329 571.358,500.345 571.364,509.408C571.364,513.133 571.583,545.729 572.007,572.185C572.313,591.056 587.924,606.412 606.797,606.408C622.214,606.405 635.878,596.158 640.199,581.359C633.804,587.19 625.451,590.42 616.797,590.408Z" style="fill:rgb(63,61,86);fill-rule:nonzero;"/>
    </g>
    <path d="M126.541,582.585L138.8,582.584L144.633,535.296L126.538,535.297L126.541,582.585Z" style="fill:rgb(255,184,184);fill-rule:nonzero;"/>
    <g transform="matrix(-1,4.57276e-05,-4.57276e-05,-1,464.054,1325.4)">
        <path d="M301.576,731.451L340.107,731.451L340.107,746.338L316.463,746.338C308.296,746.338 301.576,739.617 301.576,731.451L301.576,731.451Z" style="fill:rgb(47,46,65);fill-rule:nonzero;"/>
    </g>
    <path d="M82.541,582.585L94.8,582.584L100.633,535.296L82.538,535.297L82.541,582.585Z" style="fill:rgb(255,184,184);fill-rule:nonzero;"/>
    <g transform="matrix(-1,4.57276e-05,-4.57276e-05,-1,376.054,1325.41)">
        <path d="M257.576,731.451L296.107,731.451L296.107,746.338L272.463,746.338C264.296,746.338 257.576,739.617 257.576,731.451L257.576,731.451Z" style="fill:rgb(47,46,65);fill-rule:nonzero;"/>
    </g>
    <g transform="matrix(1,0,0,1,-177.662,-152.369)">
        <path d="M270.917,720.411L258.942,719.781C256.474,719.651 254.513,717.585 254.513,715.114C254.513,715.014 254.517,714.914 254.523,714.814L268.836,556.348L334.747,574.133L341.097,572.401L321.239,712.686C320.891,714.852 319.07,716.5 316.881,716.63L303.972,717.232C303.885,717.237 303.799,717.239 303.712,717.239C301.148,717.239 299.038,715.129 299.038,712.565C299.038,712.522 299.039,712.479 299.04,712.436L301.379,628.24C301.38,628.225 301.38,628.211 301.38,628.196C301.38,627.341 300.676,626.638 299.822,626.638C299.086,626.638 298.445,627.159 298.296,627.88L275.739,716.692C275.302,718.857 273.378,720.425 271.17,720.418C271.086,720.418 271.002,720.416 270.917,720.411Z" style="fill:rgb(47,46,65);fill-rule:nonzero;"/>
    </g>
    <circle cx="128.742" cy="249.759" r="24.561" style="fill:rgb(255,184,184);"/>
    <g transform="matrix(1,0,0,1,-177.662,-152.369)">
        <path d="M265.512,474.287L268.212,532.554L269.189,553.753C269.268,555.637 270.488,557.293 272.263,557.928L335.599,580.872C336.111,581.062 336.653,581.157 337.199,581.152C337.206,581.152 337.214,581.152 337.221,581.152C339.768,581.152 341.865,579.056 341.865,576.509C341.865,576.46 341.864,576.412 341.862,576.364L339.266,471.597C338.915,453.935 325.939,438.876 308.522,435.92C307.909,435.826 307.286,435.733 306.663,435.65C296.03,434.33 285.34,437.79 277.498,445.091C269.377,452.56 264.982,463.266 265.512,474.287L265.512,474.287Z" style="fill:rgb(204,204,204);fill-rule:nonzero;"/>
    </g>
    <g transform="matrix(1,0,0,1,-177.662,-152.369)">
        <path d="M365.855,569.245C361.655,567.942 358.774,564.031 358.774,559.634C358.774,557.634 359.37,555.678 360.486,554.019L339.008,525.459L357.542,524.311L375.096,551.608C377.571,553.522 379.023,556.479 379.023,559.607C379.023,565.154 374.459,569.718 368.912,569.718C367.875,569.718 366.843,569.559 365.855,569.245L365.855,569.245Z" style="fill:rgb(255,184,184);fill-rule:nonzero;"/>
    </g>
    <g transform="matrix(1,0,0,1,-177.662,-152.369)">
        <path d="M350.753,548.85C349.604,548.384 348.689,547.476 348.212,546.332L315.854,469.237C315.211,467.708 314.879,466.065 314.879,464.405C314.879,457.568 320.505,451.942 327.342,451.942C332.356,451.942 336.902,454.966 338.838,459.59L371.197,536.686C372.186,539.05 371.058,541.809 368.696,542.804L354.331,548.833C353.189,549.316 351.9,549.323 350.753,548.85L350.753,548.85Z" style="fill:rgb(204,204,204);fill-rule:nonzero;"/>
    </g>
    <g transform="matrix(1,0,0,1,-177.662,-152.369)">
        <path d="M298.508,546.131L329.587,486.622C330.827,484.255 333.792,483.324 336.162,484.559L381.273,508.119C383.64,509.358 384.571,512.324 383.337,514.694L352.258,574.202C351.018,576.569 348.053,577.5 345.683,576.266L300.571,552.706C298.204,551.466 297.273,548.501 298.508,546.131Z" style="fill:rgb(63,61,86);fill-rule:nonzero;"/>
    </g>
    <g transform="matrix(1,0,0,1,-177.662,-152.369)">
        <path d="M319.351,518.943C317.878,515.03 314.113,512.424 309.932,512.424C307.729,512.424 305.586,513.148 303.834,514.483L274.055,494.728L274.005,513.298L302.29,529.21C304.21,531.41 306.991,532.675 309.91,532.675C315.457,532.675 320.021,528.111 320.021,522.564C320.021,521.326 319.794,520.099 319.351,518.943L319.351,518.943Z" style="fill:rgb(255,184,184);fill-rule:nonzero;"/>
    </g>
    <g transform="matrix(1,0,0,1,-177.662,-152.369)">
        <path d="M281.701,523.119L257.364,503.841C250.391,501.5 245.664,494.925 245.664,487.571C245.664,483.611 247.034,479.771 249.54,476.706L271.638,447.746C273.554,445.405 276.425,444.044 279.451,444.044C284.989,444.044 289.547,448.602 289.547,454.14C289.547,455.476 289.282,456.798 288.767,458.031L271.283,486.631L296.977,498.818C298.606,499.59 299.648,501.238 299.648,503.04C299.648,503.924 299.398,504.79 298.925,505.537L288.554,521.951C287.845,523.071 286.693,523.839 285.387,524.062C285.361,524.067 285.336,524.071 285.31,524.075C284.027,524.268 282.719,523.922 281.701,523.119Z" style="fill:rgb(204,204,204);fill-rule:nonzero;"/>
    </g>
    <g transform="matrix(1,0,0,1,-177.662,-152.369)">
        <path d="M287.845,418.574C287.769,418.352 287.731,418.119 287.731,417.884C287.731,416.774 288.596,415.84 289.702,415.755C291.045,415.829 292.302,416.449 293.178,417.47C294.067,418.495 295.102,419.384 296.249,420.107C297.437,420.706 299.049,420.621 299.726,419.479C300.362,418.407 299.926,416.971 299.541,415.726C298.561,412.557 298.013,409.271 297.911,405.956C297.8,402.255 298.322,398.394 300.371,395.508C303.015,391.783 307.742,390.369 312.216,390.471C316.69,390.574 321.092,391.955 325.523,392.828C327.053,393.129 328.852,393.284 329.875,392.098C330.963,390.837 330.563,388.796 330.101,387.094C328.9,382.677 327.626,378.109 324.835,374.542C321.819,370.836 317.507,368.408 312.774,367.752C308.23,367.189 303.615,367.713 299.312,369.28C292.302,371.49 286.131,375.788 281.629,381.599C276.99,387.776 274.983,395.547 276.051,403.199C277.095,409.863 280.63,415.89 285.937,420.053L287.845,418.574Z" style="fill:rgb(47,46,65);fill-rule:nonzero;"/>
    </g>
    <g transform="matrix(1,0,0,1,-177.662,-152.369)">
        <path d="M598.92,735.149C582.174,727.855 571.292,711.247 571.292,692.981C571.292,682.279 575.028,671.906 581.85,663.66C569.999,672.314 562.977,686.135 562.977,700.809C562.977,726.043 583.74,746.807 608.974,746.807C622.676,746.807 635.686,740.684 644.419,730.124C631.24,739.757 613.883,741.673 598.92,735.149Z" style="fill:rgb(63,61,86);fill-rule:nonzero;"/>
    </g>
</svg>
