<?xml version="1.0" encoding="UTF-8" standalone="no"?>
<!DOCTYPE svg PUBLIC "-//W3C//DTD SVG 1.1//EN" "http://www.w3.org/Graphics/SVG/1.1/DTD/svg11.dtd">
<svg width="100%" height="100%" viewBox="0 0 24 24" version="1.1" xmlns="http://www.w3.org/2000/svg" xmlns:xlink="http://www.w3.org/1999/xlink" xml:space="preserve" xmlns:serif="http://www.serif.com/" style="fill-rule:evenodd;clip-rule:evenodd;stroke-linejoin:round;stroke-miterlimit:2;">
    <path d="M22,10L21.375,8.625L20,8L21.375,7.375L22,6L22.625,7.375L24,8L22.625,8.625L22,10ZM19,6L18.05,3.95L16,3L18.05,2.05L19,0L19.95,2.05L22,3L19.95,3.95L19,6ZM9,22C8.45,22 7.979,21.804 7.588,21.413C7.196,21.021 7,20.55 7,20L11,20C11,20.55 10.804,21.021 10.413,21.413C10.021,21.804 9.55,22 9,22ZM5,19L5,17L13,17L13,19L5,19ZM5.25,16C4.1,15.317 3.188,14.4 2.513,13.25C1.838,12.1 1.5,10.85 1.5,9.5C1.5,7.417 2.229,5.646 3.688,4.188C5.146,2.729 6.917,2 9,2C11.083,2 12.854,2.729 14.313,4.188C15.771,5.646 16.5,7.417 16.5,9.5C16.5,10.85 16.163,12.1 15.488,13.25C14.813,14.4 13.9,15.317 12.75,16L5.25,16Z" style="fill:rgb(99,116,129);fill-rule:nonzero;"/>
</svg>
