<?xml version="1.0" encoding="UTF-8" standalone="no"?>
<!DOCTYPE svg PUBLIC "-//W3C//DTD SVG 1.1//EN" "http://www.w3.org/Graphics/SVG/1.1/DTD/svg11.dtd">
<svg width="100%" height="100%" viewBox="0 0 3404 3081" version="1.1" xmlns="http://www.w3.org/2000/svg" xmlns:xlink="http://www.w3.org/1999/xlink" xml:space="preserve" xmlns:serif="http://www.serif.com/" style="fill-rule:evenodd;clip-rule:evenodd;stroke-linejoin:round;stroke-miterlimit:2;">
    <g transform="matrix(1,0,0,1,-360.966,-706.397)">
        <g transform="matrix(5.77692,0,0,5.77692,-4700.51,-2870.91)">
            <path d="M1058.72,726.089L1058.72,632.489L1026.46,632.489L1026.46,726.089L981.823,726.089L981.823,620.681L940.927,620.681L940.927,762.953L1026.46,762.953L1026.46,832.649L1058.72,832.649L1058.72,762.953L1105.09,762.953L1105.09,726.089L1058.72,726.089Z" style="fill:rgb(161,161,215);fill-rule:nonzero;"/>
            <path d="M1211.36,829.481C1247.07,829.481 1268.38,806.729 1268.38,775.337L1268.38,671.369C1268.38,633.065 1235.55,619.241 1204.45,619.241L1191.2,619.241C1165.57,619.241 1127.26,632.777 1127.26,671.081L1127.26,777.929C1127.26,815.945 1152.89,829.481 1181.41,829.481L1211.36,829.481ZM1188.61,790.889C1162.98,790.889 1165.57,778.217 1165.57,765.545L1165.57,671.081C1165.57,658.121 1175.65,645.161 1188.32,645.161L1200.99,645.161C1213.09,645.161 1217.12,658.121 1217.12,671.081L1217.12,765.545C1217.12,778.217 1213.38,790.889 1200.7,790.889L1188.61,790.889Z" style="fill:rgb(161,161,215);fill-rule:nonzero;"/>
            <path d="M1419.01,726.089L1419.01,632.489L1386.75,632.489L1386.75,726.089L1342.11,726.089L1342.11,620.681L1301.21,620.681L1301.21,762.953L1386.75,762.953L1386.75,832.649L1419.01,832.649L1419.01,762.953L1465.38,762.953L1465.38,726.089L1419.01,726.089Z" style="fill:rgb(161,161,215);fill-rule:nonzero;"/>
        </g>
        <path d="M1202.56,2299.97C1529.11,2424 1781.66,2415.87 2052.48,2587C2052.48,2587 2116.94,2740.55 2077.62,2865.34C2056.41,2932.68 1825.75,3342.86 1994.45,3763.5L910.119,3761.44C891.895,3360.72 901.199,2793.7 1202.56,2299.97Z" style="fill:white;fill-rule:nonzero;"/>
        <path d="M913.942,3757.44L1988.56,3759.49C1927.43,3603.9 1913.4,3431.73 1946.87,3247.64C1974.5,3095.63 2027.66,2972.98 2056.21,2907.09C2064.85,2887.16 2071.09,2872.76 2073.81,2864.14C2093.84,2800.55 2086.01,2729.09 2075.91,2680.35C2065.99,2632.44 2051.99,2596.48 2049.26,2589.7C1886.42,2487.08 1727.79,2448.77 1559.86,2408.22C1447.97,2381.21 1332.32,2353.28 1204.25,2304.89C1134.12,2420.28 1075.83,2546.98 1030.96,2681.53C991.078,2801.13 960.626,2930.55 940.451,3066.17C923.16,3182.4 913.116,3302.58 909.743,3433.56C907.174,3533.4 908.506,3636.42 913.942,3757.44ZM2000.37,3767.52L1994.44,3767.5L906.295,3765.43L906.122,3761.62C900.534,3638.74 899.144,3534.44 901.746,3433.36C905.127,3302.04 915.199,3181.55 932.538,3064.99C952.781,2928.91 983.342,2799.04 1023.37,2679C1068.8,2542.78 1127.93,2414.55 1199.15,2297.89L1200.88,2295.06L1203.98,2296.24C1332.82,2345.17 1449.19,2373.27 1561.73,2400.45C1730.7,2441.24 1890.29,2479.78 2054.62,2583.62L2055.68,2584.29L2056.17,2585.46C2056.33,2585.84 2072.56,2624.82 2083.71,2678.56C2094.02,2728.28 2102,2801.26 2081.44,2866.54C2078.6,2875.56 2072.29,2890.12 2063.55,2910.27C2035.12,2975.87 1982.21,3097.96 1954.74,3249.07C1921.15,3433.83 1935.76,3606.41 1998.16,3762.01L2000.37,3767.52Z" style="fill-rule:nonzero;"/>
        <path d="M1788.93,2359.8C1787.41,2359.91 1785.89,2360.01 1784.36,2360.08C1758.51,2365.73 1732.7,2364.45 1706.94,2356.23C1672.83,2346.65 1643.43,2329.16 1618.73,2303.76L1579.71,2272.99C1576.47,2336.63 1563.94,2372.93 1543.49,2423.96C1528.68,2460.9 1626.6,2674.4 1626.6,2674.4C1626.6,2674.4 1717.79,2547.09 1738.9,2503.16C1755.06,2469.54 1780.4,2399.12 1788.93,2359.8Z" style="fill:white;fill-rule:nonzero;"/>
        <path d="M1583.26,2280.89C1579.31,2341.42 1566.3,2377.8 1547.2,2425.44C1543.96,2433.52 1544.34,2461.94 1583.2,2561.55C1601.05,2607.29 1620.26,2650.61 1627.37,2666.42C1645.23,2641.27 1717.1,2539.29 1735.3,2501.43C1750.16,2470.51 1774.26,2404.45 1783.8,2364.29C1757.86,2369.71 1731.62,2368.29 1705.79,2360.06C1671.27,2350.35 1641.07,2332.41 1616.04,2306.74L1583.26,2280.89ZM1625.84,2682.34L1622.96,2676.07C1622.72,2675.54 1598.17,2621.93 1575.76,2564.49C1562.58,2530.7 1552.69,2502.19 1546.38,2479.76C1538.17,2450.6 1536.01,2431.86 1539.77,2422.47C1559.37,2373.59 1572.45,2336.77 1575.72,2272.79L1576.11,2265.06L1621.59,2300.97C1645.68,2325.74 1674.76,2343.03 1708.02,2352.38L1708.15,2352.42C1733.12,2360.38 1758.47,2361.64 1783.51,2356.17L1783.84,2356.09L1784.18,2356.08C1785.61,2356.01 1787.07,2355.93 1788.62,2355.81L1793.97,2355.41L1792.83,2360.64C1784.04,2401.21 1758.56,2471.49 1742.51,2504.89C1721.49,2548.63 1633.58,2671.52 1629.85,2676.73L1625.84,2682.34Z" style="fill-rule:nonzero;"/>
        <path d="M1880.58,2261.82C1818.68,2355.68 1678.14,2403.24 1606.31,2355.86C1534.47,2308.48 1558.54,2184.11 1620.44,2090.25C1682.35,1996.39 1886.65,2003.23 1958.49,2050.6C2030.32,2097.98 1942.49,2167.96 1880.58,2261.82Z" style="fill-rule:nonzero;"/>
        <path d="M1862.25,2133.17C1826.38,2164.69 1754.99,2106.44 1706.55,2130C1674.12,2145.77 1659.24,2169.92 1658.3,2166.49C1632.1,2071.34 1547.78,2183.71 1615.71,2231.64C1616.11,2231.93 1614.52,2236.04 1595.26,2275.08C1608.55,2304.46 1666.4,2467.66 1750.49,2453.43C1819.13,2424.92 1926.07,2191.87 1862.25,2133.17Z" style="fill:white;fill-rule:nonzero;"/>
        <path d="M1599.68,2275.17C1600.9,2277.96 1602.39,2281.57 1604.2,2285.92C1614.08,2309.73 1632.48,2354.04 1657.8,2390.84C1688,2434.73 1718.81,2454.49 1749.37,2449.56C1794.55,2430.27 1858.62,2316.86 1874.27,2228.28C1883.5,2176.1 1873.27,2150.77 1861.96,2138.53C1842.07,2153.07 1814.59,2145.62 1785.58,2137.76C1758.48,2130.41 1730.46,2122.82 1708.3,2133.6C1687.3,2143.81 1674.01,2157.5 1666.88,2164.86C1662.37,2169.51 1660.5,2171.44 1657.57,2170.69C1656.05,2170.29 1654.88,2169.12 1654.44,2167.56C1648.46,2145.83 1638.91,2133.7 1627.54,2133.41C1615.72,2133.11 1602.92,2145.77 1597.03,2163.54C1590.53,2183.14 1592.63,2210.46 1618.01,2228.38C1621.1,2230.55 1619.84,2233.26 1616.48,2240.51C1613.56,2246.82 1608.06,2258.17 1599.68,2275.17ZM1740.04,2458.32C1667.11,2458.32 1616.46,2336.32 1596.81,2288.99C1594.63,2283.74 1592.91,2279.58 1591.62,2276.73L1590.84,2275.01L1591.67,2273.31C1595.9,2264.74 1607.77,2240.68 1611.03,2233.17C1584.31,2212.73 1582.24,2182.71 1589.43,2161.02C1596.52,2139.65 1612.24,2125.04 1627.74,2125.41C1636.05,2125.62 1650.93,2130.54 1660.51,2159.93C1660.72,2159.72 1660.93,2159.5 1661.14,2159.29C1668.08,2152.13 1682.53,2137.23 1704.8,2126.4C1729.66,2114.31 1759.15,2122.31 1787.67,2130.04C1816,2137.71 1842.76,2144.97 1859.61,2130.17L1862.31,2127.79L1864.96,2130.23C1884.53,2148.23 1890.47,2182.61 1882.15,2229.67C1874.49,2273.02 1855.3,2323.98 1829.5,2369.48C1803.36,2415.59 1775.12,2447.53 1752.03,2457.13L1751.61,2457.3L1751.16,2457.38C1747.4,2458.01 1743.69,2458.32 1740.04,2458.32Z" style="fill-rule:nonzero;"/>
        <path d="M1767.33,2218.35C1764.62,2224.43 1756.92,2226.68 1750.15,2223.37C1743.37,2220.06 1740.08,2212.44 1742.79,2206.37C1745.51,2200.29 1753.2,2198.04 1759.98,2201.35C1766.75,2204.66 1770.05,2212.27 1767.33,2218.35Z" style="fill-rule:nonzero;"/>
        <path d="M1835.23,2249.89C1832.58,2255.76 1826.18,2258.42 1820.95,2255.85C1815.71,2253.28 1813.62,2246.44 1816.28,2240.58C1818.93,2234.71 1825.33,2232.04 1830.56,2234.62C1835.8,2237.19 1837.89,2244.03 1835.23,2249.89Z" style="fill-rule:nonzero;"/>
        <path d="M1735.66,2182.08C1735.66,2182.08 1769.48,2161.9 1792.74,2194.44" style="fill:white;fill-rule:nonzero;"/>
        <path d="M1792.75,2198.44C1791.5,2198.44 1790.27,2197.86 1789.49,2196.76C1768.7,2167.69 1738.96,2184.78 1737.7,2185.52C1735.81,2186.64 1733.35,2186.02 1732.23,2184.12C1731.1,2182.22 1731.72,2179.78 1733.61,2178.65C1733.98,2178.42 1770.88,2156.98 1796,2192.11C1797.28,2193.91 1796.87,2196.41 1795.07,2197.69C1794.37,2198.2 1793.55,2198.44 1792.75,2198.44Z" style="fill-rule:nonzero;"/>
        <path d="M1829.24,2211.68C1829.24,2211.68 1848.74,2209.22 1851.6,2224.21" style="fill:white;fill-rule:nonzero;"/>
        <path d="M1851.59,2228.21C1849.71,2228.21 1848.03,2226.88 1847.67,2224.96C1845.55,2213.87 1830.37,2215.57 1829.73,2215.65C1827.53,2215.92 1825.55,2214.36 1825.28,2212.17C1825.01,2209.98 1826.55,2207.99 1828.74,2207.71C1836.77,2206.7 1852.71,2208.69 1855.52,2223.46C1855.94,2225.63 1854.51,2227.73 1852.34,2228.14C1852.09,2228.19 1851.84,2228.21 1851.59,2228.21Z" style="fill-rule:nonzero;"/>
        <path d="M1637.51,2179.58C1629.55,2151.06 1601.32,2166.54 1621.23,2208.65" style="fill:white;fill-rule:nonzero;"/>
        <path d="M1617.61,2210.36C1610.83,2196.01 1606.53,2176.87 1614.83,2166.22C1617.99,2162.18 1622.42,2160.38 1626.99,2161.28C1633.42,2162.55 1638.66,2168.83 1641.36,2178.5L1633.66,2180.65C1631.5,2172.93 1628,2169.63 1625.44,2169.13C1623.49,2168.74 1622.03,2170.01 1621.14,2171.14C1617.35,2176.01 1616.04,2188.31 1624.85,2206.94L1617.61,2210.36Z" style="fill-rule:nonzero;"/>
        <path d="M1764.38,2299.89C1750.7,2299.89 1737.24,2290.01 1736.51,2289.47C1734.74,2288.15 1734.37,2285.64 1735.69,2283.87C1737.01,2282.1 1739.52,2281.73 1741.29,2283.05C1741.47,2283.19 1760.08,2296.8 1771.96,2290.03C1778.65,2286.23 1781.99,2262.74 1782.85,2255.63C1784.77,2239.85 1784.96,2224.82 1784.96,2224.67C1784.99,2222.46 1786.81,2220.65 1789.01,2220.72C1791.22,2220.74 1792.99,2222.55 1792.96,2224.76C1792.84,2235.27 1791.47,2288.14 1775.92,2296.99C1772.25,2299.07 1768.31,2299.89 1764.38,2299.89Z" style="fill-rule:nonzero;"/>
        <path d="M1821.72,2377.97C1821.72,2377.97 1828.35,2342.91 1749.1,2302C1707.46,2280.51 1659.09,2297.42 1646.56,2276.71C1634.02,2256.01 1680.07,2146.49 1680.07,2146.49L1660,2149.87L1578.06,2302.78C1578.06,2302.78 1611.85,2455.84 1683.88,2480.66C1755.91,2505.48 1821.72,2377.97 1821.72,2377.97Z" style="fill-rule:nonzero;"/>
        <path d="M1686.7,2322.38C1686.7,2322.38 1716.74,2342.39 1748.76,2331.68C1748.76,2331.68 1748.05,2349.09 1779.87,2368.01C1779.87,2368.01 1749.87,2381.33 1720.81,2364.12C1691.74,2346.92 1686.7,2322.38 1686.7,2322.38Z" style="fill:white;fill-rule:nonzero;"/>
        <path d="M1694.26,2330.96C1698.37,2339.13 1706.7,2351.13 1722.84,2360.68C1741.23,2371.56 1760.28,2369.33 1770.55,2366.79C1760.56,2359.88 1753.29,2352.48 1748.9,2344.72C1747.15,2341.63 1746.14,2338.93 1745.55,2336.8C1724.69,2342.13 1705.38,2336.01 1694.26,2330.96ZM1753.62,2376.97C1743.21,2376.97 1730.95,2374.78 1718.77,2367.57C1688.52,2349.66 1683,2324.26 1682.78,2323.18L1680.83,2313.66L1688.92,2319.05C1689.2,2319.24 1717.78,2337.82 1747.5,2327.89L1753,2326.05L1752.76,2331.85C1752.76,2331.85 1752.8,2335.65 1756.27,2341.48C1759.57,2347.02 1766.7,2355.53 1781.92,2364.58L1788.57,2368.53L1781.49,2371.67C1780.71,2372.02 1769.25,2376.97 1753.62,2376.97Z" style="fill-rule:nonzero;"/>
        <path d="M1711.48,2854.19L1625.45,2681.08L1469,2832.51L1484.92,2381.22L1492.92,2381.5L1477.69,2812.97L1627.75,2667.73L1709.68,2832.59L1818.02,2475.51L1825.68,2477.83L1711.48,2854.19Z" style="fill-rule:nonzero;"/>
        <path d="M1527.37,2957.88L1525.3,2950.15L1598.89,2930.37L1622.62,2674.04L1630.58,2674.77L1606.34,2936.65L1527.37,2957.88Z" style="fill-rule:nonzero;"/>
        <path d="M1593.64,2788.63C1591.37,2794.97 1584.42,2798.27 1578.13,2796.02C1571.83,2793.76 1568.57,2786.79 1570.84,2780.46C1573.12,2774.13 1580.06,2770.82 1586.36,2773.08C1592.65,2775.33 1595.91,2782.3 1593.64,2788.63Z" style="fill:white;fill-rule:nonzero;"/>
        <path d="M1582.3,2776.37C1578.96,2776.37 1575.81,2778.46 1574.61,2781.81C1573.87,2783.87 1573.97,2786.09 1574.9,2788.07C1575.82,2790.04 1577.45,2791.52 1579.48,2792.25C1581.51,2792.98 1583.72,2792.87 1585.68,2791.93C1587.64,2791 1589.14,2789.35 1589.88,2787.28C1591.4,2783.04 1589.21,2778.35 1585,2776.84C1584.11,2776.52 1583.2,2776.37 1582.3,2776.37ZM1582.21,2800.73C1580.38,2800.73 1578.55,2800.41 1576.78,2799.78C1572.73,2798.33 1569.48,2795.37 1567.65,2791.46C1565.82,2787.56 1565.62,2783.17 1567.08,2779.11C1570.09,2770.71 1579.34,2766.31 1587.71,2769.31C1596.07,2772.31 1600.42,2781.58 1597.41,2789.98C1595.95,2794.05 1593,2797.31 1589.11,2799.16C1586.92,2800.2 1584.57,2800.73 1582.21,2800.73Z" style="fill-rule:nonzero;"/>
        <path d="M1590.05,2888.2C1587.78,2894.53 1580.83,2897.84 1574.54,2895.58C1568.24,2893.32 1564.98,2886.36 1567.25,2880.02C1569.52,2873.69 1576.47,2870.38 1582.76,2872.64C1589.06,2874.9 1592.32,2881.86 1590.05,2888.2Z" style="fill:white;fill-rule:nonzero;"/>
        <path d="M1578.69,2875.93C1577.5,2875.93 1576.32,2876.2 1575.22,2876.72C1573.25,2877.66 1571.76,2879.31 1571.02,2881.37C1569.49,2885.62 1571.68,2890.3 1575.89,2891.81C1580.09,2893.32 1584.76,2891.09 1586.28,2886.85C1587.02,2884.79 1586.92,2882.56 1585.99,2880.59C1585.07,2878.62 1583.45,2877.14 1581.41,2876.41C1580.53,2876.09 1579.61,2875.93 1578.69,2875.93ZM1578.59,2900.29C1576.79,2900.29 1574.97,2899.98 1573.19,2899.34C1564.83,2896.35 1560.47,2887.07 1563.49,2878.67C1564.94,2874.61 1567.89,2871.35 1571.78,2869.5C1575.68,2867.64 1580.06,2867.42 1584.11,2868.88C1588.17,2870.33 1591.41,2873.28 1593.24,2877.19C1595.07,2881.1 1595.27,2885.48 1593.81,2889.55C1591.44,2896.16 1585.21,2900.29 1578.59,2900.29Z" style="fill-rule:nonzero;"/>
        <path d="M2052.48,2587C2186.98,2637.02 2457.83,2775.55 2904.12,3194.85C3267.38,3536.15 3272.07,3760.29 3272.07,3760.29C3115.97,3778.39 3082.22,3752.42 2726.85,3739.68C2726.85,3739.68 2515.81,3353.56 2356.05,3226.12C2280.04,3165.48 2144.99,3070.73 1996.8,3070.33C2089.92,2768.54 2052.48,2587 2052.48,2587Z" style="fill:white;fill-rule:nonzero;"/>
        <path d="M2729.26,3735.76C2879.28,3741.18 2972.34,3749.01 3040.39,3754.73C3130.62,3762.32 3180.9,3766.54 3267.83,3756.75C3266.64,3742.86 3259.69,3689.67 3220.37,3606.57C3193.4,3549.56 3156.7,3489.85 3111.29,3429.09C3054.51,3353.12 2983.89,3275.29 2901.38,3197.77C2483.84,2805.47 2212.9,2652.36 2057.6,2593.21C2060.07,2609.06 2065.32,2651.37 2063.56,2715.61C2061.49,2790.85 2049.14,2912.48 2002.19,3066.38C2066.36,3067.54 2134.66,3086.26 2205.3,3122.07C2254.63,3147.07 2304.75,3180.08 2358.54,3222.99C2441.49,3289.16 2538.2,3425.66 2604.72,3528.52C2671,3631 2721.3,3721.34 2729.26,3735.76ZM3173.16,3770.47C3132.11,3770.47 3092.79,3767.16 3039.71,3762.7C2971.41,3756.96 2877.86,3749.09 2726.71,3743.67L2724.44,3743.59L2723.34,3741.6C2722.82,3740.63 2669.8,3643.87 2597.97,3532.82C2531.79,3430.48 2435.65,3294.74 2353.55,3229.25C2300.19,3186.68 2250.52,3153.95 2201.69,3129.2C2130.19,3092.96 2061.25,3074.5 1996.79,3074.33L1991.38,3074.31L1992.98,3069.15C2019.45,2983.34 2051.8,2852.32 2055.56,2715.39C2057.8,2633.69 2048.65,2588.26 2048.56,2587.81L2047.1,2580.74L2053.87,2583.25C2208.75,2640.84 2482.45,2793.19 2906.86,3191.94C2989.89,3269.94 3060.95,3348.29 3118.07,3424.79C3163.81,3486.06 3200.78,3546.3 3227.93,3603.85C3274.34,3702.19 3276.02,3757.89 3276.07,3760.21L3276.14,3763.85L3272.53,3764.26C3234.39,3768.69 3203.31,3770.47 3173.16,3770.47Z" style="fill-rule:nonzero;"/>
        <path d="M996.318,2846.12C853.778,2862.65 230.848,2331.34 391.13,1923.34C524.774,1583.16 1426.6,1780.59 1426.6,1780.59C1426.6,1780.59 1482.55,2047.99 1393.89,2065.14C1393.89,2065.14 889.256,2000.54 868.196,2085.97C853.696,2144.79 941.474,2202.07 1229.57,2309.02C1355.07,2355.6 1138.86,2829.58 996.318,2846.12Z" style="fill:white;fill-rule:nonzero;"/>
        <path d="M995.857,2842.14L996.318,2846.12L995.857,2842.14C1019.99,2839.34 1047.37,2822.82 1077.24,2793.04C1104.56,2765.8 1133.1,2727.94 1159.78,2683.55C1213.37,2594.4 1252.27,2492.49 1261.3,2417.62C1266.17,2377.2 1264.38,2326.2 1228.18,2312.77C1082.19,2258.58 988.49,2217.29 933.292,2182.84C905.072,2165.23 885.923,2148.89 874.751,2132.89C863.691,2117.05 860.275,2101.39 864.312,2085.02C869.629,2063.45 900.521,2049.61 958.75,2042.7C1003.44,2037.41 1064.12,2036.34 1139.11,2039.52C1261.85,2044.73 1383.71,2059.82 1393.74,2061.09C1404.45,2058.85 1413.08,2052.6 1420.13,2042C1460.37,1981.48 1427.77,1807.14 1423.19,1783.95C1397.58,1778.54 1184.09,1734.74 958.764,1728.39C818.598,1724.44 701.372,1735.54 610.352,1761.38C497.356,1793.46 424.852,1848.44 394.854,1924.8C360.968,2011.06 360.355,2108.46 393.032,2214.29C421.148,2305.34 472.684,2399.95 546.212,2495.48C619.426,2590.6 710.438,2680.73 802.483,2749.27C886.379,2811.74 958.666,2846.48 995.857,2842.14ZM989.678,2850.48C949.021,2850.48 878.282,2815.68 797.706,2755.69C705.088,2686.72 613.522,2596.05 539.873,2500.36C465.762,2404.07 413.786,2308.62 385.389,2216.65C352.163,2109.04 352.842,2009.87 387.407,1921.88C418.372,1843.06 492.661,1786.47 608.211,1753.67C700.031,1727.61 818.083,1716.42 959.093,1720.4C1198.86,1727.16 1425.19,1776.19 1427.45,1776.68L1429.98,1777.23L1430.51,1779.77C1430.61,1780.26 1440.92,1829.9 1445.64,1887.06C1452.04,1964.38 1445.69,2018 1426.79,2046.43C1418.48,2058.93 1407.67,2066.55 1394.65,2069.06L1394.02,2069.19L1393.38,2069.1C1392.12,2068.94 1265.88,2052.91 1138.73,2047.51C1064.17,2044.35 1003.93,2045.4 959.674,2050.65C906.671,2056.93 876.381,2069.48 872.079,2086.93C864.947,2115.87 885.132,2143.35 937.528,2176.06C992.255,2210.21 1085.5,2251.27 1230.96,2305.27C1263.49,2317.34 1276.72,2356.52 1269.24,2418.58C1260.09,2494.5 1220.77,2597.61 1166.64,2687.68C1108.04,2785.17 1046.13,2844.36 996.779,2850.09C994.528,2850.35 992.159,2850.48 989.678,2850.48Z" style="fill-rule:nonzero;"/>
        <path d="M1882.47,1868.67C1858.85,1854.14 1814.94,1828.39 1628.85,1803.37C1442.76,1778.35 1426.6,1780.59 1426.6,1780.59C1426.6,1780.59 1443.54,1832.59 1443.1,1960.16C1443.1,1960.16 1478.77,1928.48 1526.41,1970.42C1549.67,1990.9 1624.1,1996.64 1665.3,1988.65C1725.59,1976.94 1708.16,2061.54 1753.87,2046.1C1782.14,2036.55 1723.58,1952.66 1742.75,1943.06C1761.92,1933.47 1800.57,2069.74 1832.83,2052.43C1868.42,2033.34 1772.69,1933.85 1793.95,1923.22C1815.21,1912.59 1866.76,2062.65 1890.58,2045.08C1917.49,2025.22 1846.44,1929.01 1857.37,1918.08C1868.3,1907.15 1909.16,2029 1919.68,2015.98C1943.92,1985.97 1906.09,1883.2 1882.47,1868.67Z" style="fill:white;fill-rule:nonzero;"/>
        <path d="M1860.34,1920.73M1744.84,1938.53C1755.37,1938.53 1766,1959.17 1780.11,1986.59C1793.55,2012.69 1810.27,2045.17 1824.2,2049.5C1826.63,2050.26 1828.77,2050.07 1830.94,2048.91C1833.78,2047.38 1835.48,2045.29 1836.3,2042.32C1840.21,2028.12 1822.71,1998.94 1808.64,1975.49C1793.66,1950.51 1784.62,1934.73 1787.31,1925.48C1788.07,1922.87 1789.75,1920.85 1792.16,1919.65C1805.69,1912.88 1820.88,1940.82 1841.9,1979.48C1856.57,2006.46 1874.83,2040.03 1885.52,2042.41C1886.57,2042.64 1887.37,2042.48 1888.21,2041.86C1901.68,2031.92 1882.5,1992.39 1868.49,1963.53C1854.76,1935.24 1848.43,1921.37 1854.54,1915.25C1856.04,1913.75 1858,1913.13 1860.05,1913.49C1867.53,1914.79 1875.13,1929.53 1891.96,1965.4C1900,1982.52 1911.91,2007.89 1917.35,2012.43C1923.79,2003.32 1925.21,1986.03 1921.34,1963.48C1914.31,1922.48 1893.18,1879.95 1880.37,1872.08C1857.93,1858.28 1816.16,1832.59 1628.32,1807.33C1487.95,1788.46 1444.56,1785.14 1431.89,1784.62C1435.98,1800.34 1446.91,1851.81 1447.1,1952.58C1451.53,1950.03 1458.02,1947.1 1466.18,1945.63C1480.62,1943.03 1503.24,1944.7 1529.05,1967.42C1550.53,1986.32 1622.71,1992.84 1664.54,1984.72C1699.28,1977.97 1710.8,2001.18 1720.05,2019.83C1729.13,2038.14 1735.11,2048.21 1752.59,2042.31C1754.51,2041.66 1755.79,2040.56 1756.61,2038.83C1760.79,2029.99 1752.47,2007.9 1745.78,1990.16C1736.75,1966.19 1728.95,1945.5 1740.96,1939.49C1742.26,1938.84 1743.55,1938.53 1744.84,1938.53ZM1826.99,2057.96C1825.3,2057.96 1823.57,2057.69 1821.82,2057.14C1804.69,2051.81 1788.58,2020.52 1773,1990.26C1766.3,1977.24 1759.97,1964.94 1754.37,1956.55C1747.15,1945.73 1744.57,1946.63 1744.54,1946.64C1738.98,1949.42 1747.58,1972.24 1753.27,1987.33C1761.6,2009.46 1769.48,2030.35 1763.84,2042.26C1762.08,2045.97 1759.16,2048.54 1755.15,2049.89C1750.86,2051.34 1747.03,2051.99 1743.59,2051.99C1727.07,2051.99 1719.6,2036.94 1712.88,2023.39C1703.6,2004.67 1694.82,1986.99 1666.06,1992.57C1626.3,2000.29 1549.02,1995.66 1523.77,1973.42C1479.5,1934.46 1447.1,1961.97 1445.75,1963.16L1439.08,1969.01L1439.1,1960.15C1439.53,1834.67 1422.96,1782.34 1422.79,1781.83L1421.31,1777.28L1426.05,1776.63C1426.73,1776.53 1444.88,1774.6 1629.38,1799.4C1818.91,1824.88 1861.62,1851.15 1884.57,1865.26C1900.97,1875.35 1922.26,1921.52 1929.23,1962.13C1932.35,1980.34 1933.77,2004.9 1922.79,2018.5C1921.34,2020.29 1919.26,2021.17 1917.08,2020.91C1909.47,2019.99 1901.77,2005.11 1884.72,1968.8C1877.1,1952.57 1865.99,1928.9 1860.27,1922.72C1860.46,1924.52 1861.21,1927.79 1863.51,1933.6C1866.42,1940.94 1870.92,1950.21 1875.69,1960.04C1892.6,1994.9 1911.78,2034.41 1892.96,2048.29C1890.26,2050.29 1887.09,2050.95 1883.79,2050.22C1870.53,2047.27 1855.81,2021.81 1834.87,1983.3C1826.01,1966.99 1817.63,1951.59 1810.09,1940.62C1799.48,1925.17 1795.89,1926.73 1795.74,1926.8C1795.32,1927.01 1795.13,1927.24 1794.99,1927.72C1793.14,1934.08 1805.02,1953.89 1815.5,1971.37C1831.89,1998.69 1848.84,2026.95 1844.01,2044.45C1842.61,2049.53 1839.48,2053.4 1834.72,2055.96C1832.24,2057.29 1829.65,2057.96 1826.99,2057.96Z" style="fill-rule:nonzero;"/>
        <path d="M1740.62,1946.45L1740.58,1946.42C1724.17,1936.11 1708.67,1926.36 1693.77,1933.07L1690.49,1925.77C1709.3,1917.31 1727.37,1928.67 1744.84,1939.65L1740.62,1946.45Z" style="fill-rule:nonzero;"/>
        <path d="M1791.88,1926.65L1788.98,1924.89C1775.41,1916.63 1762.59,1908.83 1750.26,1911.32L1748.68,1903.48C1764.08,1900.38 1778.85,1909.36 1793.14,1918.05L1796.02,1919.8L1791.88,1926.65Z" style="fill-rule:nonzero;"/>
        <path d="M1857.37,1918.08C1845.09,1899.7 1827.66,1885.32 1808.29,1887.65" style="fill:white;fill-rule:nonzero;"/>
        <path d="M1854.05,1920.3C1847.7,1910.8 1830.59,1888.99 1808.77,1891.63L1807.81,1883.68C1818.66,1882.37 1839.96,1884.81 1860.7,1915.86L1854.05,1920.3Z" style="fill-rule:nonzero;"/>
        <path d="M1959.23,3637.48C1931.42,3515.98 1929.87,3385.87 1954.74,3249.07C1966.4,3184.9 1982.66,3125.95 1999.68,3074.35C2046.23,3074.87 2095.09,3084.88 2145.53,3104.19L1959.23,3637.48Z" style="fill:rgb(161,161,215);fill-rule:nonzero;"/>
        <path d="M1916.66,3759.35L1881.33,3759.29C1870.49,3736.61 1683.75,3335.09 1912.5,3070.33C1938.57,3040.15 1973.06,3017.48 2012.25,3001.35C2005.82,3026.06 1999.26,3048.78 1993.02,3069C1975.57,3121.56 1958.83,3181.85 1946.87,3247.64C1920.96,3390.13 1923.51,3525.47 1954.33,3651.51L1916.66,3759.35Z" style="fill:rgb(161,161,215);fill-rule:nonzero;"/>
        <path d="M1916.09,3760.98C1894.12,3760.59 1881.81,3760.29 1881.81,3760.29C1881.81,3760.29 1881.64,3759.95 1881.33,3759.29L1916.66,3759.35L1916.09,3760.98ZM1954.33,3651.51C1923.51,3525.47 1920.96,3390.13 1946.87,3247.64C1958.83,3181.85 1975.57,3121.56 1993.02,3069C1993.01,3069.05 1992.99,3069.1 1992.98,3069.15L1991.38,3074.31L1996.79,3074.33C1997.75,3074.33 1998.72,3074.34 1999.68,3074.35C1982.66,3125.95 1966.4,3184.9 1954.74,3249.07C1929.87,3385.87 1931.42,3515.98 1959.23,3637.48L1954.33,3651.51Z" style="fill-rule:nonzero;"/>
        <path d="M2148.17,3096.64C2097.79,3077.37 2048.89,3067.23 2002.19,3066.38C2009.41,3042.71 2015.82,3019.8 2021.49,2997.7C2072.79,2978.27 2131.37,2969.56 2189.31,2969.56C2190.39,2969.56 2191.48,2969.56 2192.57,2969.57L2148.17,3096.64Z" style="fill:rgb(161,161,215);fill-rule:nonzero;"/>
        <path d="M2145.53,3104.19C2095.09,3084.88 2046.23,3074.87 1999.68,3074.35C1998.72,3074.34 1997.75,3074.33 1996.79,3074.33L1991.38,3074.31L1992.98,3069.15C1992.99,3069.1 1993.01,3069.05 1993.02,3069C1999.26,3048.78 2005.82,3026.06 2012.25,3001.35C2015.3,3000.1 2018.39,2998.88 2021.49,2997.7C2015.82,3019.8 2009.41,3042.71 2002.19,3066.38C2048.89,3067.23 2097.79,3077.37 2148.17,3096.64L2145.53,3104.19Z" style="fill-rule:nonzero;"/>
        <path d="M1228.81,2422.78C1049.71,2422.78 682.56,2180.57 749.472,2016.74C781.56,1938.17 880.356,1907.57 991.422,1907.57C1161.75,1907.57 1360.92,1979.55 1392.41,2060.92C1375.77,2058.85 1257.85,2044.56 1139.11,2039.52C1111.01,2038.33 1084.92,2037.73 1060.93,2037.73C1020.89,2037.73 986.694,2039.39 958.75,2042.7C900.521,2049.61 869.629,2063.45 864.312,2085.02C860.275,2101.39 863.691,2117.05 874.751,2132.89C885.923,2148.89 905.072,2165.23 933.292,2182.84C988.49,2217.29 1082.19,2258.58 1228.18,2312.77C1264.38,2326.2 1266.17,2377.2 1261.3,2417.62C1261.22,2418.29 1261.13,2418.97 1261.05,2419.65C1251.2,2421.76 1240.41,2422.78 1228.81,2422.78Z" style="fill:rgb(161,161,215);fill-rule:nonzero;"/>
        <path d="M1325.55,2337.91C1297.44,2329.23 1268.8,2319.8 1239.55,2309.34C1236.86,2307.75 1233.99,2306.39 1230.96,2305.27C1085.5,2251.27 992.255,2210.21 937.528,2176.06C885.132,2143.35 864.947,2115.87 872.079,2086.93C876.381,2069.48 906.671,2056.93 959.674,2050.65C987.32,2047.37 1021.2,2045.73 1060.91,2045.73C1084.77,2045.73 1110.74,2046.32 1138.73,2047.51C1265.88,2052.91 1392.12,2068.94 1393.38,2069.1L1394.02,2069.19L1394.65,2069.06C1394.77,2069.04 1394.89,2069.02 1395.01,2068.99C1409.47,2123.56 1353.23,2136.23 1282.73,2136.23C1252.16,2136.23 1218.89,2133.85 1187.56,2131.46C1156.22,2129.08 1126.81,2126.7 1103.93,2126.7C1076.41,2126.7 1058.32,2130.14 1057.68,2141.18C1054.99,2187.08 1325.71,2218.75 1325.55,2337.91Z" style="fill:rgb(161,161,215);fill-rule:nonzero;"/>
        <path d="M1269.37,2417.53C1274.41,2374.54 1269.43,2342.63 1254.91,2323.23C1278.69,2331.47 1302.09,2339.06 1325.12,2346.14C1323.98,2357.15 1320.59,2368.85 1314.54,2381.36C1305.71,2399.65 1290.04,2411.38 1269.37,2417.53Z" style="fill:rgb(161,161,215);fill-rule:nonzero;"/>
        <path d="M1325.12,2346.14C1302.09,2339.06 1278.69,2331.47 1254.91,2323.23C1250.62,2317.49 1245.49,2312.85 1239.55,2309.34C1268.8,2319.8 1297.44,2329.23 1325.55,2337.91C1325.55,2340.61 1325.4,2343.35 1325.12,2346.14Z" style="fill-rule:nonzero;"/>
        <path d="M1261.05,2419.65C1261.13,2418.97 1261.22,2418.29 1261.3,2417.62C1266.17,2377.2 1264.38,2326.2 1228.18,2312.77C1082.19,2258.58 988.49,2217.29 933.292,2182.84C905.072,2165.23 885.923,2148.89 874.751,2132.89C863.691,2117.05 860.275,2101.39 864.312,2085.02C869.629,2063.45 900.521,2049.61 958.75,2042.7C986.694,2039.39 1020.89,2037.73 1060.93,2037.73C1084.92,2037.73 1111.01,2038.33 1139.11,2039.52C1257.85,2044.56 1375.77,2058.85 1392.41,2060.92C1392.95,2062.32 1393.45,2063.73 1393.89,2065.14C1394.3,2066.44 1394.68,2067.73 1395.01,2068.99C1394.89,2069.02 1394.77,2069.04 1394.65,2069.06L1394.02,2069.19L1393.38,2069.1C1392.12,2068.94 1265.88,2052.91 1138.73,2047.51C1110.74,2046.32 1084.77,2045.73 1060.91,2045.73C1021.2,2045.73 987.32,2047.37 959.674,2050.65C906.671,2056.93 876.381,2069.48 872.079,2086.93C864.947,2115.87 885.132,2143.35 937.528,2176.06C992.255,2210.21 1085.5,2251.27 1230.96,2305.27C1233.99,2306.39 1236.86,2307.75 1239.55,2309.34C1245.49,2312.85 1250.62,2317.49 1254.91,2323.23C1269.43,2342.63 1274.41,2374.54 1269.37,2417.53C1266.68,2418.33 1263.9,2419.04 1261.05,2419.65Z" style="fill-rule:nonzero;"/>
        <rect x="1069.36" y="3746.14" width="1008.26" height="37.24" style="fill-rule:nonzero;"/>
        <path d="M3315.3,3783.38L1912.5,3783.38L2254.17,2805.36L3656.97,2805.36L3315.3,3783.38Z" style="fill:white;fill-rule:nonzero;"/>
        <path d="M1918.13,3779.38L3312.46,3779.38L3651.33,2809.36L2257.01,2809.36L1918.13,3779.38ZM3318.14,3787.38L1906.87,3787.38L1908.72,3782.06L2251.33,2801.36L3662.6,2801.36L3318.14,3787.38Z" style="fill-rule:nonzero;"/>
        <path d="M2967.46,3318.53C2943.76,3389.1 2857.07,3444.93 2773.82,3443.24C2690.58,3441.55 2642.31,3382.96 2666.01,3312.39C2689.72,3241.82 2776.41,3185.99 2859.66,3187.68C2942.9,3189.38 2991.17,3247.96 2967.46,3318.53Z" style="fill:rgb(213,253,206);fill-rule:nonzero;"/>
        <path d="M364.974,3760.29L3618.21,3760.29" style="fill:none;fill-rule:nonzero;"/>
        <rect x="364.974" y="3756.29" width="3253.24" height="8" style="fill-rule:nonzero;"/>
        <g transform="matrix(1,0,0,1,1134.54,675.064)">
            <path d="M1326.65,1459.17C1326.65,1444.13 1332.79,1436.6 1345.08,1436.6C1357.67,1436.6 1363.97,1444.13 1363.97,1459.17C1363.97,1474.22 1357.67,1481.75 1345.08,1481.75C1332.79,1481.75 1326.65,1474.22 1326.65,1459.17ZM1334.25,1390.3L1334.25,1381.78C1334.25,1362.89 1337.13,1347.46 1342.89,1335.48C1348.65,1323.5 1359.28,1310.68 1374.79,1297.01L1395.76,1278.81C1406.81,1269.45 1414.72,1260.16 1419.48,1250.94C1424.24,1241.73 1426.62,1231.13 1426.62,1219.16C1426.62,1199.65 1420.21,1184.14 1407.39,1172.63C1394.56,1161.11 1377.71,1155.35 1356.83,1155.35C1344.69,1155.35 1333.33,1156.7 1322.74,1159.38C1312.14,1162.07 1300.7,1166.41 1288.42,1172.4L1279.89,1153.97C1296.78,1146.6 1310.95,1141.68 1322.39,1139.23C1333.83,1136.77 1345.62,1135.54 1357.75,1135.54C1385.85,1135.54 1407.96,1143.11 1424.09,1158.23C1440.21,1173.36 1448.27,1194.13 1448.27,1220.54C1448.27,1230.98 1446.89,1240.12 1444.13,1247.95C1441.36,1255.78 1437.48,1263.04 1432.5,1269.72C1427.5,1276.4 1421.48,1282.85 1414.41,1289.06C1407.35,1295.28 1399.52,1302 1390.92,1309.22C1381.09,1317.51 1373.53,1325.08 1368.23,1331.91C1362.93,1338.74 1359.09,1345.92 1356.71,1353.45C1354.33,1360.97 1353.14,1372.18 1353.14,1387.08L1353.14,1390.3L1334.25,1390.3Z" style="fill-rule:nonzero;"/>
        </g>
        <g transform="matrix(1,0,0,1,834.538,805.064)">
            <path d="M1326.65,1459.17C1326.65,1444.13 1332.79,1436.6 1345.08,1436.6C1357.67,1436.6 1363.97,1444.13 1363.97,1459.17C1363.97,1474.22 1357.67,1481.75 1345.08,1481.75C1332.79,1481.75 1326.65,1474.22 1326.65,1459.17ZM1334.25,1390.3L1334.25,1381.78C1334.25,1362.89 1337.13,1347.46 1342.89,1335.48C1348.65,1323.5 1359.28,1310.68 1374.79,1297.01L1395.76,1278.81C1406.81,1269.45 1414.72,1260.16 1419.48,1250.94C1424.24,1241.73 1426.62,1231.13 1426.62,1219.16C1426.62,1199.65 1420.21,1184.14 1407.39,1172.63C1394.56,1161.11 1377.71,1155.35 1356.83,1155.35C1344.69,1155.35 1333.33,1156.7 1322.74,1159.38C1312.14,1162.07 1300.7,1166.41 1288.42,1172.4L1279.89,1153.97C1296.78,1146.6 1310.95,1141.68 1322.39,1139.23C1333.83,1136.77 1345.62,1135.54 1357.75,1135.54C1385.85,1135.54 1407.96,1143.11 1424.09,1158.23C1440.21,1173.36 1448.27,1194.13 1448.27,1220.54C1448.27,1230.98 1446.89,1240.12 1444.13,1247.95C1441.36,1255.78 1437.48,1263.04 1432.5,1269.72C1427.5,1276.4 1421.48,1282.85 1414.41,1289.06C1407.35,1295.28 1399.52,1302 1390.92,1309.22C1381.09,1317.51 1373.53,1325.08 1368.23,1331.91C1362.93,1338.74 1359.09,1345.92 1356.71,1353.45C1354.33,1360.97 1353.14,1372.18 1353.14,1387.08L1353.14,1390.3L1334.25,1390.3Z" style="fill-rule:nonzero;"/>
        </g>
        <g transform="matrix(1,0,0,1,1419.54,975.064)">
            <path d="M1326.65,1459.17C1326.65,1444.13 1332.79,1436.6 1345.08,1436.6C1357.67,1436.6 1363.97,1444.13 1363.97,1459.17C1363.97,1474.22 1357.67,1481.75 1345.08,1481.75C1332.79,1481.75 1326.65,1474.22 1326.65,1459.17ZM1334.25,1390.3L1334.25,1381.78C1334.25,1362.89 1337.13,1347.46 1342.89,1335.48C1348.65,1323.5 1359.28,1310.68 1374.79,1297.01L1395.76,1278.81C1406.81,1269.45 1414.72,1260.16 1419.48,1250.94C1424.24,1241.73 1426.62,1231.13 1426.62,1219.16C1426.62,1199.65 1420.21,1184.14 1407.39,1172.63C1394.56,1161.11 1377.71,1155.35 1356.83,1155.35C1344.69,1155.35 1333.33,1156.7 1322.74,1159.38C1312.14,1162.07 1300.7,1166.41 1288.42,1172.4L1279.89,1153.97C1296.78,1146.6 1310.95,1141.68 1322.39,1139.23C1333.83,1136.77 1345.62,1135.54 1357.75,1135.54C1385.85,1135.54 1407.96,1143.11 1424.09,1158.23C1440.21,1173.36 1448.27,1194.13 1448.27,1220.54C1448.27,1230.98 1446.89,1240.12 1444.13,1247.95C1441.36,1255.78 1437.48,1263.04 1432.5,1269.72C1427.5,1276.4 1421.48,1282.85 1414.41,1289.06C1407.35,1295.28 1399.52,1302 1390.92,1309.22C1381.09,1317.51 1373.53,1325.08 1368.23,1331.91C1362.93,1338.74 1359.09,1345.92 1356.71,1353.45C1354.33,1360.97 1353.14,1372.18 1353.14,1387.08L1353.14,1390.3L1334.25,1390.3Z" style="fill-rule:nonzero;"/>
        </g>
    </g>
</svg>
