<?xml version="1.0" encoding="UTF-8" standalone="no"?>
<!DOCTYPE svg PUBLIC "-//W3C//DTD SVG 1.1//EN" "http://www.w3.org/Graphics/SVG/1.1/DTD/svg11.dtd">
<svg width="100%" height="100%" viewBox="0 0 2151 1706" version="1.1" xmlns="http://www.w3.org/2000/svg" xmlns:xlink="http://www.w3.org/1999/xlink" xml:space="preserve" xmlns:serif="http://www.serif.com/" style="fill-rule:evenodd;clip-rule:evenodd;stroke-linejoin:round;stroke-miterlimit:2;">
    <g transform="matrix(1,0,0,1,-2628.65,-415.257)">
        <g transform="matrix(0.690989,0,0,0.690989,2087.02,-928.876)">
            <path d="M2212.91,2591.33L1731.19,2591.33L1803.56,1947.65L2285.28,1947.65L2212.91,2591.33Z" style="fill:white;fill-rule:nonzero;"/>
            <path d="M1733.89,2588.91L2210.75,2588.91L2282.58,1950.06L1805.72,1950.06L1733.89,2588.91ZM2212.91,2593.75L1731.19,2593.75C1730.5,2593.75 1729.85,2593.45 1729.39,2592.94C1728.93,2592.43 1728.71,2591.74 1728.79,2591.06L1801.16,1947.38C1801.3,1946.16 1802.33,1945.23 1803.56,1945.23L2285.28,1945.23C2285.97,1945.23 2286.62,1945.52 2287.08,1946.04C2287.54,1946.55 2287.76,1947.23 2287.68,1947.92L2215.31,2591.6C2215.17,2592.82 2214.14,2593.75 2212.91,2593.75Z" style="fill-rule:nonzero;"/>
            <g>
                <path d="M1942.6,2127.65L1800.88,2127.65L1818.21,1973.5L1959.93,1973.5L1942.6,2127.65Z" style="fill:white;fill-rule:nonzero;"/>
                <path d="M1942.6,2127.65C1942.6,2127.65 1944.1,2081.81 1938.67,2066.85C1933.23,2051.88 1831.97,2054.28 1819.52,2066.26C1807.08,2078.23 1800.9,2127.46 1800.9,2127.46L1942.6,2127.65Z" style="fill-rule:nonzero;"/>
                <path d="M1896.76,2050.16C1896.76,2050.16 1889.05,2081.08 1870.48,2060.71C1864.41,2054.05 1864.95,2051.56 1864.95,2051.56L1846.21,2058.89C1846.21,2058.89 1867.25,2084.62 1888.61,2083.5C1898.7,2082.97 1907.88,2057.46 1907.88,2057.46L1896.76,2050.16Z" style="fill:white;fill-rule:nonzero;"/>
                <path d="M1862.97,2056.66L1866.29,2029.52L1898.69,2042.35L1896.74,2059.71L1891.23,2081.16C1891.23,2081.16 1863.88,2066.13 1862.97,2056.66Z" style="fill:rgb(213,253,206);fill-rule:nonzero;"/>
                <path d="M1912.06,2012.02C1909.64,2020.09 1900.88,2025.47 1892.5,2024.03C1884.13,2022.6 1879.3,2014.9 1881.73,2006.83C1884.15,1998.76 1892.91,1993.38 1901.28,1994.81C1909.66,1996.24 1914.48,2003.95 1912.06,2012.02Z" style="fill-rule:nonzero;"/>
                <path d="M1894.13,2010.23C1891.71,2018.3 1882.95,2023.68 1874.57,2022.24C1866.2,2020.81 1861.37,2013.1 1863.8,2005.03C1866.22,1996.96 1874.98,1991.58 1883.36,1993.02C1891.73,1994.45 1896.56,2002.16 1894.13,2010.23Z" style="fill-rule:nonzero;"/>
                <path d="M1884.34,1998.17C1875.46,1999.92 1868.54,2007.79 1866.15,2017.6C1862.85,2018.57 1860.62,2022.73 1861.13,2027.18C1861.56,2031 1863.86,2033.84 1866.62,2034.36C1870.13,2045.67 1879.85,2052.73 1890.29,2050.68C1902.36,2048.3 1910.82,2034.61 1909.18,2020.11C1907.54,2005.61 1896.42,1995.79 1884.34,1998.17Z" style="fill:rgb(213,253,206);fill-rule:nonzero;"/>
                <path d="M1909.67,2021.19C1909.56,2019.7 1909.34,2018.26 1909.04,2016.87C1908.09,2021.45 1910.51,2028.39 1906.13,2030.79C1903.1,2032.44 1897.91,2029.37 1894.02,2031.7C1870.88,2045.54 1866.63,2013.61 1866.63,2013.61C1866.4,2013.62 1867.15,2015.48 1865.73,2016.62C1865.73,2016.62 1867.55,2022.23 1866.86,2028.03C1866.68,2029.52 1866.1,2032.32 1865.34,2033.56C1865.4,2033.58 1865.46,2033.6 1865.52,2033.61C1865.8,2046.59 1882.83,2058.84 1893.6,2057.25C1906.06,2055.41 1910.74,2035.96 1909.67,2021.19Z" style="fill-rule:nonzero;"/>
                <path d="M1886.23,2038.68C1887.35,2039.97 1893.51,2039.51 1896.6,2035.7C1901.02,2038.82 1902.99,2033.88 1902.99,2033.88C1902.99,2033.88 1901.79,2041.66 1896.58,2043.43C1891.36,2045.2 1886.23,2038.68 1886.23,2038.68Z" style="fill:rgb(213,253,206);fill-rule:nonzero;"/>
                <path d="M1887.79,2008.11C1886.19,2013.41 1880.44,2016.94 1874.94,2016C1869.45,2015.06 1866.28,2010 1867.87,2004.7C1869.46,1999.4 1875.21,1995.87 1880.71,1996.81C1886.21,1997.75 1889.38,2002.81 1887.79,2008.11Z" style="fill-rule:nonzero;"/>
                <path d="M1894.31,1999.8C1892.72,2005.1 1886.97,2008.63 1881.47,2007.69C1875.97,2006.75 1872.8,2001.69 1874.39,1996.39C1875.98,1991.09 1881.73,1987.56 1887.23,1988.5C1892.73,1989.45 1895.9,1994.5 1894.31,1999.8Z" style="fill-rule:nonzero;"/>
                <path d="M1910.14,2000.79C1908,2007.92 1900.26,2012.68 1892.85,2011.41C1885.45,2010.14 1881.18,2003.33 1883.33,1996.2C1885.47,1989.06 1893.21,1984.31 1900.62,1985.57C1908.02,1986.84 1912.29,1993.65 1910.14,2000.79Z" style="fill-rule:nonzero;"/>
                <path d="M1917.38,1995.4C1916.06,1999.79 1911.3,2002.71 1906.75,2001.93C1902.2,2001.15 1899.57,1996.97 1900.89,1992.58C1902.21,1988.2 1906.97,1985.27 1911.52,1986.05C1916.07,1986.83 1918.69,1991.02 1917.38,1995.4Z" style="fill-rule:nonzero;"/>
                <path d="M1888.33,2127.27L1885.1,2126.93L1889.76,2082.9L1890.29,2082.48C1890.53,2082.29 1890.8,2081.95 1890.85,2081.81C1890.85,2081.81 1890.83,2081.86 1890.84,2081.95C1890.86,2082.07 1890.96,2082.2 1891.02,2082.24L1891.54,2079.03C1892.64,2079.19 1893.91,2080.07 1894.07,2081.6C1894.21,2082.86 1893.43,2083.92 1892.85,2084.53L1888.33,2127.27Z" style="fill:rgb(213,253,206);fill-rule:nonzero;"/>
            </g>
            <path d="M1918.1,2166.82L1796.55,2166.82L1799.14,2143.91L1920.69,2143.91L1918.1,2166.82Z" style="fill-rule:nonzero;"/>
            <path d="M1980.59,2260.12L1786,2260.12L1788.59,2237.22L1983.18,2237.22L1980.59,2260.12Z" style="fill:rgb(204,204,204);fill-rule:nonzero;"/>
            <path d="M2108.45,2260.12L1986.9,2260.12L1989.49,2237.22L2111.04,2237.22L2108.45,2260.12Z" style="fill:rgb(204,204,204);fill-rule:nonzero;"/>
            <path d="M1946.69,2229.02L1789.52,2229.02L1792.11,2206.12L1949.28,2206.12L1946.69,2229.02Z" style="fill:rgb(204,204,204);fill-rule:nonzero;"/>
            <path d="M2134.75,2229.02L1953.6,2229.02L1956.19,2206.12L2137.34,2206.12L2134.75,2229.02Z" style="fill:rgb(204,204,204);fill-rule:nonzero;"/>
            <path d="M1961.37,2197.92L1793.03,2197.92L1795.62,2175.01L1963.96,2175.01L1961.37,2197.92Z" style="fill:rgb(204,204,204);fill-rule:nonzero;"/>
            <path d="M2169.17,2197.92L2095.03,2197.92L2097.62,2175.01L2171.76,2175.01L2169.17,2197.92Z" style="fill:rgb(204,204,204);fill-rule:nonzero;"/>
            <path d="M2089.41,2197.92L1967.21,2197.92L1969.8,2175.01L2092,2175.01L2089.41,2197.92Z" style="fill:rgb(204,204,204);fill-rule:nonzero;"/>
            <path d="M1902.46,2305.92L1780.91,2305.92L1783.5,2283.01L1905.05,2283.01L1902.46,2305.92Z" style="fill-rule:nonzero;"/>
            <path d="M1964.95,2399.22L1770.36,2399.22L1772.95,2376.32L1967.54,2376.32L1964.95,2399.22Z" style="fill:rgb(204,204,204);fill-rule:nonzero;"/>
            <path d="M2092.81,2399.22L1971.26,2399.22L1973.85,2376.32L2095.4,2376.32L2092.81,2399.22Z" style="fill:rgb(204,204,204);fill-rule:nonzero;"/>
            <path d="M1931.05,2368.12L1773.88,2368.12L1776.47,2345.21L1933.64,2345.21L1931.05,2368.12Z" style="fill:rgb(204,204,204);fill-rule:nonzero;"/>
            <path d="M2119.11,2368.12L1937.96,2368.12L1940.55,2345.21L2121.7,2345.21L2119.11,2368.12Z" style="fill:rgb(204,204,204);fill-rule:nonzero;"/>
            <path d="M1945.73,2337.02L1777.39,2337.02L1779.98,2314.11L1948.32,2314.11L1945.73,2337.02Z" style="fill:rgb(204,204,204);fill-rule:nonzero;"/>
            <path d="M2073.77,2337.02L1951.57,2337.02L1954.16,2314.11L2076.36,2314.11L2073.77,2337.02Z" style="fill:rgb(204,204,204);fill-rule:nonzero;"/>
            <path d="M1886.66,2446.42L1765.11,2446.42L1767.7,2423.52L1889.25,2423.52L1886.66,2446.42Z" style="fill-rule:nonzero;"/>
            <path d="M1949.15,2539.73L1754.56,2539.73L1757.15,2516.82L1951.74,2516.82L1949.15,2539.73Z" style="fill:rgb(204,204,204);fill-rule:nonzero;"/>
            <path d="M1915.25,2508.63L1758.08,2508.63L1760.67,2485.72L1917.84,2485.72L1915.25,2508.63Z" style="fill:rgb(204,204,204);fill-rule:nonzero;"/>
            <path d="M2103.31,2508.63L1922.16,2508.63L1924.75,2485.72L2105.9,2485.72L2103.31,2508.63Z" style="fill:rgb(204,204,204);fill-rule:nonzero;"/>
            <path d="M1929.93,2477.53L1761.59,2477.53L1764.18,2454.62L1932.52,2454.62L1929.93,2477.53Z" style="fill:rgb(204,204,204);fill-rule:nonzero;"/>
            <path d="M2137.73,2477.53L2063.6,2477.53L2066.19,2454.62L2140.32,2454.62L2137.73,2477.53Z" style="fill:rgb(204,204,204);fill-rule:nonzero;"/>
            <path d="M2057.97,2477.53L1935.78,2477.53L1938.37,2454.62L2060.56,2454.62L2057.97,2477.53Z" style="fill:rgb(204,204,204);fill-rule:nonzero;"/>
            <path d="M1687.76,2591.33L1206.05,2591.33L1278.42,1947.65L1760.14,1947.65L1687.76,2591.33Z" style="fill:white;fill-rule:nonzero;"/>
            <path d="M1208.75,2588.91L1685.6,2588.91L1757.43,1950.06L1280.58,1950.06L1208.75,2588.91ZM1687.76,2593.75L1206.05,2593.75C1205.36,2593.75 1204.7,2593.45 1204.24,2592.94C1203.79,2592.43 1203.57,2591.74 1203.64,2591.06L1276.02,1947.38C1276.16,1946.16 1277.19,1945.23 1278.42,1945.23L1760.14,1945.23C1760.82,1945.23 1761.48,1945.52 1761.94,1946.04C1762.4,1946.55 1762.62,1947.23 1762.54,1947.92L1690.17,2591.6C1690.03,2592.82 1688.99,2593.75 1687.76,2593.75Z" style="fill-rule:nonzero;"/>
            <path d="M1417.46,2127.65L1275.73,2127.65L1293.07,1973.5L1434.79,1973.5L1417.46,2127.65Z" style="fill:white;fill-rule:nonzero;"/>
            <path d="M1417.36,2128.55C1413.86,2120.07 1411.64,2056.63 1387.85,2050.23C1374.8,2046.72 1313.14,2045.32 1295.07,2054.64C1287.82,2060.98 1276.62,2109.04 1276,2128.21L1417.36,2128.55Z" style="fill:rgb(204,204,204);fill-rule:nonzero;"/>
            <path d="M1302.3,2051.99L1293.75,2128.03L1305.55,2128.1L1314.37,2049.65C1309.9,2050.27 1305.8,2051.05 1302.3,2051.99Z" style="fill-rule:nonzero;"/>
            <path d="M1328.82,2048.22L1319.84,2128.1L1331.62,2128.34L1340.69,2047.67C1336.71,2047.78 1332.72,2047.96 1328.82,2048.22Z" style="fill-rule:nonzero;"/>
            <path d="M1354.99,2047.56L1345.9,2128.39L1357.71,2128.4L1366.76,2047.91C1363.07,2047.73 1359.1,2047.61 1354.99,2047.56Z" style="fill-rule:nonzero;"/>
            <path d="M1387.85,2050.23C1386.23,2049.79 1383.86,2049.38 1380.92,2049.02L1371.98,2128.55L1383.79,2128.55L1392.41,2051.92C1391.01,2051.26 1389.49,2050.68 1387.85,2050.23Z" style="fill-rule:nonzero;"/>
            <path d="M1387.26,1992.69C1395.97,2006.69 1388.12,2041.01 1388.12,2041.01L1308.8,2041.01C1308.8,2041.01 1314.79,2001.89 1338.69,1988.06C1359.82,1975.83 1378.55,1978.69 1387.26,1992.69Z" style="fill-rule:nonzero;"/>
            <path d="M1343.17,2049.95L1347.49,2020.34L1369.26,2033.27L1367.24,2048.06C1367.24,2048.06 1375.44,2070.03 1363.52,2074.58C1351.61,2079.13 1344.01,2058.75 1343.17,2049.95Z" style="fill:white;fill-rule:nonzero;"/>
            <path d="M1345.6,2050C1346.26,2055.91 1350.34,2067.89 1356.46,2071.69C1358.48,2072.94 1360.51,2073.15 1362.66,2072.32C1372.07,2068.73 1365.05,2049.1 1364.98,2048.9C1364.84,2048.53 1364.8,2048.12 1364.85,2047.73L1366.65,2034.53L1349.36,2024.26L1345.6,2050ZM1360.15,2077.65C1358.01,2077.65 1355.9,2077.03 1353.92,2075.79C1346.16,2070.98 1341.48,2057.67 1340.76,2050.18C1340.74,2049.99 1340.75,2049.79 1340.77,2049.6L1345.1,2019.99C1345.22,2019.19 1345.72,2018.51 1346.45,2018.16C1347.18,2017.81 1348.03,2017.85 1348.73,2018.26L1370.5,2031.2C1371.33,2031.69 1371.79,2032.64 1371.66,2033.6L1369.72,2047.8C1371.03,2051.62 1377.32,2071.9 1364.39,2076.84C1362.98,2077.38 1361.55,2077.65 1360.15,2077.65Z" style="fill-rule:nonzero;"/>
            <path d="M1368.4,1992.69C1360.79,1992.69 1353.64,1998.33 1349.84,2006.35C1346.95,2006.63 1344.35,2009.83 1343.93,2013.74C1343.57,2017.08 1344.93,2019.9 1347.1,2020.8C1347.87,2031.08 1354.52,2038.74 1363.47,2038.7C1373.82,2038.65 1383.32,2028.31 1384.68,2015.6C1386.04,2002.9 1383.04,1992.69 1368.4,1992.69Z" style="fill:white;fill-rule:nonzero;"/>
            <path d="M1368.4,1995.11C1361.98,1995.11 1355.56,1999.93 1352.03,2007.38C1351.67,2008.15 1350.93,2008.67 1350.08,2008.75C1348.53,2008.91 1346.65,2011.05 1346.34,2014C1346.08,2016.4 1347.02,2018.15 1348.03,2018.56C1348.87,2018.91 1349.45,2019.71 1349.51,2020.62C1350.2,2029.85 1355.9,2036.28 1363.4,2036.28L1363.46,2036.28C1372.6,2036.23 1381.04,2026.85 1382.28,2015.35C1383.11,2007.61 1382.08,2002.08 1379.22,1998.9C1376.93,1996.35 1373.39,1995.11 1368.4,1995.11ZM1363.4,2041.11C1353.79,2041.11 1346.15,2033.28 1344.82,2022.27C1342.42,2020.53 1341.13,2017.19 1341.53,2013.48C1342.01,2009.04 1344.76,2005.32 1348.2,2004.23C1352.63,1995.71 1360.45,1990.27 1368.4,1990.27C1374.75,1990.27 1379.6,1992.09 1382.81,1995.66C1386.68,1999.97 1388.08,2006.58 1387.08,2015.86C1385.6,2029.73 1375.01,2041.06 1363.48,2041.11L1363.4,2041.11Z" style="fill-rule:nonzero;"/>
            <path d="M1380.35,1997.59C1379.5,2005.12 1371.55,2011.22 1362.59,2011.22C1353.63,2011.22 1347.05,2005.12 1347.9,1997.59C1348.75,1990.06 1356.7,1983.96 1365.66,1983.96C1374.62,1983.96 1381.19,1990.06 1380.35,1997.59Z" style="fill-rule:nonzero;"/>
            <path d="M1392.96,2166.82L1271.41,2166.82L1274,2143.91L1395.55,2143.91L1392.96,2166.82Z" style="fill-rule:nonzero;"/>
            <path d="M1455.44,2260.12L1260.86,2260.12L1263.45,2237.22L1458.03,2237.22L1455.44,2260.12Z" style="fill:rgb(204,204,204);fill-rule:nonzero;"/>
            <path d="M1658.31,2260.12L1463.72,2260.12L1466.31,2237.22L1660.9,2237.22L1658.31,2260.12Z" style="fill:rgb(204,204,204);fill-rule:nonzero;"/>
            <path d="M1421.55,2229.02L1264.37,2229.02L1266.96,2206.12L1424.14,2206.12L1421.55,2229.02Z" style="fill:rgb(204,204,204);fill-rule:nonzero;"/>
            <path d="M1609.61,2229.02L1428.46,2229.02L1431.05,2206.12L1612.2,2206.12L1609.61,2229.02Z" style="fill:rgb(204,204,204);fill-rule:nonzero;"/>
            <path d="M1436.23,2197.92L1267.89,2197.92L1270.48,2175.01L1438.82,2175.01L1436.23,2197.92Z" style="fill:rgb(204,204,204);fill-rule:nonzero;"/>
            <path d="M1564.26,2197.92L1442.07,2197.92L1444.66,2175.01L1566.85,2175.01L1564.26,2197.92Z" style="fill:rgb(204,204,204);fill-rule:nonzero;"/>
            <path d="M1377.32,2305.92L1255.77,2305.92L1258.36,2283.01L1379.91,2283.01L1377.32,2305.92Z" style="fill-rule:nonzero;"/>
            <path d="M1439.8,2399.22L1245.22,2399.22L1247.81,2376.32L1442.39,2376.32L1439.8,2399.22Z" style="fill:rgb(204,204,204);fill-rule:nonzero;"/>
            <path d="M1405.91,2368.12L1248.73,2368.12L1251.32,2345.21L1408.5,2345.21L1405.91,2368.12Z" style="fill:rgb(204,204,204);fill-rule:nonzero;"/>
            <path d="M1420.59,2337.02L1252.25,2337.02L1254.84,2314.11L1423.18,2314.11L1420.59,2337.02Z" style="fill:rgb(204,204,204);fill-rule:nonzero;"/>
            <path d="M1548.62,2337.02L1426.43,2337.02L1429.02,2314.11L1551.21,2314.11L1548.62,2337.02Z" style="fill:rgb(204,204,204);fill-rule:nonzero;"/>
            <path d="M1361.52,2446.42L1239.97,2446.42L1242.56,2423.52L1364.11,2423.52L1361.52,2446.42Z" style="fill-rule:nonzero;"/>
            <path d="M1424.01,2539.73L1229.42,2539.73L1232.01,2516.82L1426.59,2516.82L1424.01,2539.73Z" style="fill:rgb(204,204,204);fill-rule:nonzero;"/>
            <path d="M1390.11,2508.63L1232.94,2508.63L1235.53,2485.72L1392.7,2485.72L1390.11,2508.63Z" style="fill:rgb(204,204,204);fill-rule:nonzero;"/>
            <path d="M1578.17,2508.63L1397.02,2508.63L1399.61,2485.72L1580.76,2485.72L1578.17,2508.63Z" style="fill:rgb(204,204,204);fill-rule:nonzero;"/>
            <path d="M1404.79,2477.53L1236.45,2477.53L1239.04,2454.62L1407.38,2454.62L1404.79,2477.53Z" style="fill:rgb(204,204,204);fill-rule:nonzero;"/>
            <path d="M1640.39,2477.53L1412.54,2477.53L1415.13,2454.62L1642.99,2454.62L1640.39,2477.53Z" style="fill:rgb(204,204,204);fill-rule:nonzero;"/>
            <path d="M2134.93,3284.79L1653.22,3284.79L1725.59,2641.11L2207.31,2641.11L2134.93,3284.79Z" style="fill:white;fill-rule:nonzero;"/>
            <path d="M1655.92,3282.38L2132.77,3282.38L2204.6,2643.53L1727.75,2643.53L1655.92,3282.38ZM2134.93,3287.21L1653.22,3287.21C1652.53,3287.21 1651.87,3286.92 1651.42,3286.4C1650.96,3285.89 1650.74,3285.21 1650.82,3284.52L1723.19,2640.84C1723.33,2639.62 1724.36,2638.7 1725.59,2638.7L2207.31,2638.7C2208,2638.7 2208.65,2638.99 2209.11,2639.5C2209.57,2640.01 2209.79,2640.7 2209.71,2641.38L2137.34,3285.06C2137.2,3286.29 2136.17,3287.21 2134.93,3287.21Z" style="fill-rule:nonzero;"/>
            <path d="M1864.63,2821.11L1722.91,2821.11L1740.24,2666.96L1881.96,2666.96L1864.63,2821.11Z" style="fill:white;fill-rule:nonzero;"/>
            <path d="M1864.63,2821.11C1864.63,2821.11 1866.13,2775.28 1860.69,2760.31C1855.26,2745.34 1754,2747.75 1741.55,2759.72C1729.11,2771.69 1722.93,2820.92 1722.93,2820.92L1864.63,2821.11Z" style="fill-rule:nonzero;"/>
            <path d="M1784.99,2750.12L1788.32,2722.99L1820.72,2735.81L1818.77,2753.17L1813.26,2774.62C1813.26,2774.62 1785.9,2759.59 1784.99,2750.12Z" style="fill:white;fill-rule:nonzero;"/>
            <path d="M1787.43,2750.11C1788.01,2753.29 1794.98,2761.36 1811.7,2770.97L1816.38,2752.74L1818.11,2737.38L1790.34,2726.39L1787.43,2750.11ZM1813.26,2777.04C1812.86,2777.04 1812.46,2776.94 1812.1,2776.74C1807.34,2774.13 1783.57,2760.58 1782.59,2750.35C1782.57,2750.18 1782.57,2750 1782.59,2749.83L1785.92,2722.7C1786.01,2721.95 1786.44,2721.29 1787.08,2720.91C1787.73,2720.53 1788.51,2720.46 1789.21,2720.74L1821.61,2733.56C1822.62,2733.97 1823.24,2735 1823.12,2736.08L1821.17,2753.44C1821.16,2753.55 1821.14,2753.67 1821.11,2753.77L1815.6,2775.22C1815.42,2775.95 1814.91,2776.54 1814.22,2776.84C1813.91,2776.97 1813.59,2777.04 1813.26,2777.04Z" style="fill-rule:nonzero;"/>
            <path d="M1834.09,2705.48C1831.66,2713.55 1822.91,2718.93 1814.53,2717.5C1806.16,2716.07 1801.33,2708.36 1803.76,2700.29C1806.18,2692.22 1814.94,2686.84 1823.31,2688.28C1831.69,2689.71 1836.51,2697.41 1834.09,2705.48Z" style="fill-rule:nonzero;"/>
            <path d="M1816.16,2703.69C1813.74,2711.76 1804.98,2717.14 1796.6,2715.71C1788.23,2714.27 1783.4,2706.57 1785.83,2698.5C1788.25,2690.43 1797.01,2685.05 1805.38,2686.48C1813.76,2687.92 1818.59,2695.62 1816.16,2703.69Z" style="fill-rule:nonzero;"/>
            <path d="M1806.37,2691.64C1797.49,2693.39 1790.57,2701.26 1788.18,2711.07C1784.88,2712.03 1782.65,2716.19 1783.15,2720.65C1783.59,2724.47 1785.88,2727.31 1788.65,2727.82C1792.16,2739.14 1801.88,2746.2 1812.32,2744.14C1824.39,2741.76 1832.85,2728.08 1831.21,2713.58C1829.57,2699.08 1818.45,2689.26 1806.37,2691.64Z" style="fill:white;fill-rule:nonzero;"/>
            <path d="M1806.37,2691.64L1806.38,2691.64L1806.37,2691.64ZM1810.02,2693.69C1808.97,2693.69 1807.9,2693.8 1806.84,2694.01C1799.17,2695.52 1792.77,2702.44 1790.53,2711.64C1790.32,2712.48 1789.69,2713.14 1788.86,2713.39C1786.67,2714.02 1785.19,2717.16 1785.56,2720.38C1785.85,2722.99 1787.34,2725.12 1789.1,2725.45C1789.98,2725.61 1790.7,2726.25 1790.96,2727.11C1794.19,2737.53 1802.78,2743.55 1811.85,2741.77C1822.7,2739.63 1830.31,2727.11 1828.81,2713.85C1828.01,2706.77 1824.7,2700.62 1819.74,2696.99C1816.76,2694.81 1813.45,2693.69 1810.02,2693.69ZM1808.78,2746.91C1799.24,2746.91 1790.49,2740.24 1786.76,2729.78C1783.57,2728.5 1781.23,2725.12 1780.75,2720.92C1780.18,2715.88 1782.45,2711.15 1786.15,2709.28C1789.1,2698.87 1796.75,2691.07 1805.9,2689.26C1811.73,2688.12 1817.65,2689.47 1822.59,2693.08C1828.64,2697.51 1832.66,2704.88 1833.61,2713.31C1835.39,2729 1826.04,2743.9 1812.78,2746.51C1811.44,2746.78 1810.1,2746.91 1808.78,2746.91Z" style="fill-rule:nonzero;"/>
            <path d="M1809.81,2701.57C1808.22,2706.87 1802.47,2710.41 1796.97,2709.46C1791.47,2708.52 1788.31,2703.46 1789.9,2698.16C1791.49,2692.87 1797.24,2689.33 1802.74,2690.28C1808.24,2691.22 1811.41,2696.28 1809.81,2701.57Z" style="fill-rule:nonzero;"/>
            <path d="M1816.34,2693.27C1814.74,2698.57 1809,2702.1 1803.5,2701.16C1798,2700.22 1794.83,2695.16 1796.42,2689.86C1798.01,2684.56 1803.76,2681.03 1809.26,2681.97C1814.76,2682.91 1817.93,2687.97 1816.34,2693.27Z" style="fill-rule:nonzero;"/>
            <path d="M1832.17,2694.25C1830.03,2701.39 1822.29,2706.14 1814.88,2704.87C1807.48,2703.61 1803.21,2696.79 1805.36,2689.66C1807.5,2682.53 1815.24,2677.77 1822.64,2679.04C1830.05,2680.31 1834.32,2687.12 1832.17,2694.25Z" style="fill-rule:nonzero;"/>
            <path d="M1839.4,2688.87C1838.09,2693.25 1833.33,2696.18 1828.78,2695.4C1824.22,2694.62 1821.6,2690.43 1822.92,2686.05C1824.24,2681.66 1829,2678.74 1833.55,2679.52C1838.1,2680.3 1840.72,2684.48 1839.4,2688.87Z" style="fill-rule:nonzero;"/>
            <path d="M1840.13,2860.28L1718.58,2860.28L1721.17,2837.38L1842.72,2837.38L1840.13,2860.28Z" style="fill-rule:nonzero;"/>
            <path d="M1902.61,2953.59L1708.03,2953.59L1710.62,2930.68L1905.2,2930.68L1902.61,2953.59Z" style="fill:rgb(204,204,204);fill-rule:nonzero;"/>
            <path d="M2030.48,2953.59L1908.93,2953.59L1911.52,2930.68L2033.07,2930.68L2030.48,2953.59Z" style="fill:rgb(204,204,204);fill-rule:nonzero;"/>
            <path d="M1868.72,2922.49L1711.55,2922.49L1714.14,2899.58L1871.31,2899.58L1868.72,2922.49Z" style="fill:rgb(204,204,204);fill-rule:nonzero;"/>
            <path d="M2056.78,2922.49L1875.63,2922.49L1878.22,2899.58L2059.37,2899.58L2056.78,2922.49Z" style="fill:rgb(204,204,204);fill-rule:nonzero;"/>
            <path d="M1883.4,2891.39L1715.06,2891.39L1717.65,2868.48L1885.99,2868.48L1883.4,2891.39Z" style="fill:rgb(204,204,204);fill-rule:nonzero;"/>
            <path d="M2091.2,2891.39L2017.06,2891.39L2019.65,2868.48L2093.79,2868.48L2091.2,2891.39Z" style="fill:rgb(204,204,204);fill-rule:nonzero;"/>
            <path d="M2011.43,2891.39L1889.24,2891.39L1891.83,2868.48L2014.02,2868.48L2011.43,2891.39Z" style="fill:rgb(204,204,204);fill-rule:nonzero;"/>
            <path d="M1824.49,2999.38L1702.94,2999.38L1705.53,2976.48L1827.08,2976.48L1824.49,2999.38Z" style="fill-rule:nonzero;"/>
            <path d="M1886.97,3092.69L1692.39,3092.69L1694.98,3069.78L1889.56,3069.78L1886.97,3092.69Z" style="fill:rgb(204,204,204);fill-rule:nonzero;"/>
            <path d="M2014.84,3092.69L1893.29,3092.69L1895.88,3069.78L2017.43,3069.78L2014.84,3092.69Z" style="fill:rgb(204,204,204);fill-rule:nonzero;"/>
            <path d="M1853.08,3061.58L1695.91,3061.58L1698.5,3038.68L1855.67,3038.68L1853.08,3061.58Z" style="fill:rgb(204,204,204);fill-rule:nonzero;"/>
            <path d="M2041.14,3061.58L1859.99,3061.58L1862.58,3038.68L2043.73,3038.68L2041.14,3061.58Z" style="fill:rgb(204,204,204);fill-rule:nonzero;"/>
            <path d="M1867.76,3030.48L1699.42,3030.48L1702.01,3007.58L1870.35,3007.58L1867.76,3030.48Z" style="fill:rgb(204,204,204);fill-rule:nonzero;"/>
            <path d="M1995.8,3030.48L1873.6,3030.48L1876.19,3007.58L1998.38,3007.58L1995.8,3030.48Z" style="fill:rgb(204,204,204);fill-rule:nonzero;"/>
            <path d="M1808.69,3139.89L1687.14,3139.89L1689.73,3116.98L1811.28,3116.98L1808.69,3139.89Z" style="fill-rule:nonzero;"/>
            <path d="M1871.18,3233.2L1676.59,3233.2L1679.18,3210.29L1873.77,3210.29L1871.18,3233.2Z" style="fill:rgb(204,204,204);fill-rule:nonzero;"/>
            <path d="M1837.28,3202.09L1680.11,3202.09L1682.7,3179.19L1839.87,3179.19L1837.28,3202.09Z" style="fill:rgb(204,204,204);fill-rule:nonzero;"/>
            <path d="M2025.34,3202.09L1844.19,3202.09L1846.78,3179.19L2027.93,3179.19L2025.34,3202.09Z" style="fill:rgb(204,204,204);fill-rule:nonzero;"/>
            <path d="M1851.96,3170.99L1683.62,3170.99L1686.21,3148.09L1854.55,3148.09L1851.96,3170.99Z" style="fill:rgb(204,204,204);fill-rule:nonzero;"/>
            <path d="M2059.76,3170.99L1985.63,3170.99L1988.22,3148.09L2062.35,3148.09L2059.76,3170.99Z" style="fill:rgb(204,204,204);fill-rule:nonzero;"/>
            <path d="M1980,3170.99L1857.81,3170.99L1860.4,3148.09L1982.59,3148.09L1980,3170.99Z" style="fill:rgb(204,204,204);fill-rule:nonzero;"/>
            <path d="M1609.79,3284.79L1128.08,3284.79L1200.45,2641.11L1682.17,2641.11L1609.79,3284.79Z" style="fill:white;fill-rule:nonzero;"/>
            <path d="M1130.78,3282.38L1607.63,3282.38L1679.46,2643.53L1202.61,2643.53L1130.78,3282.38ZM1609.79,3287.21L1128.08,3287.21C1127.39,3287.21 1126.73,3286.92 1126.27,3286.4C1125.81,3285.89 1125.6,3285.21 1125.67,3284.52L1198.05,2640.84C1198.18,2639.62 1199.22,2638.7 1200.45,2638.7L1682.17,2638.7C1682.85,2638.7 1683.51,2638.99 1683.97,2639.5C1684.43,2640.01 1684.64,2640.7 1684.57,2641.38L1612.19,3285.06C1612.06,3286.29 1611.02,3287.21 1609.79,3287.21Z" style="fill-rule:nonzero;"/>
            <path d="M1314.99,2860.28L1193.44,2860.28L1196.03,2837.38L1317.58,2837.38L1314.99,2860.28Z" style="fill-rule:nonzero;"/>
            <path d="M1377.47,2953.59L1182.89,2953.59L1185.48,2930.68L1380.06,2930.68L1377.47,2953.59Z" style="fill:rgb(204,204,204);fill-rule:nonzero;"/>
            <path d="M1580.33,2953.59L1385.75,2953.59L1388.34,2930.68L1582.92,2930.68L1580.33,2953.59Z" style="fill:rgb(204,204,204);fill-rule:nonzero;"/>
            <path d="M1343.58,2922.49L1186.4,2922.49L1188.99,2899.58L1346.17,2899.58L1343.58,2922.49Z" style="fill:rgb(204,204,204);fill-rule:nonzero;"/>
            <path d="M1531.64,2922.49L1350.49,2922.49L1353.08,2899.58L1534.23,2899.58L1531.64,2922.49Z" style="fill:rgb(204,204,204);fill-rule:nonzero;"/>
            <path d="M1358.26,2891.39L1189.92,2891.39L1192.51,2868.48L1360.85,2868.48L1358.26,2891.39Z" style="fill:rgb(204,204,204);fill-rule:nonzero;"/>
            <path d="M1486.29,2891.39L1364.1,2891.39L1366.69,2868.48L1488.88,2868.48L1486.29,2891.39Z" style="fill:rgb(204,204,204);fill-rule:nonzero;"/>
            <path d="M1299.35,2999.38L1177.8,2999.38L1180.39,2976.48L1301.94,2976.48L1299.35,2999.38Z" style="fill-rule:nonzero;"/>
            <path d="M1361.83,3092.69L1167.25,3092.69L1169.84,3069.78L1364.42,3069.78L1361.83,3092.69Z" style="fill:rgb(204,204,204);fill-rule:nonzero;"/>
            <path d="M1327.94,3061.58L1170.76,3061.58L1173.35,3038.68L1330.53,3038.68L1327.94,3061.58Z" style="fill:rgb(204,204,204);fill-rule:nonzero;"/>
            <path d="M1342.62,3030.48L1174.28,3030.48L1176.87,3007.58L1345.21,3007.58L1342.62,3030.48Z" style="fill:rgb(204,204,204);fill-rule:nonzero;"/>
            <path d="M1470.65,3030.48L1348.46,3030.48L1351.05,3007.58L1473.24,3007.58L1470.65,3030.48Z" style="fill:rgb(204,204,204);fill-rule:nonzero;"/>
            <path d="M1283.55,3139.89L1162,3139.89L1164.59,3116.98L1286.14,3116.98L1283.55,3139.89Z" style="fill-rule:nonzero;"/>
            <path d="M1346.03,3233.2L1151.45,3233.2L1154.04,3210.29L1348.62,3210.29L1346.03,3233.2Z" style="fill:rgb(204,204,204);fill-rule:nonzero;"/>
            <path d="M1312.14,3202.09L1154.97,3202.09L1157.55,3179.19L1314.73,3179.19L1312.14,3202.09Z" style="fill:rgb(204,204,204);fill-rule:nonzero;"/>
            <path d="M1500.2,3202.09L1319.05,3202.09L1321.64,3179.19L1502.79,3179.19L1500.2,3202.09Z" style="fill:rgb(204,204,204);fill-rule:nonzero;"/>
            <path d="M1326.82,3170.99L1158.48,3170.99L1161.07,3148.09L1329.41,3148.09L1326.82,3170.99Z" style="fill:rgb(204,204,204);fill-rule:nonzero;"/>
            <path d="M1562.42,3170.99L1334.57,3170.99L1337.16,3148.09L1565.02,3148.09L1562.42,3170.99Z" style="fill:rgb(204,204,204);fill-rule:nonzero;"/>
            <path d="M2745.11,2591.33L2263.39,2591.33L2335.76,1947.65L2817.48,1947.65L2745.11,2591.33Z" style="fill:white;fill-rule:nonzero;"/>
            <path d="M2266.09,2588.91L2742.95,2588.91L2814.78,1950.06L2337.92,1950.06L2266.09,2588.91ZM2745.11,2593.75L2263.39,2593.75C2262.7,2593.75 2262.05,2593.45 2261.59,2592.94C2261.13,2592.43 2260.91,2591.74 2260.99,2591.06L2333.36,1947.38C2333.5,1946.16 2334.53,1945.23 2335.76,1945.23L2817.48,1945.23C2818.17,1945.23 2818.83,1945.52 2819.28,1946.04C2819.74,1946.55 2819.96,1947.23 2819.88,1947.92L2747.51,2591.6C2747.37,2592.82 2746.34,2593.75 2745.11,2593.75Z" style="fill-rule:nonzero;"/>
            <path d="M2474.8,2127.65L2333.08,2127.65L2350.41,1973.5L2492.13,1973.5L2474.8,2127.65Z" style="fill:white;fill-rule:nonzero;"/>
            <path d="M2474.7,2128.55C2471.21,2120.07 2468.99,2056.63 2445.19,2050.23C2432.15,2046.72 2370.49,2045.32 2352.42,2054.64C2345.16,2060.98 2333.96,2109.04 2333.34,2128.21L2474.7,2128.55Z" style="fill-rule:nonzero;"/>
            <path d="M2444.6,1992.69C2453.31,2006.69 2426.61,2033.27 2426.61,2033.27L2402.15,2038.7C2402.15,2038.7 2372.14,2001.89 2396.03,1988.06C2417.16,1975.83 2435.89,1978.69 2444.6,1992.69Z" style="fill-rule:nonzero;"/>
            <path d="M2400.51,2049.95L2404.84,2020.34L2426.61,2033.27L2424.59,2048.06C2424.59,2048.06 2432.78,2070.03 2420.87,2074.58C2408.96,2079.13 2401.36,2058.75 2400.51,2049.95Z" style="fill:white;fill-rule:nonzero;"/>
            <path d="M2402.95,2050C2403.61,2055.91 2407.69,2067.89 2413.81,2071.69C2415.83,2072.94 2417.86,2073.15 2420.01,2072.32C2429.42,2068.73 2422.4,2049.1 2422.32,2048.9C2422.18,2048.53 2422.14,2048.12 2422.19,2047.73L2424,2034.53L2406.71,2024.26L2402.95,2050ZM2417.49,2077.65C2415.35,2077.65 2413.25,2077.03 2411.26,2075.8C2403.5,2070.98 2398.82,2057.67 2398.1,2050.18C2398.08,2049.99 2398.09,2049.79 2398.12,2049.6L2402.44,2019.99C2402.56,2019.19 2403.07,2018.51 2403.79,2018.16C2404.52,2017.81 2405.38,2017.85 2406.07,2018.26L2427.84,2031.2C2428.68,2031.69 2429.14,2032.64 2429,2033.6L2427.06,2047.8C2428.38,2051.62 2434.67,2071.9 2421.73,2076.84C2420.32,2077.38 2418.9,2077.65 2417.49,2077.65Z" style="fill-rule:nonzero;"/>
            <path d="M2425.74,1992.69C2418.13,1992.69 2410.98,1998.33 2407.19,2006.35C2404.3,2006.63 2401.7,2009.83 2401.28,2013.74C2400.92,2017.08 2402.27,2019.9 2404.45,2020.8C2405.21,2031.08 2411.87,2038.74 2420.81,2038.7C2431.17,2038.65 2440.66,2028.31 2442.03,2015.6C2443.39,2002.9 2440.38,1992.69 2425.74,1992.69Z" style="fill:white;fill-rule:nonzero;"/>
            <path d="M2425.74,1995.11C2419.33,1995.11 2412.9,1999.93 2409.37,2007.38C2409.01,2008.15 2408.27,2008.67 2407.42,2008.75C2405.87,2008.91 2404,2011.05 2403.68,2014C2403.42,2016.4 2404.36,2018.15 2405.37,2018.57C2406.22,2018.92 2406.79,2019.71 2406.86,2020.62C2407.54,2029.85 2413.25,2036.28 2420.74,2036.28L2420.8,2036.28C2429.95,2036.23 2438.39,2026.85 2439.62,2015.35C2440.45,2007.61 2439.42,2002.08 2436.56,1998.9C2434.27,1996.35 2430.73,1995.11 2425.74,1995.11ZM2420.74,2041.11C2411.14,2041.11 2403.49,2033.28 2402.16,2022.27C2399.77,2020.53 2398.48,2017.19 2398.87,2013.48C2399.35,2009.04 2402.11,2005.32 2405.54,2004.23C2409.98,1995.71 2417.8,1990.27 2425.74,1990.27C2432.09,1990.27 2436.94,1992.09 2440.16,1995.66C2444.03,1999.97 2445.42,2006.58 2444.43,2015.86C2442.94,2029.73 2432.35,2041.06 2420.83,2041.11L2420.74,2041.11Z" style="fill-rule:nonzero;"/>
            <path d="M2437.69,1997.59C2436.84,2005.12 2428.89,2011.22 2419.94,2011.22C2410.98,2011.22 2404.4,2005.12 2405.24,1997.59C2406.09,1990.06 2414.04,1983.96 2423,1983.96C2431.96,1983.96 2438.54,1990.06 2437.69,1997.59Z" style="fill-rule:nonzero;"/>
            <path d="M2416.73,1976.16C2415.89,1983.68 2407.94,1989.79 2398.98,1989.79C2390.02,1989.79 2383.44,1983.68 2384.29,1976.16C2385.13,1968.63 2393.08,1962.53 2402.04,1962.53C2411,1962.53 2417.58,1968.63 2416.73,1976.16Z" style="fill-rule:nonzero;"/>
            <path d="M2450.3,2166.82L2328.75,2166.82L2331.34,2143.91L2452.89,2143.91L2450.3,2166.82Z" style="fill-rule:nonzero;"/>
            <path d="M2512.79,2260.12L2318.2,2260.12L2320.79,2237.22L2515.38,2237.22L2512.79,2260.12Z" style="fill:rgb(204,204,204);fill-rule:nonzero;"/>
            <path d="M2715.65,2260.12L2521.07,2260.12L2523.66,2237.22L2718.24,2237.22L2715.65,2260.12Z" style="fill:rgb(204,204,204);fill-rule:nonzero;"/>
            <path d="M2478.89,2229.02L2321.72,2229.02L2324.31,2206.12L2481.48,2206.12L2478.89,2229.02Z" style="fill:rgb(204,204,204);fill-rule:nonzero;"/>
            <path d="M2666.95,2229.02L2485.8,2229.02L2488.39,2206.12L2669.54,2206.12L2666.95,2229.02Z" style="fill:rgb(204,204,204);fill-rule:nonzero;"/>
            <path d="M2493.57,2197.92L2325.24,2197.92L2327.82,2175.01L2496.16,2175.01L2493.57,2197.92Z" style="fill:rgb(204,204,204);fill-rule:nonzero;"/>
            <path d="M2621.61,2197.92L2499.42,2197.92L2502.01,2175.01L2624.2,2175.01L2621.61,2197.92Z" style="fill:rgb(204,204,204);fill-rule:nonzero;"/>
            <path d="M2434.66,2305.92L2313.11,2305.92L2315.7,2283.01L2437.25,2283.01L2434.66,2305.92Z" style="fill-rule:nonzero;"/>
            <path d="M2497.15,2399.22L2302.56,2399.22L2305.15,2376.32L2499.74,2376.32L2497.15,2399.22Z" style="fill:rgb(204,204,204);fill-rule:nonzero;"/>
            <path d="M2463.25,2368.12L2306.08,2368.12L2308.67,2345.21L2465.84,2345.21L2463.25,2368.12Z" style="fill:rgb(204,204,204);fill-rule:nonzero;"/>
            <path d="M2477.93,2337.02L2309.6,2337.02L2312.19,2314.11L2480.52,2314.11L2477.93,2337.02Z" style="fill:rgb(204,204,204);fill-rule:nonzero;"/>
            <path d="M2605.97,2337.02L2483.78,2337.02L2486.37,2314.11L2608.56,2314.11L2605.97,2337.02Z" style="fill:rgb(204,204,204);fill-rule:nonzero;"/>
            <path d="M2418.86,2446.42L2297.31,2446.42L2299.9,2423.52L2421.45,2423.52L2418.86,2446.42Z" style="fill-rule:nonzero;"/>
            <path d="M2481.35,2539.73L2286.76,2539.73L2289.35,2516.82L2483.94,2516.82L2481.35,2539.73Z" style="fill:rgb(204,204,204);fill-rule:nonzero;"/>
            <path d="M2447.46,2508.63L2290.28,2508.63L2292.87,2485.72L2450.05,2485.72L2447.46,2508.63Z" style="fill:rgb(204,204,204);fill-rule:nonzero;"/>
            <path d="M2635.51,2508.63L2454.36,2508.63L2456.95,2485.72L2638.1,2485.72L2635.51,2508.63Z" style="fill:rgb(204,204,204);fill-rule:nonzero;"/>
            <path d="M2462.14,2477.53L2293.8,2477.53L2296.39,2454.62L2464.73,2454.62L2462.14,2477.53Z" style="fill:rgb(204,204,204);fill-rule:nonzero;"/>
            <path d="M2697.74,2477.53L2469.88,2477.53L2472.48,2454.62L2700.33,2454.62L2697.74,2477.53Z" style="fill:rgb(204,204,204);fill-rule:nonzero;"/>
            <path d="M2667.14,3284.79L2185.42,3284.79L2257.79,2641.11L2739.51,2641.11L2667.14,3284.79Z" style="fill:white;fill-rule:nonzero;"/>
            <path d="M2188.12,3282.38L2664.98,3282.38L2736.81,2643.53L2259.95,2643.53L2188.12,3282.38ZM2667.14,3287.21L2185.42,3287.21C2184.73,3287.21 2184.08,3286.92 2183.62,3286.4C2183.16,3285.89 2182.94,3285.21 2183.02,3284.52L2255.39,2640.84C2255.53,2639.62 2256.56,2638.7 2257.79,2638.7L2739.51,2638.7C2740.2,2638.7 2740.85,2638.99 2741.31,2639.5C2741.77,2640.01 2741.99,2640.7 2741.91,2641.38L2669.54,3285.06C2669.4,3286.29 2668.37,3287.21 2667.14,3287.21Z" style="fill-rule:nonzero;"/>
            <g>
                <path d="M2396.83,2821.11L2255.11,2821.11L2272.44,2666.96L2414.16,2666.96L2396.83,2821.11Z" style="fill:white;fill-rule:nonzero;"/>
                <path d="M2366.63,2686.15C2375.34,2700.15 2364.46,2756.01 2364.46,2756.01L2285.14,2756.01C2285.14,2756.01 2294.17,2695.36 2318.06,2681.53C2339.19,2669.3 2357.92,2672.16 2366.63,2686.15Z" style="fill:rgb(213,253,206);fill-rule:nonzero;"/>
                <path d="M2396.73,2822.01C2393.24,2813.54 2391.02,2750.09 2367.22,2743.7C2354.18,2740.19 2292.52,2738.79 2274.44,2748.1C2267.19,2754.44 2255.99,2802.51 2255.37,2821.67L2396.73,2822.01Z" style="fill:rgb(204,204,204);fill-rule:nonzero;"/>
                <path d="M2322.54,2743.41L2326.86,2713.81L2348.64,2726.74L2346.62,2741.52C2346.62,2741.52 2354.81,2763.5 2342.9,2768.05C2330.99,2772.6 2323.38,2752.22 2322.54,2743.41Z" style="fill:white;fill-rule:nonzero;"/>
                <path d="M2324.97,2743.46C2325.63,2749.38 2329.72,2761.36 2335.84,2765.15C2337.85,2766.4 2339.88,2766.61 2342.04,2765.79C2351.42,2762.2 2344.43,2742.56 2344.35,2742.36C2344.21,2741.99 2344.17,2741.59 2344.22,2741.19L2346.03,2728L2328.73,2717.73L2324.97,2743.46ZM2339.52,2771.11C2337.38,2771.11 2335.28,2770.49 2333.29,2769.26C2325.53,2764.45 2320.85,2751.13 2320.13,2743.64C2320.11,2743.45 2320.12,2743.26 2320.15,2743.06L2324.47,2713.46C2324.59,2712.66 2325.1,2711.97 2325.82,2711.62C2326.55,2711.28 2327.41,2711.32 2328.1,2711.73L2349.87,2724.66C2350.71,2725.16 2351.16,2726.1 2351.03,2727.07L2349.09,2741.26C2350.41,2745.08 2356.69,2765.37 2343.76,2770.3C2342.35,2770.84 2340.93,2771.11 2339.52,2771.11Z" style="fill-rule:nonzero;"/>
                <path d="M2347.77,2686.15C2340.16,2686.15 2333.01,2691.8 2329.22,2699.81C2326.33,2700.1 2323.73,2703.3 2323.31,2707.2C2322.95,2710.55 2324.3,2713.36 2326.48,2714.26C2327.24,2724.54 2333.89,2732.2 2342.84,2732.16C2353.2,2732.11 2362.69,2721.77 2364.05,2709.07C2365.42,2696.37 2362.41,2686.15 2347.77,2686.15Z" style="fill:white;fill-rule:nonzero;"/>
                <path d="M2329.22,2699.81L2329.23,2699.81L2329.22,2699.81ZM2347.77,2688.57C2341.36,2688.57 2334.93,2693.39 2331.4,2700.85C2331.04,2701.62 2330.3,2702.14 2329.45,2702.22C2327.9,2702.37 2326.03,2704.51 2325.71,2707.46C2325.45,2709.89 2326.36,2711.6 2327.4,2712.03C2328.25,2712.38 2328.82,2713.17 2328.89,2714.08C2329.57,2723.31 2335.28,2729.74 2342.77,2729.74L2342.83,2729.74C2351.98,2729.7 2360.42,2720.31 2361.65,2708.81C2362.48,2701.08 2361.45,2695.54 2358.59,2692.36C2356.3,2689.81 2352.76,2688.57 2347.77,2688.57ZM2342.77,2734.58C2333.17,2734.58 2325.52,2726.74 2324.19,2715.73C2321.8,2713.99 2320.5,2710.66 2320.9,2706.94C2321.38,2702.5 2324.14,2698.79 2327.57,2697.7C2332.01,2689.18 2339.83,2683.74 2347.77,2683.74C2354.12,2683.74 2358.97,2685.55 2362.19,2689.13C2366.06,2693.44 2367.45,2700.04 2366.46,2709.33C2364.97,2723.2 2354.38,2734.52 2342.85,2734.58L2342.77,2734.58Z" style="fill-rule:nonzero;"/>
                <path d="M2359.72,2691.05C2358.87,2698.58 2350.92,2704.68 2341.96,2704.68C2333,2704.68 2326.43,2698.58 2327.27,2691.05C2328.12,2683.52 2336.07,2677.42 2345.03,2677.42C2353.99,2677.42 2360.57,2683.52 2359.72,2691.05Z" style="fill:rgb(213,253,206);fill-rule:nonzero;"/>
            </g>
            <path d="M2372.33,2860.28L2250.78,2860.28L2253.37,2837.38L2374.92,2837.38L2372.33,2860.28Z" style="fill-rule:nonzero;"/>
            <path d="M2434.82,2953.59L2240.23,2953.59L2242.82,2930.68L2437.41,2930.68L2434.82,2953.59Z" style="fill:rgb(204,204,204);fill-rule:nonzero;"/>
            <path d="M2637.68,2953.59L2443.09,2953.59L2445.68,2930.68L2640.27,2930.68L2637.68,2953.59Z" style="fill:rgb(204,204,204);fill-rule:nonzero;"/>
            <path d="M2400.92,2922.49L2243.75,2922.49L2246.34,2899.58L2403.51,2899.58L2400.92,2922.49Z" style="fill:rgb(204,204,204);fill-rule:nonzero;"/>
            <path d="M2588.98,2922.49L2407.83,2922.49L2410.42,2899.58L2591.57,2899.58L2588.98,2922.49Z" style="fill:rgb(204,204,204);fill-rule:nonzero;"/>
            <path d="M2415.6,2891.39L2247.26,2891.39L2249.85,2868.48L2418.19,2868.48L2415.6,2891.39Z" style="fill:rgb(204,204,204);fill-rule:nonzero;"/>
            <path d="M2543.64,2891.39L2421.45,2891.39L2424.04,2868.48L2546.23,2868.48L2543.64,2891.39Z" style="fill:rgb(204,204,204);fill-rule:nonzero;"/>
            <path d="M2356.69,2999.38L2235.14,2999.38L2237.73,2976.48L2359.28,2976.48L2356.69,2999.38Z" style="fill-rule:nonzero;"/>
            <path d="M2419.18,3092.69L2224.59,3092.69L2227.18,3069.78L2421.77,3069.78L2419.18,3092.69Z" style="fill:rgb(204,204,204);fill-rule:nonzero;"/>
            <path d="M2385.28,3061.58L2228.11,3061.58L2230.7,3038.68L2387.87,3038.68L2385.28,3061.58Z" style="fill:rgb(204,204,204);fill-rule:nonzero;"/>
            <path d="M2399.96,3030.48L2231.62,3030.48L2234.21,3007.58L2402.55,3007.58L2399.96,3030.48Z" style="fill:rgb(204,204,204);fill-rule:nonzero;"/>
            <path d="M2528,3030.48L2405.81,3030.48L2408.4,3007.58L2530.59,3007.58L2528,3030.48Z" style="fill:rgb(204,204,204);fill-rule:nonzero;"/>
            <path d="M2340.89,3139.89L2219.34,3139.89L2221.93,3116.98L2343.48,3116.98L2340.89,3139.89Z" style="fill-rule:nonzero;"/>
            <path d="M2403.38,3233.2L2208.79,3233.2L2211.38,3210.29L2405.97,3210.29L2403.38,3233.2Z" style="fill:rgb(204,204,204);fill-rule:nonzero;"/>
            <path d="M2369.48,3202.09L2212.31,3202.09L2214.9,3179.19L2372.07,3179.19L2369.48,3202.09Z" style="fill:rgb(204,204,204);fill-rule:nonzero;"/>
            <path d="M2557.54,3202.09L2376.39,3202.09L2378.98,3179.19L2560.13,3179.19L2557.54,3202.09Z" style="fill:rgb(204,204,204);fill-rule:nonzero;"/>
            <path d="M2384.16,3170.99L2215.83,3170.99L2218.42,3148.09L2386.75,3148.09L2384.16,3170.99Z" style="fill:rgb(204,204,204);fill-rule:nonzero;"/>
            <path d="M2619.77,3170.99L2391.91,3170.99L2394.51,3148.09L2622.36,3148.09L2619.77,3170.99Z" style="fill:rgb(204,204,204);fill-rule:nonzero;"/>
            <g transform="matrix(0.54862,0.0107292,-0.0107292,0.54862,226.494,2395.64)">
                <path d="M2048.12,735.228L1795.7,735.228L1830.13,444.764L2082.55,444.764L2048.12,735.228Z" style="fill:white;fill-rule:nonzero;"/>
                <path d="M1981.41,628.319C1936.82,625.858 1894.69,631.436 1845.72,640.739C1794.91,657.852 1795.61,735.228 1795.61,735.228L2042.36,735.228C2044.19,711.131 2067.64,659.751 1981.41,628.319Z" style="fill-rule:nonzero;"/>
                <path d="M1921.43,493.451C1935.98,518.106 1930.93,549.1 1910.15,562.68C1889.38,576.259 1860.75,567.281 1846.2,542.626C1831.65,517.972 1836.7,486.977 1857.48,473.398C1878.25,459.818 1906.89,468.797 1921.43,493.451Z" style="fill-rule:nonzero;"/>
                <path d="M1938.79,549.313C1939.02,563.771 1929.19,576.824 1916.82,578.468C1904.45,580.112 1894.22,569.724 1893.99,555.266C1893.75,540.808 1903.58,527.755 1915.95,526.111C1928.33,524.467 1938.55,534.855 1938.79,549.313Z" style="fill:rgb(213,253,206);fill-rule:nonzero;"/>
                <path d="M1965.81,563.349C1966.1,581.18 1951.66,597.586 1933.54,599.993C1915.42,602.401 1900.5,589.898 1900.21,572.067C1899.91,554.236 1914.36,537.83 1932.47,535.423C1950.59,533.015 1965.52,545.518 1965.81,563.349Z" style="fill-rule:nonzero;"/>
                <path d="M1912.37,631.391L1917.01,592.214L1949.29,605.055L1947.99,628.481C1947.99,628.481 1986.66,663.285 1970.96,671.954C1955.27,680.623 1915.12,643.764 1912.37,631.391Z" style="fill:white;fill-rule:nonzero;"/>
                <path d="M1914.82,631.235C1917.09,639.325 1937.21,660.122 1954.82,668.063C1961.37,671.016 1966.55,671.629 1969.79,669.838C1971.3,669.009 1972.08,667.902 1972.25,666.354C1972.77,661.864 1968.43,654.041 1960.05,644.325C1953.38,636.595 1946.45,630.339 1946.38,630.277C1945.83,629.787 1945.54,629.078 1945.58,628.347L1946.78,606.658L1919.04,595.623L1914.82,631.235ZM1965.38,675.682C1961.77,675.682 1957.58,674.61 1952.83,672.47C1934.2,664.067 1912.21,641.793 1910.01,631.917C1909.95,631.651 1909.94,631.377 1909.97,631.107L1914.61,591.93C1914.7,591.184 1915.13,590.522 1915.78,590.138C1916.42,589.753 1917.21,589.691 1917.91,589.968L1950.19,602.809C1951.15,603.193 1951.76,604.151 1951.71,605.189L1950.47,627.467C1955.86,632.425 1978.52,654.125 1977.06,666.905C1976.7,670.009 1975,672.486 1972.13,674.07C1970.18,675.145 1967.93,675.682 1965.38,675.682Z" style="fill-rule:nonzero;"/>
                <path d="M1941.03,549.014C1930.48,550.468 1921.58,559.763 1917.76,571.87C1913.8,572.805 1910.77,577.839 1910.89,583.474C1911,588.298 1913.38,592.053 1916.56,592.936C1919.46,607.423 1930.06,617.096 1942.46,615.388C1956.81,613.411 1968.12,596.951 1967.72,578.622C1967.33,560.294 1955.38,547.038 1941.03,549.014Z" style="fill:white;fill-rule:nonzero;"/>
                <path d="M1917.76,571.871L1917.77,571.871L1917.76,571.871ZM1941.36,551.409C1932.08,552.688 1923.72,561.005 1920.07,572.597C1919.81,573.41 1919.15,574.027 1918.32,574.223C1915.46,574.897 1913.22,579.023 1913.31,583.422C1913.39,586.979 1915.02,590.001 1917.2,590.606C1918.08,590.851 1918.75,591.567 1918.93,592.46C1921.65,606.056 1931.19,614.5 1942.13,612.993C1955.28,611.182 1965.67,595.786 1965.31,578.674C1965.1,569.145 1961.6,560.795 1955.71,555.767C1951.52,552.2 1946.56,550.692 1941.36,551.409ZM1939.7,617.996C1927.96,617.996 1917.77,608.711 1914.47,594.712C1910.94,592.961 1908.59,588.675 1908.48,583.526C1908.34,577.365 1911.43,571.828 1915.85,569.964C1920.26,557.214 1929.91,548.107 1940.7,546.62C1947.21,545.723 1953.66,547.664 1958.84,552.089C1965.79,558.011 1969.9,567.664 1970.14,578.57C1970.56,598.056 1958.29,615.646 1942.79,617.782C1941.75,617.925 1940.72,617.996 1939.7,617.996Z" style="fill-rule:nonzero;"/>
                <path d="M1945.18,557.645C1945.33,566.56 1938.11,574.764 1929.05,575.967C1919.99,577.171 1912.53,570.92 1912.38,562.004C1912.24,553.089 1919.46,544.886 1928.52,543.682C1937.58,542.478 1945.04,548.73 1945.18,557.645Z" style="fill-rule:nonzero;"/>
            </g>
        </g>
        <path d="M4439.73,1152.57C4780.85,1383.18 4574.95,2102.56 4221.1,2114.13C3026.99,2153.17 3263.38,1886.28 3320.96,1663.85C3381.12,1431.46 3880.56,1697.16 4044.49,1493.9C4126.15,1392.65 4268.33,1036.7 4439.73,1152.57Z" style="fill:rgb(213,253,206);fill-rule:nonzero;"/>
        <path d="M4393.23,1149.27C4390.75,1138.41 4389.1,1132.28 4389.03,1132.02L4388.96,1131.53L4392.62,1131.05C4392.69,1131.31 4394.36,1137.51 4396.86,1148.44L4393.23,1149.27ZM4403.12,1198.64C4401.94,1191.94 4400.71,1185.27 4399.46,1178.83L4403.11,1178.12C4404.37,1184.58 4405.6,1191.27 4406.78,1198L4403.12,1198.64ZM4410.73,1248.42C4409.86,1241.77 4408.92,1235.06 4407.95,1228.47L4411.63,1227.93C4412.61,1234.53 4413.55,1241.26 4414.42,1247.94L4410.73,1248.42ZM4416.22,1298.47C4415.63,1291.85 4414.98,1285.11 4414.28,1278.43L4417.98,1278.04C4418.69,1284.74 4419.34,1291.5 4419.92,1298.15L4416.22,1298.47ZM4419.51,1348.71C4419.22,1342.09 4418.87,1335.32 4418.46,1328.6L4422.18,1328.37C4422.59,1335.12 4422.94,1341.91 4423.23,1348.55L4419.51,1348.71ZM4424.2,1399.05L4420.47,1399.03C4420.48,1397.31 4420.49,1395.59 4420.49,1393.88C4420.49,1388.91 4420.45,1383.88 4420.38,1378.9L4424.1,1378.85C4424.17,1383.84 4424.21,1388.9 4424.21,1393.88C4424.21,1395.6 4424.21,1397.32 4424.2,1399.05ZM4422.63,1449.55L4418.92,1449.34C4419.3,1442.71 4419.62,1435.94 4419.86,1429.23L4423.58,1429.36C4423.34,1436.1 4423.02,1442.89 4422.63,1449.55ZM4418.29,1499.89L4414.59,1499.46C4415.35,1492.9 4416.05,1486.17 4416.67,1479.45L4420.38,1479.79C4419.76,1486.54 4419.05,1493.3 4418.29,1499.89ZM4410.86,1549.88L4407.2,1549.21C4408.39,1542.69 4409.51,1536.01 4410.54,1529.37L4414.22,1529.94C4413.19,1536.62 4412.05,1543.32 4410.86,1549.88ZM4399.99,1599.28L4396.39,1598.35C4398.05,1591.94 4399.65,1585.36 4401.15,1578.78L4404.78,1579.6C4403.27,1586.22 4401.66,1592.84 4399.99,1599.28ZM4385.34,1647.69L4381.83,1646.46C4384.01,1640.2 4386.13,1633.77 4388.13,1627.36L4391.68,1628.46C4389.67,1634.92 4387.54,1641.39 4385.34,1647.69ZM4366.54,1694.66L4363.15,1693.11C4365.9,1687.08 4368.59,1680.87 4371.14,1674.66L4374.58,1676.07C4372.01,1682.33 4369.31,1688.58 4366.54,1694.66ZM4343.29,1739.61L4340.07,1737.73C4343.42,1732 4346.71,1726.09 4349.85,1720.16L4353.14,1721.9C4349.98,1727.88 4346.66,1733.83 4343.29,1739.61ZM4315.44,1781.84L4312.45,1779.62C4316.39,1774.31 4320.29,1768.79 4324.05,1763.24L4327.13,1765.32C4323.35,1770.92 4319.41,1776.48 4315.44,1781.84ZM3301.25,1794.83C3289.42,1789.48 3282.86,1786.32 3282.79,1786.28L3284.41,1782.93C3284.48,1782.96 3291,1786.11 3302.78,1791.44L3301.25,1794.83ZM3347.65,1814.95C3341.4,1812.34 3335.14,1809.69 3329.03,1807.06L3330.5,1803.64C3336.59,1806.26 3342.85,1808.91 3349.09,1811.52L3347.65,1814.95ZM4283.02,1820.67L4280.31,1818.12C4284.86,1813.27 4289.37,1808.24 4293.7,1803.17L4296.53,1805.59C4292.16,1810.7 4287.62,1815.77 4283.02,1820.67ZM3394.52,1833.87C3388.32,1831.46 3382,1828.96 3375.73,1826.44L3377.11,1822.99C3383.37,1825.5 3389.69,1827.99 3395.88,1830.41L3394.52,1833.87ZM3441.8,1851.7C3435.53,1849.42 3429.16,1847.06 3422.84,1844.7L3424.15,1841.22C3430.45,1843.58 3436.82,1845.93 3443.07,1848.2L3441.8,1851.7ZM4246.32,1855.46L4243.92,1852.61C4249.02,1848.32 4254.08,1843.85 4258.96,1839.33L4261.49,1842.06C4256.57,1846.62 4251.46,1851.13 4246.32,1855.46ZM3489.46,1868.43C3483.13,1866.29 3476.7,1864.09 3470.36,1861.87L3471.58,1858.36C3477.92,1860.57 3484.33,1862.77 3490.66,1864.91L3489.46,1868.43ZM3537.5,1884.03C3531.13,1882.05 3524.65,1880 3518.25,1877.93L3519.39,1874.39C3525.78,1876.45 3532.25,1878.5 3538.61,1880.48L3537.5,1884.03ZM4205.64,1885.56L4203.64,1882.42C4209.28,1878.83 4214.86,1875.05 4220.24,1871.17L4222.42,1874.19C4216.98,1878.11 4211.34,1881.93 4205.64,1885.56ZM3585.92,1898.43C3579.52,1896.62 3572.99,1894.73 3566.51,1892.82L3567.56,1889.25C3574.03,1891.16 3580.55,1893.04 3586.93,1894.85L3585.92,1898.43ZM4161.12,1909.65L4159.57,1906.26C4165.68,1903.47 4171.74,1900.51 4177.6,1897.45L4179.32,1900.75C4173.41,1903.84 4167.29,1906.83 4161.12,1909.65ZM3634.7,1911.53C3628.27,1909.9 3621.69,1908.19 3615.14,1906.45L3616.1,1902.86C3622.63,1904.59 3629.2,1906.3 3635.61,1907.92L3634.7,1911.53ZM3683.84,1923.2C3677.34,1921.76 3670.72,1920.25 3664.14,1918.71L3664.99,1915.09C3671.55,1916.63 3678.16,1918.13 3684.64,1919.56L3683.84,1923.2ZM4113.87,1927.79L4112.74,1924.24C4119.16,1922.2 4125.55,1920.01 4131.74,1917.72L4133.02,1921.22C4126.78,1923.52 4120.34,1925.73 4113.87,1927.79ZM3733.28,1933.28C3726.79,1932.07 3720.13,1930.78 3713.5,1929.45L3714.23,1925.81C3720.85,1927.13 3727.48,1928.41 3733.96,1929.62L3733.28,1933.28ZM4064.9,1940.51L4064.14,1936.87C4070.73,1935.51 4077.33,1934.01 4083.73,1932.42L4084.63,1936.03C4078.18,1937.63 4071.54,1939.14 4064.9,1940.51ZM3783.07,1941.59C3776.49,1940.62 3769.77,1939.58 3763.11,1938.49L3763.71,1934.82C3770.35,1935.9 3777.05,1936.94 3783.61,1937.91L3783.07,1941.59ZM3833.26,1947.89C3826.66,1947.21 3819.89,1946.45 3813.13,1945.63L3813.58,1941.93C3820.32,1942.75 3827.07,1943.51 3833.64,1944.19L3833.26,1947.89ZM4014.95,1948.52L4014.52,1944.83C4021.24,1944.04 4027.94,1943.14 4034.45,1942.16L4035,1945.84C4028.46,1946.83 4021.71,1947.73 4014.95,1948.52ZM3883.7,1951.88C3877.06,1951.52 3870.27,1951.09 3863.53,1950.58L3863.81,1946.87C3870.52,1947.37 3877.29,1947.81 3883.9,1948.16L3883.7,1951.88ZM3964.55,1952.49L3964.39,1948.77C3971.12,1948.48 3977.88,1948.1 3984.47,1947.63L3984.73,1951.35C3978.1,1951.81 3971.31,1952.2 3964.55,1952.49ZM3931.1,1953.18C3925.48,1953.18 3919.73,1953.12 3914,1953L3914.07,1949.28C3919.83,1949.4 3925.59,1949.46 3931.24,1949.46L3934.2,1949.45L3934.22,1953.18L3931.1,1953.18Z" style="fill-rule:nonzero;"/>
        <path d="M2768.96,2092.1L2773.37,2114.32L3111.57,2117.65L3116.12,2088.96L2768.96,2092.1Z" style="fill-rule:nonzero;"/>
        <path d="M2976.56,2000.81L3039.43,1773.55L3166.6,1853.53L3118.97,2018.26L2976.56,2000.81Z" style="fill:white;fill-rule:nonzero;"/>
        <path d="M2978.93,1999.22L3117.62,2016.22L3164.43,1854.36L3040.55,1776.45L2978.93,1999.22ZM3120.32,2020.3L3118.75,2020.1L2974.19,2002.39L3038.3,1770.64L3168.78,1852.7L3120.32,2020.3Z" style="fill-rule:nonzero;"/>
        <path d="M2770.99,2091.79C2770.94,2090.95 2769.76,2071.05 2779.56,2048.81C2788.63,2028.25 2809.19,2001.94 2855.66,1993.3C2942.77,1977.12 2989.26,1954.91 2989.72,1954.69L2991.69,1953.73L2992.32,1955.83C2992.36,1955.96 2996.22,1968.73 3006.56,1981.81C3020.33,1999.24 3038.47,2008.95 3060.46,2010.65C3064.4,2010.96 3068.19,2011.11 3071.71,2011.11C3100.84,2011.11 3108.88,2000.71 3114.21,1993.83C3116.99,1990.24 3119.39,1987.14 3123.69,1987.14C3125,1987.14 3126.4,1987.43 3127.96,1988.04L3129.35,1988.57L3114.06,2091.75L2771.11,2093.53L2770.99,2091.79Z" style="fill:white;fill-rule:nonzero;"/>
        <path d="M2992.86,1951.1L2988.91,1953.01C2988.39,1953.26 2942.06,1975.36 2855.32,1991.47C2834.53,1995.34 2817.04,2003.01 2803.34,2014.27C2792.32,2023.33 2783.75,2034.7 2777.86,2048.06C2767.87,2070.71 2769.08,2091.05 2769.14,2091.91L2769.37,2095.4L2772.87,2095.39L3112.48,2093.62L3115.67,2093.6L3116.14,2090.44L3130.97,1990.32L3131.41,1987.37L3128.64,1986.3C3126.85,1985.61 3125.24,1985.28 3123.69,1985.28C3118.48,1985.28 3115.56,1989.05 3112.73,1992.7C3107.33,1999.68 3099.92,2009.25 3071.71,2009.25C3068.23,2009.25 3064.5,2009.1 3060.6,2008.79C3039.1,2007.13 3021.38,1997.63 3007.93,1980.55C2997.85,1967.75 2994.14,1955.43 2994.1,1955.31L2992.86,1951.1ZM2990.53,1956.36C2990.53,1956.36 3005.88,2008.29 3060.31,2012.51C3064.42,2012.82 3068.21,2012.97 3071.71,2012.97C3116.26,2012.97 3113.29,1989 3123.69,1989C3124.74,1989 3125.92,1989.24 3127.29,1989.77L3112.46,2089.9L2772.85,2091.66C2772.85,2091.66 2767.58,2011.56 2856,1995.13C2944.43,1978.7 2990.53,1956.36 2990.53,1956.36Z" style="fill-rule:nonzero;"/>
        <path d="M2772.85,2091.66L2889.91,2091.05L2892.12,1987.62C2881,1990.19 2868.96,1992.73 2856,1995.13C2767.58,2011.56 2772.85,2091.66 2772.85,2091.66Z" style="fill:rgb(213,253,206);fill-rule:nonzero;"/>
        <path d="M2972.03,1956.77C2972.73,1956.2 2973.54,1955.76 2974.46,1955.49C2978.14,1954.42 2981.99,1956.62 2983.05,1960.4L2997.19,2010.62C2998.26,2014.41 2996.13,2018.34 2992.45,2019.41C2988.77,2020.48 2984.92,2018.28 2983.85,2014.5L2969.71,1964.28C2968.91,1961.43 2969.92,1958.5 2972.03,1956.77Z" style="fill-rule:nonzero;"/>
        <path d="M2946.33,1964.24C2947.03,1963.67 2947.84,1963.23 2948.75,1962.96C2952.44,1961.89 2956.29,1964.09 2957.35,1967.87L2971.49,2018.1C2972.55,2021.88 2970.43,2025.81 2966.75,2026.88C2963.06,2027.96 2959.21,2025.76 2958.15,2021.97L2944.01,1971.75C2943.21,1968.9 2944.21,1965.97 2946.33,1964.24Z" style="fill-rule:nonzero;"/>
        <path d="M2920.33,1971.8C2921.02,1971.23 2921.84,1970.79 2922.75,1970.52C2926.44,1969.45 2930.29,1971.65 2931.35,1975.43L2945.49,2025.65C2946.55,2029.44 2944.43,2033.37 2940.74,2034.44C2937.06,2035.51 2933.21,2033.32 2932.15,2029.53L2918.01,1979.31C2917.21,1976.46 2918.21,1973.53 2920.33,1971.8Z" style="fill-rule:nonzero;"/>
        <path d="M3150.81,1967.45C3150.81,1967.45 3178.92,1695.21 3340.62,1627.58C3420.57,1594.15 3553.14,1600.87 3625.59,1603.42C3805.59,1609.76 3895.42,1611.71 3895.42,1611.71C3974.12,1539.55 3934.81,1545.42 3893.68,1435.54C3893.68,1435.54 3443.99,1341.16 3201.91,1515.96C3005.17,1658.02 2980.92,1938.71 2980.92,1938.71C2988.34,1996.31 3083.98,2007.65 3150.81,1967.45Z" style="fill-rule:nonzero;"/>
        <path d="M3446.35,1529.63C3439.83,1529.25 3433.27,1529.05 3426.86,1529.04L3426.87,1525.31C3433.35,1525.33 3439.98,1525.53 3446.56,1525.91L3446.35,1529.63ZM3378.29,1532.43L3377.75,1528.74C3384.17,1527.8 3390.76,1527.04 3397.33,1526.49L3397.65,1530.2C3391.15,1530.75 3384.64,1531.5 3378.29,1532.43ZM3494.76,1535.49C3488.33,1534.31 3481.84,1533.28 3475.48,1532.43L3475.98,1528.74C3482.4,1529.6 3488.94,1530.64 3495.43,1531.82L3494.76,1535.49ZM3717.45,1542.18C3710.69,1541.73 3704.12,1541.62 3698.04,1541.85L3697.9,1538.13C3704.11,1537.9 3710.81,1538.01 3717.69,1538.47L3717.45,1542.18ZM3330.9,1543.33L3329.77,1539.79C3335.98,1537.8 3342.36,1536 3348.74,1534.43L3349.63,1538.04C3343.34,1539.59 3337.03,1541.38 3330.9,1543.33ZM3542.21,1546.92C3535.96,1545.05 3529.63,1543.3 3523.38,1541.72L3524.29,1538.12C3530.59,1539.71 3536.98,1541.47 3543.27,1543.35L3542.21,1546.92ZM3765.5,1549.89C3759.03,1548.33 3752.61,1546.97 3746.41,1545.86L3747.08,1542.19C3753.34,1543.32 3759.83,1544.7 3766.37,1546.27L3765.5,1549.89ZM3651.82,1553.39L3649.96,1550.16C3655.44,1547 3661.66,1544.42 3668.44,1542.49L3669.46,1546.07C3662.97,1547.92 3657.04,1550.38 3651.82,1553.39ZM3286.03,1562L3284.31,1558.7C3290.13,1555.67 3296.11,1552.82 3302.1,1550.21L3303.59,1553.62C3297.68,1556.2 3291.77,1559.02 3286.03,1562ZM3588.22,1563.28C3582.26,1560.8 3576.13,1558.41 3570.02,1556.16L3571.3,1552.67C3577.46,1554.93 3583.64,1557.35 3589.64,1559.84L3588.22,1563.28ZM3812.1,1564.32C3812.03,1564.29 3804.95,1561.44 3793.7,1557.82L3794.84,1554.28C3806.23,1557.94 3813.42,1560.84 3813.5,1560.87L3812.1,1564.32ZM3626.54,1581.67L3624.79,1580.66C3624.76,1580.64 3621.24,1578.62 3614.88,1575.43L3616.55,1572.1C3620.45,1574.05 3623.26,1575.56 3624.91,1576.47C3625.92,1574.49 3627.01,1572.58 3628.18,1570.77L3631.31,1572.78C3629.88,1575 3628.57,1577.38 3627.4,1579.84L3626.54,1581.67ZM3244.93,1587.93L3242.69,1584.96C3247.95,1581 3253.38,1577.2 3258.81,1573.63L3260.85,1576.75C3255.48,1580.27 3250.12,1584.03 3244.93,1587.93ZM3208.39,1620.02L3205.74,1617.41C3210.36,1612.71 3215.14,1608.12 3219.93,1603.77L3222.43,1606.53C3217.69,1610.83 3212.96,1615.37 3208.39,1620.02ZM3176.62,1656.9L3173.65,1654.65C3177.64,1649.38 3181.77,1644.21 3185.91,1639.26L3188.76,1641.66C3184.66,1646.55 3180.57,1651.68 3176.62,1656.9ZM3149.38,1697.31L3146.19,1695.4C3149.59,1689.73 3153.11,1684.13 3156.65,1678.75L3159.76,1680.79C3156.25,1686.13 3152.76,1691.69 3149.38,1697.31ZM3126.24,1740.25L3122.89,1738.63C3125.76,1732.7 3128.74,1726.79 3131.75,1721.09L3135.04,1722.82C3132.05,1728.49 3129.09,1734.36 3126.24,1740.25ZM3106.66,1784.97L3103.2,1783.6C3105.62,1777.47 3108.13,1771.36 3110.67,1765.44L3114.09,1766.9C3111.57,1772.8 3109.07,1778.88 3106.66,1784.97ZM3090.16,1830.95L3086.62,1829.8C3088.66,1823.54 3090.77,1817.28 3092.91,1811.2L3096.42,1812.43C3094.29,1818.48 3092.19,1824.71 3090.16,1830.95ZM3076.33,1877.82L3072.73,1876.86C3074.44,1870.49 3076.21,1864.13 3077.99,1857.95L3081.57,1858.98C3079.79,1865.14 3078.02,1871.48 3076.33,1877.82ZM3064.79,1925.34L3061.15,1924.54C3062.57,1918.11 3064.04,1911.68 3065.53,1905.41L3069.15,1906.27C3067.66,1912.52 3066.2,1918.93 3064.79,1925.34ZM3055.25,1973.32L3051.58,1972.66C3052.74,1966.19 3053.96,1959.69 3055.19,1953.36L3058.84,1954.08C3057.61,1960.39 3056.4,1966.86 3055.25,1973.32Z" style="fill:white;fill-rule:nonzero;"/>
        <path d="M3838.53,1159.82C3838.74,1193.78 3844.48,1227.07 3861.48,1223.34C3910.04,1212.66 3901.68,1132.79 3901.99,1073.19C3902.22,1030.05 3903.08,987.388 3893.08,986.89C3882.55,986.365 3887.06,999.243 3884.22,1064C3883.49,1051.34 3880.34,1042.81 3873.94,1043.59C3866.31,1044.51 3868.85,1056 3867.95,1060.94C3866,1056.73 3867.65,1041.76 3856.88,1044.48C3849.27,1046.41 3850.23,1053.68 3849.78,1061.31C3849.6,1047.03 3835.98,1042.37 3835.49,1057.5C3835.19,1066.77 3835.18,1091.51 3835.47,1101.78C3836.2,1127.35 3838.48,1152.64 3838.53,1159.82Z" style="fill:white;fill-rule:nonzero;"/>
        <path d="M3841.29,1050.01C3839.04,1050.01 3837.5,1052.97 3837.35,1057.56C3837.05,1066.87 3837.04,1091.64 3837.33,1101.73C3837.77,1116.99 3838.76,1132.27 3839.49,1143.43C3839.98,1150.94 3840.37,1156.87 3840.39,1159.81C3840.59,1191.43 3845.36,1213.28 3853.47,1219.76C3855.74,1221.57 3858.23,1222.15 3861.08,1221.52C3901.82,1212.56 3901.02,1151.37 3900.31,1097.39C3900.2,1088.95 3900.09,1080.97 3900.13,1073.18L3900.18,1065.92C3900.3,1045.43 3900.42,1026.08 3899.33,1011.52C3897.82,991.178 3894.39,988.819 3892.99,988.749C3891.13,988.661 3890.43,989.089 3890.02,989.475C3887.58,991.765 3887.47,1001.06 3887.27,1017.93C3887.13,1029 3886.95,1044.17 3886.08,1064.08C3886.03,1065.07 3885.22,1065.85 3884.23,1065.86L3884.22,1065.86C3883.23,1065.86 3882.42,1065.09 3882.36,1064.11C3881.83,1054.96 3880.03,1048.65 3877.28,1046.35C3876.35,1045.58 3875.37,1045.29 3874.16,1045.43C3870.39,1045.89 3870.08,1050.19 3870.06,1056.21C3870.05,1058.09 3870.04,1059.86 3869.79,1061.27C3869.64,1062.07 3869,1062.68 3868.19,1062.78C3867.39,1062.89 3866.61,1062.46 3866.27,1061.72C3865.65,1060.39 3865.37,1058.5 3865.05,1056.32C3864.51,1052.69 3863.85,1048.18 3861.52,1046.62C3860.5,1045.94 3859.13,1045.83 3857.34,1046.29C3852.37,1047.54 3852,1051.46 3851.77,1058.26C3851.74,1059.3 3851.7,1060.36 3851.64,1061.42C3851.58,1062.42 3850.74,1063.22 3849.74,1063.17C3848.74,1063.15 3847.93,1062.34 3847.92,1061.33C3847.83,1054.08 3843.95,1050.04 3841.31,1050.01L3841.29,1050.01ZM3858.91,1225.49C3856.1,1225.49 3853.5,1224.54 3851.15,1222.67C3838.83,1212.83 3836.79,1179.08 3836.67,1159.83C3836.65,1157 3836.26,1151.12 3835.78,1143.67C3835.05,1132.48 3834.05,1117.16 3833.61,1101.83C3833.32,1091.69 3833.33,1066.8 3833.63,1057.44C3833.9,1049.21 3837.75,1046.29 3841.29,1046.29L3841.35,1046.29C3843.96,1046.31 3846.7,1047.98 3848.69,1050.95C3849.5,1047.12 3851.44,1043.94 3856.43,1042.68C3859.26,1041.96 3861.67,1042.25 3863.58,1043.53C3865.22,1044.62 3866.29,1046.28 3867.02,1048.17C3867.85,1044.94 3869.67,1042.23 3873.71,1041.74C3875.95,1041.47 3877.94,1042.06 3879.66,1043.5C3880.94,1044.57 3882.04,1046.1 3882.95,1048.1C3883.33,1035.78 3883.45,1025.79 3883.54,1017.89C3883.79,997.693 3883.88,990.138 3887.47,986.764C3889.29,985.046 3891.6,984.954 3893.18,985.032C3903.85,985.563 3904.2,1016.13 3903.9,1065.95L3903.86,1073.2C3903.81,1080.96 3903.92,1088.91 3904.03,1097.34C3904.76,1152.75 3905.58,1215.55 3861.88,1225.15C3860.86,1225.38 3859.87,1225.49 3858.91,1225.49Z" style="fill-rule:nonzero;"/>
        <path d="M3842.12,1092.21C3849.3,1092.8 3854.73,1048.33 3840.72,1048.19C3829.05,1048.07 3834.94,1091.61 3842.12,1092.21Z" style="fill:white;fill-rule:nonzero;"/>
        <path d="M3840.68,1050.05C3838.3,1050.05 3836.59,1053.84 3836.1,1060.2C3835.04,1073.97 3839.75,1089.92 3842.26,1090.35C3844.45,1089.81 3848.74,1075.96 3847.31,1062.03C3846.95,1058.45 3845.56,1050.1 3840.7,1050.05L3840.68,1050.05ZM3842.27,1090.35L3842.28,1090.35L3842.27,1090.35ZM3842.26,1094.07C3842.16,1094.07 3842.06,1094.07 3841.96,1094.06C3835.05,1093.48 3831.78,1072.59 3832.3,1061.41C3832.91,1048.32 3837.78,1046.33 3840.68,1046.33L3840.74,1046.33C3842.96,1046.35 3846.07,1047.27 3848.34,1051.54C3853.71,1061.63 3850.97,1084.35 3846.38,1091.32C3844.91,1093.55 3843.38,1094.07 3842.26,1094.07Z" style="fill-rule:nonzero;"/>
        <path d="M3860.54,1093.68C3869.13,1092.92 3871.68,1044.55 3857.68,1044.4C3846.01,1044.27 3853.36,1094.31 3860.54,1093.68Z" style="fill:white;fill-rule:nonzero;"/>
        <path d="M3857.64,1046.26C3855.26,1046.26 3854.25,1051 3853.92,1053.04C3851.58,1067.73 3857.26,1090.66 3860.43,1091.82C3862.63,1091.46 3866.23,1080.8 3865.67,1066.16C3865.2,1054.12 3862.06,1046.31 3857.66,1046.26L3857.64,1046.26ZM3860.54,1093.68L3860.55,1093.68L3860.54,1093.68ZM3860.39,1095.54C3858.9,1095.54 3857.52,1094.59 3856.28,1092.7C3851.1,1084.76 3846.89,1055.82 3852.16,1046.21C3853.84,1043.15 3856.06,1042.53 3857.7,1042.54C3864.55,1042.61 3868.81,1051.17 3869.38,1066.01C3869.84,1077.91 3867.45,1094.94 3860.7,1095.53C3860.6,1095.54 3860.49,1095.54 3860.39,1095.54Z" style="fill-rule:nonzero;"/>
        <path d="M3876.83,1092.21C3883.99,1091.4 3887.95,1043.59 3873.94,1043.59C3862.39,1043.59 3868.81,1093.1 3876.83,1092.21Z" style="fill:white;fill-rule:nonzero;"/>
        <path d="M3876.62,1090.36M3873.93,1045.45C3873.6,1045.45 3872.61,1045.45 3871.59,1047.38C3867.24,1055.59 3870.3,1081.75 3875.29,1089.09C3876.01,1090.14 3876.49,1090.35 3876.61,1090.36C3879.28,1089.44 3883.06,1071.48 3880.77,1056.95C3880.1,1052.65 3878.31,1045.45 3873.94,1045.45L3873.93,1045.45ZM3876.83,1092.21M3876.59,1094.08C3875,1094.08 3873.53,1093.11 3872.22,1091.18C3866.51,1082.8 3863.3,1055.09 3868.3,1045.64C3870.01,1042.4 3872.31,1041.72 3873.94,1041.72C3880.37,1041.72 3884.33,1049.06 3885.07,1062.38C3885.65,1072.71 3883.84,1093.29 3877.03,1094.05C3876.88,1094.07 3876.73,1094.08 3876.59,1094.08Z" style="fill-rule:nonzero;"/>
        <path d="M3901.85,1129.42C3901.85,1129.42 3911.42,1088.33 3901.85,1081.55C3892.28,1074.77 3856.38,1062.8 3852.39,1074.77C3848.4,1086.74 3884.7,1085.54 3885.5,1091.12C3886.29,1096.71 3866.68,1093.52 3864.12,1112.26C3861.56,1131.01 3901.85,1129.42 3901.85,1129.42Z" style="fill:white;fill-rule:nonzero;"/>
        <path d="M3863.42,1071.54C3861.17,1071.54 3859.26,1071.78 3857.76,1072.27C3855.81,1072.91 3854.63,1073.92 3854.15,1075.36C3853.83,1076.33 3853.88,1077.13 3854.31,1077.86C3856.35,1081.36 3865.96,1083.25 3872.97,1084.63C3881.32,1086.26 3886.84,1087.35 3887.34,1090.86C3887.84,1094.4 3884.2,1095.71 3880.67,1096.97C3875.09,1098.98 3867.43,1101.72 3865.96,1112.52C3865.58,1115.31 3866.29,1117.64 3868.11,1119.65C3875.02,1127.26 3894.88,1127.63 3900.36,1127.58C3903.82,1112.04 3906.82,1087.35 3900.78,1083.07C3896.84,1080.28 3888.38,1076.7 3880.2,1074.36C3873.69,1072.5 3867.89,1071.54 3863.42,1071.54ZM3901.85,1129.42L3901.86,1129.42L3901.85,1129.42ZM3899.4,1131.32C3892.4,1131.32 3872.97,1130.53 3865.36,1122.15C3862.78,1119.32 3861.74,1115.91 3862.28,1112.01C3864.05,1098.98 3873.67,1095.53 3879.42,1093.47C3881.01,1092.9 3883.41,1092.04 3883.65,1091.48C3882.66,1090.32 3876.42,1089.1 3872.25,1088.28C3863.27,1086.52 3853.98,1084.69 3851.09,1079.74C3850.11,1078.05 3849.95,1076.18 3850.62,1074.18C3851.49,1071.58 3853.5,1069.75 3856.6,1068.73C3863.69,1066.41 3875.07,1069.02 3881.23,1070.78C3889.9,1073.27 3898.62,1076.98 3902.93,1080.03C3913.22,1087.32 3904.67,1125.51 3903.66,1129.84C3903.47,1130.66 3902.76,1131.24 3901.92,1131.28C3901.74,1131.28 3900.82,1131.32 3899.4,1131.32Z" style="fill-rule:nonzero;"/>
        <path d="M3930.3,1418.2C3897.54,1418.2 3871.25,1398.75 3852.17,1360.38C3831.19,1318.2 3819.47,1254.08 3817.32,1169.8C3824,1144.31 3853.08,1122.82 3880.97,1122.82C3890.73,1122.82 3899.64,1125.63 3906.8,1130.95C3907.07,1137.54 3909.03,1179.66 3915.98,1221.28C3926.23,1282.68 3942.06,1313.81 3963.03,1313.81C3966.17,1313.81 3969.44,1313.09 3972.74,1311.67C4024.59,1289.41 4050.8,1249.56 4071.29,1213.96C4094.3,1173.99 4118.56,1164.31 4125.76,1162.23L4125.76,1265.47C4091.25,1313.41 4056.84,1351.07 4023.5,1377.43C3989.28,1404.49 3957.92,1418.2 3930.3,1418.2Z" style="fill:white;fill-rule:nonzero;"/>
        <path d="M3880.97,1120.96C3853.03,1120.96 3822.34,1142.67 3815.45,1169.59C3819.92,1346.61 3866.18,1420.06 3930.3,1420.06C3987.51,1420.06 4058.94,1361.6 4127.62,1266.07L4127.62,1159.88C4127.62,1159.88 4097.83,1164.14 4069.68,1213.03C4047.84,1250.97 4021.82,1288.57 3972.01,1309.96C3968.87,1311.31 3965.88,1311.95 3963.03,1311.95C3914.99,1311.95 3908.63,1130 3908.63,1130C3900.56,1123.73 3890.94,1120.96 3880.97,1120.96ZM3880.96,1120.96L3880.97,1124.68C3890.14,1124.68 3898.21,1127.12 3904.98,1131.93C3905.37,1140.84 3907.44,1181.45 3914.14,1221.59C3918.6,1248.29 3924.22,1269.62 3930.85,1284.99C3939.62,1305.35 3950.45,1315.67 3963.03,1315.67C3966.43,1315.67 3969.94,1314.9 3973.47,1313.38C4025.85,1290.89 4052.26,1250.75 4072.91,1214.89C4080.63,1201.47 4093.47,1183.05 4110.75,1171.55C4116.24,1167.9 4120.82,1165.87 4123.9,1164.77L4123.9,1264.87C4089.6,1312.43 4055.44,1349.81 4022.35,1375.97C3988.46,1402.76 3957.49,1416.34 3930.3,1416.34C3898.31,1416.34 3872.58,1397.24 3853.84,1359.55C3833,1317.66 3821.34,1253.9 3819.18,1170.02C3822.36,1158.16 3830.63,1146.87 3842.51,1138.19C3854.25,1129.6 3868.26,1124.68 3880.96,1124.68L3880.96,1120.96Z" style="fill-rule:nonzero;"/>
        <path d="M3000.29,2094.5L3004.65,2116.73L3342.84,2120.7L3347.45,2092.01L3000.29,2094.5Z" style="fill-rule:nonzero;"/>
        <path d="M3208.06,2003.6L3271.35,1776.46L3381.86,1850.83L3350.43,2021.32L3208.06,2003.6Z" style="fill:white;fill-rule:nonzero;"/>
        <path d="M3210.43,2002.02L3348.92,2019.25L3379.81,1851.69L3272.45,1779.44L3210.43,2002.02ZM3351.95,2023.38L3205.68,2005.18L3270.25,1773.48L3383.91,1849.97L3351.95,2023.38Z" style="fill-rule:nonzero;"/>
        <path d="M3002.32,2094.19C3002.26,2093.35 3001.12,2073.45 3010.97,2051.23C3020.07,2030.69 3040.68,2004.41 3087.17,1995.87C3174.31,1979.85 3220.85,1957.72 3221.31,1957.5L3223.28,1956.55L3223.9,1958.65C3223.94,1958.78 3227.78,1971.56 3238.09,1984.66C3251.83,2002.12 3269.95,2011.86 3291.93,2013.6C3295.96,2013.92 3299.82,2014.08 3303.41,2014.08C3332.36,2014.08 3340.4,2003.74 3345.72,1996.89C3348.5,1993.3 3350.91,1990.21 3355.2,1990.21C3356.51,1990.21 3357.91,1990.51 3359.48,1991.12L3360.87,1991.66L3345.39,2094.8L3002.43,2095.94L3002.32,2094.19Z" style="fill:white;fill-rule:nonzero;"/>
        <path d="M3224.44,1953.93L3220.5,1955.83C3219.97,1956.08 3173.61,1978.08 3086.84,1994.04C3066.03,1997.86 3048.53,2005.5 3034.81,2016.74C3023.78,2025.78 3015.18,2037.13 3009.27,2050.47C2999.24,2073.11 3000.4,2093.45 3000.46,2094.31L3000.68,2097.8L3004.19,2097.79L3343.8,2096.67L3346.99,2096.66L3347.46,2093.5L3362.49,1993.4L3362.93,1990.46L3360.16,1989.38C3358.37,1988.69 3356.75,1988.35 3355.2,1988.35C3349.99,1988.35 3347.07,1992.11 3344.25,1995.75C3338.84,2002.7 3331.45,2012.22 3303.41,2012.22C3299.87,2012.22 3296.06,2012.06 3292.08,2011.75C3270.68,2010.05 3253.04,2000.58 3239.64,1983.61C3229.51,1970.79 3225.72,1958.25 3225.68,1958.13L3224.44,1953.93ZM3222.11,1959.18C3222.11,1959.18 3237.36,2011.14 3291.79,2015.46C3295.98,2015.79 3299.85,2015.94 3303.41,2015.94C3347.71,2015.94 3344.83,1992.07 3355.2,1992.07C3356.25,1992.07 3357.43,1992.31 3358.81,1992.85L3343.78,2092.95L3004.17,2094.07C3004.17,2094.07 2999.05,2013.96 3087.51,1997.7C3175.96,1981.43 3222.11,1959.18 3222.11,1959.18Z" style="fill-rule:nonzero;"/>
        <path d="M3004.17,2094.07L3121.23,2093.68L3123.65,1990.25C3112.51,1992.8 3100.47,1995.31 3087.51,1997.7C2999.05,2013.96 3004.17,2094.07 3004.17,2094.07Z" style="fill:rgb(213,253,206);fill-rule:nonzero;"/>
        <path d="M3203.61,1959.55C3204.31,1958.98 3205.13,1958.54 3206.04,1958.28C3209.72,1957.22 3213.57,1959.42 3214.63,1963.21L3228.67,2013.45C3229.73,2017.24 3227.6,2021.17 3223.91,2022.23C3220.22,2023.3 3216.38,2021.09 3215.32,2017.31L3201.28,1967.06C3200.48,1964.21 3201.49,1961.28 3203.61,1959.55Z" style="fill-rule:nonzero;"/>
        <path d="M3177.9,1966.97C3178.59,1966.4 3179.41,1965.97 3180.32,1965.7C3184.01,1964.64 3187.85,1966.84 3188.91,1970.63L3202.95,2020.88C3204.01,2024.66 3201.88,2028.59 3198.19,2029.66C3194.51,2030.72 3190.66,2028.52 3189.6,2024.73L3175.56,1974.48C3174.77,1971.63 3175.78,1968.7 3177.9,1966.97Z" style="fill-rule:nonzero;"/>
        <path d="M3151.88,1974.48C3152.58,1973.91 3153.39,1973.47 3154.31,1973.21C3157.99,1972.15 3161.84,1974.35 3162.89,1978.14L3176.93,2028.39C3177.99,2032.17 3175.86,2036.1 3172.18,2037.17C3168.49,2038.23 3164.65,2036.03 3163.59,2032.24L3149.55,1981.99C3148.75,1979.14 3149.76,1976.21 3151.88,1974.48Z" style="fill-rule:nonzero;"/>
        <path d="M3367.35,1971.05C3367.35,1971.05 3395.54,1695.22 3557.24,1627.59C3637.18,1594.16 3704.46,1632.66 3772.88,1656.64C3920.07,1708.23 3976.13,1651.41 3976.13,1651.41C4054.83,1579.25 4055.53,1555.86 4014.4,1445.98C4014.4,1445.98 3612.88,1330.64 3409.46,1482.27C3243.16,1606.23 3184.34,1929.2 3184.34,1929.2C3191.76,1986.8 3300.52,2011.25 3367.35,1971.05Z" style="fill-rule:nonzero;"/>
        <path d="M3649.78,1520.11C3643.26,1519.74 3636.7,1519.54 3630.29,1519.52L3630.3,1515.8C3636.78,1515.82 3643.41,1516.02 3649.99,1516.4L3649.78,1520.11ZM3581.72,1522.91L3581.18,1519.23C3587.6,1518.29 3594.19,1517.53 3600.76,1516.98L3601.07,1520.69C3594.57,1521.23 3588.06,1521.98 3581.72,1522.91ZM3698.19,1525.97C3691.76,1524.8 3685.27,1523.77 3678.91,1522.92L3679.4,1519.23C3685.82,1520.09 3692.37,1521.13 3698.86,1522.31L3698.19,1525.97ZM3920.87,1532.67C3914.11,1532.22 3907.55,1532.11 3901.47,1532.34L3901.33,1528.62C3907.54,1528.38 3914.23,1528.5 3921.12,1528.96L3920.87,1532.67ZM3534.33,1533.82L3533.19,1530.28C3539.41,1528.29 3545.79,1526.49 3552.16,1524.91L3553.06,1528.53C3546.76,1530.08 3540.46,1531.86 3534.33,1533.82ZM3745.63,1537.4C3739.39,1535.54 3733.05,1533.79 3726.8,1532.21L3727.72,1528.6C3734.02,1530.2 3740.4,1531.96 3746.7,1533.84L3745.63,1537.4ZM3968.93,1540.38C3962.46,1538.82 3956.03,1537.46 3949.84,1536.34L3950.5,1532.68C3956.76,1533.81 3963.26,1535.18 3969.8,1536.76L3968.93,1540.38ZM3855.24,1543.87L3853.38,1540.65C3858.87,1537.48 3865.09,1534.9 3871.87,1532.98L3872.88,1536.56C3866.4,1538.4 3860.47,1540.86 3855.24,1543.87ZM3489.46,1552.49L3487.74,1549.18C3493.56,1546.16 3499.54,1543.3 3505.53,1540.69L3507.01,1544.11C3501.11,1546.68 3495.2,1549.5 3489.46,1552.49ZM3791.64,1553.76C3785.68,1551.29 3779.56,1548.89 3773.44,1546.65L3774.73,1543.16C3780.89,1545.42 3787.06,1547.83 3793.07,1550.33L3791.64,1553.76ZM4015.53,1554.8C4015.46,1554.78 4008.37,1551.93 3997.13,1548.31L3998.27,1544.77C4009.65,1548.43 4016.85,1551.32 4016.92,1551.35L4015.53,1554.8ZM3829.97,1572.16L3828.22,1571.15C3828.18,1571.13 3824.66,1569.1 3818.31,1565.91L3819.98,1562.59C3823.87,1564.54 3826.69,1566.05 3828.34,1566.95C3829.34,1564.98 3830.44,1563.07 3831.6,1561.25L3834.74,1563.26C3833.31,1565.48 3831.99,1567.86 3830.83,1570.33L3829.97,1572.16ZM3448.36,1578.42L3446.12,1575.44C3451.38,1571.49 3456.8,1567.68 3462.24,1564.12L3464.28,1567.23C3458.91,1570.75 3453.55,1574.51 3448.36,1578.42ZM3411.82,1610.5L3409.16,1607.89C3413.79,1603.19 3418.56,1598.61 3423.36,1594.26L3425.86,1597.02C3421.12,1601.32 3416.39,1605.85 3411.82,1610.5ZM3380.04,1647.38L3377.08,1645.14C3381.07,1639.87 3385.19,1634.69 3389.34,1629.75L3392.19,1632.14C3388.08,1637.04 3384,1642.17 3380.04,1647.38ZM3352.81,1687.8L3349.62,1685.88C3353.02,1680.22 3356.54,1674.62 3360.08,1669.23L3363.19,1671.28C3359.68,1676.62 3356.19,1682.18 3352.81,1687.8ZM3329.66,1730.74L3326.31,1729.11C3329.18,1723.18 3332.17,1717.28 3335.17,1711.57L3338.46,1713.31C3335.48,1718.98 3332.52,1724.84 3329.66,1730.74ZM3310.08,1775.46L3306.62,1774.09C3309.05,1767.96 3311.56,1761.85 3314.1,1755.92L3317.52,1757.39C3315,1763.28 3312.49,1769.36 3310.08,1775.46ZM3293.59,1821.44L3290.05,1820.29C3292.09,1814.01 3294.2,1807.75 3296.33,1801.68L3299.85,1802.92C3297.72,1808.96 3295.62,1815.19 3293.59,1821.44ZM3279.75,1868.31L3276.16,1867.35C3277.86,1860.98 3279.63,1854.62 3281.42,1848.44L3284.99,1849.47C3283.21,1855.63 3281.45,1861.96 3279.75,1868.31ZM3268.21,1915.82L3264.58,1915.02C3265.99,1908.59 3267.46,1902.16 3268.95,1895.89L3272.58,1896.75C3271.09,1903 3269.62,1909.41 3268.21,1915.82ZM3258.67,1963.8L3255.01,1963.14C3256.17,1956.67 3257.38,1950.18 3258.61,1943.85L3262.27,1944.56C3261.04,1950.87 3259.83,1957.35 3258.67,1963.8Z" style="fill:white;fill-rule:nonzero;"/>
        <path d="M3830.26,1672.55C4076.69,1728.45 4302.12,1422.8 4319.96,1191.29C4298.84,1169.41 4301.46,1150.56 4236.71,1133.07C4202.63,1123.86 4125.47,1153.38 4120.35,1167.4C4000.21,1459.26 3778.66,1411.48 3778.66,1411.48C3860.51,1501.15 3867.62,1543.84 3830.26,1672.55Z" style="fill:white;fill-rule:nonzero;"/>
        <path d="M3832.6,1671.16C3915.61,1689.35 4002.48,1667.25 4083.95,1607.17C4146.42,1561.1 4202.22,1495.68 4245.3,1417.99C4286.57,1343.56 4312.39,1263.33 4318.04,1191.97C4313.19,1186.86 4309.6,1181.93 4306.12,1177.16C4294.7,1161.51 4284.84,1148 4236.22,1134.87C4221.62,1130.92 4196.21,1134.07 4168.25,1143.29C4140.84,1152.34 4124.01,1162.79 4122.1,1168.04C4094.57,1234.91 4059.41,1289.38 4017.57,1330C3984.05,1362.54 3946.2,1386.31 3905.07,1400.64C3847.48,1420.71 3799.3,1416.43 3783.64,1414.19C3825.29,1460.42 3844.29,1492.35 3850.99,1527.02C3858.71,1566.97 3849.72,1611.88 3832.6,1671.16ZM3889.7,1681.08C3869.61,1681.08 3849.63,1678.85 3829.85,1674.36L3827.92,1673.93L3828.47,1672.03C3845.8,1612.33 3855,1567.37 3847.33,1527.73C3840.59,1492.81 3820.95,1460.57 3777.29,1412.73L3773.37,1408.44L3779.06,1409.66C3779.61,1409.78 3834.9,1421.21 3904.04,1397.06C3944.63,1382.88 3981.99,1359.38 4015.09,1327.22C4056.51,1286.98 4091.34,1232.97 4118.63,1166.69C4124.34,1151.06 4202.86,1121.99 4237.19,1131.27C4287.07,1144.75 4297.78,1159.43 4309.12,1174.97C4312.67,1179.83 4316.33,1184.85 4321.3,1189.99L4321.88,1190.59L4321.81,1191.43C4316.26,1263.52 4290.24,1344.62 4248.55,1419.8C4205.21,1497.95 4149.06,1563.78 4086.16,1610.17C4022.54,1657.08 3955.61,1681.08 3889.7,1681.08Z" style="fill-rule:nonzero;"/>
        <path d="M4242.26,1146.24L4243.34,1097.65L4196.85,1110.66L4197.91,1135.79C4197.91,1135.79 4143.23,1175.15 4162.65,1200.42C4184.86,1229.33 4239.82,1161.23 4242.26,1146.24Z" style="fill:white;fill-rule:nonzero;"/>
        <path d="M4198.78,1112.06L4199.81,1136.71L4199,1137.3C4198.64,1137.55 4163.83,1162.85 4160.58,1185.02C4159.78,1190.47 4160.94,1195.14 4164.13,1199.29C4168.52,1205 4174.39,1206.84 4182.09,1204.9C4205.82,1198.91 4238.37,1157.47 4240.4,1146.06L4241.43,1100.12L4198.78,1112.06ZM4176.64,1209.34C4170.4,1209.34 4165.13,1206.71 4161.18,1201.56C4157.4,1196.64 4155.96,1190.89 4156.9,1184.48C4158.37,1174.44 4165.57,1162.92 4178.29,1150.24C4186.13,1142.42 4193.58,1136.69 4196.01,1134.87L4194.93,1109.27L4245.26,1095.18L4244.1,1146.54C4242.12,1158.69 4208.54,1202.06 4183,1208.5C4180.78,1209.06 4178.66,1209.34 4176.64,1209.34Z" style="fill-rule:nonzero;"/>
        <path d="M4217.4,970.428C4217.4,970.428 4330.08,1000.1 4298.52,1071.71C4281.54,1110.26 4205.59,1122.36 4202.53,1105.95C4199.48,1089.53 4210.31,1073.75 4226.73,1070.69C4234.99,1069.16 4207.36,1052.92 4204.31,1036.51C4201.25,1020.09 4217.4,970.428 4217.4,970.428Z" style="fill-rule:nonzero;"/>
        <path d="M4246.84,1023.16C4261.62,1032.27 4267.27,1051.56 4262.83,1071.51C4268.04,1075.48 4268.39,1084.74 4263.45,1092.76C4259.21,1099.63 4252.42,1103.44 4246.86,1102.6C4230.21,1121.5 4205.96,1128.36 4188.59,1117.66C4168.5,1105.27 4165.26,1074.08 4181.34,1047.98C4197.43,1021.89 4226.75,1010.78 4246.84,1023.16Z" style="fill:white;fill-rule:nonzero;"/>
        <path d="M4228.47,1019.96C4212.14,1019.96 4194.19,1030.69 4182.93,1048.96C4175.36,1061.23 4171.93,1075.02 4173.25,1087.77C4174.56,1100.34 4180.36,1110.39 4189.57,1116.07C4205.7,1126.01 4229.2,1119.83 4245.46,1101.37L4246.14,1100.61L4247.14,1100.76C4252.08,1101.51 4258.14,1097.82 4261.86,1091.78C4266.25,1084.66 4266.18,1076.4 4261.7,1072.99L4260.76,1072.27L4261.02,1071.1C4265.42,1051.33 4259.47,1033.13 4245.87,1024.74C4240.6,1021.5 4234.65,1019.96 4228.47,1019.96ZM4206.84,1124.49C4199.97,1124.49 4193.38,1122.79 4187.62,1119.24C4177.4,1112.94 4170.98,1101.9 4169.55,1088.15C4168.14,1074.59 4171.76,1059.98 4179.76,1047.01C4196.36,1020.08 4226.89,1008.68 4247.82,1021.58C4262.54,1030.65 4269.17,1049.89 4264.88,1070.81C4270.08,1075.75 4270.21,1085.33 4265.03,1093.74C4260.72,1100.73 4253.83,1104.96 4247.61,1104.55C4235.92,1117.46 4220.8,1124.49 4206.84,1124.49Z" style="fill-rule:nonzero;"/>
        <path d="M4268.54,1076.08C4268.54,1076.08 4215.85,1064.22 4218.04,999.427C4218.04,999.427 4283.85,1009.25 4280.28,1035.55C4276.71,1061.86 4268.54,1076.08 4268.54,1076.08Z" style="fill-rule:nonzero;"/>
        <path d="M4191.62,1098.09C4189.34,1104.94 4190.86,1111.62 4195.02,1113.01C4199.18,1114.4 4204.41,1109.97 4206.69,1103.12C4208.98,1096.27 4207.46,1089.6 4203.3,1088.21C4199.13,1086.82 4193.91,1091.25 4191.62,1098.09Z" style="fill:white;fill-rule:nonzero;"/>
        <path d="M4201.71,1089.82C4198.75,1089.82 4195.08,1093.61 4193.39,1098.68C4191.5,1104.35 4192.54,1110.22 4195.61,1111.24C4198.7,1112.27 4203.04,1108.2 4204.93,1102.53C4206.82,1096.87 4205.78,1091 4202.71,1089.97C4202.39,1089.87 4202.05,1089.82 4201.71,1089.82ZM4196.62,1115.13C4195.88,1115.13 4195.15,1115.01 4194.43,1114.77C4189.22,1113.03 4187.21,1105.45 4189.86,1097.51C4192.51,1089.56 4198.67,1084.7 4203.88,1086.44C4209.1,1088.18 4211.11,1095.77 4208.46,1103.71C4206.17,1110.57 4201.27,1115.13 4196.62,1115.13Z" style="fill-rule:nonzero;"/>
        <path d="M4202.91,1052.95C4200.44,1057.22 4196.18,1059.36 4193.38,1057.75C4190.57,1056.13 4190.3,1051.36 4192.77,1047.09C4195.23,1042.83 4199.5,1040.68 4202.3,1042.29C4205.1,1043.91 4205.37,1048.68 4202.91,1052.95Z" style="fill-rule:nonzero;"/>
        <path d="M4224.11,1069.1C4221.64,1073.37 4217.38,1075.52 4214.58,1073.9C4211.78,1072.29 4211.5,1067.52 4213.97,1063.25C4216.43,1058.98 4220.7,1056.83 4223.5,1058.45C4226.3,1060.07 4226.57,1064.84 4224.11,1069.1Z" style="fill-rule:nonzero;"/>
        <path d="M4193.51,1077.94C4193.04,1077.94 4192.56,1077.75 4192.2,1077.39C4191.47,1076.67 4191.47,1075.49 4192.2,1074.76C4192.26,1074.69 4199.05,1067.89 4207.24,1058.48C4211.18,1053.96 4212.73,1049.89 4211.85,1046.37C4210.48,1040.91 4203.71,1038.27 4203.64,1038.25C4202.68,1037.88 4202.2,1036.81 4202.57,1035.84C4202.93,1034.88 4204.01,1034.4 4204.97,1034.77C4205.32,1034.9 4213.63,1038.14 4215.46,1045.47C4216.65,1050.23 4214.83,1055.43 4210.05,1060.93C4201.76,1070.44 4194.9,1077.32 4194.83,1077.39C4194.47,1077.75 4193.99,1077.94 4193.51,1077.94Z" style="fill-rule:nonzero;"/>
        <path d="M3248.73,1720.41L3245.25,1719.1C3245.49,1718.47 3269.39,1655.24 3316.02,1586.71C3343.43,1546.43 3373.21,1512.21 3404.54,1485C3443.77,1450.93 3485.56,1427.82 3528.74,1416.29L3529.7,1419.88C3487.08,1431.26 3445.81,1454.1 3407.02,1487.78C3375.93,1514.77 3346.37,1548.73 3319.15,1588.73C3272.75,1656.9 3248.97,1719.78 3248.73,1720.41Z" style="fill:white;fill-rule:nonzero;"/>
        <path d="M3548.5,1419L3768.35,1421.02L3768.09,1406.56L3554.8,1405.21L3548.5,1419Z" style="fill:rgb(247,248,249);fill-rule:nonzero;"/>
        <path d="M3767.23,1419.91L3550.19,1417.93L3555.5,1406.31L3767.02,1407.64L3767.23,1419.91ZM3546.81,1420.08L3769.46,1422.12L3769.17,1405.47L3554.1,1404.11L3546.81,1420.08Z" style="fill:rgb(1,1,1);fill-rule:nonzero;"/>
        <path d="M3483.58,1181.29L3548.17,1419.48L3554.8,1405.21L3497.17,1181.6L3483.58,1181.29Z" style="fill:rgb(247,248,249);fill-rule:nonzero;"/>
        <path d="M3553.64,1405.1L3548.44,1416.3L3485.02,1182.41L3496.31,1182.67L3553.64,1405.1ZM3547.91,1420.55L3555.95,1405.31L3555.86,1404.93L3498.02,1180.53L3482.14,1180.16L3547.91,1420.55Z" style="fill:rgb(1,1,1);fill-rule:nonzero;"/>
        <path d="M3396.5,1187.04L3459.43,1412.45L3548.5,1419L3487.04,1181.43L3396.5,1187.04Z" style="fill:rgb(247,248,249);fill-rule:nonzero;"/>
        <path d="M3547.06,1417.8L3461.49,1415.78L3397.92,1188.04L3486.21,1182.58L3547.06,1417.8ZM3459.97,1418.47L3549.94,1420.21L3549.56,1418.73L3487.87,1180.28L3395.08,1186.03L3395.45,1187.33L3459.97,1418.47Z" style="fill:rgb(1,1,1);fill-rule:nonzero;"/>
        <path d="M3458.67,1298.48C3460.08,1307.88 3465.65,1314.83 3471.12,1314.01C3476.59,1313.19 3479.88,1304.91 3478.47,1295.51C3477.06,1286.11 3471.48,1279.15 3466.02,1279.97C3460.55,1280.79 3457.26,1289.08 3458.67,1298.48Z" style="fill:rgb(247,248,249);fill-rule:nonzero;"/>
        <path d="M3467.28,1281.02C3471.72,1281.37 3476.19,1287.69 3477.39,1295.67C3478.04,1300.03 3477.68,1304.26 3476.36,1307.57C3475.12,1310.69 3473.2,1312.6 3470.96,1312.93C3468.72,1313.27 3466.32,1312.01 3464.23,1309.4C3461.99,1306.61 3460.4,1302.68 3459.75,1298.32C3458.45,1289.68 3461.4,1281.77 3466.18,1281.06C3466.54,1281 3466.91,1280.99 3467.28,1281.02ZM3469.66,1315.15C3470.2,1315.19 3470.74,1315.18 3471.28,1315.09C3474.33,1314.64 3476.85,1312.25 3478.39,1308.38C3479.85,1304.71 3480.26,1300.08 3479.55,1295.35C3478.03,1285.2 3472.01,1277.97 3465.85,1278.89C3459.69,1279.82 3456.06,1288.49 3457.59,1298.64C3458.3,1303.38 3460.05,1307.68 3462.52,1310.76C3464.66,1313.44 3467.15,1314.95 3469.66,1315.15Z" style="fill:rgb(1,1,1);fill-rule:nonzero;"/>
        <path d="M3813.95,1437.18C3845.57,1440.3 3884.48,1459.74 3883.5,1441.63C3880.71,1389.87 3810.14,1357.09 3754.74,1350.89C3714.65,1346.41 3676.35,1336 3674.42,1346.39C3672.38,1357.34 3683.77,1359.2 3743.58,1368.55C3681.34,1365.78 3670.44,1371.84 3670.44,1378.59C3670.44,1391.27 3732.06,1386.05 3735.87,1384.32C3732.06,1386.05 3670.91,1389.2 3671.86,1400.71C3672.53,1408.85 3685.49,1406.16 3688.89,1405.05C3688.89,1405.05 3672.65,1412.99 3685.84,1418.06C3693.17,1420.87 3734.69,1417.42 3767.72,1419.96C3791.61,1421.8 3807.26,1436.53 3813.95,1437.18Z" style="fill:white;fill-rule:nonzero;"/>
        <path d="M3814.13,1435.33C3825.22,1436.42 3837.27,1439.52 3847.9,1442.25C3862.35,1445.96 3875.99,1449.46 3880.25,1445.97C3881.29,1445.11 3881.75,1443.73 3881.64,1441.73C3880.08,1412.79 3856.98,1392.6 3837.87,1380.76C3814.82,1366.47 3783.66,1356 3754.53,1352.74C3742.81,1351.43 3731.08,1349.59 3720.73,1347.96C3699.37,1344.62 3677.29,1341.15 3676.25,1346.73C3675.86,1348.8 3676.05,1350.19 3676.89,1351.36C3680.77,1356.85 3700.54,1359.94 3743.87,1366.71C3744.85,1366.86 3745.53,1367.75 3745.43,1368.73C3745.34,1369.72 3744.45,1370.44 3743.5,1370.41C3702.75,1368.59 3679.22,1370.42 3673.55,1375.84C3672.69,1376.67 3672.3,1377.51 3672.3,1378.59C3672.3,1378.88 3672.3,1379.77 3673.88,1380.84C3682.31,1386.54 3712.78,1385.21 3727.37,1383.74C3731.17,1383.3 3734.44,1382.88 3735.12,1382.62C3736.06,1382.19 3737.15,1382.61 3737.58,1383.55C3738,1384.47 3737.59,1385.57 3736.67,1386L3736.66,1386L3736.66,1386.01L3736.64,1386.01C3736.34,1386.15 3735.91,1386.28 3735.27,1386.41C3733.37,1386.83 3729.94,1387.29 3725.62,1387.7C3725.2,1387.74 3724.77,1387.79 3724.33,1387.84C3714.82,1388.94 3701.79,1390.43 3691.07,1392.74C3674.24,1396.37 3673.66,1399.89 3673.71,1400.56C3673.82,1401.84 3674.32,1402.74 3675.28,1403.38C3678.43,1405.47 3685.54,1404.19 3688.3,1403.28C3689.23,1402.98 3690.24,1403.44 3690.61,1404.35C3690.98,1405.25 3690.58,1406.29 3689.7,1406.72C3686.76,1408.17 3682.45,1411.24 3682.54,1413.26C3682.58,1414.25 3684.03,1415.37 3686.51,1416.32C3689.82,1417.59 3702.37,1417.44 3716.9,1417.25C3732.18,1417.06 3751.19,1416.82 3767.87,1418.11C3784.02,1419.35 3796.6,1426.39 3804.92,1431.05C3808.85,1433.25 3812.24,1435.15 3814.13,1435.33ZM3874.27,1451.11C3867.45,1451.11 3857.97,1448.68 3846.98,1445.85C3836.47,1443.16 3824.57,1440.1 3813.76,1439.04C3811.1,1438.77 3807.75,1436.9 3803.1,1434.3C3794.58,1429.53 3782.91,1423 3767.58,1421.82C3751.07,1420.54 3732.15,1420.79 3716.95,1420.97C3699.2,1421.2 3688.97,1421.25 3685.18,1419.8C3681.07,1418.22 3678.93,1416.08 3678.82,1413.42C3678.73,1411.51 3679.77,1409.74 3681.18,1408.23C3678.4,1408.33 3675.44,1407.95 3673.22,1406.48C3671.31,1405.21 3670.2,1403.27 3670,1400.86C3669.51,1394.93 3679.15,1391.22 3693.36,1388.47C3684.19,1387.97 3676.07,1386.67 3672.01,1384.06C3669.17,1382.24 3668.58,1380.08 3668.58,1378.59C3668.58,1376.5 3669.39,1374.67 3670.98,1373.15C3674.33,1369.94 3682.85,1366.06 3715.72,1366.01C3688.3,1361.5 3677.58,1358.79 3673.85,1353.51C3672.42,1351.49 3672.02,1349.12 3672.59,1346.05C3674.29,1336.91 3692.99,1339.85 3721.31,1344.29C3731.62,1345.91 3743.31,1347.74 3754.95,1349.04C3785.04,1352.41 3815.98,1362.82 3839.83,1377.59C3859.69,1389.9 3883.71,1410.98 3885.36,1441.53C3885.53,1444.75 3884.61,1447.21 3882.61,1448.85C3880.65,1450.45 3877.82,1451.11 3874.27,1451.11Z" style="fill-rule:nonzero;"/>
        <path d="M3741.41,1401.61C3741.41,1401.61 3701.22,1402.55 3688.89,1405.05" style="fill:white;fill-rule:nonzero;"/>
        <path d="M3688.88,1406.91C3688.02,1406.91 3687.24,1406.3 3687.06,1405.42C3686.86,1404.41 3687.51,1403.43 3688.52,1403.23C3700.87,1400.72 3739.72,1399.79 3741.37,1399.75C3742.37,1399.76 3743.25,1400.54 3743.27,1401.57C3743.3,1402.6 3742.48,1403.45 3741.45,1403.47C3741.05,1403.48 3701.29,1404.43 3689.26,1406.87C3689.13,1406.9 3689.01,1406.91 3688.88,1406.91Z" style="fill-rule:nonzero;"/>
        <path d="M4333.96,1280.96C4228.31,1540.65 3995.95,1623 3806,1487.03C3776.17,1459.04 3802.03,1390.44 3859.13,1383.27C4149.78,1515.27 4180.07,1253.74 4225.4,1207.49C4301.89,1129.45 4363.45,1221.59 4333.96,1280.96Z" style="fill:white;fill-rule:nonzero;"/>
        <path d="M3807.19,1485.59C3849.79,1516.07 3895.09,1536 3941.84,1544.83C3987.44,1553.44 4033.12,1551.28 4077.6,1538.41C4130.49,1523.12 4179.24,1493.57 4222.49,1450.59C4267.54,1405.82 4304.47,1348.52 4332.24,1280.25L4332.3,1280.13C4347.59,1249.34 4338.06,1207.37 4311.49,1188.48C4287.2,1171.21 4256.31,1178.61 4226.73,1208.79C4217.6,1218.11 4208.77,1237.08 4198.54,1259.04C4168.25,1324.06 4122.62,1421.97 4003.35,1421.98C3963.92,1421.99 3916.48,1411.3 3858.84,1385.18C3825.11,1389.65 3805.31,1415.29 3798.58,1435.98C3792.12,1455.86 3795.34,1474.4 3807.19,1485.59ZM3996.56,1553.72C3978.13,1553.72 3959.64,1551.98 3941.15,1548.48C3893.83,1539.54 3847.99,1519.38 3804.92,1488.55L3804.73,1488.39C3791.73,1476.19 3788.11,1456.17 3795.04,1434.83C3802.14,1413 3823.12,1385.91 3858.9,1381.42L3859.42,1381.35L3859.9,1381.57C3913.5,1405.91 3961.76,1418.26 4003.33,1418.26L4003.54,1418.26C4039.21,1418.22 4071.1,1409.05 4098.33,1390.99C4148.45,1357.76 4175.45,1299.8 4195.16,1257.47C4205.96,1234.28 4214.5,1215.96 4224.07,1206.19C4268.09,1161.28 4301.38,1176.72 4313.64,1185.44C4341.6,1205.32 4351.67,1249.4 4335.66,1281.72C4307.7,1350.42 4270.51,1408.12 4225.12,1453.23C4181.42,1496.65 4132.13,1526.52 4078.64,1541.99C4051.62,1549.8 4024.17,1553.72 3996.56,1553.72Z" style="fill-rule:nonzero;"/>
        <rect x="2628.65" y="2115.79" width="2150.01" height="3.72" style="fill-rule:nonzero;"/>
    </g>
</svg>
