<?xml version="1.0" encoding="UTF-8" standalone="no"?>
<!DOCTYPE svg PUBLIC "-//W3C//DTD SVG 1.1//EN" "http://www.w3.org/Graphics/SVG/1.1/DTD/svg11.dtd">
<svg width="100%" height="100%" viewBox="0 0 2151 1720" version="1.1" xmlns="http://www.w3.org/2000/svg" xmlns:xlink="http://www.w3.org/1999/xlink" xml:space="preserve" xmlns:serif="http://www.serif.com/" style="fill-rule:evenodd;clip-rule:evenodd;stroke-linejoin:round;stroke-miterlimit:2;">
    <g transform="matrix(1,0,0,1,-4957.52,-399.791)">
        <g transform="matrix(-1,0,0,1,8895.4,-1878.66)">
            <path d="M2396.83,2821.11L2255.11,2821.11L2272.44,2666.96L2414.16,2666.96L2396.83,2821.11Z" style="fill:white;fill-rule:nonzero;"/>
            <path d="M2366.63,2686.15C2375.34,2700.15 2364.46,2756.01 2364.46,2756.01L2285.14,2756.01C2285.14,2756.01 2294.17,2695.36 2318.06,2681.53C2339.19,2669.3 2357.92,2672.16 2366.63,2686.15Z" style="fill:rgb(213,253,206);fill-rule:nonzero;"/>
            <path d="M2396.73,2822.01C2393.24,2813.54 2391.02,2750.09 2367.22,2743.7C2354.18,2740.19 2292.52,2738.79 2274.44,2748.1C2267.19,2754.44 2255.99,2802.51 2255.37,2821.67L2396.73,2822.01Z" style="fill:rgb(234,234,234);fill-rule:nonzero;"/>
            <path d="M2322.54,2743.41L2326.86,2713.81L2348.64,2726.74L2346.62,2741.52C2346.62,2741.52 2354.81,2763.5 2342.9,2768.05C2330.99,2772.6 2323.38,2752.22 2322.54,2743.41Z" style="fill:white;fill-rule:nonzero;"/>
            <path d="M2324.97,2743.46C2325.63,2749.38 2329.72,2761.36 2335.84,2765.15C2337.85,2766.4 2339.88,2766.61 2342.04,2765.79C2351.42,2762.2 2344.43,2742.56 2344.35,2742.36C2344.21,2741.99 2344.17,2741.59 2344.22,2741.19L2346.03,2728L2328.73,2717.73L2324.97,2743.46ZM2339.52,2771.11C2337.38,2771.11 2335.28,2770.49 2333.29,2769.26C2325.53,2764.45 2320.85,2751.13 2320.13,2743.64C2320.11,2743.45 2320.12,2743.26 2320.15,2743.06L2324.47,2713.46C2324.59,2712.66 2325.1,2711.97 2325.82,2711.62C2326.55,2711.28 2327.41,2711.32 2328.1,2711.73L2349.87,2724.66C2350.71,2725.16 2351.16,2726.1 2351.03,2727.07L2349.09,2741.26C2350.41,2745.08 2356.69,2765.37 2343.76,2770.3C2342.35,2770.84 2340.93,2771.11 2339.52,2771.11Z" style="fill-rule:nonzero;"/>
            <path d="M2347.77,2686.15C2340.16,2686.15 2333.01,2691.8 2329.22,2699.81C2326.33,2700.1 2323.73,2703.3 2323.31,2707.2C2322.95,2710.55 2324.3,2713.36 2326.48,2714.26C2327.24,2724.54 2333.89,2732.2 2342.84,2732.16C2353.2,2732.11 2362.69,2721.77 2364.05,2709.07C2365.42,2696.37 2362.41,2686.15 2347.77,2686.15Z" style="fill:white;fill-rule:nonzero;"/>
            <path d="M2329.22,2699.81L2329.23,2699.81L2329.22,2699.81ZM2347.77,2688.57C2341.36,2688.57 2334.93,2693.39 2331.4,2700.85C2331.04,2701.62 2330.3,2702.14 2329.45,2702.22C2327.9,2702.37 2326.03,2704.51 2325.71,2707.46C2325.45,2709.89 2326.36,2711.6 2327.4,2712.03C2328.25,2712.38 2328.82,2713.17 2328.89,2714.08C2329.57,2723.31 2335.28,2729.74 2342.77,2729.74L2342.83,2729.74C2351.98,2729.7 2360.42,2720.31 2361.65,2708.81C2362.48,2701.08 2361.45,2695.54 2358.59,2692.36C2356.3,2689.81 2352.76,2688.57 2347.77,2688.57ZM2342.77,2734.58C2333.17,2734.58 2325.52,2726.74 2324.19,2715.73C2321.8,2713.99 2320.5,2710.66 2320.9,2706.94C2321.38,2702.5 2324.14,2698.79 2327.57,2697.7C2332.01,2689.18 2339.83,2683.74 2347.77,2683.74C2354.12,2683.74 2358.97,2685.55 2362.19,2689.13C2366.06,2693.44 2367.45,2700.04 2366.46,2709.33C2364.97,2723.2 2354.38,2734.52 2342.85,2734.58L2342.77,2734.58Z" style="fill-rule:nonzero;"/>
            <path d="M2359.72,2691.05C2358.87,2698.58 2350.92,2704.68 2341.96,2704.68C2333,2704.68 2326.43,2698.58 2327.27,2691.05C2328.12,2683.52 2336.07,2677.42 2345.03,2677.42C2353.99,2677.42 2360.57,2683.52 2359.72,2691.05Z" style="fill:rgb(213,253,206);fill-rule:nonzero;"/>
        </g>
        <path d="M6693.31,1136.54C7061.28,1340.3 6903.82,2102.56 6549.97,2114.13C5355.86,2153.17 5566.88,1876.29 5624.46,1653.86C5684.62,1421.47 6209.43,1697.16 6373.36,1493.9C6455.02,1392.65 6512.32,1036.32 6693.31,1136.54Z" style="fill:rgb(213,253,206);fill-rule:nonzero;"/>
        <path d="M6636.28,1147.28C6631.98,1136.48 6629.31,1130.46 6629.29,1130.41L6630.64,1127.82C6632.42,1127.48 6632.41,1127.49 6639.74,1145.91L6636.28,1147.28ZM6653.67,1194.58C6651.49,1188.18 6649.24,1181.78 6646.99,1175.56L6650.49,1174.3C6652.75,1180.54 6655.01,1186.96 6657.2,1193.38L6653.67,1194.58ZM6668.91,1242.6C6667.02,1236.18 6665.05,1229.69 6663.06,1223.31L6666.61,1222.2C6668.61,1228.6 6670.59,1235.11 6672.48,1241.55L6668.91,1242.6ZM6682.07,1291.22C6680.47,1284.74 6678.78,1278.17 6677.06,1271.7L6680.66,1270.75C6682.39,1277.24 6684.08,1283.83 6685.69,1290.32L6682.07,1291.22ZM6693.07,1340.37C6691.77,1333.84 6690.38,1327.21 6688.94,1320.65L6692.58,1319.85C6694.02,1326.43 6695.41,1333.09 6696.72,1339.64L6693.07,1340.37ZM6701.7,1389.97C6700.73,1383.42 6699.67,1376.72 6698.54,1370.08L6702.21,1369.46C6703.34,1376.13 6704.41,1382.85 6705.38,1389.42L6701.7,1389.97ZM6707.69,1439.94C6707.09,1433.33 6706.4,1426.59 6705.63,1419.91L6709.33,1419.49C6710.1,1426.2 6710.8,1432.97 6711.4,1439.6L6707.69,1439.94ZM6710.72,1490.16C6710.53,1483.54 6710.25,1476.78 6709.89,1470.05L6713.61,1469.85C6713.97,1476.61 6714.25,1483.41 6714.44,1490.05L6710.72,1490.16ZM6714.06,1540.61L6710.34,1540.44C6710.63,1533.83 6710.83,1527.06 6710.93,1520.33L6714.65,1520.39C6714.55,1527.15 6714.35,1533.96 6714.06,1540.61ZM6709.75,1590.99L6706.06,1590.52C6706.9,1583.96 6707.65,1577.23 6708.27,1570.54L6711.98,1570.88C6711.35,1577.62 6710.6,1584.39 6709.75,1590.99ZM6700.96,1640.8L6697.33,1639.97C6698.79,1633.54 6700.16,1626.92 6701.39,1620.29L6705.05,1620.98C6703.81,1627.65 6702.43,1634.32 6700.96,1640.8ZM6687.09,1689.45L6683.57,1688.23C6685.74,1681.98 6687.81,1675.54 6689.71,1669.11L6693.28,1670.17C6691.36,1676.66 6689.28,1683.14 6687.09,1689.45ZM6667.64,1736.18L6664.3,1734.54C6667.22,1728.6 6670.04,1722.47 6672.7,1716.3L6676.12,1717.77C6673.44,1723.99 6670.59,1730.19 6667.64,1736.18ZM6642.36,1780.03L6639.27,1777.96C6642.97,1772.44 6646.57,1766.73 6649.97,1761L6653.17,1762.9C6649.73,1768.69 6646.1,1774.46 6642.36,1780.03ZM5630.12,1794.83C5618.29,1789.48 5611.73,1786.32 5611.66,1786.28L5613.28,1782.93C5613.34,1782.96 5619.87,1786.11 5631.65,1791.44L5630.12,1794.83ZM5676.52,1814.95C5670.26,1812.34 5664,1809.68 5657.9,1807.06L5659.37,1803.64C5665.46,1806.26 5671.71,1808.91 5677.96,1811.52L5676.52,1814.95ZM6611.36,1820.04L6608.58,1817.56C6613.01,1812.59 6617.36,1807.43 6621.51,1802.23L6624.42,1804.55C6620.23,1809.81 6615.83,1815.02 6611.36,1820.04ZM5723.39,1833.87C5717.2,1831.46 5710.88,1828.96 5704.6,1826.44L5705.98,1822.99C5712.25,1825.5 5718.56,1828 5724.74,1830.41L5723.39,1833.87ZM5770.67,1851.7C5764.39,1849.42 5758.02,1847.06 5751.71,1844.7L5753.02,1841.22C5759.31,1843.57 5765.68,1845.92 5771.94,1848.2L5770.67,1851.7ZM6575.16,1855.4L6572.75,1852.57C6577.83,1848.23 6582.84,1843.72 6587.65,1839.15L6590.21,1841.85C6585.36,1846.46 6580.29,1851.02 6575.16,1855.4ZM5818.33,1868.43C5812.01,1866.29 5805.58,1864.09 5799.23,1861.87L5800.45,1858.36C5806.79,1860.57 5813.21,1862.77 5819.53,1864.91L5818.33,1868.43ZM5866.38,1884.04C5859.99,1882.05 5853.51,1879.99 5847.12,1877.93L5848.26,1874.39C5854.64,1876.45 5861.11,1878.5 5867.48,1880.48L5866.38,1884.04ZM6534.51,1885.55L6532.51,1882.41C6538.15,1878.83 6543.74,1875.05 6549.11,1871.17L6551.29,1874.19C6545.85,1878.11 6540.21,1881.93 6534.51,1885.55ZM5914.79,1898.43C5908.41,1896.62 5901.88,1894.74 5895.38,1892.82L5896.43,1889.25C5902.92,1891.16 5909.43,1893.05 5915.8,1894.85L5914.79,1898.43ZM6489.99,1909.65L6488.45,1906.26C6494.55,1903.47 6500.61,1900.51 6506.47,1897.45L6508.19,1900.75C6502.28,1903.84 6496.16,1906.83 6489.99,1909.65ZM5963.57,1911.53C5957.13,1909.9 5950.56,1908.19 5944.01,1906.46L5944.97,1902.86C5951.5,1904.59 5958.06,1906.29 5964.48,1907.92L5963.57,1911.53ZM6012.71,1923.2C6006.22,1921.76 5999.59,1920.25 5993.01,1918.71L5993.86,1915.09C6000.42,1916.63 6007.04,1918.13 6013.51,1919.56L6012.71,1923.2ZM6442.74,1927.79L6441.61,1924.24C6448.03,1922.2 6454.42,1920.01 6460.61,1917.72L6461.89,1921.22C6455.66,1923.52 6449.21,1925.73 6442.74,1927.79ZM6062.15,1933.28C6055.66,1932.07 6049,1930.79 6042.37,1929.45L6043.1,1925.81C6049.72,1927.13 6056.36,1928.42 6062.83,1929.62L6062.15,1933.28ZM6393.77,1940.51L6393.01,1936.87C6399.61,1935.51 6406.2,1934.01 6412.61,1932.42L6413.5,1936.03C6407.05,1937.63 6400.41,1939.14 6393.77,1940.51ZM6111.94,1941.59C6105.36,1940.62 6098.64,1939.58 6091.98,1938.49L6092.58,1934.81C6099.22,1935.9 6105.92,1936.94 6112.48,1937.9L6111.94,1941.59ZM6162.13,1947.89C6155.53,1947.21 6148.76,1946.45 6142.01,1945.63L6142.46,1941.93C6149.19,1942.75 6155.94,1943.51 6162.52,1944.19L6162.13,1947.89ZM6343.82,1948.52L6343.39,1944.83C6350.08,1944.04 6356.79,1943.15 6363.32,1942.16L6363.87,1945.84C6357.3,1946.83 6350.55,1947.74 6343.82,1948.52ZM6212.57,1951.88C6205.93,1951.52 6199.14,1951.09 6192.4,1950.58L6192.68,1946.87C6199.39,1947.37 6206.15,1947.81 6212.77,1948.16L6212.57,1951.88ZM6293.42,1952.49L6293.26,1948.77C6299.99,1948.48 6306.75,1948.1 6313.34,1947.63L6313.6,1951.35C6306.97,1951.81 6300.18,1952.2 6293.42,1952.49ZM6259.97,1953.18C6254.35,1953.18 6248.6,1953.12 6242.87,1953L6242.95,1949.28C6248.65,1949.4 6254.38,1949.46 6259.96,1949.46L6260.11,1949.46L6263.08,1949.45L6263.09,1953.18L6259.97,1953.18Z" style="fill-rule:nonzero;"/>
        <path d="M5097.83,2092.1L5102.24,2114.32L5440.44,2117.65L5444.99,2088.96L5097.83,2092.1Z" style="fill-rule:nonzero;"/>
        <path d="M5305.43,2000.81L5368.3,1773.55L5495.47,1853.53L5447.84,2018.26L5305.43,2000.81Z" style="fill:white;fill-rule:nonzero;"/>
        <path d="M5307.8,1999.22L5446.49,2016.22L5493.3,1854.36L5369.42,1776.45L5307.8,1999.22ZM5449.19,2020.3L5303.06,2002.39L5367.17,1770.64L5497.65,1852.7L5497.26,1854.05L5449.19,2020.3Z" style="fill-rule:nonzero;"/>
        <path d="M5099.86,2091.79C5099.81,2090.95 5098.63,2071.05 5108.43,2048.81C5117.5,2028.25 5138.06,2001.94 5184.53,1993.3C5271.64,1977.12 5318.13,1954.91 5318.59,1954.69L5320.56,1953.73L5321.19,1955.83C5321.23,1955.96 5325.09,1968.73 5335.43,1981.81C5349.2,1999.24 5367.34,2008.95 5389.33,2010.65C5393.27,2010.96 5397.06,2011.11 5400.58,2011.11C5429.71,2011.11 5437.75,2000.71 5443.08,1993.83C5445.86,1990.24 5448.26,1987.14 5452.56,1987.14C5453.87,1987.14 5455.27,1987.43 5456.83,1988.04L5458.22,1988.57L5442.93,2091.75L5099.98,2093.53L5099.86,2091.79Z" style="fill:white;fill-rule:nonzero;"/>
        <path d="M5321.72,1951.11L5317.78,1953.01C5317.26,1953.26 5270.93,1975.36 5184.19,1991.47C5163.4,1995.34 5145.91,2003.01 5132.21,2014.27C5121.19,2023.33 5112.62,2034.7 5106.73,2048.06C5096.74,2070.71 5097.95,2091.05 5098.01,2091.91L5098.24,2095.4L5101.74,2095.39L5441.35,2093.62L5444.54,2093.6L5445.01,2090.44L5459.84,1990.32L5460.28,1987.37L5457.51,1986.3C5455.72,1985.61 5454.1,1985.28 5452.56,1985.28C5447.35,1985.28 5444.43,1989.05 5441.6,1992.7C5436.2,1999.68 5428.79,2009.25 5400.58,2009.25C5397.1,2009.25 5393.37,2009.1 5389.47,2008.79C5368.07,2007.14 5350.41,1997.71 5336.97,1980.76C5326.82,1967.96 5323.01,1955.43 5322.97,1955.3L5321.72,1951.11ZM5319.4,1956.36C5319.4,1956.36 5334.75,2008.29 5389.18,2012.51C5393.29,2012.82 5397.08,2012.97 5400.58,2012.97C5445.13,2012.97 5442.16,1989 5452.56,1989C5453.61,1989 5454.79,1989.24 5456.16,1989.77L5441.33,2089.9L5101.72,2091.66C5101.72,2091.66 5096.45,2011.56 5184.87,1995.13C5273.3,1978.7 5319.4,1956.36 5319.4,1956.36Z" style="fill-rule:nonzero;"/>
        <path d="M5101.72,2091.66L5218.78,2091.05L5220.99,1987.62C5209.87,1990.19 5197.83,1992.73 5184.87,1995.13C5096.45,2011.56 5101.72,2091.66 5101.72,2091.66Z" style="fill:rgb(213,253,206);fill-rule:nonzero;"/>
        <path d="M5300.9,1956.77C5301.6,1956.2 5302.41,1955.76 5303.33,1955.49C5307.01,1954.42 5310.86,1956.62 5311.92,1960.4L5326.06,2010.62C5327.13,2014.41 5325,2018.34 5321.32,2019.41C5317.64,2020.48 5313.79,2018.28 5312.72,2014.5L5298.58,1964.28C5297.78,1961.43 5298.79,1958.5 5300.9,1956.77Z" style="fill-rule:nonzero;"/>
        <path d="M5275.2,1964.24C5275.9,1963.67 5276.71,1963.23 5277.62,1962.96C5281.31,1961.89 5285.16,1964.09 5286.22,1967.87L5300.36,2018.1C5301.42,2021.88 5299.3,2025.81 5295.62,2026.88C5291.93,2027.96 5288.08,2025.76 5287.02,2021.97L5272.88,1971.75C5272.08,1968.9 5273.08,1965.97 5275.2,1964.24Z" style="fill-rule:nonzero;"/>
        <path d="M5249.2,1971.8C5249.89,1971.23 5250.71,1970.79 5251.62,1970.52C5255.31,1969.45 5259.16,1971.65 5260.22,1975.43L5274.36,2025.65C5275.42,2029.44 5273.3,2033.37 5269.61,2034.44C5265.93,2035.51 5262.08,2033.32 5261.02,2029.53L5246.88,1979.31C5246.08,1976.46 5247.08,1973.53 5249.2,1971.8Z" style="fill-rule:nonzero;"/>
        <path d="M5479.68,1967.45C5479.68,1967.45 5507.79,1695.21 5669.49,1627.58C5749.44,1594.15 5882.01,1600.87 5954.46,1603.42C6134.46,1609.76 6224.29,1611.71 6224.29,1611.71C6302.99,1539.55 6136.63,1546.54 6095.5,1436.66C6095.5,1436.66 5772.86,1341.16 5530.78,1515.96C5334.04,1658.02 5309.79,1938.71 5309.79,1938.71C5317.21,1996.31 5412.85,2007.65 5479.68,1967.45Z" style="fill-rule:nonzero;"/>
        <path d="M5775.22,1529.63C5768.7,1529.25 5762.14,1529.05 5755.73,1529.04L5755.74,1525.31C5762.22,1525.33 5768.85,1525.53 5775.44,1525.91L5775.22,1529.63ZM5707.16,1532.42L5706.62,1528.74C5713.04,1527.8 5719.63,1527.04 5726.2,1526.49L5726.52,1530.2C5720.02,1530.75 5713.51,1531.5 5707.16,1532.42ZM5823.63,1535.49C5817.2,1534.31 5810.72,1533.28 5804.35,1532.43L5804.85,1528.74C5811.27,1529.6 5817.81,1530.64 5824.3,1531.82L5823.63,1535.49ZM6046.31,1542.18C6039.56,1541.73 6032.99,1541.62 6026.91,1541.85L6026.77,1538.13C6032.99,1537.9 6039.67,1538.01 6046.56,1538.47L6046.31,1542.18ZM5659.77,1543.33L5658.64,1539.79C5664.85,1537.8 5671.23,1536 5677.61,1534.43L5678.5,1538.04C5672.21,1539.59 5665.91,1541.38 5659.77,1543.33ZM5871.08,1546.92C5864.83,1545.05 5858.5,1543.31 5852.25,1541.72L5853.16,1538.12C5859.46,1539.71 5865.85,1541.47 5872.14,1543.35L5871.08,1546.92ZM6094.37,1549.89C6087.9,1548.33 6081.48,1546.97 6075.29,1545.86L6075.95,1542.19C6082.21,1543.32 6088.7,1544.7 6095.24,1546.27L6094.37,1549.89ZM5980.69,1553.38L5978.83,1550.16C5984.32,1547 5990.53,1544.42 5997.31,1542.49L5998.33,1546.07C5991.85,1547.91 5985.91,1550.37 5980.69,1553.38ZM5614.9,1562L5613.18,1558.7C5619,1555.67 5624.99,1552.82 5630.97,1550.21L5632.46,1553.62C5626.55,1556.2 5620.64,1559.01 5614.9,1562ZM5917.09,1563.28C5911.13,1560.8 5905.01,1558.41 5898.89,1556.17L5900.17,1552.67C5906.34,1554.94 5912.51,1557.35 5918.52,1559.84L5917.09,1563.28ZM6140.97,1564.32C6140.9,1564.29 6133.82,1561.44 6122.57,1557.82L6123.71,1554.28C6135.1,1557.94 6142.29,1560.84 6142.37,1560.87L6140.97,1564.32ZM5955.41,1581.67L5953.66,1580.66C5953.63,1580.64 5950.11,1578.62 5943.75,1575.43L5945.42,1572.1C5949.32,1574.05 5952.13,1575.56 5953.79,1576.47C5954.79,1574.49 5955.88,1572.58 5957.05,1570.76L5960.18,1572.77C5958.75,1575 5957.44,1577.38 5956.27,1579.84L5955.41,1581.67ZM5573.8,1587.93L5571.57,1584.95C5576.83,1581 5582.25,1577.19 5587.69,1573.63L5589.72,1576.75C5584.36,1580.26 5579,1584.03 5573.8,1587.93ZM5537.26,1620.02L5534.61,1617.41C5539.23,1612.71 5544.01,1608.12 5548.8,1603.77L5551.3,1606.53C5546.56,1610.83 5541.83,1615.37 5537.26,1620.02ZM5505.49,1656.9L5502.52,1654.65C5506.51,1649.39 5510.63,1644.21 5514.78,1639.26L5517.63,1641.66C5513.53,1646.55 5509.44,1651.68 5505.49,1656.9ZM5478.25,1697.31L5475.06,1695.4C5478.46,1689.74 5481.98,1684.14 5485.52,1678.75L5488.63,1680.79C5485.12,1686.14 5481.63,1691.7 5478.25,1697.31ZM5455.11,1740.25L5451.76,1738.63C5454.64,1732.68 5457.62,1726.78 5460.62,1721.09L5463.91,1722.82C5460.93,1728.48 5457.97,1734.34 5455.11,1740.25ZM5435.53,1784.97L5432.07,1783.6C5434.48,1777.48 5437,1771.37 5439.54,1765.44L5442.96,1766.9C5440.43,1772.81 5437.93,1778.88 5435.53,1784.97ZM5419.03,1830.95L5415.49,1829.8C5417.53,1823.52 5419.65,1817.26 5421.78,1811.2L5425.29,1812.43C5423.17,1818.47 5421.06,1824.7 5419.03,1830.95ZM5405.2,1877.82L5401.6,1876.86C5403.3,1870.52 5405.07,1864.16 5406.86,1857.95L5410.44,1858.98C5408.65,1865.17 5406.89,1871.51 5405.2,1877.82ZM5393.66,1925.34L5390.02,1924.54C5391.44,1918.1 5392.91,1911.67 5394.4,1905.41L5398.02,1906.27C5396.54,1912.51 5395.07,1918.92 5393.66,1925.34ZM5384.12,1973.32L5380.45,1972.66C5381.62,1966.18 5382.83,1959.68 5384.06,1953.36L5387.71,1954.08C5386.49,1960.38 5385.28,1966.85 5384.12,1973.32Z" style="fill:white;fill-rule:nonzero;"/>
        <path d="M6073.91,1364.69C6085.89,1364.05 6118.62,1361.03 6193.73,1347.36C6254.99,1336.2 6264.96,1282.29 6273.75,1234.72C6278.88,1206.99 6283.72,1180.8 6297.84,1165.38C6302.36,1160.45 6308.07,1158.05 6315.29,1158.05C6360.41,1158.05 6442.9,1252.99 6453.85,1265.83L6220.57,1459.03L6073.91,1364.69Z" style="fill:white;fill-rule:nonzero;"/>
        <path d="M6315.29,1156.19C6307.95,1156.19 6301.53,1158.6 6296.47,1164.13C6257.21,1207.01 6288.43,1328.22 6193.4,1345.53C6102.64,1362.05 6074.17,1363 6068.82,1363C6068.12,1363 6067.82,1362.98 6067.82,1362.98L6220.71,1461.34L6456.49,1266.07C6456.49,1266.07 6364.87,1156.19 6315.29,1156.19ZM6315.29,1159.91C6334.59,1159.91 6364.53,1178.54 6401.88,1213.79C6425.12,1235.72 6444.59,1257.9 6451.21,1265.61L6220.44,1456.73L6079.69,1366.19C6095.35,1364.99 6128.48,1361.13 6194.06,1349.19C6256.58,1337.8 6266.68,1283.22 6275.58,1235.05C6280.66,1207.6 6285.46,1181.66 6299.22,1166.64C6303.36,1162.11 6308.62,1159.91 6315.29,1159.91Z" style="fill-rule:nonzero;"/>
        <path d="M6074.64,1407.57C6105.98,1402.96 6148.61,1410.61 6142.95,1395.39C6126.8,1351.91 6050.13,1340.17 5995.03,1347.6C5955.14,1352.98 5916.34,1362.71 5917.18,1372.01C5918.06,1381.81 5928.65,1370.98 5988.84,1365.21C5928.02,1377.14 5919.07,1384.81 5920.83,1390.56C5924.13,1401.37 5982.27,1382.78 5985.5,1380.43C5982.27,1382.78 5924.04,1399.5 5927.95,1409.09C5930.71,1415.87 5942.53,1410.61 5945.52,1408.88C5945.52,1408.88 5931.9,1419.38 5945.96,1420.67C5953.77,1421.38 5992.96,1408.91 6025.52,1403.5C6049.06,1399.58 6068.01,1408.54 6074.64,1407.57Z" style="fill:white;fill-rule:nonzero;"/>
        <path d="M6074.63,1407.57L6074.64,1407.57L6074.63,1407.57ZM5945.52,1407.02C5946.12,1407.02 5946.71,1407.31 5947.06,1407.84C5947.61,1408.66 5947.43,1409.76 5946.66,1410.36C5943.9,1412.49 5941.09,1415.81 5941.49,1417.17C5941.66,1417.75 5942.97,1418.52 5946.13,1418.81C5949.7,1419.15 5961.8,1416.12 5975.81,1412.63C5990.5,1408.96 6008.79,1404.39 6025.22,1401.66C6041.09,1399.02 6055.04,1402.13 6064.27,1404.19C6068.66,1405.16 6072.45,1406 6074.36,1405.73C6085.34,1404.11 6097.77,1403.98 6108.74,1403.87C6123.28,1403.72 6138.31,1403.56 6141.15,1399.43C6141.52,1398.9 6141.92,1397.96 6141.21,1396.04C6132.2,1371.8 6104.65,1359.91 6083.12,1354.2C6057.12,1347.31 6024.28,1345.53 5995.28,1349.45C5946.88,1355.98 5918.5,1365.96 5919.03,1371.84C5919.12,1372.88 5919.33,1373.53 5919.66,1373.77C5920.9,1374.68 5925.96,1373.59 5932.95,1372.07C5943.38,1369.81 5960.83,1366.03 5988.67,1363.36C5989.66,1363.27 5990.54,1363.96 5990.68,1364.95C5990.83,1365.93 5990.17,1366.85 5989.2,1367.04C5948.78,1374.97 5926.48,1382 5922.91,1387.93C5922.48,1388.65 5922.39,1389.29 5922.61,1390.02C5922.77,1390.55 5923.34,1391 5924.31,1391.34C5929.04,1393.04 5941.12,1391.63 5957.46,1387.47C5964.94,1385.57 5971.79,1383.48 5976.72,1381.83C5980.48,1380.51 5983.8,1379.31 5984.42,1378.91C5985.25,1378.3 5986.41,1378.49 5987.01,1379.33C5987.61,1380.15 5987.43,1381.3 5986.62,1381.91C5986.62,1381.91 5986.62,1381.92 5986.61,1381.92C5986.6,1381.92 5986.6,1381.92 5986.6,1381.93L5986.59,1381.93C5986.42,1382.06 5986.19,1382.2 5985.88,1382.35C5984.11,1383.25 5980.06,1384.76 5974.78,1386.46C5960.81,1391.34 5932.62,1401.26 5929.76,1407.58C5929.54,1408.07 5929.63,1408.29 5929.67,1408.39C5930.06,1409.35 5930.71,1409.95 5931.69,1410.29C5935.3,1411.52 5942.06,1408.73 5944.59,1407.27C5944.88,1407.1 5945.2,1407.02 5945.52,1407.02ZM5946.65,1422.56C5946.34,1422.56 5946.05,1422.54 5945.79,1422.52C5944.11,1422.37 5938.99,1421.9 5937.91,1418.2C5937.48,1416.7 5937.9,1415.11 5938.71,1413.63C5935.99,1414.34 5933,1414.67 5930.49,1413.81C5928.49,1413.13 5927.02,1411.74 5926.22,1409.79C5925.75,1408.62 5925.8,1407.33 5926.37,1406.06C5928.05,1402.33 5934.7,1398.35 5943.8,1394.29C5935.21,1395.79 5927.53,1396.34 5923.28,1394.92C5921.01,1394.17 5919.59,1392.88 5919.05,1391.1C5918.52,1389.36 5918.74,1387.65 5919.72,1386.02C5921.65,1382.81 5926.9,1378.68 5946.45,1373.07C5941.37,1374.05 5937.17,1374.97 5933.74,1375.71C5924.06,1377.81 5920.05,1378.68 5917.45,1376.76C5915.81,1375.55 5915.45,1373.56 5915.32,1372.17C5914.67,1364.91 5929.27,1359.78 5940.31,1356.55C5954.39,1352.43 5973.74,1348.6 5994.78,1345.76C6024.68,1341.72 6057.23,1343.49 6084.07,1350.61C6106.45,1356.54 6135.14,1369.01 6144.7,1394.74C6145.67,1397.37 6145.51,1399.66 6144.22,1401.54C6140.28,1407.27 6126.38,1407.41 6108.78,1407.59C6097.93,1407.71 6085.63,1407.83 6074.91,1409.41C6072.31,1409.79 6068.6,1408.96 6063.47,1407.82C6053.98,1405.71 6040.99,1402.81 6025.83,1405.33C6009.55,1408.04 5991.34,1412.58 5976.71,1416.24C5962.16,1419.87 5951.4,1422.56 5946.65,1422.56Z" style="fill-rule:nonzero;"/>
        <path d="M5995.34,1393.9C5995.34,1393.9 5956.78,1403.92 5945.52,1408.88" style="fill:white;fill-rule:nonzero;"/>
        <path d="M5945.52,1410.74C5944.81,1410.74 5944.12,1410.33 5943.82,1409.63C5943.4,1408.69 5943.83,1407.59 5944.77,1407.18C5956.04,1402.21 5993.3,1392.5 5994.88,1392.09C5995.87,1391.83 5996.89,1392.43 5997.15,1393.43C5997.4,1394.42 5996.81,1395.44 5995.81,1395.7C5995.43,1395.8 5957.26,1405.74 5946.27,1410.58C5946.03,1410.69 5945.77,1410.74 5945.52,1410.74Z" style="fill-rule:nonzero;"/>
        <path d="M5662.89,2102.24L5662.89,2119.54L5837.17,2117.81L6004.99,1974.89L5987.97,1951.32L5814.42,2098.89L5662.89,2102.24Z" style="fill-rule:nonzero;"/>
        <path d="M5837.7,1977.67L5723.95,1854.7L5833.94,1784.38L5934.5,1903.38L5837.7,1977.67Z" style="fill:white;fill-rule:nonzero;"/>
        <path d="M5726.83,1855.07L5837.92,1975.16L5931.82,1903.09L5833.57,1786.82L5726.83,1855.07ZM5837.49,1980.18L5721.08,1854.33L5834.31,1781.93L5937.18,1903.67L5837.49,1980.18Z" style="fill-rule:nonzero;"/>
        <path d="M5663.87,2103.27L5663.54,2101.85C5663.31,2100.85 5658.13,2077.23 5673.52,2057.39C5686.02,2041.28 5708.21,2032.62 5739.48,2031.66C5767.48,1996.24 5781.12,1973.57 5787.63,1960.76C5794.77,1946.71 5795.16,1941.12 5795.16,1941.06L5795.34,1937.89L5798.02,1939.57C5798.2,1939.69 5816.65,1951.21 5840.76,1951.21C5856.92,1951.21 5871.94,1946.13 5885.4,1936.11C5916.32,1913.09 5915.44,1898.06 5914.86,1888.11C5914.52,1882.31 5914.23,1877.3 5921.42,1874.69L5922.66,1874.25L5988.13,1954.04L5816.36,2105.42L5663.87,2103.27Z" style="fill:white;fill-rule:nonzero;"/>
        <path d="M5923.26,1872.05L5920.78,1872.94C5912.29,1876.03 5912.67,1882.5 5913,1888.21C5913.56,1897.77 5914.4,1912.2 5884.29,1934.61C5871.16,1944.39 5856.51,1949.35 5840.76,1949.35C5817.23,1949.35 5799.19,1938.12 5799.01,1938L5793.28,1934.38L5793.3,1940.98C5793.18,1942.03 5790.08,1964.53 5738.56,2029.82C5707.16,2030.94 5684.79,2039.83 5672.05,2056.25C5656.13,2076.78 5661.49,2101.23 5661.73,2102.26L5662.38,2105.11L5665.3,2105.15L5815.62,2107.27L5817.05,2107.29L5818.13,2106.34L5988.02,1956.63L5990.71,1954.25L5988.43,1951.47L5924.93,1874.08L5923.26,1872.05ZM5922.05,1876.44L5985.55,1953.83L5815.67,2103.54L5665.35,2101.43C5665.35,2101.43 5650.33,2035.85 5740.4,2033.49C5796.25,1962.99 5797.02,1941.15 5797.02,1941.15C5797.02,1941.15 5815.77,1953.07 5840.76,1953.07C5854.79,1953.07 5870.77,1949.32 5886.51,1937.6C5936.2,1900.61 5905.77,1882.35 5922.05,1876.44Z" style="fill-rule:nonzero;"/>
        <path d="M5665.35,2101.43L5815.67,2103.54L5740.4,2033.49C5649.77,2035.85 5665.35,2101.43 5665.35,2101.43Z" style="fill:rgb(213,253,206);fill-rule:nonzero;"/>
        <path d="M5783.34,1953.61C5783.49,1952.72 5783.82,1951.86 5784.33,1951.06C5786.4,1947.83 5790.75,1946.96 5794.04,1949.11L5837.7,1977.67C5840.99,1979.82 5841.98,1984.18 5839.9,1987.41C5837.83,1990.64 5833.49,1991.51 5830.2,1989.36L5786.53,1960.8C5784.06,1959.18 5782.89,1956.31 5783.34,1953.61Z" style="fill-rule:nonzero;"/>
        <path d="M5768.88,1976.13C5769.03,1975.25 5769.36,1974.38 5769.87,1973.58C5771.94,1970.35 5776.29,1969.48 5779.58,1971.63L5823.24,2000.19C5826.53,2002.34 5827.52,2006.7 5825.44,2009.93C5823.37,2013.16 5819.02,2014.03 5815.73,2011.88L5772.07,1983.32C5769.6,1981.7 5768.43,1978.83 5768.88,1976.13Z" style="fill-rule:nonzero;"/>
        <path d="M5754.25,1998.92C5754.4,1998.03 5754.73,1997.17 5755.24,1996.37C5757.31,1993.14 5761.66,1992.27 5764.95,1994.42L5808.61,2022.98C5811.9,2025.13 5812.89,2029.49 5810.81,2032.72C5808.74,2035.95 5804.4,2036.82 5801.11,2034.67L5757.44,2006.11C5754.97,2004.49 5753.8,2001.62 5754.25,1998.92Z" style="fill-rule:nonzero;"/>
        <path d="M5899.13,1853.1C5899.13,1853.1 5746.72,1643.62 5858.09,1616.13C5942.22,1595.36 6033.33,1632.66 6101.75,1656.64C6248.94,1708.23 6305,1651.41 6305,1651.41C6383.7,1579.25 6384.4,1555.86 6343.27,1445.98C6343.27,1445.98 5881.99,1351.82 5728.71,1472.65C5565.82,1601.06 5670.33,1862.02 5743.26,1955.22C5811.9,1982.11 5899.5,1933.02 5899.13,1853.1Z" style="fill-rule:nonzero;"/>
        <path d="M5928.73,1513.72C5922.1,1513.16 5915.54,1512.76 5909.24,1512.51L5909.38,1508.79C5915.74,1509.04 5922.36,1509.45 5929.04,1510.01L5928.73,1513.72ZM5860.57,1514.04L5860.15,1510.34C5866.43,1509.62 5873.05,1509.1 5879.82,1508.81L5879.98,1512.53C5873.3,1512.82 5866.77,1513.33 5860.57,1514.04ZM5977.2,1519.99C5970.66,1518.87 5964.16,1517.86 5957.87,1516.99L5958.38,1513.3C5964.71,1514.18 5971.25,1515.2 5977.83,1516.32L5977.2,1519.99ZM5813.48,1525.13L5812.12,1521.67C5818.01,1519.35 5824.36,1517.32 5830.98,1515.62L5831.91,1519.22C5825.43,1520.88 5819.23,1522.88 5813.48,1525.13ZM6025.12,1529.83C6018.7,1528.3 6012.28,1526.86 6006.01,1525.53L6006.79,1521.89C6013.08,1523.22 6019.54,1524.68 6025.97,1526.2L6025.12,1529.83ZM6249.74,1532.67C6242.98,1532.22 6236.42,1532.11 6230.34,1532.34L6230.2,1528.62C6236.41,1528.38 6243.1,1528.5 6249.99,1528.96L6249.74,1532.67ZM6297.8,1540.38C6291.33,1538.82 6284.9,1537.46 6278.71,1536.34L6279.37,1532.68C6285.63,1533.81 6292.13,1535.18 6298.67,1536.76L6297.8,1540.38ZM6072.44,1542.38C6066.18,1540.55 6059.83,1538.76 6053.58,1537.07L6054.56,1533.48C6060.83,1535.18 6067.2,1536.97 6073.48,1538.81L6072.44,1542.38ZM6184.11,1543.87L6182.25,1540.65C6187.74,1537.48 6193.96,1534.9 6200.74,1532.98L6201.75,1536.56C6195.27,1538.4 6189.34,1540.86 6184.11,1543.87ZM5773.4,1551.15L5770.71,1548.57C5775.22,1543.86 5780.3,1539.51 5785.82,1535.62L5787.96,1538.67C5782.64,1542.41 5777.74,1546.61 5773.4,1551.15ZM6344.4,1554.8C6344.33,1554.78 6337.24,1551.93 6326,1548.31L6327.14,1544.77C6338.52,1548.43 6345.72,1551.32 6345.79,1551.35L6344.4,1554.8ZM6119.12,1557.21C6112.98,1555.1 6106.73,1553.02 6100.53,1551.02L6101.67,1547.48C6107.89,1549.48 6114.17,1551.57 6120.33,1553.69L6119.12,1557.21ZM6158.95,1571.93L6157.31,1571.26C6157.28,1571.24 6153.49,1569.7 6146.79,1567.16L6148.11,1563.68C6152.31,1565.27 6155.38,1566.48 6157.1,1567.16C6158.14,1565.11 6159.27,1563.13 6160.47,1561.25L6163.61,1563.26C6162.18,1565.48 6160.86,1567.86 6159.7,1570.33L6158.95,1571.93ZM5749.97,1592.56L5746.4,1591.51C5748.31,1584.99 5750.74,1578.75 5753.61,1572.99L5756.94,1574.65C5754.17,1580.22 5751.82,1586.25 5749.97,1592.56ZM5740.73,1640.52C5740.69,1638.7 5740.66,1636.89 5740.66,1635.14C5740.66,1630.22 5740.85,1625.38 5741.21,1620.75L5744.92,1621.04C5744.57,1625.58 5744.39,1630.32 5744.39,1635.14C5744.39,1636.86 5744.41,1638.64 5744.46,1640.43L5740.73,1640.52ZM5746.75,1689.41C5745.38,1682.8 5744.23,1676.27 5743.33,1670.01L5747.01,1669.47C5747.91,1675.66 5749.04,1682.12 5750.39,1688.66L5746.75,1689.41ZM5759.49,1736.91C5757.43,1730.53 5755.51,1724.19 5753.79,1718.09L5757.37,1717.08C5759.08,1723.14 5760.98,1729.42 5763.03,1735.76L5759.49,1736.91ZM5776.43,1783.02C5773.92,1776.85 5771.5,1770.69 5769.26,1764.73L5772.74,1763.42C5774.97,1769.35 5777.38,1775.47 5779.88,1781.62L5776.43,1783.02ZM5796.23,1827.94C5793.41,1821.96 5790.65,1815.96 5788.03,1810.1L5791.43,1808.58C5794.04,1814.41 5796.79,1820.39 5799.6,1826.36L5796.23,1827.94ZM5818.11,1871.88C5815.06,1866.05 5812.05,1860.17 5809.15,1854.41L5812.47,1852.74C5815.36,1858.48 5818.37,1864.34 5821.41,1870.15L5818.11,1871.88ZM5841.55,1914.97C5838.31,1909.22 5835.09,1903.45 5832.01,1897.82L5835.27,1896.04C5838.35,1901.65 5841.55,1907.41 5844.79,1913.14L5841.55,1914.97Z" style="fill:white;fill-rule:nonzero;"/>
        <path d="M6133.97,1666.66C6445.63,1767.65 6630.99,1345.53 6488.26,1147.26C6467.14,1125.38 6424.75,1122.2 6370.28,1126.33C6351.18,1127.78 6328.45,1138.13 6310.83,1149.53C6293.37,1160.83 6285.36,1182.32 6291.06,1202.32C6353.68,1422.05 6107.53,1411.48 6107.53,1411.48C6189.38,1501.15 6171.33,1537.94 6133.97,1666.66Z" style="fill:white;fill-rule:nonzero;"/>
        <path d="M6136.26,1665.44C6201.06,1686.07 6263.2,1685.12 6321.01,1662.61C6372.68,1642.5 6419.55,1605.03 6456.58,1554.27C6499.85,1494.94 6527.27,1421.4 6533.81,1347.19C6540.56,1270.55 6523.87,1199.98 6486.83,1148.45C6468.64,1129.71 6432.73,1123.46 6370.42,1128.19C6353.97,1129.44 6332.07,1138 6311.84,1151.09C6295.21,1161.85 6287.4,1182.71 6292.85,1201.81C6310.68,1264.39 6305.25,1314.45 6276.71,1350.62C6261.46,1369.95 6230.9,1395.5 6171.95,1407.4C6144.75,1412.89 6121.15,1413.43 6111.8,1413.41C6148.17,1453.89 6164.2,1484.25 6166.93,1517.47C6169.73,1551.51 6158.91,1588.32 6142.53,1644.03C6140.52,1650.88 6138.42,1658 6136.26,1665.44ZM6227.21,1683.96C6196.69,1683.96 6165.36,1678.78 6133.39,1668.43L6131.68,1667.87L6132.18,1666.14C6134.52,1658.07 6136.79,1650.36 6138.96,1642.98C6171.28,1533.05 6182.17,1496.01 6106.16,1412.73L6103.14,1409.43L6107.61,1409.62C6107.9,1409.63 6136.59,1410.76 6171.31,1403.73C6229.1,1392.04 6258.94,1367.14 6273.8,1348.3C6301.55,1313.13 6306.75,1264.18 6289.27,1202.83C6283.38,1182.17 6291.83,1159.61 6309.82,1147.97C6330.55,1134.55 6353.1,1125.77 6370.14,1124.48C6433.75,1119.65 6470.59,1126.28 6489.6,1145.96L6489.77,1146.17C6527.39,1198.43 6544.35,1269.94 6537.52,1347.51C6530.92,1422.39 6503.25,1496.59 6459.58,1556.46C6422.14,1607.8 6374.69,1645.71 6322.36,1666.08C6291.75,1678 6259.95,1683.96 6227.21,1683.96Z" style="fill-rule:nonzero;"/>
        <path d="M6393.11,1123.64L6376.42,1078L6337.87,1107.06L6348,1130.07C6348,1130.07 6319.1,1175.52 6346.39,1191.98C6377.6,1210.8 6396.3,1138.5 6393.11,1123.64Z" style="fill:white;fill-rule:nonzero;"/>
        <path d="M6340.16,1107.65L6350.1,1130.23L6349.57,1131.07C6349.4,1131.33 6332.83,1157.71 6337.28,1176.63C6338.68,1182.57 6342.07,1187.2 6347.35,1190.38C6353.94,1194.36 6360.11,1194.18 6366.19,1189.84C6383.23,1177.68 6393.58,1135.34 6391.32,1124.15L6375.53,1080.99L6340.16,1107.65ZM6356.55,1196.92C6352.87,1196.92 6349.13,1195.8 6345.43,1193.57C6339.25,1189.84 6335.29,1184.43 6333.66,1177.48C6329.27,1158.8 6342.95,1134.81 6345.9,1129.92L6335.57,1106.46L6377.3,1075L6394.93,1123.25C6397.58,1135.55 6387.24,1179.39 6368.35,1192.87C6364.57,1195.57 6360.59,1196.92 6356.55,1196.92Z" style="fill-rule:nonzero;"/>
        <path d="M6268.37,1004.12C6268.37,1004.12 6362.82,945.488 6391.76,1014.31C6407.34,1051.36 6365.93,1111.93 6352.55,1103.29C6339.17,1094.64 6335.33,1076.78 6343.98,1063.4C6348.33,1056.67 6321.44,1058.12 6305.58,1056.52C6278.23,1053.77 6268.37,1004.12 6268.37,1004.12Z" style="fill-rule:nonzero;"/>
        <path d="M6311.98,1017.21C6327.98,1012.94 6357.31,1022.75 6368.22,1038.91C6374.39,1037.91 6381.03,1043.74 6383.35,1052.42C6385.33,1059.86 6383.53,1067.07 6379.29,1070.37C6381.47,1094.3 6370.32,1115.61 6351.52,1120.62C6329.76,1126.42 6306.02,1108.22 6298.48,1079.96C6290.94,1051.7 6290.22,1023.02 6311.98,1017.21Z" style="fill:white;fill-rule:nonzero;"/>
        <path d="M6312.46,1019.01C6289.46,1025.14 6294.96,1059.53 6300.28,1079.48C6303.82,1092.76 6311.11,1104.16 6320.8,1111.59C6330.35,1118.91 6341.09,1121.48 6351.04,1118.82C6368.46,1114.18 6379.57,1093.87 6377.44,1070.54L6377.35,1069.53L6378.15,1068.9C6381.89,1065.99 6383.29,1059.41 6381.55,1052.9C6379.51,1045.23 6373.78,1039.89 6368.52,1040.75L6367.34,1040.94L6366.68,1039.95C6355.96,1024.08 6327.43,1015.02 6312.46,1019.01ZM6343.23,1123.57C6334.82,1123.57 6326.3,1120.49 6318.54,1114.54C6308.19,1106.61 6300.43,1094.5 6296.68,1080.44C6286.88,1043.67 6292.14,1020.58 6311.5,1015.42C6327.64,1011.11 6356.98,1020.2 6369.12,1036.95C6375.94,1036.61 6382.71,1042.82 6385.15,1051.94C6387.17,1059.53 6385.59,1067.09 6381.23,1071.16C6383.12,1095.9 6370.93,1117.37 6352,1122.42C6349.12,1123.19 6346.18,1123.57 6343.23,1123.57Z" style="fill-rule:nonzero;"/>
        <path d="M6375.12,1037.95C6375.12,1037.95 6332.35,1066.69 6288.89,1022.69C6288.89,1022.69 6338.85,983.519 6354.74,1003.25C6370.63,1022.97 6375.12,1037.95 6375.12,1037.95Z" style="fill-rule:nonzero;"/>
        <path d="M6331.09,1111.43C6329.53,1111.43 6328.53,1111.33 6328.44,1111.32C6327.42,1111.21 6326.67,1110.3 6326.78,1109.28C6326.88,1108.26 6327.78,1107.52 6328.82,1107.62C6329.06,1107.64 6345.71,1109.14 6349.96,1098.01C6350.33,1097.05 6351.41,1096.57 6352.36,1096.94C6353.32,1097.31 6353.8,1098.38 6353.44,1099.34C6351.22,1105.13 6346.14,1109.04 6338.74,1110.64C6335.77,1111.28 6333,1111.43 6331.09,1111.43Z" style="fill-rule:nonzero;"/>
        <path d="M6313.09,1073.62C6314.46,1077.7 6313.62,1081.66 6311.2,1082.47C6308.79,1083.28 6305.73,1080.63 6304.35,1076.56C6302.98,1072.48 6303.83,1068.52 6306.24,1067.71C6308.65,1066.9 6311.72,1069.54 6313.09,1073.62Z" style="fill-rule:nonzero;"/>
        <path d="M6332.18,1067.2C6333.55,1071.28 6332.71,1075.24 6330.29,1076.05C6327.88,1076.86 6324.82,1074.21 6323.45,1070.14C6322.07,1066.06 6322.92,1062.1 6325.33,1061.29C6327.74,1060.48 6330.81,1063.12 6332.18,1067.2Z" style="fill-rule:nonzero;"/>
        <path d="M6324.51,1096.75C6323.79,1096.75 6323.11,1096.33 6322.81,1095.63C6321.53,1092.69 6314.83,1074.05 6312.36,1067.16C6307.54,1069.93 6300,1068.28 6299.02,1068.05C6298.02,1067.81 6297.4,1066.81 6297.63,1065.81C6297.87,1064.81 6298.87,1064.19 6299.87,1064.43C6302.22,1064.98 6309.45,1065.88 6311.73,1062.88L6313.81,1060.15L6314.96,1063.38C6315.06,1063.65 6324.73,1090.71 6326.22,1094.15C6326.63,1095.09 6326.2,1096.19 6325.25,1096.6C6325.01,1096.7 6324.76,1096.75 6324.51,1096.75Z" style="fill-rule:nonzero;"/>
        <path d="M5638.59,1658.01C5638.58,1657.51 5637.59,1607.77 5664.04,1553.43C5679.58,1521.5 5701.41,1494.22 5728.92,1472.35C5763.27,1445.05 5806.62,1426.18 5857.74,1416.26L5858.45,1419.91C5807.92,1429.72 5765.12,1448.34 5731.24,1475.27C5704.16,1496.78 5682.68,1523.63 5667.38,1555.06C5641.33,1608.59 5642.3,1657.42 5642.31,1657.91L5638.59,1658.01Z" style="fill:white;fill-rule:nonzero;"/>
        <path d="M5874.54,1420.79L6094.38,1422.8L6094.13,1408.34L5880.84,1406.99L5874.54,1420.79Z" style="fill:rgb(247,248,249);fill-rule:nonzero;"/>
        <path d="M6093.27,1421.7L5876.23,1419.71L5881.54,1408.09L6093.06,1409.43L6093.27,1421.7ZM5872.84,1421.86L6095.5,1423.91L6095.21,1407.25L5880.14,1405.89L5872.84,1421.86Z" style="fill:rgb(1,1,1);fill-rule:nonzero;"/>
        <path d="M5809.62,1183.07L5874.21,1421.26L5880.84,1406.99L5823.2,1183.38L5809.62,1183.07Z" style="fill:rgb(247,248,249);fill-rule:nonzero;"/>
        <path d="M5879.68,1406.89L5874.48,1418.08L5811.06,1184.2L5822.35,1184.46L5879.68,1406.89ZM5873.95,1422.34L5881.99,1407.1L5881.89,1406.72L5824.06,1182.31L5808.18,1181.94L5873.95,1422.34Z" style="fill:rgb(1,1,1);fill-rule:nonzero;"/>
        <path d="M5722.54,1188.82L5785.47,1414.24L5874.54,1420.79L5813.08,1183.21L5722.54,1188.82Z" style="fill:rgb(247,248,249);fill-rule:nonzero;"/>
        <path d="M5873.1,1419.59L5787.53,1417.56L5723.95,1189.83L5812.25,1184.36L5873.1,1419.59ZM5786.01,1420.25L5875.98,1421.99L5875.6,1420.51L5813.91,1182.07L5721.12,1187.81L5721.48,1189.11L5786.01,1420.25Z" style="fill:rgb(1,1,1);fill-rule:nonzero;"/>
        <path d="M5784.7,1300.26C5786.11,1309.66 5791.69,1316.62 5797.16,1315.8C5802.63,1314.98 5805.92,1306.69 5804.51,1297.29C5803.1,1287.89 5797.52,1280.94 5792.05,1281.76C5786.58,1282.58 5783.29,1290.86 5784.7,1300.26Z" style="fill:rgb(247,248,249);fill-rule:nonzero;"/>
        <path d="M5793.31,1282.8C5797.76,1283.15 5802.23,1289.47 5803.43,1297.45C5804.08,1301.81 5803.72,1306.04 5802.4,1309.36C5801.16,1312.48 5799.24,1314.38 5797,1314.72C5794.75,1315.05 5792.36,1313.8 5790.26,1311.18C5788.03,1308.39 5786.44,1304.46 5785.78,1300.1C5784.49,1291.46 5787.43,1283.56 5792.21,1282.84C5792.58,1282.78 5792.95,1282.77 5793.31,1282.8ZM5795.7,1316.94C5796.24,1316.98 5796.78,1316.96 5797.32,1316.88C5800.37,1316.42 5802.89,1314.04 5804.43,1310.17C5805.89,1306.49 5806.3,1301.86 5805.59,1297.13C5804.07,1286.98 5798.04,1279.75 5791.89,1280.68C5785.73,1281.6 5782.1,1290.28 5783.62,1300.43C5784.33,1305.16 5786.08,1309.46 5788.56,1312.55C5790.7,1315.22 5793.19,1316.74 5795.7,1316.94Z" style="fill:rgb(1,1,1);fill-rule:nonzero;"/>
        <path d="M6142.82,1437.18C6174.44,1440.3 6213.35,1459.74 6212.37,1441.63C6209.58,1389.87 6139.01,1357.09 6083.61,1350.89C6043.52,1346.41 6005.22,1336 6003.29,1346.39C6001.25,1357.34 6012.64,1359.2 6072.45,1368.55C6010.21,1365.78 5999.31,1371.84 5999.31,1378.59C5999.31,1391.27 6060.93,1386.05 6064.74,1384.32C6060.93,1386.05 5999.78,1389.2 6000.73,1400.71C6001.4,1408.85 6014.36,1406.16 6017.76,1405.05C6017.76,1405.05 6001.52,1412.99 6014.71,1418.06C6022.04,1420.87 6063.56,1417.42 6096.59,1419.96C6120.48,1421.8 6136.13,1436.53 6142.82,1437.18Z" style="fill:white;fill-rule:nonzero;"/>
        <path d="M6143,1435.33C6154.09,1436.42 6166.14,1439.52 6176.77,1442.25C6191.22,1445.96 6204.86,1449.46 6209.12,1445.97C6210.16,1445.11 6210.62,1443.73 6210.51,1441.73C6208.95,1412.79 6185.85,1392.6 6166.74,1380.76C6143.69,1366.47 6112.53,1356 6083.4,1352.74C6071.68,1351.43 6059.95,1349.59 6049.6,1347.96C6028.24,1344.62 6006.16,1341.15 6005.12,1346.73C6004.73,1348.8 6004.92,1350.19 6005.76,1351.36C6009.64,1356.85 6029.42,1359.94 6072.74,1366.71C6073.72,1366.86 6074.4,1367.75 6074.3,1368.73C6074.21,1369.72 6073.36,1370.44 6072.37,1370.41C6031.62,1368.59 6008.08,1370.42 6002.42,1375.84C6001.56,1376.67 6001.17,1377.51 6001.17,1378.59C6001.17,1378.88 6001.17,1379.77 6002.75,1380.84C6011.18,1386.54 6041.65,1385.21 6056.24,1383.74C6060.04,1383.3 6063.31,1382.88 6063.99,1382.62C6064.93,1382.19 6066.02,1382.61 6066.45,1383.55C6066.87,1384.47 6066.46,1385.57 6065.54,1386L6065.53,1386L6065.53,1386.01L6065.52,1386.01C6065.52,1386.02 6065.51,1386.01 6065.51,1386.01C6065.21,1386.15 6064.78,1386.28 6064.14,1386.41C6062.24,1386.83 6058.81,1387.29 6054.49,1387.7C6054.07,1387.74 6053.64,1387.79 6053.2,1387.84C6043.69,1388.94 6030.66,1390.43 6019.94,1392.74C6003.11,1396.37 6002.53,1399.89 6002.58,1400.56C6002.69,1401.84 6003.19,1402.74 6004.15,1403.38C6007.3,1405.47 6014.42,1404.19 6017.17,1403.28C6018.1,1402.98 6019.11,1403.44 6019.48,1404.35C6019.85,1405.25 6019.45,1406.29 6018.57,1406.72C6015.63,1408.17 6011.32,1411.24 6011.41,1413.26C6011.45,1414.25 6012.9,1415.37 6015.38,1416.32C6018.69,1417.59 6031.24,1417.44 6045.77,1417.25C6061.05,1417.06 6080.06,1416.82 6096.74,1418.11C6112.89,1419.35 6125.47,1426.39 6133.79,1431.05C6137.72,1433.25 6141.11,1435.15 6143,1435.33ZM6203.14,1451.11C6196.32,1451.11 6186.84,1448.68 6175.85,1445.85C6165.34,1443.16 6153.44,1440.1 6142.63,1439.04C6139.97,1438.77 6136.62,1436.9 6131.97,1434.3C6123.45,1429.53 6111.78,1423 6096.45,1421.82C6079.94,1420.55 6061.02,1420.79 6045.82,1420.97C6028.07,1421.2 6017.84,1421.25 6014.05,1419.8C6009.94,1418.22 6007.8,1416.08 6007.69,1413.42C6007.6,1411.51 6008.64,1409.74 6010.05,1408.23C6007.27,1408.33 6004.31,1407.95 6002.09,1406.48C6000.18,1405.21 5999.07,1403.27 5998.87,1400.86C5998.38,1394.93 6008.02,1391.22 6022.23,1388.47C6013.06,1387.97 6004.94,1386.67 6000.88,1384.06C5998.04,1382.24 5997.45,1380.08 5997.45,1378.59C5997.45,1376.5 5998.26,1374.67 5999.85,1373.15C6003.21,1369.94 6011.72,1366.06 6044.59,1366.01C6017.17,1361.5 6006.45,1358.79 6002.72,1353.51C6001.29,1351.49 6000.89,1349.12 6001.46,1346.05C6003.16,1336.91 6021.86,1339.85 6050.18,1344.29C6060.49,1345.91 6072.18,1347.74 6083.82,1349.04C6113.91,1352.41 6144.85,1362.82 6168.7,1377.59C6188.56,1389.9 6212.58,1410.98 6214.23,1441.53C6214.4,1444.75 6213.48,1447.21 6211.48,1448.85C6209.52,1450.45 6206.69,1451.11 6203.14,1451.11Z" style="fill-rule:nonzero;"/>
        <path d="M6070.28,1401.61C6070.28,1401.61 6030.09,1402.55 6017.76,1405.05" style="fill:white;fill-rule:nonzero;"/>
        <path d="M6017.75,1406.91C6016.89,1406.91 6016.11,1406.3 6015.93,1405.42C6015.73,1404.41 6016.38,1403.43 6017.38,1403.23C6029.74,1400.72 6068.59,1399.79 6070.24,1399.75C6071.26,1399.76 6072.12,1400.54 6072.14,1401.57C6072.17,1402.6 6071.35,1403.45 6070.32,1403.47C6069.92,1403.48 6030.16,1404.43 6018.13,1406.87C6018,1406.9 6017.88,1406.91 6017.75,1406.91Z" style="fill-rule:nonzero;"/>
        <path d="M6521.02,1222.61C6577.12,1502.24 6324.82,1623 6134.88,1487.03C6105.04,1459.04 6120.67,1390.28 6177.77,1383.11C6468.42,1515.12 6373.6,1231.29 6407.16,1175.91C6456.49,1094.52 6508.15,1158.45 6521.02,1222.61Z" style="fill:white;fill-rule:nonzero;"/>
        <path d="M6136.06,1485.59C6182.47,1518.79 6234.61,1537.86 6286.86,1540.76C6337.22,1543.56 6384.91,1531.39 6424.85,1505.58C6464.11,1480.21 6493.77,1442.62 6510.63,1396.89C6529.3,1346.24 6532.19,1287.72 6519.2,1222.98C6511.66,1185.39 6489.48,1144.79 6461.69,1139.92C6443.63,1136.76 6425.32,1149.54 6408.76,1176.87C6400.58,1190.36 6400.26,1218.35 6399.89,1250.75C6399.24,1307.46 6398.42,1378.02 6353.4,1406.66C6317.51,1429.49 6259.96,1422.41 6177.48,1385.02C6152.55,1388.35 6133.03,1404.63 6125.21,1428.67C6118.15,1450.39 6122.41,1472.71 6136.06,1485.59ZM6300.95,1544.88C6296.21,1544.88 6291.45,1544.74 6286.66,1544.48C6233.66,1541.54 6180.8,1522.2 6133.79,1488.55L6133.6,1488.39C6118.84,1474.54 6114.16,1450.65 6121.67,1427.52C6130,1401.9 6150.88,1384.61 6177.54,1381.26L6178.06,1381.2L6178.54,1381.42C6221.19,1400.79 6257.81,1412.11 6287.38,1415.08C6313.65,1417.73 6335.19,1413.83 6351.41,1403.52C6394.73,1375.97 6395.52,1306.51 6396.17,1250.71C6396.55,1217.76 6396.87,1189.3 6405.57,1174.94C6427.59,1138.61 6448.58,1133.85 6462.33,1136.26C6476.01,1138.66 6489.25,1149.02 6500.6,1166.23C6510.8,1181.7 6518.71,1201.6 6522.85,1222.25C6535.97,1287.68 6533.04,1346.87 6514.12,1398.18C6496.98,1444.67 6466.81,1482.89 6426.87,1508.71C6390.07,1532.49 6346.79,1544.88 6300.95,1544.88Z" style="fill-rule:nonzero;"/>
        <rect x="4957.52" y="2115.79" width="2150.01" height="3.72" style="fill-rule:nonzero;"/>
        <g transform="matrix(1,0,0,1,3784.19,-890.749)">
            <path d="M2352.74,1313.65L1859.31,1313.65C1838.34,1313.65 1821.19,1330.8 1821.19,1351.76L1821.19,1508.73L1718.4,1626.67L1884.87,1575.18L2352.74,1575.18C2373.7,1575.18 2390.85,1558.03 2390.85,1537.06L2390.85,1351.76C2390.85,1330.8 2373.7,1313.65 2352.74,1313.65Z" style="fill:white;fill-rule:nonzero;"/>
        </g>
        <g transform="matrix(1,0,0,1,3588.96,-1298.57)">
            <path d="M1942.6,2127.65L1800.88,2127.65L1818.21,1973.5L1959.93,1973.5L1942.6,2127.65Z" style="fill:white;fill-rule:nonzero;"/>
            <path d="M1942.6,2127.65C1942.6,2127.65 1944.1,2081.81 1938.67,2066.85C1933.23,2051.88 1831.97,2054.28 1819.52,2066.26C1807.08,2078.23 1800.9,2127.46 1800.9,2127.46L1942.6,2127.65Z" style="fill-rule:nonzero;"/>
            <path d="M1896.76,2050.16C1896.76,2050.16 1889.05,2081.08 1870.48,2060.71C1864.41,2054.05 1864.95,2051.56 1864.95,2051.56L1846.21,2058.89C1846.21,2058.89 1867.25,2084.62 1888.61,2083.5C1898.7,2082.97 1907.88,2057.46 1907.88,2057.46L1896.76,2050.16Z" style="fill:white;fill-rule:nonzero;"/>
            <path d="M1862.97,2056.66L1866.29,2029.52L1898.69,2042.35L1896.74,2059.71L1891.23,2081.16C1891.23,2081.16 1863.88,2066.13 1862.97,2056.66Z" style="fill:rgb(213,253,206);fill-rule:nonzero;"/>
            <path d="M1912.06,2012.02C1909.64,2020.09 1900.88,2025.47 1892.5,2024.03C1884.13,2022.6 1879.3,2014.9 1881.73,2006.83C1884.15,1998.76 1892.91,1993.38 1901.28,1994.81C1909.66,1996.24 1914.48,2003.95 1912.06,2012.02Z" style="fill-rule:nonzero;"/>
            <path d="M1894.13,2010.23C1891.71,2018.3 1882.95,2023.68 1874.57,2022.24C1866.2,2020.81 1861.37,2013.1 1863.8,2005.03C1866.22,1996.96 1874.98,1991.58 1883.36,1993.02C1891.73,1994.45 1896.56,2002.16 1894.13,2010.23Z" style="fill-rule:nonzero;"/>
            <path d="M1884.34,1998.17C1875.46,1999.92 1868.54,2007.79 1866.15,2017.6C1862.85,2018.57 1860.62,2022.73 1861.13,2027.18C1861.56,2031 1863.86,2033.84 1866.62,2034.36C1870.13,2045.67 1879.85,2052.73 1890.29,2050.68C1902.36,2048.3 1910.82,2034.61 1909.18,2020.11C1907.54,2005.61 1896.42,1995.79 1884.34,1998.17Z" style="fill:rgb(213,253,206);fill-rule:nonzero;"/>
            <path d="M1909.67,2021.19C1909.56,2019.7 1909.34,2018.26 1909.04,2016.87C1908.09,2021.45 1910.51,2028.39 1906.13,2030.79C1903.1,2032.44 1897.91,2029.37 1894.02,2031.7C1870.88,2045.54 1866.63,2013.61 1866.63,2013.61C1866.4,2013.62 1867.15,2015.48 1865.73,2016.62C1865.73,2016.62 1867.55,2022.23 1866.86,2028.03C1866.68,2029.52 1866.1,2032.32 1865.34,2033.56C1865.4,2033.58 1865.46,2033.6 1865.52,2033.61C1865.8,2046.59 1882.83,2058.84 1893.6,2057.25C1906.06,2055.41 1910.74,2035.96 1909.67,2021.19Z" style="fill-rule:nonzero;"/>
            <path d="M1886.23,2038.68C1887.35,2039.97 1893.51,2039.51 1896.6,2035.7C1901.02,2038.82 1902.99,2033.88 1902.99,2033.88C1902.99,2033.88 1901.79,2041.66 1896.58,2043.43C1891.36,2045.2 1886.23,2038.68 1886.23,2038.68Z" style="fill:rgb(213,253,206);fill-rule:nonzero;"/>
            <path d="M1887.79,2008.11C1886.19,2013.41 1880.44,2016.94 1874.94,2016C1869.45,2015.06 1866.28,2010 1867.87,2004.7C1869.46,1999.4 1875.21,1995.87 1880.71,1996.81C1886.21,1997.75 1889.38,2002.81 1887.79,2008.11Z" style="fill-rule:nonzero;"/>
            <path d="M1894.31,1999.8C1892.72,2005.1 1886.97,2008.63 1881.47,2007.69C1875.97,2006.75 1872.8,2001.69 1874.39,1996.39C1875.98,1991.09 1881.73,1987.56 1887.23,1988.5C1892.73,1989.45 1895.9,1994.5 1894.31,1999.8Z" style="fill-rule:nonzero;"/>
            <path d="M1910.14,2000.79C1908,2007.92 1900.26,2012.68 1892.85,2011.41C1885.45,2010.14 1881.18,2003.33 1883.33,1996.2C1885.47,1989.06 1893.21,1984.31 1900.62,1985.57C1908.02,1986.84 1912.29,1993.65 1910.14,2000.79Z" style="fill-rule:nonzero;"/>
            <path d="M1917.38,1995.4C1916.06,1999.79 1911.3,2002.71 1906.75,2001.93C1902.2,2001.15 1899.57,1996.97 1900.89,1992.58C1902.21,1988.2 1906.97,1985.27 1911.52,1986.05C1916.07,1986.83 1918.69,1991.02 1917.38,1995.4Z" style="fill-rule:nonzero;"/>
            <path d="M1888.33,2127.27L1885.1,2126.93L1889.76,2082.9L1890.29,2082.48C1890.53,2082.29 1890.8,2081.95 1890.85,2081.81C1890.85,2081.81 1890.83,2081.86 1890.84,2081.95C1890.86,2082.07 1890.96,2082.2 1891.02,2082.24L1891.54,2079.03C1892.64,2079.19 1893.91,2080.07 1894.07,2081.6C1894.21,2082.86 1893.43,2083.92 1892.85,2084.53L1888.33,2127.27Z" style="fill:rgb(213,253,206);fill-rule:nonzero;"/>
        </g>
        <g transform="matrix(1,0,0,1,3824.19,-910.749)">
            <path d="M1859.3,1316.75C1840,1316.75 1824.29,1332.46 1824.29,1351.76L1824.29,1509.89L1727.92,1620.47L1884.4,1572.07L2352.74,1572.07C2372.04,1572.07 2387.75,1556.37 2387.75,1537.06L2387.75,1351.76C2387.75,1332.46 2372.04,1316.75 2352.74,1316.75L1859.3,1316.75ZM1708.88,1632.86L1818.08,1507.56L1818.08,1351.76C1818.08,1329.04 1836.58,1310.54 1859.3,1310.54L2352.74,1310.54C2375.47,1310.54 2393.96,1329.04 2393.96,1351.76L2393.96,1537.06C2393.96,1559.79 2375.47,1578.28 2352.74,1578.28L1885.34,1578.28L1708.88,1632.86Z" style="fill-rule:nonzero;"/>
        </g>
        <g transform="matrix(1,0,0,1,-98.8042,-1684.75)">
            <g transform="matrix(1,0,0,1,4045.07,0)">
                <path d="M1918.1,2166.82L1796.55,2166.82L1799.14,2143.91L1920.69,2143.91L1918.1,2166.82Z" style="fill-rule:nonzero;"/>
            </g>
            <g transform="matrix(1,0,0,1,4045.07,0)">
                <path d="M1980.59,2260.12L1786,2260.12L1788.59,2237.22L1983.18,2237.22L1980.59,2260.12Z" style="fill:rgb(204,204,204);fill-rule:nonzero;"/>
            </g>
            <g transform="matrix(1,0,0,1,4045.07,0)">
                <path d="M2108.45,2260.12L1986.9,2260.12L1989.49,2237.22L2111.04,2237.22L2108.45,2260.12Z" style="fill:rgb(204,204,204);fill-rule:nonzero;"/>
            </g>
            <g transform="matrix(1,0,0,1,4045.07,0)">
                <path d="M1946.69,2229.02L1789.52,2229.02L1792.11,2206.12L1949.28,2206.12L1946.69,2229.02Z" style="fill:rgb(204,204,204);fill-rule:nonzero;"/>
            </g>
            <g transform="matrix(1,0,0,1,4045.07,0)">
                <path d="M2134.75,2229.02L1953.6,2229.02L1956.19,2206.12L2137.34,2206.12L2134.75,2229.02Z" style="fill:rgb(204,204,204);fill-rule:nonzero;"/>
            </g>
            <g transform="matrix(1,0,0,1,4045.07,0)">
                <path d="M1961.37,2197.92L1793.03,2197.92L1795.62,2175.01L1963.96,2175.01L1961.37,2197.92Z" style="fill:rgb(204,204,204);fill-rule:nonzero;"/>
            </g>
            <g transform="matrix(1,0,0,1,4045.07,0)">
                <path d="M2169.17,2197.92L2095.03,2197.92L2097.62,2175.01L2171.76,2175.01L2169.17,2197.92Z" style="fill:rgb(204,204,204);fill-rule:nonzero;"/>
            </g>
            <g transform="matrix(1,0,0,1,4045.07,0)">
                <path d="M2089.41,2197.92L1967.21,2197.92L1969.8,2175.01L2092,2175.01L2089.41,2197.92Z" style="fill:rgb(204,204,204);fill-rule:nonzero;"/>
            </g>
        </g>
        <g transform="matrix(0.54862,0.0107292,-0.0107292,0.54862,4511.32,740.423)">
            <path d="M2048.12,735.228L1795.7,735.228L1830.13,444.764L2082.55,444.764L2048.12,735.228Z" style="fill:white;fill-rule:nonzero;"/>
            <path d="M1981.41,628.319C1936.82,625.858 1894.69,631.436 1845.72,640.739C1794.91,657.852 1795.61,735.228 1795.61,735.228L2042.36,735.228C2044.19,711.131 2067.64,659.751 1981.41,628.319Z" style="fill-rule:nonzero;"/>
            <path d="M1921.43,493.451C1935.98,518.106 1930.93,549.1 1910.15,562.68C1889.38,576.259 1860.75,567.281 1846.2,542.626C1831.65,517.972 1836.7,486.977 1857.48,473.398C1878.25,459.818 1906.89,468.797 1921.43,493.451Z" style="fill-rule:nonzero;"/>
            <path d="M1938.79,549.313C1939.02,563.771 1929.19,576.824 1916.82,578.468C1904.45,580.112 1894.22,569.724 1893.99,555.266C1893.75,540.808 1903.58,527.755 1915.95,526.111C1928.33,524.467 1938.55,534.855 1938.79,549.313Z" style="fill:rgb(213,253,206);fill-rule:nonzero;"/>
            <path d="M1965.81,563.349C1966.1,581.18 1951.66,597.586 1933.54,599.993C1915.42,602.401 1900.5,589.898 1900.21,572.067C1899.91,554.236 1914.36,537.83 1932.47,535.423C1950.59,533.015 1965.52,545.518 1965.81,563.349Z" style="fill-rule:nonzero;"/>
            <path d="M1912.37,631.391L1917.01,592.214L1949.29,605.055L1947.99,628.481C1947.99,628.481 1986.66,663.285 1970.96,671.954C1955.27,680.623 1915.12,643.764 1912.37,631.391Z" style="fill:white;fill-rule:nonzero;"/>
            <path d="M1914.82,631.235C1917.09,639.325 1937.21,660.122 1954.82,668.063C1961.37,671.016 1966.55,671.629 1969.79,669.838C1971.3,669.009 1972.08,667.902 1972.25,666.354C1972.77,661.864 1968.43,654.041 1960.05,644.325C1953.38,636.595 1946.45,630.339 1946.38,630.277C1945.83,629.787 1945.54,629.078 1945.58,628.347L1946.78,606.658L1919.04,595.623L1914.82,631.235ZM1965.38,675.682C1961.77,675.682 1957.58,674.61 1952.83,672.47C1934.2,664.067 1912.21,641.793 1910.01,631.917C1909.95,631.651 1909.94,631.377 1909.97,631.107L1914.61,591.93C1914.7,591.184 1915.13,590.522 1915.78,590.138C1916.42,589.753 1917.21,589.691 1917.91,589.968L1950.19,602.809C1951.15,603.193 1951.76,604.151 1951.71,605.189L1950.47,627.467C1955.86,632.425 1978.52,654.125 1977.06,666.905C1976.7,670.009 1975,672.486 1972.13,674.07C1970.18,675.145 1967.93,675.682 1965.38,675.682Z" style="fill-rule:nonzero;"/>
            <path d="M1941.03,549.014C1930.48,550.468 1921.58,559.763 1917.76,571.87C1913.8,572.805 1910.77,577.839 1910.89,583.474C1911,588.298 1913.38,592.053 1916.56,592.936C1919.46,607.423 1930.06,617.096 1942.46,615.388C1956.81,613.411 1968.12,596.951 1967.72,578.622C1967.33,560.294 1955.38,547.038 1941.03,549.014Z" style="fill:white;fill-rule:nonzero;"/>
            <path d="M1917.76,571.871L1917.77,571.871L1917.76,571.871ZM1941.36,551.409C1932.08,552.688 1923.72,561.005 1920.07,572.597C1919.81,573.41 1919.15,574.027 1918.32,574.223C1915.46,574.897 1913.22,579.023 1913.31,583.422C1913.39,586.979 1915.02,590.001 1917.2,590.606C1918.08,590.851 1918.75,591.567 1918.93,592.46C1921.65,606.056 1931.19,614.5 1942.13,612.993C1955.28,611.182 1965.67,595.786 1965.31,578.674C1965.1,569.145 1961.6,560.795 1955.71,555.767C1951.52,552.2 1946.56,550.692 1941.36,551.409ZM1939.7,617.996C1927.96,617.996 1917.77,608.711 1914.47,594.712C1910.94,592.961 1908.59,588.675 1908.48,583.526C1908.34,577.365 1911.43,571.828 1915.85,569.964C1920.26,557.214 1929.91,548.107 1940.7,546.62C1947.21,545.723 1953.66,547.664 1958.84,552.089C1965.79,558.011 1969.9,567.664 1970.14,578.57C1970.56,598.056 1958.29,615.646 1942.79,617.782C1941.75,617.925 1940.72,617.996 1939.7,617.996Z" style="fill-rule:nonzero;"/>
            <path d="M1945.18,557.645C1945.33,566.56 1938.11,574.764 1929.05,575.967C1919.99,577.171 1912.53,570.92 1912.38,562.004C1912.24,553.089 1919.46,544.886 1928.52,543.682C1937.58,542.478 1945.04,548.73 1945.18,557.645Z" style="fill-rule:nonzero;"/>
        </g>
        <g transform="matrix(1,0,0,1,3904.19,-560.749)">
            <path d="M1859.3,1316.75C1840,1316.75 1824.29,1332.46 1824.29,1351.76L1824.29,1509.89L1727.92,1620.47L1884.4,1572.07L2352.74,1572.07C2372.04,1572.07 2387.75,1556.37 2387.75,1537.06L2387.75,1351.76C2387.75,1332.46 2372.04,1316.75 2352.74,1316.75L1859.3,1316.75ZM1708.88,1632.86L1818.08,1507.56L1818.08,1351.76C1818.08,1329.04 1836.58,1310.54 1859.3,1310.54L2352.74,1310.54C2375.47,1310.54 2393.96,1329.04 2393.96,1351.76L2393.96,1537.06C2393.96,1559.79 2375.47,1578.28 2352.74,1578.28L1885.34,1578.28L1708.88,1632.86Z" style="fill-rule:nonzero;"/>
        </g>
        <g transform="matrix(1,0,0,1,71.0903,-1.5821)">
            <g transform="matrix(1,0,0,1,3429.32,-1355.93)">
                <path d="M2512.79,2260.12L2318.2,2260.12L2320.79,2237.22L2515.38,2237.22L2512.79,2260.12Z" style="fill:rgb(204,204,204);fill-rule:nonzero;"/>
            </g>
            <g transform="matrix(1,0,0,1,3429.32,-1355.93)">
                <path d="M2715.65,2260.12L2521.07,2260.12L2523.66,2237.22L2718.24,2237.22L2715.65,2260.12Z" style="fill:rgb(204,204,204);fill-rule:nonzero;"/>
            </g>
            <g transform="matrix(1,0,0,1,3429.32,-1355.93)">
                <path d="M2478.89,2229.02L2321.72,2229.02L2324.31,2206.12L2481.48,2206.12L2478.89,2229.02Z" style="fill:rgb(204,204,204);fill-rule:nonzero;"/>
            </g>
            <g transform="matrix(1,0,0,1,3429.32,-1355.93)">
                <path d="M2666.95,2229.02L2485.8,2229.02L2488.39,2206.12L2669.54,2206.12L2666.95,2229.02Z" style="fill:rgb(204,204,204);fill-rule:nonzero;"/>
            </g>
            <g transform="matrix(1,0,0,1,3441.32,-1462.93)">
                <path d="M2434.66,2305.92L2313.11,2305.92L2315.7,2283.01L2437.25,2283.01L2434.66,2305.92Z" style="fill-rule:nonzero;"/>
            </g>
            <g transform="matrix(1,0,0,1,3433.32,-1399.93)">
                <path d="M2477.93,2337.02L2309.6,2337.02L2312.19,2314.11L2480.52,2314.11L2477.93,2337.02Z" style="fill:rgb(204,204,204);fill-rule:nonzero;"/>
            </g>
            <g transform="matrix(1,0,0,1,3433.32,-1399.93)">
                <path d="M2605.97,2337.02L2483.78,2337.02L2486.37,2314.11L2608.56,2314.11L2605.97,2337.02Z" style="fill:rgb(204,204,204);fill-rule:nonzero;"/>
            </g>
        </g>
        <g transform="matrix(1,0,0,1,3624.19,-910.749)">
            <path d="M2238.06,1430.88L2731.5,1430.88C2752.46,1430.88 2769.61,1448.03 2769.61,1469L2769.61,1625.96L2872.4,1743.9L2705.93,1692.41L2238.06,1692.41C2217.1,1692.41 2199.95,1675.26 2199.95,1654.29L2199.95,1469C2199.95,1448.03 2217.1,1430.88 2238.06,1430.88Z" style="fill:rgb(234,234,234);fill-rule:nonzero;stroke:white;stroke-width:20px;"/>
        </g>
        <g transform="matrix(1,0,0,1,78.6709,-1557.83)">
            <g transform="matrix(1,0,0,1,4563.07,0)">
                <path d="M1392.96,2166.82L1271.41,2166.82L1274,2143.91L1395.55,2143.91L1392.96,2166.82Z" style="fill-rule:nonzero;"/>
            </g>
            <g transform="matrix(1,0,0,1,4563.07,0)">
                <path d="M1455.44,2260.12L1260.86,2260.12L1263.45,2237.22L1458.03,2237.22L1455.44,2260.12Z" style="fill:rgb(204,204,204);fill-rule:nonzero;"/>
            </g>
            <g transform="matrix(1,0,0,1,4563.07,0)">
                <path d="M1658.31,2260.12L1463.72,2260.12L1466.31,2237.22L1660.9,2237.22L1658.31,2260.12Z" style="fill:rgb(204,204,204);fill-rule:nonzero;"/>
            </g>
            <g transform="matrix(1,0,0,1,4563.07,0)">
                <path d="M1421.55,2229.02L1264.37,2229.02L1266.96,2206.12L1424.14,2206.12L1421.55,2229.02Z" style="fill:rgb(204,204,204);fill-rule:nonzero;"/>
            </g>
            <g transform="matrix(1,0,0,1,4563.07,0)">
                <path d="M1609.61,2229.02L1428.46,2229.02L1431.05,2206.12L1612.2,2206.12L1609.61,2229.02Z" style="fill:rgb(204,204,204);fill-rule:nonzero;"/>
            </g>
            <g transform="matrix(1,0,0,1,4563.07,0)">
                <path d="M1436.23,2197.92L1267.89,2197.92L1270.48,2175.01L1438.82,2175.01L1436.23,2197.92Z" style="fill:rgb(204,204,204);fill-rule:nonzero;"/>
            </g>
            <g transform="matrix(1,0,0,1,4563.07,0)">
                <path d="M1564.26,2197.92L1442.07,2197.92L1444.66,2175.01L1566.85,2175.01L1564.26,2197.92Z" style="fill:rgb(204,204,204);fill-rule:nonzero;"/>
            </g>
        </g>
    </g>
</svg>
