<?xml version="1.0" encoding="UTF-8" standalone="no"?>
<!DOCTYPE svg PUBLIC "-//W3C//DTD SVG 1.1//EN" "http://www.w3.org/Graphics/SVG/1.1/DTD/svg11.dtd">
<svg width="100%" height="100%" viewBox="0 0 667 676" version="1.1" xmlns="http://www.w3.org/2000/svg" xmlns:xlink="http://www.w3.org/1999/xlink" xml:space="preserve" xmlns:serif="http://www.serif.com/" style="fill-rule:evenodd;clip-rule:evenodd;stroke-linejoin:round;stroke-miterlimit:2;">
    <g transform="matrix(1,0,0,1,-266.534,-112.188)">
        <path d="M677.208,733.368L667.734,727.333C667.299,722.034 667.163,716.716 667.327,711.402L672.241,712.657L667.391,709.567C667.658,702.998 668.252,698.665 668.252,698.665C668.252,698.665 687.407,711.107 699.623,727.972L697.54,742.235L702.508,732.261C703.779,734.295 704.92,736.407 705.926,738.585C715.991,760.573 716.969,781.686 708.11,785.741C699.251,789.796 683.911,775.258 673.845,753.269C670.809,746.197 668.875,738.702 668.11,731.044L677.208,733.368Z" style="fill:rgb(230,230,230);fill-rule:nonzero;"/>
    </g>
    <g transform="matrix(1,0,0,1,-266.534,-112.188)">
        <path d="M657.748,754.593L646.518,754.323C643.407,750.012 640.541,745.529 637.934,740.896L642.79,739.43L637.041,739.292C633.875,733.531 632.143,729.515 632.143,729.515C632.143,729.515 654.972,730.265 674.147,738.387L679.736,751.673L678.833,740.567C680.972,741.651 683.041,742.869 685.028,744.214C705.01,757.834 716.761,775.402 711.273,783.453C705.786,791.503 685.138,786.988 665.156,773.367C658.901,768.883 653.371,763.466 648.758,757.306L657.748,754.593Z" style="fill:rgb(230,230,230);fill-rule:nonzero;"/>
    </g>
    <path d="M457.583,662.235L445.323,662.234L440.724,614.548L457.585,614.947L457.583,662.235Z" style="fill:rgb(160,97,106);fill-rule:nonzero;"/>
    <g transform="matrix(1,0,0,1,-266.534,-112.188)">
        <path d="M727.243,786.307L687.713,786.305L687.713,785.805C687.713,777.365 694.659,770.42 703.099,770.419L727.244,770.42L727.243,786.307Z" style="fill:rgb(47,46,65);fill-rule:nonzero;"/>
    </g>
    <path d="M602.22,626.845L594.179,636.099L554.657,609.488L566.525,595.829L602.22,626.845Z" style="fill:rgb(160,97,106);fill-rule:nonzero;"/>
    <g transform="matrix(1,0,0,1,-266.534,-112.188)">
        <path d="M879.776,744.467L853.848,774.307L853.471,773.979C847.099,768.443 846.412,758.645 851.947,752.273L851.948,752.272L867.784,734.047L879.776,744.467Z" style="fill:rgb(47,46,65);fill-rule:nonzero;"/>
    </g>
    <g transform="matrix(1,0,0,1,-266.534,-112.188)">
        <path d="M932.276,787.812L597.982,787.812C597.328,787.812 596.791,787.275 596.791,786.621C596.791,785.968 597.328,785.431 597.982,785.431L932.276,785.431C932.929,785.431 933.466,785.968 933.466,786.621C933.466,787.275 932.929,787.812 932.276,787.812Z" style="fill:rgb(202,202,202);fill-rule:nonzero;"/>
    </g>
    <g transform="matrix(1,0,0,1,-266.534,-112.188)">
        <path d="M751.053,662.174L725.258,757.736L705.258,757.736L709.651,653.222L721.246,551.396L763.361,549.158L751.053,662.174Z" style="fill:rgb(47,46,65);fill-rule:nonzero;"/>
    </g>
    <g transform="matrix(1,0,0,1,-266.534,-112.188)">
        <path d="M795.811,551.396C795.811,551.396 798.049,565.943 789.097,581.608C780.146,597.274 785.74,649.865 785.74,649.865L861.258,725.736C861.258,725.736 849.522,746.097 843.927,744.978C838.332,743.859 749.934,672.245 749.934,672.245L721.246,555.872L795.811,551.396Z" style="fill:rgb(47,46,65);fill-rule:nonzero;"/>
    </g>
    <circle cx="487.638" cy="244.08" r="25.736" style="fill:rgb(160,97,106);"/>
    <g transform="matrix(1,0,0,1,-266.534,-112.188)">
        <path d="M755.258,396.736C755.258,396.736 785.258,385.379 785.258,388.736C785.258,392.093 814.834,420.477 808.12,457.403C801.406,494.329 793.573,512.232 796.93,532.374C800.287,552.515 798.049,556.991 798.049,556.991C798.049,556.991 720.127,563.705 719.008,555.872C717.889,548.039 722.258,536.093 722.258,532.736C722.258,529.379 753.177,405.375 755.258,396.736Z" style="fill:rgb(87,90,137);fill-rule:nonzero;"/>
    </g>
    <path d="M522.527,394.596L492.911,443.125L502.981,443.125L522.527,394.596Z" style="fill-opacity:0.2;fill-rule:nonzero;"/>
    <g transform="matrix(1,0,0,1,-266.534,-112.188)">
        <path d="M765.82,371.733C763.737,370.632 761.316,370.405 759.061,369.72C750.993,367.27 745.588,358.149 747.313,349.896C747.632,348.837 747.775,347.733 747.737,346.629C747.436,344.184 744.934,342.607 742.536,342.047C740.137,341.487 737.586,341.568 735.293,340.667C731.754,339.277 729.402,335.639 728.893,331.871C728.527,328.056 729.376,324.222 731.32,320.919L732.186,323.412C733.507,322.293 734.488,320.826 735.017,319.178C737.017,319.514 738.703,320.87 739.461,322.751C740.851,323.571 741.052,320.204 742.588,319.707C743.263,319.623 743.946,319.791 744.505,320.18C747.6,321.623 751.196,320.389 754.516,319.589C760.266,318.21 766.259,318.203 772.012,319.568C775.834,320.48 779.616,322.067 782.351,324.888C784.49,327.317 786.133,330.14 787.188,333.2C790.121,340.582 792.059,348.569 791.091,356.453C790.284,362.904 787.585,368.974 783.334,373.893C781.119,376.444 773.894,385.346 769.932,383.829C764.954,381.922 771.686,374.835 765.82,371.733Z" style="fill:rgb(47,46,65);fill-rule:nonzero;"/>
    </g>
    <g transform="matrix(0.934348,-0.356361,0.356361,0.934348,-444.088,191.757)">
        <rect x="735.344" y="592.546" width="1.592" height="82.629" style="fill-opacity:0.2;"/>
    </g>
    <g transform="matrix(1,0,0,1,-266.534,-112.188)">
        <path d="M413.031,573.646C402.516,543.44 373.861,523.073 341.876,523.073C300.545,523.073 266.534,557.083 266.534,598.415C266.534,615.403 272.281,631.903 282.834,645.216C283.51,646.068 284.213,646.92 284.93,647.745C284.984,647.799 285.025,647.853 285.079,647.907C286.842,649.939 288.715,651.871 290.691,653.696C291.206,654.169 291.747,654.656 292.287,655.116C293.315,656.035 294.37,656.914 295.466,657.753C295.898,658.091 296.318,658.429 296.764,658.754C298.495,660.066 300.294,661.283 302.147,662.446L302.228,662.486C302.755,662.811 303.296,663.136 303.837,663.447C304.81,664.028 305.812,664.583 306.812,665.11L307.448,665.435C308.909,666.192 310.396,666.909 311.924,667.571C312.235,667.707 312.574,667.842 312.885,667.977C312.912,667.991 312.925,667.991 312.952,668.004C313.669,668.302 314.386,668.586 315.116,668.856C317.515,669.772 319.962,670.558 322.446,671.209C328.786,672.899 335.319,673.754 341.88,673.752C344.274,673.752 346.641,673.644 348.981,673.414C354.326,672.92 359.604,671.855 364.723,670.236C364.736,670.236 364.75,670.222 364.763,670.222C367.997,669.192 371.155,667.94 374.217,666.476C374.23,666.462 374.257,666.462 374.271,666.449C374.96,666.124 375.623,665.773 376.3,665.435C376.408,665.38 376.515,665.326 376.624,665.272C377.165,664.988 377.706,664.704 378.247,664.407C379.599,663.663 380.925,662.879 382.236,662.04C382.601,661.824 382.953,661.594 383.319,661.35C383.832,661.012 384.346,660.661 384.847,660.295C385.509,659.836 386.172,659.362 386.821,658.875C387.024,658.727 387.24,658.578 387.443,658.416C413.367,638.738 423.738,604.381 413.031,573.646L413.031,573.646Z" style="fill:white;fill-rule:nonzero;"/>
    </g>
    <g transform="matrix(1,0,0,1,-266.534,-112.188)">
        <path d="M380.925,655.278C374.517,651.901 367.829,649.087 360.936,646.866L360.057,637.142L324.407,633.301L319.877,645.73L307.083,650.531C306.625,650.705 306.189,650.932 305.784,651.207L305.771,651.207C304.328,652.182 303.349,653.709 303.066,655.427C302.929,656.272 302.961,657.136 303.161,657.969L303.837,660.742C304.81,661.323 305.812,661.878 306.812,662.405L307.448,662.73C308.909,663.487 310.396,664.204 311.924,664.867C312.235,665.002 312.574,665.137 312.885,665.272C312.912,665.286 312.925,665.286 312.952,665.299C313.669,665.597 314.386,665.881 315.116,666.151C317.515,667.068 319.962,667.853 322.446,668.505C328.786,670.194 335.319,671.049 341.88,671.047C344.274,671.047 346.641,670.939 348.981,670.709C354.326,670.215 359.604,669.15 364.723,667.531C364.736,667.531 364.75,667.517 364.763,667.517C367.997,666.487 371.155,665.235 374.217,663.771C374.23,663.758 374.257,663.758 374.271,663.744C374.96,663.419 375.623,663.068 376.3,662.73C376.408,662.676 376.515,662.622 376.624,662.567C377.165,662.283 377.706,661.999 378.247,661.702C379.599,660.958 380.925,660.174 382.236,659.335C382.601,659.119 382.953,658.889 383.319,658.645C383.832,658.307 384.346,657.956 384.847,657.591C383.589,656.779 382.277,656.008 380.925,655.278Z" style="fill:rgb(228,228,228);fill-rule:nonzero;"/>
    </g>
    <g transform="matrix(1,0,0,1,-266.534,-112.188)">
        <path d="M314.02,661.269L311.789,651.194L305.96,651.194C305.901,651.195 305.843,651.199 305.784,651.207L305.771,651.207C303.676,651.384 301.658,652.082 299.901,653.236C298.71,653.997 297.65,654.947 296.764,656.049C298.495,657.361 300.294,658.578 302.147,659.741L302.228,659.781C302.755,660.106 303.296,660.431 303.837,660.742C304.81,661.323 305.812,661.878 306.812,662.405L307.448,662.73C308.909,663.487 310.396,664.204 311.924,664.867C312.235,665.002 312.574,665.137 312.885,665.272C312.912,665.286 312.925,665.286 312.952,665.299C313.669,665.597 314.386,665.881 315.116,666.151L314.02,661.269Z" style="fill:rgb(228,228,228);fill-rule:nonzero;"/>
    </g>
    <circle cx="74.299" cy="489.291" r="25.675" style="fill:white;"/>
    <g transform="matrix(1,0,0,1,-266.534,-112.188)">
        <path d="M340.796,628.166C326.174,628.145 314.155,616.107 314.155,601.486C314.155,586.849 326.199,574.805 340.835,574.805C345.305,574.805 349.705,575.929 353.628,578.072C362.159,582.753 367.481,591.743 367.481,601.474C367.481,616.114 355.436,628.162 340.796,628.166ZM340.875,576.808C340.864,576.808 340.853,576.808 340.842,576.808C327.31,576.808 316.174,587.943 316.174,601.476C316.174,615.008 327.31,626.144 340.842,626.144C354.375,626.144 365.511,615.008 365.511,601.476C365.511,592.466 360.575,584.146 352.669,579.827C349.051,577.852 344.996,576.814 340.875,576.808L340.875,576.808Z" style="fill:rgb(228,228,228);fill-rule:nonzero;"/>
    </g>
    <g transform="matrix(1,0,0,1,-266.534,-112.188)">
        <path d="M323.595,588.973C326.253,592.118 330.751,593.006 334.9,593.37C343.326,594.109 355.579,592.91 363.814,591.009C364.402,596.705 362.8,602.847 366.155,607.533C367.728,601.86 368.642,596.025 368.881,590.143C369.131,587.619 368.801,585.071 367.917,582.694C366.892,580.378 364.656,578.413 362.082,578.392C363.994,576.941 366.235,575.983 368.606,575.603L360.453,571.506L362.547,569.357L347.787,568.453L352.062,565.738C345.628,564.854 339.119,564.648 332.642,565.125C329.634,565.346 326.49,565.77 324.053,567.512C321.616,569.255 320.208,572.718 321.721,575.277C317.874,575.909 314.618,578.492 313.129,582.094C312.201,584.913 311.977,587.917 312.476,590.843C313.032,595.537 314.123,600.152 315.728,604.598L323.595,588.973Z" style="fill:rgb(228,228,228);fill-rule:nonzero;"/>
    </g>
    <g transform="matrix(1,0,0,1,-266.534,-112.188)">
        <path d="M413.031,573.646C402.516,543.44 373.861,523.073 341.876,523.073C300.545,523.073 266.534,557.083 266.534,598.415C266.534,615.403 272.281,631.903 282.834,645.216C283.51,646.068 284.213,646.92 284.93,647.745C284.984,647.799 285.025,647.853 285.079,647.907C286.842,649.939 288.715,651.871 290.691,653.696C291.206,654.169 291.747,654.656 292.287,655.116C293.315,656.035 294.37,656.914 295.466,657.753C295.898,658.091 296.318,658.429 296.764,658.754C298.495,660.066 300.294,661.283 302.147,662.446L302.228,662.486C302.755,662.811 303.296,663.136 303.837,663.447C304.81,664.028 305.812,664.583 306.812,665.11L307.448,665.435C308.909,666.192 310.396,666.909 311.924,667.571C312.235,667.707 312.574,667.842 312.885,667.977C312.912,667.991 312.925,667.991 312.952,668.004C313.669,668.302 314.386,668.586 315.116,668.856C317.515,669.772 319.962,670.558 322.446,671.209C328.786,672.899 335.319,673.754 341.88,673.752C344.274,673.752 346.641,673.644 348.981,673.414C354.326,672.92 359.604,671.855 364.723,670.236C364.736,670.236 364.75,670.222 364.763,670.222C367.997,669.192 371.155,667.94 374.217,666.476C374.23,666.462 374.257,666.462 374.271,666.449C374.96,666.124 375.623,665.773 376.3,665.435C376.408,665.38 376.515,665.326 376.624,665.272C377.165,664.988 377.706,664.704 378.247,664.407C379.599,663.663 380.925,662.879 382.236,662.04C382.601,661.824 382.953,661.594 383.319,661.35C383.832,661.012 384.346,660.661 384.847,660.295C385.509,659.836 386.172,659.362 386.821,658.875C387.024,658.727 387.24,658.578 387.443,658.416C413.367,638.738 423.738,604.381 413.031,573.646L413.031,573.646ZM384.955,655.129C384.508,655.481 384.049,655.819 383.589,656.13C383.142,656.468 382.696,656.793 382.236,657.09C381.844,657.374 381.452,657.645 381.046,657.902C381.006,657.929 380.965,657.956 380.925,657.983C380.627,658.186 380.33,658.375 380.032,658.564C378.909,659.268 377.773,659.944 376.624,660.593C376.502,660.661 376.38,660.728 376.259,660.796C375.745,661.08 375.231,661.35 374.717,661.621C374.649,661.661 374.568,661.688 374.501,661.729L374.419,661.77C373.77,662.108 373.107,662.432 372.445,662.743C369.888,663.975 367.254,665.041 364.56,665.935C364.208,666.057 363.857,666.178 363.506,666.287C358.661,667.828 353.664,668.843 348.602,669.316C346.384,669.519 344.139,669.627 341.88,669.627C335.675,669.64 329.494,668.83 323.501,667.22C320.425,666.417 317.411,665.395 314.481,664.163C314.331,664.096 314.169,664.042 314.02,663.974C313.859,663.906 313.709,663.852 313.561,663.785C313.398,663.717 313.25,663.649 313.087,663.568C311.816,663.014 310.558,662.405 309.328,661.77L308.733,661.459C307.231,660.674 305.757,659.836 304.324,658.943C303.904,658.686 303.472,658.416 303.066,658.132C302.958,658.064 302.863,657.996 302.755,657.929C301.795,657.293 300.834,656.63 299.901,655.941C299.266,655.467 298.63,654.994 298.008,654.507C296.967,653.723 295.966,652.884 294.992,652.019C294.478,651.586 293.978,651.113 293.491,650.666C291.574,648.896 289.758,647.017 288.054,645.04C287.487,644.391 286.932,643.742 286.404,643.066C286.284,642.932 286.171,642.792 286.066,642.646C276.094,630.063 270.665,614.47 270.665,598.414C270.665,559.346 302.813,527.198 341.882,527.198C380.95,527.198 413.099,559.346 413.099,598.414C413.099,620.663 402.673,641.673 384.955,655.129L384.955,655.129Z" style="fill:rgb(228,228,228);fill-rule:nonzero;"/>
    </g>
    <g transform="matrix(1,0,0,1,-266.534,-112.188)">
        <path d="M413.031,368.966C402.516,338.759 373.861,318.392 341.876,318.392C300.545,318.392 266.534,352.403 266.534,393.734C266.534,410.723 272.281,427.222 282.834,440.535C283.51,441.387 284.213,442.239 284.93,443.064C284.984,443.119 285.025,443.173 285.079,443.227C286.842,445.258 288.715,447.19 290.691,449.015C291.206,449.488 291.747,449.975 292.287,450.435C293.315,451.355 294.37,452.234 295.466,453.072C295.898,453.41 296.318,453.748 296.764,454.073C298.495,455.385 300.294,456.602 302.147,457.765L302.228,457.806C302.755,458.13 303.296,458.455 303.837,458.766C304.81,459.347 305.812,459.902 306.812,460.429L307.448,460.754C308.909,461.511 310.396,462.228 311.924,462.891C312.235,463.026 312.574,463.161 312.885,463.297C312.912,463.31 312.925,463.31 312.952,463.324C313.669,463.621 314.386,463.905 315.116,464.176C317.515,465.092 319.962,465.877 322.446,466.529C328.786,468.218 335.319,469.073 341.88,469.071C344.274,469.071 346.641,468.963 348.981,468.733C354.326,468.24 359.604,467.174 364.723,465.555C364.736,465.555 364.75,465.542 364.763,465.542C367.997,464.511 371.155,463.26 374.217,461.795C374.23,461.782 374.257,461.782 374.271,461.768C374.96,461.444 375.623,461.092 376.3,460.754C376.408,460.7 376.515,460.646 376.624,460.592C377.165,460.308 377.706,460.024 378.247,459.726C379.599,458.982 380.925,458.198 382.236,457.359C382.601,457.143 382.953,456.913 383.319,456.67C383.832,456.332 384.346,455.98 384.847,455.615C385.509,455.155 386.172,454.682 386.821,454.195C387.024,454.046 387.24,453.897 387.443,453.735C413.367,434.058 423.738,399.7 413.031,368.966L413.031,368.966Z" style="fill:white;fill-rule:nonzero;"/>
    </g>
    <g transform="matrix(1,0,0,1,-266.534,-112.188)">
        <path d="M315.332,411.358L319.708,426.517L375.628,425.53L375.138,397.756C374.75,375.772 359.214,356.812 337.23,357.2C315.247,357.587 301.268,376.173 301.656,398.157L304.85,426.779L313.967,426.618L315.332,411.358Z" style="fill:rgb(228,228,228);fill-rule:nonzero;"/>
    </g>
    <circle cx="73.195" cy="284.68" r="25.09" style="fill:white;"/>
    <g transform="matrix(1,0,0,1,-266.534,-112.188)">
        <path d="M389.67,435.995L389.101,446.548C364.228,472.42 322.79,474.025 295.989,450.155C295.41,449.644 294.841,449.111 294.284,448.566C297.764,445.11 307.366,436.575 318.024,435.786L366.082,432.759C366.082,432.759 384.289,430.625 389.67,435.995Z" style="fill:rgb(228,228,228);fill-rule:nonzero;"/>
    </g>
    <g transform="matrix(1,0,0,1,-266.534,-112.188)">
        <path d="M367.195,379.251C367.162,377.33 366.56,375.461 365.467,373.881C365.351,373.719 365.235,373.568 365.119,373.417C363.236,371.014 360.332,369.627 357.279,369.671L339.246,369.996L321.224,370.309C315.885,370.416 311.573,374.885 311.657,380.225L315.948,388.864L318.418,393.828L318.824,393.596C334.422,384.829 340.8,384.713 361.443,392.865L361.86,393.028L363.496,388.841L367.206,379.343L367.195,379.251Z" style="fill:rgb(228,228,228);fill-rule:nonzero;"/>
    </g>
    <g transform="matrix(1,0,0,1,-266.534,-112.188)">
        <path d="M395.363,443.094C393.913,444.95 392.604,444.916 390.969,446.609C386.841,450.912 380.253,454.596 375.104,457.67L373.979,437.514L389.67,435.995C389.67,435.995 393.183,437.864 395.363,443.094Z" style="fill:rgb(228,228,228);fill-rule:nonzero;"/>
    </g>
    <g transform="matrix(1,0,0,1,-266.534,-112.188)">
        <path d="M413.031,368.966C402.516,338.759 373.861,318.392 341.876,318.392C300.545,318.392 266.534,352.403 266.534,393.734C266.534,410.723 272.281,427.222 282.834,440.535C283.51,441.387 284.213,442.239 284.93,443.064C284.984,443.119 285.025,443.173 285.079,443.227C286.842,445.258 288.715,447.19 290.691,449.015C291.206,449.488 291.747,449.975 292.287,450.435C293.315,451.355 294.37,452.234 295.466,453.072C295.898,453.41 296.318,453.748 296.764,454.073C298.495,455.385 300.294,456.602 302.147,457.765L302.228,457.806C302.755,458.13 303.296,458.455 303.837,458.766C304.81,459.347 305.812,459.902 306.812,460.429L307.448,460.754C308.909,461.511 310.396,462.228 311.924,462.891C312.235,463.026 312.574,463.161 312.885,463.297C312.912,463.31 312.925,463.31 312.952,463.324C313.669,463.621 314.386,463.905 315.116,464.176C317.515,465.092 319.962,465.877 322.446,466.529C328.786,468.218 335.319,469.073 341.88,469.071C344.274,469.071 346.641,468.963 348.981,468.733C354.326,468.24 359.604,467.174 364.723,465.555C364.736,465.555 364.75,465.542 364.763,465.542C367.997,464.511 371.155,463.26 374.217,461.795C374.23,461.782 374.257,461.782 374.271,461.768C374.96,461.444 375.623,461.092 376.3,460.754C376.408,460.7 376.515,460.646 376.624,460.592C377.165,460.308 377.706,460.024 378.247,459.726C379.599,458.982 380.925,458.198 382.236,457.359C382.601,457.143 382.953,456.913 383.319,456.67C383.832,456.332 384.346,455.98 384.847,455.615C385.509,455.155 386.172,454.682 386.821,454.195C387.024,454.046 387.24,453.897 387.443,453.735C413.367,434.058 423.738,399.7 413.031,368.966L413.031,368.966ZM384.955,450.449C384.508,450.8 384.049,451.138 383.589,451.449C383.142,451.788 382.696,452.112 382.236,452.41C381.844,452.694 381.452,452.964 381.046,453.221C381.006,453.248 380.965,453.275 380.925,453.302C380.627,453.505 380.33,453.694 380.032,453.884C378.909,454.587 377.773,455.263 376.624,455.912C376.502,455.98 376.38,456.048 376.259,456.115C375.745,456.399 375.231,456.67 374.717,456.94C374.649,456.981 374.568,457.008 374.501,457.048L374.419,457.089C373.77,457.427 373.107,457.752 372.445,458.063C369.888,459.294 367.254,460.36 364.56,461.254C364.208,461.376 363.857,461.498 363.506,461.606C358.661,463.147 353.664,464.163 348.602,464.635C346.384,464.838 344.139,464.946 341.88,464.946C335.675,464.959 329.494,464.15 323.501,462.539C320.425,461.736 317.411,460.715 314.481,459.483C314.331,459.415 314.169,459.361 314.02,459.293C313.859,459.226 313.709,459.172 313.561,459.104C313.398,459.036 313.25,458.969 313.087,458.888C311.816,458.333 310.558,457.725 309.328,457.089L308.733,456.778C307.231,455.994 305.757,455.155 304.324,454.262C303.904,454.005 303.472,453.735 303.066,453.451C302.958,453.383 302.863,453.316 302.755,453.248C301.795,452.613 300.834,451.95 299.901,451.26C299.266,450.787 298.63,450.313 298.008,449.827C296.967,449.042 295.966,448.204 294.992,447.338C294.478,446.905 293.978,446.432 293.491,445.986C291.574,444.215 289.758,442.337 288.054,440.36C287.487,439.71 286.932,439.061 286.404,438.385C286.284,438.251 286.171,438.111 286.066,437.966C276.094,425.383 270.665,409.789 270.665,393.734C270.665,354.665 302.813,322.517 341.882,322.517C380.95,322.517 413.099,354.665 413.099,393.734C413.099,415.982 402.673,436.992 384.955,450.449L384.955,450.449Z" style="fill:rgb(228,228,228);fill-rule:nonzero;"/>
    </g>
    <g transform="matrix(1,0,0,1,-266.534,-112.188)">
        <path d="M415.982,163.786C405.255,132.971 376.023,112.194 343.394,112.194C301.23,112.194 266.535,146.89 266.535,189.053C266.535,206.384 272.397,223.216 283.162,236.798C283.852,237.667 284.57,238.536 285.301,239.377C285.356,239.433 285.397,239.488 285.452,239.543C287.251,241.615 289.163,243.586 291.178,245.448C291.702,245.931 292.254,246.427 292.806,246.897C293.855,247.835 294.931,248.732 296.048,249.587C298.23,251.307 300.506,252.905 302.864,254.374L302.946,254.416C304.478,255.368 306.037,256.251 307.624,257.092L308.272,257.423C309.762,258.196 311.28,258.927 312.838,259.603C313.156,259.741 313.501,259.879 313.818,260.017C313.846,260.031 313.86,260.031 313.887,260.045C317.037,261.355 320.273,262.447 323.573,263.314C330.04,265.038 336.705,265.91 343.398,265.908C345.84,265.908 348.254,265.798 350.641,265.563C356.094,265.06 361.478,263.973 366.7,262.321C366.714,262.321 366.728,262.307 366.741,262.307C370.04,261.257 373.262,259.98 376.385,258.486C376.399,258.472 376.427,258.472 376.441,258.458C377.144,258.127 377.82,257.768 378.51,257.423L378.841,257.258C379.393,256.968 379.945,256.678 380.497,256.375C381.876,255.616 383.228,254.816 384.567,253.96C384.939,253.74 385.298,253.505 385.67,253.257C386.884,252.457 388.085,251.601 389.243,250.732C389.451,250.58 389.671,250.429 389.879,250.263C416.324,230.189 426.904,195.14 415.982,163.786L415.982,163.786Z" style="fill:white;fill-rule:nonzero;"/>
    </g>
    <circle id="bf91a0f9-b34c-4dd5-a205-d34f0555e32d" cx="102.227" cy="97.024" r="11.519" style="fill:rgb(228,228,228);"/>
    <g id="a8dca41c-33b1-460f-bf5d-f4e2657dd513-267" transform="matrix(1,0,0,1,-266.534,-112.188)">
        <path d="M371.97,198.011C378.29,198.011 383.49,203.211 383.49,209.531C383.49,211.439 383.016,213.317 382.111,214.997C383.741,212.956 384.63,210.42 384.63,207.808C384.63,201.491 379.431,196.292 373.114,196.292C368.886,196.292 364.984,198.621 362.978,202.343C365.158,199.606 368.472,198.009 371.972,198.011L371.97,198.011Z" style="fill:rgb(228,228,228);fill-rule:nonzero;"/>
    </g>
    <circle id="ee3a206a-c546-4577-b9a7-054ec3fd2c40" cx="80.702" cy="63.162" r="33.837" style="fill:rgb(228,228,228);"/>
    <g id="fdfc7426-35cb-40c9-aba8-b1c391ef3d9b-268" transform="matrix(1,0,0,1,-266.534,-112.188)">
        <path d="M320.679,154.356C332.724,140.809 353.626,139.227 367.573,150.807C367.297,150.544 367.021,150.279 366.736,150.024C360.533,144.472 352.494,141.401 344.17,141.401C325.608,141.401 310.333,156.675 310.333,175.238C310.333,184.847 314.426,194.015 321.579,200.43C321.644,200.487 321.708,200.544 321.773,200.602C322.06,200.857 322.355,201.098 322.649,201.342C309.515,188.848 308.638,167.905 320.68,154.356L320.679,154.356Z" style="fill:rgb(228,228,228);fill-rule:nonzero;"/>
    </g>
    <circle id="a62bd645-2725-442b-8d00-c1bfcb60d6c9" cx="80.415" cy="74.919" r="21.793" style="fill:white;"/>
    <g transform="matrix(1,0,0,1,-266.534,-112.188)">
        <path d="M385.947,243.889L385.947,251.201C384.608,252.057 383.256,252.857 381.876,253.616C381.325,253.919 380.773,254.209 380.221,254.499L379.89,254.664C379.2,255.009 378.524,255.368 377.82,255.699C377.807,255.713 377.778,255.713 377.765,255.726C374.642,257.22 371.42,258.497 368.121,259.548C368.107,259.548 368.094,259.562 368.08,259.562C362.858,261.214 357.474,262.301 352.02,262.804C349.634,263.039 347.219,263.149 344.777,263.149C338.084,263.151 331.419,262.279 324.952,260.555C321.653,259.688 318.417,258.595 315.267,257.285C315.239,257.272 315.225,257.272 315.198,257.258C314.88,257.12 314.535,256.982 314.218,256.844C312.659,256.168 311.142,255.437 309.651,254.664L309.003,254.333C307.416,253.491 305.857,252.608 304.326,251.656L304.243,251.615C301.885,250.146 299.61,248.547 297.428,246.828C296.31,245.972 295.234,245.075 294.186,244.137C293.634,243.668 293.082,243.172 292.558,242.689C290.542,240.827 288.631,238.856 286.832,236.784C287.07,235.347 287.421,233.93 287.881,232.548L287.894,232.534C287.977,232.299 288.074,232.068 288.184,231.845C288.26,231.647 288.348,231.453 288.446,231.265C290.916,226.643 295.386,225.498 300.932,225.25C304.064,225.112 307.527,225.264 311.183,225.222C313.115,225.208 315.115,225.139 317.115,224.96C329.739,223.815 327.449,216.365 328.015,212.35C328.58,208.46 332.085,211.826 332.319,212.047L332.333,212.06C339.476,215.403 347.381,216.789 355.235,216.075C356.587,215.91 357.939,215.813 359.291,215.772C362.851,215.73 362.078,216.751 360.851,217.593C360.255,217.985 359.632,218.335 358.988,218.641C358.344,218.947 358.422,222.091 357.843,227.25C357.291,232.189 374.688,233.9 378.096,234.976L378.11,234.976C382.058,236.428 385.012,239.788 385.947,243.889Z" style="fill:rgb(228,228,228);fill-rule:nonzero;"/>
    </g>
    <g id="afe1b400-7bb3-471b-bfb6-771e67eb46b9-269" transform="matrix(1,0,0,1,-266.534,-112.188)">
        <path d="M328.31,159.866L328.31,181.664L333.356,181.664L339.779,174.783L338.919,181.664L361.228,181.664L359.849,174.783L362.608,181.664L366.165,181.664L366.165,159.866L328.31,159.866Z" style="fill:rgb(228,228,228);fill-rule:nonzero;"/>
    </g>
    <ellipse id="f3d4acd6-e9dd-4f82-a51e-6d6f5add322c" cx="58.335" cy="70.332" rx="1.72" ry="3.154" style="fill:rgb(228,228,228);"/>
    <ellipse id="a3160813-753f-4b2a-bfa5-8e9f95e585bb" cx="102.496" cy="70.332" rx="1.72" ry="3.154" style="fill:rgb(228,228,228);"/>
    <g transform="matrix(1,0,0,1,-266.534,-112.188)">
        <path d="M415.982,163.786C405.255,132.971 376.023,112.194 343.394,112.194C301.23,112.194 266.535,146.89 266.535,189.053C266.535,206.384 272.397,223.216 283.162,236.798C283.852,237.667 284.57,238.536 285.301,239.377C285.356,239.433 285.397,239.488 285.452,239.543C287.251,241.615 289.163,243.586 291.178,245.448C291.702,245.931 292.254,246.427 292.806,246.897C293.855,247.835 294.931,248.732 296.048,249.587C298.23,251.307 300.506,252.905 302.864,254.374L302.946,254.416C304.478,255.368 306.037,256.251 307.624,257.092L308.272,257.423C309.762,258.196 311.28,258.927 312.838,259.603C313.156,259.741 313.501,259.879 313.818,260.017C313.846,260.031 313.86,260.031 313.887,260.045C317.037,261.355 320.273,262.447 323.573,263.314C330.04,265.038 336.705,265.91 343.398,265.908C345.84,265.908 348.254,265.798 350.641,265.563C356.094,265.06 361.478,263.973 366.7,262.321C366.714,262.321 366.728,262.307 366.741,262.307C370.04,261.257 373.262,259.98 376.385,258.486C376.399,258.472 376.427,258.472 376.441,258.458C377.144,258.127 377.82,257.768 378.51,257.423L378.841,257.258C379.393,256.968 379.945,256.678 380.497,256.375C381.876,255.616 383.228,254.816 384.567,253.96C384.939,253.74 385.298,253.505 385.67,253.257C386.884,252.457 388.085,251.601 389.243,250.732C389.451,250.58 389.671,250.429 389.879,250.263C416.324,230.189 426.904,195.14 415.982,163.786L415.982,163.786ZM387.34,246.91C386.884,247.269 386.415,247.614 385.947,247.931C385.491,248.276 385.036,248.607 384.567,248.911C384.167,249.201 383.767,249.477 383.352,249.739C383.007,249.973 382.662,250.194 382.318,250.415C381.173,251.132 380.014,251.822 378.841,252.484C378.717,252.553 378.593,252.622 378.468,252.691C377.944,252.981 377.42,253.257 376.896,253.533C376.827,253.574 376.744,253.602 376.675,253.643L376.592,253.684C375.93,254.029 375.254,254.36 374.578,254.678C371.969,255.934 369.282,257.022 366.534,257.934C366.176,258.058 365.817,258.182 365.459,258.293C360.516,259.864 355.419,260.901 350.255,261.383C347.992,261.59 345.701,261.7 343.398,261.7C337.067,261.713 330.762,260.888 324.648,259.245C321.511,258.425 318.435,257.383 315.446,256.127C315.129,256.002 314.812,255.864 314.508,255.74C314.343,255.671 314.19,255.602 314.025,255.519C312.728,254.954 311.445,254.333 310.19,253.684L309.583,253.367C308.051,252.567 306.547,251.712 305.085,250.801C304.547,250.47 304.009,250.125 303.485,249.766C301.829,248.676 300.215,247.504 298.642,246.276C297.579,245.476 296.559,244.62 295.565,243.737C295.041,243.296 294.53,242.813 294.034,242.357C292.078,240.551 290.226,238.635 288.488,236.618C287.908,235.956 287.342,235.294 286.804,234.604C286.682,234.467 286.567,234.325 286.459,234.176C276.287,221.339 270.748,205.432 270.748,189.054C270.748,149.198 303.544,116.402 343.399,116.402C383.254,116.402 416.05,149.198 416.05,189.054C416.05,211.75 405.414,233.183 387.34,246.91L387.34,246.91Z" style="fill:rgb(228,228,228);fill-rule:nonzero;"/>
    </g>
    <g transform="matrix(1,0,0,1,-266.534,-112.188)">
        <path d="M437.371,284.609L383.262,283.384C377.849,262.418 380.286,242.456 384.605,224.06L438.714,225.285C433.241,244.625 432.779,265.042 437.371,284.609Z" style="fill:rgb(51,102,255);fill-rule:nonzero;"/>
    </g>
    <path d="M127.341,124.983L127.371,122.924L155.403,123.926L155.374,125.985L127.341,124.983Z" style="fill:white;fill-rule:nonzero;"/>
    <path d="M127.223,133.218L127.253,131.159L155.285,132.162L155.255,134.221L127.223,133.218Z" style="fill:white;fill-rule:nonzero;"/>
    <path d="M127.105,141.454L127.135,139.395L155.167,140.397L155.137,142.456L127.105,141.454Z" style="fill:white;fill-rule:nonzero;"/>
    <path d="M126.987,149.69L127.016,147.631L155.049,148.633L155.019,150.692L126.987,149.69Z" style="fill:white;fill-rule:nonzero;"/>
    <path d="M126.869,157.925L126.898,155.866L154.931,156.869L154.901,158.927L126.869,157.925Z" style="fill:white;fill-rule:nonzero;"/>
    <g transform="matrix(1,0,0,1,-266.534,-112.188)">
        <path d="M437.371,479.609L383.262,478.384C377.849,457.418 380.286,437.456 384.605,419.06L438.714,420.285C433.241,439.625 432.779,460.042 437.371,479.609Z" style="fill:rgb(51,102,255);fill-rule:nonzero;"/>
    </g>
    <path d="M127.341,319.983L127.371,317.924L155.403,318.926L155.374,320.985L127.341,319.983Z" style="fill:white;fill-rule:nonzero;"/>
    <path d="M127.223,328.218L127.253,326.159L155.285,327.162L155.255,329.221L127.223,328.218Z" style="fill:white;fill-rule:nonzero;"/>
    <path d="M127.105,336.454L127.135,334.395L155.167,335.397L155.137,337.456L127.105,336.454Z" style="fill:white;fill-rule:nonzero;"/>
    <path d="M126.987,344.69L127.016,342.631L155.049,343.633L155.019,345.692L126.987,344.69Z" style="fill:white;fill-rule:nonzero;"/>
    <path d="M126.869,352.925L126.898,350.866L154.931,351.869L154.901,353.927L126.869,352.925Z" style="fill:white;fill-rule:nonzero;"/>
    <g transform="matrix(1,0,0,1,-266.534,-112.188)">
        <path d="M437.371,674.609L383.262,673.384C377.849,652.418 380.286,632.456 384.605,614.06L438.714,615.285C433.241,634.625 432.779,655.042 437.371,674.609Z" style="fill:rgb(51,102,255);fill-rule:nonzero;"/>
    </g>
    <path d="M127.341,514.983L127.371,512.924L155.403,513.926L155.374,515.985L127.341,514.983Z" style="fill:white;fill-rule:nonzero;"/>
    <path d="M127.223,523.218L127.253,521.159L155.285,522.162L155.255,524.221L127.223,523.218Z" style="fill:white;fill-rule:nonzero;"/>
    <path d="M127.105,531.454L127.135,529.395L155.167,530.397L155.137,532.456L127.105,531.454Z" style="fill:white;fill-rule:nonzero;"/>
    <path d="M126.987,539.69L127.016,537.631L155.049,538.633L155.019,540.692L126.987,539.69Z" style="fill:white;fill-rule:nonzero;"/>
    <path d="M126.869,547.925L126.898,545.866L154.931,546.869L154.901,548.927L126.869,547.925Z" style="fill:white;fill-rule:nonzero;"/>
    <g transform="matrix(1,0,0,1,-266.534,-112.188)">
        <path d="M726.075,561.579C726.262,556.198 730.74,551.873 736.124,551.873C736.833,551.873 737.54,551.948 738.233,552.096L756.768,521.544L764.72,538.325L745.9,564.765C744.666,569.097 740.68,572.106 736.176,572.106C730.63,572.106 726.066,567.542 726.066,561.996C726.066,561.857 726.069,561.718 726.075,561.579L726.075,561.579Z" style="fill:rgb(160,97,106);fill-rule:nonzero;"/>
    </g>
    <g transform="matrix(1,0,0,1,-266.534,-112.188)">
        <path d="M792.454,400.336C792.454,400.336 818.744,403.346 808.956,451.635C799.168,499.924 761.123,555.872 761.123,555.872L735.387,543.564L768.956,477.545L761.123,436.143C761.123,436.143 756.647,396.979 792.454,400.336Z" style="fill:rgb(87,90,137);fill-rule:nonzero;"/>
    </g>
</svg>
