<?xml version="1.0" encoding="UTF-8" standalone="no"?>
<!DOCTYPE svg PUBLIC "-//W3C//DTD SVG 1.1//EN" "http://www.w3.org/Graphics/SVG/1.1/DTD/svg11.dtd">
<svg width="100%" height="100%" viewBox="0 0 2071 1565" version="1.1" xmlns="http://www.w3.org/2000/svg" xmlns:xlink="http://www.w3.org/1999/xlink" xml:space="preserve" xmlns:serif="http://www.serif.com/" style="fill-rule:evenodd;clip-rule:evenodd;stroke-linejoin:round;stroke-miterlimit:2;">
    <g transform="matrix(1,0,0,1,-339.501,-570.01)">
        <path d="M470.043,1668.63L462.14,1688.97L735.302,1866.39L753.823,1845.42L470.043,1668.63Z" style="fill-rule:nonzero;"/>
        <path d="M685.93,1701.68L854.432,1549.45L906.051,1666.89L792.664,1789.43L685.93,1701.68Z" style="fill:white;fill-rule:nonzero;"/>
        <path d="M688.78,1701.62L792.49,1786.88L903.856,1666.52L853.766,1552.56L688.78,1701.62ZM792.838,1791.99L683.081,1701.75L855.098,1546.34L908.246,1667.26L907.417,1668.15L792.838,1791.99Z" style="fill-rule:nonzero;"/>
        <path d="M470.952,1670.93L471.792,1669.39C472.04,1668.94 497.125,1624.19 549.247,1624.19C562.705,1624.19 576.945,1627.18 591.571,1633.06C670.721,1664.9 719.975,1670.87 720.463,1670.93L722.639,1671.18L722.039,1673.29C721.899,1673.78 708.562,1722.58 749.075,1752.97C764.26,1764.36 776.917,1769.89 787.771,1769.89C793.523,1769.89 797.882,1768.32 801.384,1767.06C803.979,1766.12 806.22,1765.32 808.421,1765.32C811.251,1765.32 813.545,1766.64 815.64,1769.48L816.523,1770.68L750.721,1846.72L470.952,1670.93Z" style="fill:white;fill-rule:nonzero;"/>
        <path d="M549.258,1622.33L549.246,1622.33C533.885,1622.33 511.052,1626.34 489.512,1645.39C476.67,1656.74 470.42,1668.03 470.16,1668.5L468.478,1671.57L471.445,1673.44L748.378,1847.45L751.083,1849.15L753.173,1846.73L816.957,1773.02L818.904,1770.77L817.137,1768.37C814.696,1765.06 811.845,1763.46 808.421,1763.46C805.894,1763.46 803.512,1764.31 800.753,1765.31C797.212,1766.58 793.198,1768.03 787.771,1768.03C777.335,1768.03 765.043,1762.62 750.192,1751.48C733.688,1739.1 724.223,1722.35 722.06,1701.68C720.425,1686.05 723.795,1673.92 723.829,1673.8L725.022,1669.59L720.676,1669.08C720.191,1669.02 671.129,1663.06 592.266,1631.33C577.418,1625.36 562.948,1622.33 549.258,1622.33ZM549.247,1626.05C561.553,1626.05 575.408,1628.56 590.877,1634.79C671.233,1667.11 720.249,1672.78 720.249,1672.78C720.249,1672.78 705.893,1722.91 747.959,1754.46C766.194,1768.13 778.713,1771.75 787.771,1771.75C797.957,1771.75 803.768,1767.18 808.421,1767.18C810.461,1767.18 812.277,1768.06 814.142,1770.58L750.358,1844.3L473.425,1670.29C473.425,1670.29 497.625,1626.06 549.247,1626.05Z" style="fill-rule:nonzero;"/>
        <path d="M473.425,1670.29L568.881,1730.27L624.118,1647.34C613.745,1643.68 602.65,1639.52 590.877,1634.79C510.52,1602.46 473.425,1670.29 473.425,1670.29Z" style="fill:rgb(213,253,206);fill-rule:nonzero;"/>
        <path d="M705.004,1663.55C705.863,1663.44 706.754,1663.51 707.632,1663.76C711.179,1664.8 713.172,1668.57 712.083,1672.2L697.628,1720.32C696.54,1723.94 692.782,1726.04 689.234,1725.01C685.686,1723.98 683.694,1720.2 684.782,1716.58L699.237,1668.46C700.057,1665.73 702.388,1663.86 705.004,1663.55Z" style="fill-rule:nonzero;"/>
        <path d="M680.253,1656.34C681.113,1656.24 682.004,1656.3 682.881,1656.56C686.429,1657.59 688.421,1661.37 687.332,1664.99L672.877,1713.11C671.788,1716.74 668.031,1718.84 664.482,1717.81C660.935,1716.77 658.942,1713 660.031,1709.37L674.487,1661.25C675.306,1658.52 677.638,1656.66 680.253,1656.34Z" style="fill-rule:nonzero;"/>
        <path d="M655.215,1649.05C656.075,1648.95 656.966,1649.01 657.843,1649.27C661.391,1650.3 663.383,1654.08 662.294,1657.7L647.839,1705.82C646.751,1709.45 642.993,1711.55 639.444,1710.52C635.897,1709.48 633.904,1705.71 634.993,1702.08L649.449,1653.96C650.268,1651.23 652.6,1649.37 655.215,1649.05Z" style="fill-rule:nonzero;"/>
        <path d="M2195.2,1107.62C2523.17,1330.51 2213.88,2117.97 1873.11,2129.11C723.12,2166.71 950.773,1909.68 1006.23,1695.47C1064.16,1471.66 1557.19,1736.67 1703.03,1531.8C1775.69,1429.72 2023.09,990.656 2195.2,1107.62Z" style="fill:rgb(213,253,206);fill-rule:nonzero;"/>
        <path d="M2146.17,1098.54L2145.01,1097.41L2142.98,1097.5C2142.96,1097.16 2142.94,1096.53 2143.49,1095.95L2144.83,1097.24L2146.69,1097.19L2146.7,1097.34L2145.01,1097.41L2146.17,1098.54ZM2147.09,1147.87L2143.36,1147.83C2143.44,1141.89 2143.48,1135.99 2143.48,1130.29L2143.47,1127.67L2147.19,1127.66L2147.2,1130.29C2147.2,1136.01 2147.16,1141.93 2147.09,1147.87ZM2145.65,1198.43L2141.93,1198.27C2142.23,1191.54 2142.48,1184.76 2142.69,1178.1L2146.41,1178.22C2146.2,1184.89 2145.94,1191.69 2145.65,1198.43ZM2142.7,1248.9L2138.99,1248.63C2139.48,1241.95 2139.93,1235.18 2140.34,1228.5L2144.06,1228.73C2143.65,1235.42 2143.19,1242.21 2142.7,1248.9ZM2138.29,1299.24L2134.59,1298.86C2135.27,1292.21 2135.92,1285.46 2136.53,1278.79L2140.23,1279.13C2139.63,1285.81 2138.97,1292.58 2138.29,1299.24ZM2132.38,1349.42L2128.69,1348.93C2129.57,1342.31 2130.43,1335.58 2131.23,1328.93L2134.93,1329.38C2134.12,1336.05 2133.26,1342.79 2132.38,1349.42ZM2124.89,1399.39L2121.22,1398.78C2122.32,1392.2 2123.39,1385.5 2124.4,1378.88L2128.08,1379.44C2127.06,1386.08 2125.99,1392.8 2124.89,1399.39ZM2115.72,1449.08L2112.08,1448.34C2113.4,1441.85 2114.7,1435.19 2115.94,1428.56L2119.6,1429.25C2118.35,1435.9 2117.05,1442.57 2115.72,1449.08ZM2104.74,1498.4L2101.12,1497.52C2102.7,1491.05 2104.25,1484.45 2105.73,1477.9L2109.36,1478.72C2107.87,1485.29 2106.32,1491.91 2104.74,1498.4ZM2091.76,1547.23L2088.19,1546.2C2090.03,1539.83 2091.85,1533.3 2093.61,1526.79L2097.2,1527.77C2095.44,1534.29 2093.61,1540.84 2091.76,1547.23ZM2076.58,1595.49L2073.06,1594.29C2075.2,1588 2077.34,1581.55 2079.4,1575.11L2082.94,1576.24C2080.88,1582.7 2078.73,1589.18 2076.58,1595.49ZM2058.97,1642.92L2055.51,1641.53C2057.99,1635.39 2060.45,1629.07 2062.83,1622.75L2066.32,1624.07C2063.93,1630.41 2061.45,1636.75 2058.97,1642.92ZM2038.69,1689.18L2035.33,1687.58C2038.17,1681.62 2041,1675.47 2043.74,1669.32L2047.14,1670.84C2044.39,1677.02 2041.55,1683.19 2038.69,1689.18ZM2015.46,1733.97L2012.22,1732.14C2015.46,1726.4 2018.7,1720.47 2021.83,1714.53L2025.13,1716.26C2021.97,1722.24 2018.72,1728.2 2015.46,1733.97ZM1988.97,1776.87L1985.88,1774.79C1989.58,1769.32 1993.26,1763.67 1996.82,1758L1999.97,1759.98C1996.39,1765.68 1992.69,1771.37 1988.97,1776.87ZM1958.91,1817.36L1956.03,1815C1960.2,1809.9 1964.37,1804.6 1968.4,1799.26L1971.37,1801.5C1967.31,1806.88 1963.11,1812.21 1958.91,1817.36ZM987.899,1821.98C976.075,1816.64 969.505,1813.47 969.44,1813.44L971.06,1810.09C971.125,1810.12 977.656,1813.27 989.43,1818.59L987.899,1821.98ZM1034.33,1842.06C1028.02,1839.44 1021.75,1836.79 1015.69,1834.19L1017.16,1830.77C1023.2,1833.36 1029.46,1836.01 1035.76,1838.63L1034.33,1842.06ZM1925.04,1854.78L1922.42,1852.14C1927.1,1847.49 1931.77,1842.63 1936.32,1837.71L1939.05,1840.23C1934.47,1845.19 1929.76,1850.09 1925.04,1854.78ZM1081.23,1860.9C1074.93,1858.46 1068.6,1855.97 1062.41,1853.5L1063.79,1850.05C1069.96,1852.51 1076.28,1854.99 1082.57,1857.43L1081.23,1860.9ZM1128.55,1878.61C1122.26,1876.34 1115.87,1874 1109.57,1871.66L1110.87,1868.17C1117.16,1870.51 1123.53,1872.84 1129.81,1875.11L1128.55,1878.61ZM1887.25,1888.37L1884.94,1885.45C1890.14,1881.35 1895.34,1877.04 1900.4,1872.64L1902.84,1875.45C1897.73,1879.88 1892.49,1884.23 1887.25,1888.37ZM1176.27,1895.17C1169.97,1893.07 1163.54,1890.89 1157.14,1888.69L1158.35,1885.17C1164.74,1887.37 1171.16,1889.55 1177.45,1891.64L1176.27,1895.17ZM1224.39,1910.56C1217.97,1908.59 1211.48,1906.57 1205.1,1904.55L1206.22,1901C1212.59,1903.02 1219.07,1905.04 1225.47,1907L1224.39,1910.56ZM1845.37,1916.84L1843.51,1913.61C1849.32,1910.27 1855.06,1906.74 1860.59,1903.11L1862.63,1906.22C1857.04,1909.89 1851.24,1913.46 1845.37,1916.84ZM1272.88,1924.67C1266.44,1922.89 1259.9,1921.04 1253.44,1919.18L1254.47,1915.61C1260.92,1917.46 1267.45,1919.31 1273.88,1921.08L1272.88,1924.67ZM1321.76,1937.4C1315.26,1935.81 1308.67,1934.16 1302.17,1932.48L1303.1,1928.88C1309.58,1930.55 1316.16,1932.2 1322.65,1933.79L1321.76,1937.4ZM1799.82,1938.94L1798.43,1935.49C1804.65,1932.97 1810.84,1930.28 1816.82,1927.48L1818.4,1930.85C1812.36,1933.68 1806.11,1936.4 1799.82,1938.94ZM1371.02,1948.61C1364.51,1947.24 1357.86,1945.8 1351.27,1944.32L1352.09,1940.69C1358.66,1942.16 1365.29,1943.6 1371.78,1944.97L1371.02,1948.61ZM1751.83,1955.03L1750.85,1951.44C1757.36,1949.67 1763.84,1947.75 1770.11,1945.73L1771.25,1949.28C1764.93,1951.31 1758.4,1953.24 1751.83,1955.03ZM1420.6,1958.11C1414.06,1956.98 1407.38,1955.78 1400.74,1954.53L1401.43,1950.87C1408.05,1952.12 1414.71,1953.32 1421.23,1954.44L1420.6,1958.11ZM1470.55,1965.69C1463.94,1964.83 1457.2,1963.89 1450.52,1962.9L1451.06,1959.22C1457.72,1960.21 1464.44,1961.14 1471.03,1962L1470.55,1965.69ZM1702.38,1965.77L1701.77,1962.09C1708.43,1960.99 1715.08,1959.75 1721.53,1958.42L1722.28,1962.06C1715.78,1963.4 1709.09,1964.65 1702.38,1965.77ZM1520.89,1971.06C1514.27,1970.52 1507.48,1969.89 1500.7,1969.2L1501.08,1965.5C1507.83,1966.19 1514.6,1966.81 1521.19,1967.35L1520.89,1971.06ZM1652.18,1971.9L1651.88,1968.19C1658.61,1967.65 1665.34,1967 1671.89,1966.26L1672.31,1969.96C1665.72,1970.7 1658.94,1971.36 1652.18,1971.9ZM1571.34,1973.87C1564.72,1973.68 1557.93,1973.42 1551.14,1973.08L1551.33,1969.36C1558.09,1969.7 1564.85,1969.96 1571.44,1970.14L1571.34,1973.87ZM1601.67,1974.14L1601.64,1970.42C1608.37,1970.35 1615.14,1970.2 1621.75,1969.96L1621.88,1973.67C1615.24,1973.92 1608.44,1974.08 1601.67,1974.14Z" style="fill-rule:nonzero;"/>
        <path d="M1869.27,1097.23C1852.64,1071.54 1818.82,1046.83 1834.76,1039.66C1880.28,1019.2 1939.51,1065.12 1969.27,1109.79C1990.82,1142.13 2016.63,1170.31 2008.59,1176.55C2000.12,1183.13 1993.5,1174.2 1959.09,1127.14C1988.94,1179.18 1988.57,1191.19 1982.79,1194.17C1971.94,1199.77 1949.2,1144.73 1949,1140.7C1949.2,1144.73 1973.51,1198.45 1963.24,1202.73C1955.98,1205.75 1952.55,1193.47 1952,1190.07C1952,1190.07 1952.38,1207.47 1942.21,1198.42C1936.57,1193.39 1921.19,1156.33 1904.43,1129.18C1892.3,1109.55 1872.79,1102.66 1869.27,1097.23Z" style="fill:white;fill-rule:nonzero;"/>
        <path d="M1952.01,1188.21C1952.91,1188.21 1953.7,1188.87 1953.84,1189.78C1954.28,1192.53 1956.31,1199.15 1959.48,1200.92C1960.43,1201.45 1961.4,1201.48 1962.52,1201.01C1963.11,1200.76 1965.82,1198.74 1961.5,1182.78C1958.75,1172.59 1954.28,1160.78 1951.01,1152.16C1950.84,1151.71 1950.67,1151.27 1950.52,1150.84C1949,1147.1 1947.92,1144.05 1947.43,1142.24C1947.24,1141.59 1947.15,1141.14 1947.14,1140.79C1947.14,1140.76 1947.13,1140.73 1947.13,1140.7C1947.14,1139.71 1947.91,1138.89 1948.9,1138.84C1949.91,1138.77 1950.8,1139.58 1950.85,1140.61C1950.93,1141.28 1951.97,1144.14 1953.22,1147.47C1958.37,1160.51 1970.8,1187.49 1979.4,1192.17C1980.97,1193.02 1981.7,1192.64 1981.94,1192.52C1982.84,1192.05 1983.39,1191.36 1983.71,1190.27C1985.84,1183.05 1977.01,1162.12 1957.47,1128.06C1956.98,1127.21 1957.25,1126.12 1958.07,1125.58C1958.9,1125.04 1960.01,1125.24 1960.59,1126.04C1985.51,1160.11 1996.88,1175.66 2003.26,1176.56C2004.61,1176.75 2005.87,1176.31 2007.45,1175.08C2011.72,1171.76 1999.02,1154.42 1986.74,1137.65C1980.78,1129.5 1974.02,1120.28 1967.72,1110.82C1952.08,1087.34 1929.36,1065.31 1906.97,1051.9C1888.41,1040.78 1860.95,1029.93 1835.52,1041.36C1833.78,1042.14 1832.81,1043.13 1832.54,1044.38C1831.44,1049.53 1840.45,1059.65 1850,1070.36C1857.03,1078.25 1865,1087.21 1870.84,1096.22C1871.82,1097.74 1874.94,1099.8 1878.55,1102.19C1886.22,1107.26 1897.8,1114.92 1906.01,1128.2C1914.47,1141.91 1922.67,1158.29 1929.25,1171.45C1935.51,1183.96 1940.91,1194.76 1943.45,1197.03C1945.34,1198.71 1946.91,1199.46 1947.75,1199.07C1949.41,1198.3 1950.21,1193.37 1950.14,1190.11C1950.12,1189.13 1950.86,1188.3 1951.84,1188.22C1951.89,1188.21 1951.95,1188.21 1952.01,1188.21ZM1961.02,1205.06C1959.86,1205.06 1958.73,1204.76 1957.66,1204.17C1955.46,1202.94 1953.84,1200.63 1952.69,1198.24C1952.01,1200.07 1950.96,1201.69 1949.31,1202.45C1946.96,1203.53 1944.16,1202.64 1940.98,1199.81C1938.04,1197.2 1933.57,1188.41 1925.92,1173.11C1919.37,1160.02 1911.22,1143.73 1902.84,1130.16C1895.07,1117.57 1884.33,1110.47 1876.49,1105.29C1872.21,1102.46 1869.12,1100.42 1867.71,1098.24C1862.03,1089.47 1854.16,1080.63 1847.22,1072.83C1836.15,1060.41 1827.41,1050.6 1828.9,1043.6C1829.43,1041.14 1831.14,1039.25 1833.99,1037.96C1860.89,1025.88 1889.56,1037.13 1908.88,1048.7C1932.07,1062.59 1954.64,1084.48 1970.82,1108.76C1977.07,1118.14 1983.8,1127.34 1989.74,1135.45C2006.07,1157.75 2016.86,1172.48 2009.74,1178.02C2007.35,1179.87 2005.12,1180.58 2002.74,1180.25C1996.62,1179.39 1989.64,1171.56 1974,1150.57C1988.12,1178.18 1988.54,1187.06 1987.28,1191.33C1986.67,1193.38 1985.45,1194.89 1983.65,1195.82C1982.36,1196.49 1980.23,1196.94 1977.38,1195.3C1973.41,1193.02 1968.78,1186.78 1964.36,1179.28C1968.56,1193.68 1969.03,1202.33 1963.95,1204.44C1962.97,1204.85 1961.98,1205.06 1961.02,1205.06Z" style="fill-rule:nonzero;"/>
        <path d="M1931.75,1143.6C1931.75,1143.6 1948.7,1178.41 1952,1190.07" style="fill:white;fill-rule:nonzero;"/>
        <path d="M1952,1191.93C1951.19,1191.93 1950.45,1191.4 1950.21,1190.58C1946.99,1179.21 1930.25,1144.76 1930.08,1144.41C1929.63,1143.49 1930.01,1142.37 1930.94,1141.92C1931.86,1141.48 1932.97,1141.86 1933.42,1142.78C1934.12,1144.21 1950.48,1177.88 1953.79,1189.56C1954.07,1190.55 1953.5,1191.58 1952.51,1191.86C1952.34,1191.91 1952.17,1191.93 1952,1191.93Z" style="fill-rule:nonzero;"/>
        <path d="M1732.51,1311.85C1550.91,860.185 1852.77,916.271 1963.49,1096.16C1947.83,1135.31 1924.39,1151.63 1898.61,1160.48C1739.92,1001.35 1792.39,1158.44 1822.58,1201.83C1840.43,1227.5 1762.97,1367.96 1732.51,1311.85Z" style="fill:white;fill-rule:nonzero;"/>
        <path d="M1734.19,1311.06C1738.6,1319.13 1744.19,1323.15 1750.84,1323.11C1768.84,1322.92 1791.81,1293.92 1806.58,1265.27C1821.09,1237.15 1827.04,1211.5 1821.05,1202.9C1804.09,1178.52 1774.83,1107.86 1793.82,1092C1807.91,1080.23 1843.33,1102.54 1899.1,1158.34C1929.03,1147.77 1948.31,1128.59 1961.41,1096.34C1933.24,1050.9 1891.19,1011.27 1845.92,987.513C1800.29,963.568 1756.65,958.646 1726.19,974.002C1695.93,989.256 1679.15,1023.84 1677.64,1074.01C1675.85,1133.49 1694.88,1213.25 1734.19,1311.06ZM1750.66,1326.83C1742.61,1326.83 1735.95,1322.09 1730.87,1312.74L1730.78,1312.55C1691.24,1214.21 1672.11,1133.92 1673.92,1073.9C1675.47,1022.28 1692.96,986.585 1724.51,970.679C1789.98,937.665 1904.65,997.011 1965.07,1095.19L1965.56,1095.98L1965.22,1096.85C1951.52,1131.11 1931.16,1151.28 1899.21,1162.24L1898.11,1162.62L1897.29,1161.79C1866.53,1130.95 1812.5,1081.24 1796.2,1094.86C1789.36,1100.57 1789.77,1117.97 1797.31,1142.6C1803.64,1163.27 1814.66,1187.19 1824.1,1200.77C1827.78,1206.05 1828.07,1215.28 1824.98,1228.22C1822.25,1239.64 1816.89,1253.4 1809.89,1266.98C1795.72,1294.45 1771.77,1326.61 1750.88,1326.83L1750.66,1326.83Z" style="fill-rule:nonzero;"/>
        <path d="M2051.45,1172.67C2081.48,1166.82 2122.75,1174.02 2116.85,1157.57C2099.98,1110.59 2025.82,1099.83 1973,1109.4C1934.77,1116.33 1896.56,1117.3 1897.65,1127.42C1898.79,1138.09 1909.81,1136.66 1967.58,1128.77C1909.39,1143.4 1901,1152 1902.87,1158.23C1906.37,1169.93 1961.78,1148.1 1964.82,1145.45C1961.78,1148.1 1906.23,1167.89 1910.28,1178.24C1913.14,1185.57 1924.37,1179.51 1927.19,1177.55C1927.19,1177.55 1914.4,1189.36 1927.97,1190.39C1935.51,1190.96 1972.86,1176.32 2004.04,1169.54C2026.59,1164.65 2045.09,1173.91 2051.45,1172.67Z" style="fill:white;fill-rule:nonzero;"/>
        <path d="M1927.19,1175.69C1927.73,1175.69 1928.27,1175.93 1928.64,1176.38C1929.25,1177.14 1929.17,1178.25 1928.45,1178.92C1926.06,1181.13 1923.06,1185.13 1923.66,1186.85C1923.97,1187.73 1925.59,1188.34 1928.11,1188.53C1931.52,1188.8 1943.04,1185.18 1956.39,1181.01C1970.43,1176.61 1987.91,1171.14 2003.65,1167.72C2018.91,1164.41 2032.47,1167.44 2041.44,1169.44C2045.66,1170.38 2049.31,1171.2 2051.09,1170.85C2061.63,1168.79 2073.6,1168.32 2084.17,1167.9C2098.5,1167.34 2112.04,1166.8 2114.99,1162.44C2115.7,1161.38 2115.74,1159.99 2115.09,1158.2C2105.68,1131.96 2078.8,1119.72 2057.92,1114.07C2032.72,1107.26 2001.1,1106.2 1973.33,1111.23C1962.15,1113.26 1950.82,1114.8 1940.82,1116.16C1920.22,1118.96 1898.92,1121.85 1899.5,1127.22C1899.71,1129.22 1900.26,1130.43 1901.34,1131.27C1906.42,1135.25 1925.5,1132.64 1967.33,1126.93C1968.31,1126.8 1969.22,1127.45 1969.4,1128.42C1969.59,1129.39 1968.99,1130.34 1968.03,1130.58C1929.95,1140.15 1908.76,1148.32 1905.04,1154.87C1904.48,1155.85 1904.36,1156.72 1904.65,1157.69C1904.73,1157.95 1904.96,1158.74 1906.67,1159.28C1916.03,1162.24 1944.24,1152.38 1957.15,1147.05C1960.36,1145.66 1963.07,1144.45 1963.61,1144.03C1964.39,1143.36 1965.55,1143.44 1966.23,1144.22C1966.9,1144.99 1966.82,1146.15 1966.06,1146.83L1966.06,1146.84L1966.05,1146.84L1966.05,1146.85L1966.04,1146.85C1965.78,1147.08 1965.39,1147.33 1964.79,1147.65C1963.15,1148.55 1960.2,1149.88 1956.46,1151.4C1956.04,1151.58 1955.61,1151.76 1955.16,1151.95C1946.69,1155.59 1935.09,1160.56 1925.84,1165.65C1911.36,1173.62 1911.78,1176.97 1912.01,1177.57C1912.46,1178.7 1913.15,1179.38 1914.19,1179.7C1917.66,1180.75 1923.84,1177.61 1926.13,1176.02C1926.45,1175.8 1926.82,1175.69 1927.19,1175.69ZM1928.42,1192.27C1928.21,1192.27 1928.02,1192.26 1927.83,1192.25C1923.58,1191.92 1921,1190.52 1920.15,1188.08C1919.55,1186.37 1919.98,1184.48 1920.83,1182.73C1918.31,1183.55 1915.53,1183.99 1913.11,1183.26C1910.98,1182.61 1909.4,1181.11 1908.55,1178.92C1906.54,1173.81 1913.1,1168.13 1926.37,1161.17C1917.91,1163.18 1910.21,1164.18 1905.81,1162.91C1902.66,1162 1901.5,1160.15 1901.08,1158.76C1900.5,1156.82 1900.74,1154.89 1901.8,1153.03C1904,1149.16 1910.69,1143.29 1940.36,1134.3C1914.39,1137.61 1903.92,1138.01 1899.05,1134.2C1897.15,1132.72 1896.12,1130.63 1895.8,1127.62C1894.83,1118.65 1912.93,1116.19 1940.32,1112.47C1950.28,1111.11 1961.57,1109.58 1972.67,1107.57C2001.37,1102.36 2032.8,1103.43 2058.89,1110.48C2080.63,1116.36 2108.64,1129.19 2118.6,1156.94C2119.65,1159.89 2119.48,1162.44 2118.07,1164.52C2114.07,1170.45 2100.94,1170.97 2084.32,1171.62C2073.88,1172.03 2062.06,1172.5 2051.8,1174.5C2049.26,1175 2045.64,1174.19 2040.63,1173.07C2031.46,1171.02 2018.9,1168.22 2004.44,1171.36C1988.86,1174.75 1971.47,1180.19 1957.5,1184.56C1941.95,1189.43 1932.65,1192.27 1928.42,1192.27Z" style="fill-rule:nonzero;"/>
        <path d="M1974.7,1159.88C1974.7,1159.88 1937.88,1171.83 1927.19,1177.55" style="fill:white;fill-rule:nonzero;"/>
        <path d="M1927.19,1179.41C1926.52,1179.41 1925.88,1179.05 1925.55,1178.43C1925.06,1177.52 1925.4,1176.39 1926.31,1175.91C1937.02,1170.18 1972.62,1158.6 1974.13,1158.11C1975.11,1157.79 1976.15,1158.33 1976.47,1159.3C1976.79,1160.28 1976.25,1161.33 1975.28,1161.65C1974.91,1161.77 1938.49,1173.62 1928.07,1179.19C1927.79,1179.34 1927.49,1179.41 1927.19,1179.41Z" style="fill-rule:nonzero;"/>
        <path d="M512.649,2107.12L516.888,2128.52L842.598,2131.72L846.98,2104.09L512.649,2107.12Z" style="fill-rule:nonzero;"/>
        <path d="M712.576,2019.2L773.119,1800.33L895.597,1877.36L849.724,2036L712.576,2019.2Z" style="fill:white;fill-rule:nonzero;"/>
        <path d="M714.945,2017.62L848.377,2033.96L893.42,1878.19L774.245,1803.24L714.945,2017.62ZM851.072,2038.04L849.499,2037.85L710.207,2020.79L771.992,1797.43L897.773,1876.53L851.072,2038.04Z" style="fill-rule:nonzero;"/>
        <path d="M514.534,2106.82C514.479,2106.01 513.343,2086.83 522.793,2065.4C531.528,2045.59 551.342,2020.22 596.13,2011.9C680.01,1996.32 724.779,1974.93 725.221,1974.72L727.192,1973.76L727.816,1975.87C727.961,1976.35 742.887,2024.7 793.376,2028.61C797.172,2028.9 800.815,2029.05 804.204,2029.05C832.223,2029.05 839.961,2019.06 845.081,2012.44C847.771,2008.97 850.094,2005.96 854.271,2005.96C855.541,2005.96 856.895,2006.25 858.411,2006.84L859.798,2007.37L845.058,2106.85L514.649,2108.57L514.534,2106.82Z" style="fill:white;fill-rule:nonzero;"/>
        <path d="M728.349,1971.14L724.41,1973.04C723.969,1973.26 679.365,1994.54 595.79,2010.07C575.74,2013.8 558.877,2021.2 545.668,2032.06C535.04,2040.8 526.771,2051.76 521.091,2064.65C511.458,2086.49 512.622,2106.12 512.677,2106.94L512.906,2110.44L516.409,2110.42L843.47,2108.72L846.664,2108.7L847.132,2105.54L861.421,2009.12L861.857,2006.17L859.082,2005.1C857.348,2004.43 855.775,2004.1 854.271,2004.1C849.181,2004.1 846.349,2007.76 843.61,2011.3C838.42,2018.01 831.311,2027.19 804.205,2027.19C800.864,2027.19 797.269,2027.04 793.52,2026.75C772.953,2025.16 755.977,2016.1 743.065,1999.82C733.302,1987.51 729.636,1975.45 729.6,1975.33L728.349,1971.14ZM726.032,1976.39C726.032,1976.39 740.809,2026.4 793.233,2030.46C797.19,2030.77 800.839,2030.91 804.205,2030.91C847.117,2030.91 844.252,2007.83 854.271,2007.83C855.277,2007.83 856.413,2008.06 857.739,2008.57L843.451,2105L516.391,2106.7C516.391,2106.7 511.313,2029.56 596.47,2013.73C681.628,1997.91 726.032,1976.39 726.032,1976.39Z" style="fill-rule:nonzero;"/>
        <path d="M516.391,2106.7L629.125,2106.11L631.259,2006.5C620.543,2008.97 608.947,2011.41 596.47,2013.73C511.313,2029.56 516.391,2106.7 516.391,2106.7Z" style="fill:rgb(213,253,206);fill-rule:nonzero;"/>
        <path d="M708.215,1976.78C708.885,1976.24 709.67,1975.81 710.548,1975.56C714.096,1974.52 717.803,1976.64 718.829,1980.29L732.443,2028.65C733.47,2032.29 731.426,2036.08 727.877,2037.12C724.329,2038.15 720.622,2036.03 719.596,2032.39L705.982,1984.02C705.21,1981.28 706.177,1978.45 708.215,1976.78Z" style="fill-rule:nonzero;"/>
        <path d="M683.462,1983.98C684.131,1983.43 684.917,1983.01 685.795,1982.75C689.343,1981.72 693.05,1983.84 694.075,1987.48L707.689,2035.85C708.715,2039.49 706.673,2043.28 703.123,2044.31C699.575,2045.34 695.868,2043.22 694.843,2039.58L681.229,1991.22C680.457,1988.47 681.424,1985.65 683.462,1983.98Z" style="fill-rule:nonzero;"/>
        <path d="M658.421,1991.26C659.091,1990.71 659.877,1990.29 660.755,1990.03C664.302,1989 668.01,1991.12 669.035,1994.76L682.649,2043.13C683.675,2046.77 681.632,2050.56 678.082,2051.59C674.534,2052.62 670.827,2050.5 669.802,2046.86L656.188,1998.5C655.416,1995.75 656.383,1992.93 658.421,1991.26Z" style="fill-rule:nonzero;"/>
        <path d="M880.388,1987.07C880.388,1987.07 907.46,1724.89 1063.19,1659.76C1140.18,1627.56 1267.85,1634.04 1337.63,1636.49C1510.98,1642.6 1597.48,1644.48 1597.48,1644.48C1673.27,1574.99 1639.76,1558.55 1600.16,1452.73C1600.16,1452.73 1162.74,1383.93 929.602,1552.26C740.126,1689.07 716.772,1959.4 716.772,1959.4C723.918,2014.87 816.023,2025.79 880.388,1987.07Z" style="fill-rule:nonzero;"/>
        <path d="M1131.11,1565.22L1130.95,1561.5C1137.43,1561.23 1144.11,1561.14 1150.66,1561.24L1150.6,1564.96C1144.12,1564.86 1137.52,1564.95 1131.11,1565.22ZM1199.16,1569.06C1192.7,1568.09 1186.19,1567.28 1179.8,1566.65L1180.17,1562.95C1186.61,1563.58 1193.19,1564.4 1199.72,1565.38L1199.16,1569.06ZM1082.82,1571.12L1082.07,1567.47C1088.44,1566.16 1094.98,1565.04 1101.5,1564.14L1102.01,1567.83C1095.57,1568.72 1089.11,1569.82 1082.82,1571.12ZM1403.11,1577.49L1402.86,1573.78C1409.06,1573.36 1415.74,1573.32 1422.68,1573.66L1422.5,1577.38C1415.7,1577.04 1409.17,1577.08 1403.11,1577.49ZM1246.89,1579.17C1240.59,1577.46 1234.22,1575.87 1227.94,1574.46L1228.76,1570.83C1235.09,1572.25 1241.52,1573.85 1247.87,1575.58L1246.89,1579.17ZM1470.6,1584.59C1464.1,1583.06 1457.67,1581.75 1451.49,1580.69L1452.12,1577.02C1458.38,1578.09 1464.88,1579.42 1471.45,1580.97L1470.6,1584.59ZM1036.24,1584.98L1034.87,1581.52C1040.95,1579.11 1047.2,1576.89 1053.45,1574.91L1054.57,1578.46C1048.41,1580.41 1042.24,1582.61 1036.24,1584.98ZM1357.89,1591.59L1355.73,1588.57C1360.93,1584.85 1366.94,1581.78 1373.58,1579.43L1374.82,1582.94C1368.5,1585.17 1362.81,1588.08 1357.89,1591.59ZM1293.23,1594.52C1287.2,1592.16 1281.03,1589.89 1274.89,1587.78L1276.1,1584.26C1282.29,1586.39 1288.51,1588.67 1294.59,1591.05L1293.23,1594.52ZM1517.22,1598.9C1517.15,1598.87 1510.04,1596.01 1498.82,1592.43L1499.95,1588.88C1511.32,1592.51 1518.54,1595.42 1518.61,1595.45L1517.22,1598.9ZM992.829,1606.78L990.875,1603.61C996.467,1600.16 1002.23,1596.88 1008,1593.85L1009.73,1597.14C1004.03,1600.13 998.348,1603.37 992.829,1606.78ZM1338.57,1615.65L1336.82,1614.63C1336.76,1614.6 1330.74,1611.13 1320.15,1606.12L1321.74,1602.75C1332.48,1607.84 1338.44,1611.27 1338.68,1611.41L1338.14,1612.35L1339.76,1613.14C1339.65,1613.36 1339.54,1613.59 1339.44,1613.82L1338.57,1615.65ZM953.758,1635.67L951.31,1632.87C956.276,1628.53 961.404,1624.33 966.55,1620.39L968.814,1623.34C963.73,1627.24 958.665,1631.39 953.758,1635.67ZM919.591,1670.29L916.765,1667.87C921.063,1662.85 925.507,1657.94 929.973,1653.28L932.661,1655.85C928.243,1660.47 923.846,1665.32 919.591,1670.29ZM890.292,1709.19L887.192,1707.13C890.846,1701.63 894.632,1696.2 898.447,1691L901.449,1693.2C897.668,1698.36 893.914,1703.73 890.292,1709.19ZM865.458,1751.14L862.167,1749.4C865.256,1743.55 868.453,1737.76 871.667,1732.19L874.89,1734.05C871.699,1739.58 868.525,1745.33 865.458,1751.14ZM844.55,1795.23L841.125,1793.77C843.709,1787.7 846.393,1781.66 849.102,1775.82L852.479,1777.38C849.786,1783.19 847.118,1789.2 844.55,1795.23ZM827.023,1840.81L823.506,1839.59C825.664,1833.37 827.908,1827.15 830.177,1821.12L833.661,1822.43C831.403,1828.43 829.169,1834.62 827.023,1840.81ZM812.397,1887.43L808.816,1886.42C810.609,1880.08 812.478,1873.75 814.37,1867.58L817.928,1868.68C816.044,1874.81 814.183,1881.12 812.397,1887.43ZM800.259,1934.78L796.633,1933.95C798.116,1927.53 799.662,1921.11 801.229,1914.86L804.839,1915.77C803.278,1921.99 801.737,1928.39 800.259,1934.78ZM790.269,1982.66L786.611,1981.97C787.825,1975.5 789.093,1969.02 790.381,1962.71L794.027,1963.45C792.744,1969.74 791.479,1976.21 790.269,1982.66Z" style="fill:white;fill-rule:nonzero;"/>
        <path d="M1616.7,2130.03L1859.84,2132.26L1859.56,2116.26L1623.66,2114.77L1616.7,2130.03Z" style="fill:rgb(247,248,249);fill-rule:nonzero;"/>
        <path d="M1858.61,2131.04L1618.57,2128.84L1624.44,2115.98L1858.37,2117.46L1858.61,2131.04ZM1614.83,2131.22L1861.07,2133.48L1860.75,2115.06L1622.89,2113.56L1614.83,2131.22Z" style="fill:rgb(1,1,1);fill-rule:nonzero;"/>
        <path d="M1544.9,1867.12L1616.33,2130.55L1623.66,2114.77L1559.92,1867.47L1544.9,1867.12Z" style="fill:rgb(247,248,249);fill-rule:nonzero;"/>
        <path d="M1622.38,2114.65L1616.63,2127.04L1546.49,1868.37L1558.98,1868.65L1622.38,2114.65ZM1616.05,2131.74L1624.94,2114.89L1624.83,2114.47L1560.87,1866.28L1543.31,1865.88L1616.05,2131.74Z" style="fill:rgb(1,1,1);fill-rule:nonzero;"/>
        <path d="M1448.59,1873.48L1518.19,2122.79L1616.7,2130.03L1548.73,1867.28L1448.59,1873.48Z" style="fill:rgb(247,248,249);fill-rule:nonzero;"/>
        <path d="M1615.11,2128.7L1520.47,2126.46L1450.16,1874.59L1547.81,1868.55L1615.11,2128.7ZM1518.79,2129.44L1618.29,2131.36L1617.87,2129.73L1549.65,1866.01L1447.02,1872.36L1447.42,1873.8L1518.79,2129.44Z" style="fill:rgb(1,1,1);fill-rule:nonzero;"/>
        <path d="M1517.34,1996.73C1518.9,2007.13 1525.07,2014.82 1531.12,2013.91C1537.17,2013.01 1540.81,2003.84 1539.25,1993.45C1537.69,1983.05 1531.52,1975.36 1525.47,1976.27C1519.42,1977.17 1515.79,1986.34 1517.34,1996.73Z" style="fill:rgb(247,248,249);fill-rule:nonzero;"/>
        <path d="M1526.87,1977.42C1531.78,1977.81 1536.73,1984.8 1538.05,1993.63C1538.78,1998.45 1538.37,2003.12 1536.91,2006.79C1535.54,2010.24 1533.42,2012.34 1530.94,2012.72C1528.46,2013.09 1525.81,2011.7 1523.49,2008.8C1521.02,2005.72 1519.26,2001.37 1518.54,1996.55C1517.11,1987 1520.36,1978.26 1525.65,1977.46C1526.06,1977.4 1526.46,1977.39 1526.87,1977.42ZM1529.5,2015.17C1530.1,2015.22 1530.7,2015.2 1531.3,2015.11C1534.67,2014.6 1537.46,2011.97 1539.16,2007.68C1540.77,2003.62 1541.23,1998.5 1540.44,1993.27C1538.76,1982.04 1532.1,1974.05 1525.29,1975.07C1518.48,1976.09 1514.46,1985.69 1516.15,1996.91C1516.93,2002.15 1518.87,2006.91 1521.61,2010.32C1523.98,2013.28 1526.73,2014.95 1529.5,2015.17Z" style="fill:rgb(1,1,1);fill-rule:nonzero;"/>
        <path d="M804.086,1730.27C804.086,1730.27 953.127,1473.06 1121.18,1488.93C1204.26,1496.77 1243.96,1559.99 1291.22,1611.4C1392.88,1721.97 1502.04,1713.32 1502.04,1713.32C1601.62,1687.7 1579.63,1615.17 1594.51,1503.17C1594.51,1503.17 1344.82,1249.17 1061.52,1298.45C864.718,1332.67 705.717,1596.94 705.717,1596.94C712.083,1672.2 736.305,1703.63 804.086,1730.27Z" style="fill-rule:nonzero;"/>
        <path d="M1151.29,1391.88C1144.9,1390.88 1138.41,1390.17 1132.01,1389.77L1132.24,1386.05C1138.76,1386.46 1145.36,1387.19 1151.86,1388.2L1151.29,1391.88ZM1083.61,1392.21L1083.01,1388.54C1089.52,1387.47 1096.12,1386.68 1102.62,1386.2L1102.9,1389.92C1096.5,1390.39 1090.01,1391.16 1083.61,1392.21ZM1198.12,1404.46C1192.03,1402.13 1185.84,1400.03 1179.71,1398.24L1180.75,1394.67C1186.98,1396.49 1193.27,1398.61 1199.46,1400.98L1198.12,1404.46ZM1036.83,1405.04L1035.5,1401.57C1041.7,1399.19 1047.98,1397.05 1054.17,1395.21L1055.23,1398.77C1049.13,1400.59 1042.94,1402.7 1036.83,1405.04ZM1241.74,1425.94C1236.12,1422.54 1230.41,1419.34 1224.74,1416.42L1226.45,1413.11C1232.19,1416.07 1237.98,1419.32 1243.66,1422.75L1241.74,1425.94ZM993.128,1426.32L991.238,1423.11C996.958,1419.74 1002.77,1416.55 1008.5,1413.63L1010.19,1416.94C1004.52,1419.83 998.782,1422.98 993.128,1426.32ZM952.948,1453.84L950.658,1450.9C955.904,1446.81 961.218,1442.86 966.452,1439.17L968.598,1442.21C963.413,1445.87 958.147,1449.78 952.948,1453.84ZM1281.47,1454.16C1276.39,1449.99 1271.2,1445.96 1266.05,1442.19L1268.25,1439.19C1273.46,1443 1278.7,1447.07 1283.83,1451.28L1281.47,1454.16ZM916.13,1485.82L913.556,1483.14C918.339,1478.56 923.2,1474.07 928.005,1469.8L930.477,1472.58C925.707,1476.82 920.88,1481.28 916.13,1485.82ZM1317.27,1487.34C1312.73,1482.62 1308.07,1477.99 1303.41,1473.56L1305.97,1470.86C1310.67,1475.33 1315.37,1480 1319.95,1484.76L1317.27,1487.34ZM882.291,1521.01L879.511,1518.54C883.91,1513.6 888.378,1508.73 892.792,1504.06L895.497,1506.62C891.108,1511.26 886.665,1516.1 882.291,1521.01ZM1349.29,1524.26C1345.29,1519.15 1341.14,1514.05 1336.93,1509.1L1339.77,1506.69C1344.01,1511.68 1348.2,1516.82 1352.22,1521.97L1349.29,1524.26ZM1425.28,1553.8C1418.66,1552.8 1412.26,1552.7 1406.27,1553.49L1405.79,1549.8C1412.12,1548.96 1418.87,1549.07 1425.83,1550.12L1425.28,1553.8ZM851.012,1558.55L848.081,1556.26C852.142,1551.07 856.275,1545.91 860.365,1540.93L863.241,1543.3C859.169,1548.25 855.055,1553.38 851.012,1558.55ZM1377.96,1565.64L1376.91,1563.84C1376.88,1563.78 1373.32,1557.67 1366.65,1547.93L1369.72,1545.83C1376.47,1555.69 1380.1,1561.9 1380.13,1561.96L1379.09,1562.57L1380.14,1564.02L1377.96,1565.64ZM1469.98,1571.3C1464.14,1567.81 1458.36,1564.78 1452.81,1562.28L1454.34,1558.89C1460.02,1561.44 1465.93,1564.55 1471.89,1568.11L1469.98,1571.3ZM821.927,1597.84L818.881,1595.71C822.661,1590.32 826.508,1584.95 830.315,1579.75L833.319,1581.95C829.526,1587.13 825.693,1592.48 821.927,1597.84ZM1509.06,1600.32C1504.05,1595.92 1498.99,1591.73 1494.03,1587.87L1496.31,1584.93C1501.34,1588.84 1506.45,1593.08 1511.52,1597.53L1509.06,1600.32ZM1543.5,1634.94C1543.46,1634.88 1538.52,1629 1530.29,1620.54L1532.95,1617.94C1541.29,1626.52 1546.31,1632.49 1546.36,1632.55L1543.5,1634.94ZM794.725,1638.49L791.589,1636.49C795.143,1630.93 798.745,1625.39 802.295,1620.04L805.398,1622.09C801.859,1627.43 798.268,1632.95 794.725,1638.49ZM769.15,1680.2L765.943,1678.31C769.276,1672.65 772.667,1666.98 776.02,1661.47L779.2,1663.4C775.855,1668.9 772.475,1674.55 769.15,1680.2Z" style="fill:white;fill-rule:nonzero;"/>
        <path d="M1485.02,1709.98C1722.35,1763.81 2036.64,1525.92 2036.64,1273.85C1977.62,1274.85 1947.67,1249.69 1885.31,1232.84C1852.49,1223.98 1822.58,1201.83 1811.23,1182.21C1695.54,1463.29 1479.15,1410.4 1479.15,1410.4C1557.96,1496.76 1531.16,1690.7 1485.02,1709.98Z" style="fill:white;fill-rule:nonzero;"/>
        <path d="M1490.31,1709.22C1546.45,1720.94 1609.88,1716.81 1674.11,1697.21C1736.97,1678.03 1799.3,1644.65 1854.36,1600.68C1907.91,1557.92 1952.72,1506.5 1983.95,1451.97C2017.32,1393.7 2034.41,1334.42 2034.77,1275.74C1997.59,1276.03 1971.82,1265.95 1942.06,1254.32C1924.87,1247.6 1907.09,1240.65 1884.83,1234.64C1855.14,1226.62 1825.08,1206.63 1811.56,1186.26C1785.28,1249.08 1751.73,1300.05 1711.81,1337.79C1679.27,1368.57 1642.44,1390.67 1602.37,1403.48C1546.51,1421.33 1499.62,1415.9 1484.13,1413.26C1506.22,1439.47 1521.24,1476.6 1527.67,1521.06C1533.38,1560.5 1531.91,1604.57 1523.65,1641.95C1516.12,1676 1504.14,1700.01 1490.31,1709.22ZM1555.53,1719.46C1530.96,1719.46 1507.19,1716.91 1484.61,1711.79L1478.93,1710.5L1484.31,1708.26C1498.7,1702.25 1512.05,1677.16 1520.01,1641.15C1528.19,1604.19 1529.64,1560.61 1523.99,1521.59C1517.32,1475.49 1501.34,1437.47 1477.77,1411.65L1473.66,1407.14L1479.59,1408.59C1480.12,1408.72 1534.12,1421.44 1601.43,1399.87C1640.93,1387.21 1677.25,1365.38 1709.36,1334.99C1749.55,1296.95 1783.25,1245.31 1809.51,1181.5L1810.95,1178L1812.85,1181.27C1823.08,1198.98 1851.42,1221.76 1885.8,1231.04C1908.26,1237.11 1926.13,1244.1 1943.42,1250.85C1973.31,1262.54 1999.12,1272.61 2036.6,1271.99L2038.5,1271.96L2038.5,1273.85C2038.5,1333.81 2021.23,1394.36 1987.18,1453.82C1955.72,1508.75 1910.6,1560.54 1856.68,1603.59C1801.26,1647.85 1738.5,1681.45 1675.2,1700.77C1634.47,1713.2 1594.03,1719.46 1555.53,1719.46Z" style="fill-rule:nonzero;"/>
        <path d="M1924.12,1245.43L1940.74,1203.55L1892.43,1190.41L1872.42,1229.34C1872.42,1229.34 1810.65,1260.81 1816.91,1290.86C1824.07,1325.22 1915.73,1257.42 1924.12,1245.43Z" style="fill:white;fill-rule:nonzero;"/>
        <path d="M1893.39,1192.6L1873.8,1230.73L1873.27,1231C1873.11,1231.08 1857.78,1238.94 1843.43,1250.32C1830.49,1260.59 1815.69,1275.9 1818.73,1290.48C1819.64,1294.87 1822.12,1297.43 1826.3,1298.29C1850.28,1303.22 1915.33,1254.22 1922.48,1244.53L1938.24,1204.79L1893.39,1192.6ZM1829.82,1302.33C1828.17,1302.33 1826.76,1302.18 1825.55,1301.93C1819.92,1300.77 1816.3,1297.08 1815.09,1291.24C1808.86,1261.34 1864.51,1231.36 1871.04,1227.96L1891.46,1188.22L1943.24,1202.3L1925.77,1246.32L1925.65,1246.5C1921.89,1251.86 1903.34,1266.96 1882.73,1280.05C1854.77,1297.81 1838.82,1302.33 1829.82,1302.33Z" style="fill-rule:nonzero;"/>
        <path d="M1932.52,1074.28C1932.52,1074.28 2038.25,1121 1996.13,1186.2C1973.45,1221.31 1897.15,1221.27 1896.73,1204.71C1896.31,1188.15 1909.39,1174.38 1925.95,1173.96C1934.29,1173.75 1909.76,1153.52 1909.34,1136.96C1908.92,1120.4 1932.52,1074.28 1932.52,1074.28Z" style="fill-rule:nonzero;"/>
        <path d="M1953.11,1130.55C1966.16,1141.79 1968.67,1161.57 1961.2,1180.41C1965.68,1185.12 1964.57,1194.25 1958.47,1201.33C1953.24,1207.4 1946,1210.07 1940.68,1208.37C1921.41,1224.28 1896.57,1227.2 1881.24,1213.99C1863.5,1198.71 1865.21,1167.65 1885.05,1144.6C1904.9,1121.56 1935.37,1115.27 1953.11,1130.55Z" style="fill:white;fill-rule:nonzero;"/>
        <path d="M1929.46,1124.06C1926.48,1124.06 1923.4,1124.38 1920.24,1125.03C1907.79,1127.6 1895.79,1134.98 1886.46,1145.82C1877.13,1156.65 1871.61,1169.61 1870.91,1182.31C1870.22,1194.83 1874.32,1205.58 1882.46,1212.58C1896.69,1224.84 1920.68,1222.47 1939.49,1206.94L1940.28,1206.29L1941.24,1206.6C1945.97,1208.11 1952.47,1205.44 1957.06,1200.12C1962.47,1193.83 1963.7,1185.74 1959.85,1181.7L1959.03,1180.83L1959.47,1179.73C1966.87,1161.05 1963.9,1142.3 1951.89,1131.96C1945.85,1126.75 1938.09,1124.06 1929.46,1124.06ZM1904.92,1224.1C1895.55,1224.1 1886.81,1221.24 1880.03,1215.4C1871,1207.63 1866.44,1195.8 1867.19,1182.11C1867.94,1168.59 1873.78,1154.84 1883.64,1143.39C1893.51,1131.94 1906.24,1124.12 1919.49,1121.38C1932.92,1118.61 1945.29,1121.36 1954.32,1129.14C1967.32,1140.33 1970.81,1160.22 1963.33,1180.05C1967.64,1185.71 1966.27,1195.12 1959.88,1202.54C1954.56,1208.72 1947.15,1211.79 1941.11,1210.42C1929.85,1219.46 1916.87,1224.1 1904.92,1224.1Z" style="fill-rule:nonzero;"/>
        <path d="M1905.57,1200.93C1905.24,1200.93 1904.92,1200.85 1904.62,1200.67C1888.22,1190.92 1879.8,1186.42 1879.72,1186.38C1878.81,1185.89 1878.47,1184.77 1878.95,1183.86C1879.44,1182.95 1880.56,1182.61 1881.47,1183.09C1881.55,1183.14 1890.03,1187.66 1906.52,1197.47C1907.4,1198 1907.69,1199.14 1907.17,1200.02C1906.82,1200.61 1906.2,1200.93 1905.57,1200.93Z" style="fill-rule:nonzero;"/>
        <path d="M1910.33,1153.22C1907.73,1156.93 1903.49,1158.44 1900.87,1156.6C1898.24,1154.76 1898.21,1150.26 1900.81,1146.55C1903.41,1142.85 1907.64,1141.33 1910.27,1143.17C1912.9,1145.01 1912.93,1149.51 1910.33,1153.22Z" style="fill-rule:nonzero;"/>
        <path d="M1931.41,1171.85C1928.81,1175.56 1924.57,1177.08 1921.95,1175.23C1919.32,1173.39 1919.29,1168.9 1921.89,1165.19C1924.49,1161.48 1928.73,1159.97 1931.35,1161.81C1933.98,1163.65 1934.01,1168.15 1931.41,1171.85Z" style="fill-rule:nonzero;"/>
        <path d="M1896.72,1177.88C1896.13,1177.88 1895.54,1177.59 1895.18,1177.06C1894.6,1176.21 1894.82,1175.06 1895.67,1174.48C1902.74,1169.67 1914.34,1160.34 1915.35,1155.77C1916.78,1149.32 1913.73,1138.69 1913.7,1138.59C1913.41,1137.6 1913.98,1136.57 1914.96,1136.28C1915.95,1135.99 1916.98,1136.56 1917.27,1137.55C1917.41,1138.02 1920.62,1149.19 1918.99,1156.57C1917.32,1164.08 1899.76,1176.2 1897.77,1177.56C1897.45,1177.78 1897.08,1177.88 1896.72,1177.88Z" style="fill-rule:nonzero;"/>
        <path d="M1966.07,1185.78C1966.07,1185.78 1916.31,1165.91 1928.6,1102.79C1928.6,1102.79 1991.54,1122.71 1983.92,1147.93C1976.3,1173.14 1966.07,1185.78 1966.07,1185.78Z" style="fill-rule:nonzero;"/>
        <path d="M1969.89,1334.43L1966.7,1332.5C1970.13,1326.84 1973.59,1321.01 1976.99,1315.2L1980.2,1317.07C1976.8,1322.91 1973.33,1328.75 1969.89,1334.43ZM1942.8,1377.01L1939.71,1374.94C1943.38,1369.45 1947.09,1363.79 1950.74,1358.11L1953.87,1360.13C1950.21,1365.82 1946.49,1371.5 1942.8,1377.01ZM1913.68,1418.24L1910.7,1416.01C1914.65,1410.72 1918.64,1405.26 1922.56,1399.77L1925.59,1401.93C1921.65,1407.44 1917.65,1412.93 1913.68,1418.24ZM1882.26,1457.76L1879.42,1455.36C1883.69,1450.32 1888,1445.1 1892.22,1439.85L1895.12,1442.18C1890.88,1447.46 1886.55,1452.7 1882.26,1457.76ZM1848.27,1495.12L1845.61,1492.51C1850.22,1487.82 1854.88,1482.92 1859.46,1477.95L1862.2,1480.47C1857.59,1485.47 1852.9,1490.4 1848.27,1495.12ZM1811.42,1529.69L1809,1526.86C1814,1522.57 1819.05,1518.08 1824,1513.51L1826.53,1516.24C1821.54,1520.85 1816.46,1525.37 1811.42,1529.69ZM1771.45,1560.63L1769.33,1557.56C1774.75,1553.82 1780.22,1549.85 1785.58,1545.78L1787.83,1548.75C1782.42,1552.85 1776.91,1556.85 1771.45,1560.63ZM1728.19,1586.83L1726.47,1583.53C1732.3,1580.49 1738.2,1577.22 1744,1573.79L1745.89,1577C1740.03,1580.45 1734.08,1583.76 1728.19,1586.83ZM1681.73,1606.91L1680.52,1603.39C1686.74,1601.25 1693.04,1598.86 1699.24,1596.28L1700.67,1599.72C1694.4,1602.33 1688.02,1604.75 1681.73,1606.91ZM1551.69,1618.38C1539.1,1615.83 1532.21,1613.02 1531.92,1612.91L1533.34,1609.46C1533.41,1609.49 1540.23,1612.26 1552.43,1614.73L1551.69,1618.38ZM1632.59,1619.24L1632.01,1615.56C1638.52,1614.54 1645.13,1613.25 1651.66,1611.72L1652.51,1615.35C1645.88,1616.89 1639.18,1618.2 1632.59,1619.24ZM1593.43,1622.36C1589.6,1622.36 1585.74,1622.26 1581.97,1622.08L1582.15,1618.36C1588.7,1618.69 1595.44,1618.72 1602.15,1618.48L1602.29,1622.19C1599.34,1622.3 1596.36,1622.36 1593.43,1622.36Z" style="fill-rule:nonzero;"/>
        <path d="M2008.32,1408.98C2513.1,1190.06 2214.33,1049.3 2008.63,1097.32C1991.85,1135.99 1996.76,1165.87 2008.63,1190.41C2233.36,1191.07 2026.63,1255.18 1974.56,1264.29C1943.76,1269.68 1947.03,1426.84 2008.32,1408.98Z" style="fill:white;fill-rule:nonzero;"/>
        <path d="M2009.8,1188.55C2079.18,1188.82 2112.01,1194.88 2113.1,1207.61C2113.93,1217.32 2095.12,1229.21 2057.2,1242.95C2026.82,1253.96 1992.11,1263.11 1974.88,1266.13C1970.05,1266.97 1965.65,1272.81 1962.49,1282.55C1952.95,1311.97 1955.85,1375.49 1979.24,1399.6C1987.2,1407.8 1996.77,1410.37 2007.69,1407.23C2114.61,1360.85 2191.93,1315.19 2237.48,1271.52C2257.54,1252.29 2271.29,1233.51 2278.34,1215.7C2284.79,1199.4 2285.65,1183.86 2280.91,1169.51C2270.66,1138.51 2233.44,1113.05 2178.79,1099.65C2125.79,1086.66 2064.31,1086.39 2009.96,1098.92C1996.21,1131.12 1996.16,1159.66 2009.8,1188.55ZM1998.86,1412.27C1990.55,1412.27 1983.08,1408.9 1976.57,1402.19C1965.62,1390.9 1957.93,1370.36 1954.91,1344.35C1952.25,1321.41 1953.8,1297.29 1958.95,1281.41C1962.61,1270.12 1967.9,1263.57 1974.24,1262.46C1991.31,1259.47 2025.75,1250.39 2055.94,1239.45C2090.04,1227.09 2110.02,1215.31 2109.39,1207.93C2108.9,1202.19 2095.16,1192.52 2008.62,1192.27L2007.46,1192.26L2006.95,1191.22C1992.38,1161.08 1992.37,1130.13 2006.92,1096.58L2007.29,1095.72L2008.21,1095.51C2063.33,1082.64 2125.83,1082.83 2179.67,1096.04C2206.58,1102.63 2229.29,1111.99 2247.16,1123.85C2266.35,1136.58 2278.89,1151.55 2284.44,1168.34C2289.47,1183.54 2288.58,1199.94 2281.8,1217.07C2274.55,1235.38 2260.51,1254.61 2240.06,1274.21C2194.17,1318.2 2116.45,1364.11 2009.06,1410.69L2008.84,1410.77C2005.39,1411.77 2002.06,1412.27 1998.86,1412.27Z" style="fill-rule:nonzero;"/>
        <path d="M805.187,1695.24L803.024,1694.03C876.962,1562.48 961.394,1492.89 1053.97,1487.21C1087.61,1485.15 1122.36,1491.64 1157.27,1506.52C1185.15,1518.4 1213.2,1535.64 1240.63,1557.73C1287.3,1595.34 1316.41,1634.57 1316.7,1634.97L1314.7,1636.44C1314.41,1636.05 1285.46,1597.03 1239.02,1559.63C1211.77,1537.68 1183.93,1520.57 1156.25,1508.79C1121.71,1494.07 1087.34,1487.64 1054.11,1489.69C962.435,1495.32 878.683,1564.48 805.187,1695.24Z" style="fill:white;fill-rule:nonzero;"/>
        <rect x="339.501" y="2130.64" width="2070.57" height="3.72" style="fill-rule:nonzero;"/>
        <path d="M1944.4,955.549C1940.6,901.706 1971.26,869.996 2006.77,833.28C2040.78,798.119 2079.33,758.267 2094.18,689.855C2102.82,650.074 2093.55,618.174 2067.38,597.605C2033.51,570.981 1974.08,567.373 1929.14,589.209C1898.16,604.264 1881.1,628.089 1881.1,656.297L1876.1,656.297C1876.1,626.071 1894.16,600.648 1926.96,584.712C1973.5,562.096 2035.2,565.949 2070.47,593.674C2089.84,608.899 2110.53,638.129 2099.07,690.916C2083.91,760.719 2044.84,801.115 2010.37,836.756C1975.69,872.612 1945.74,903.578 1949.38,955.197L1944.4,955.549Z" style="fill-rule:nonzero;"/>
        <path d="M1959.4,996.964C1957.06,996.964 1952.75,998.253 1946.11,1004.89C1939.58,1011.42 1938.5,1020.69 1941.89,1024.62C1944.45,1027.58 1949.25,1026.8 1955.07,1022.48C1962.53,1016.95 1965.45,1008.19 1964.49,1002.39C1964.23,1000.79 1963.41,997.98 1960.93,997.182C1960.57,997.067 1960.06,996.964 1959.4,996.964ZM1946,1031.38C1941.64,1031.38 1939.07,1029.01 1938.1,1027.88C1933.17,1022.17 1933.79,1010.14 1942.58,1001.36C1952.16,991.774 1958.68,991.208 1962.46,992.421C1966.12,993.597 1968.66,996.933 1969.43,1001.57C1970.6,1008.64 1967.54,1019.45 1958.06,1026.49C1953.09,1030.18 1949.09,1031.38 1946,1031.38Z" style="fill-rule:nonzero;"/>
        <path d="M2093.29,942.828L2088.51,941.372C2100.01,903.586 2129.17,889.995 2162.93,874.257C2195.04,859.291 2231.43,842.328 2259.17,799.966C2275.21,775.474 2277.2,751.689 2264.95,731.186C2249.03,704.546 2209.95,686.806 2174.05,689.913C2149.41,692.047 2131.86,703.614 2124.63,722.48L2119.96,720.691C2127.91,699.94 2146.97,687.24 2173.62,684.932C2211.29,681.665 2252.4,700.449 2269.24,728.621C2278.52,744.144 2285.03,769.598 2263.35,802.706C2234.83,846.258 2197.76,863.541 2165.04,878.789C2132.36,894.021 2104.14,907.176 2093.29,942.828Z" style="fill-rule:nonzero;"/>
        <path d="M2086.14,973.845C2084.37,973.845 2081.71,974.349 2077.79,976.097C2071.52,978.891 2069.12,984.631 2070.17,987.515C2070.98,989.776 2074.22,990.356 2078.83,989.065C2085.06,987.322 2089.14,982.388 2089.95,978.414C2090.16,977.411 2090.32,975.585 2089.13,974.626C2088.79,974.355 2087.91,973.845 2086.14,973.845ZM2074.47,994.755C2068.06,994.755 2066,990.708 2065.46,989.212C2063.5,983.766 2067.16,975.361 2075.75,971.53C2085.05,967.381 2089.86,968.804 2092.26,970.728C2094.64,972.643 2095.59,975.809 2094.85,979.416C2093.77,984.708 2088.71,991.491 2080.18,993.879C2077.97,994.498 2076.08,994.755 2074.47,994.755Z" style="fill-rule:nonzero;"/>
        <path d="M1793.28,887.034C1771.81,853.885 1780.22,822.832 1789.95,786.875C1799.2,752.68 1809.7,713.924 1795.19,665.412C1786.8,637.363 1769.91,620.503 1746.33,616.655C1715.7,611.657 1676.95,630.093 1656.18,659.542C1641.93,679.755 1639.46,700.629 1649.23,718.317L1644.85,720.733C1634.11,701.278 1636.68,678.523 1652.1,656.661C1673.89,625.754 1714.75,606.434 1747.14,611.721C1764.99,614.634 1788.64,626.065 1799.98,663.979C1814.89,713.855 1804.21,753.342 1794.77,788.181C1785.35,822.982 1777.22,853.039 1797.48,884.315L1793.28,887.034Z" style="fill-rule:nonzero;"/>
        <path d="M1812.92,917.615C1811.02,924.207 1813.86,929.739 1816.74,930.803C1818.99,931.633 1821.52,929.533 1823.51,925.176C1826.19,919.293 1825.05,912.993 1822.53,909.81C1821.9,909.007 1820.61,907.704 1819.11,907.998C1818.26,908.164 1815.31,909.349 1812.92,917.615ZM1817.77,935.978C1816.55,935.978 1815.57,935.701 1815,935.492C1809.57,933.483 1805.51,925.263 1808.12,916.228C1810.94,906.442 1815.13,903.683 1818.14,903.091C1821.14,902.501 1824.17,903.822 1826.46,906.711C1829.8,910.95 1831.73,919.185 1828.06,927.249C1824.76,934.495 1820.61,935.978 1817.77,935.978Z" style="fill-rule:nonzero;"/>
    </g>
</svg>
