<?xml version="1.0" encoding="UTF-8" standalone="no"?>
<!DOCTYPE svg PUBLIC "-//W3C//DTD SVG 1.1//EN" "http://www.w3.org/Graphics/SVG/1.1/DTD/svg11.dtd">
<svg width="100%" height="100%" viewBox="0 0 807 699" version="1.1" xmlns="http://www.w3.org/2000/svg" xmlns:xlink="http://www.w3.org/1999/xlink" xml:space="preserve" xmlns:serif="http://www.serif.com/" style="fill-rule:evenodd;clip-rule:evenodd;stroke-linejoin:round;stroke-miterlimit:2;">
    <g transform="matrix(1,0,0,1,-196.684,-100.617)">
        <path d="M751.146,316.606C751.069,360.345 715.057,396.293 671.319,396.293C627.526,396.293 591.491,360.257 591.491,316.465C591.491,272.673 627.526,236.637 671.319,236.637C671.366,236.637 671.413,236.637 671.46,236.637C671.482,236.637 671.504,236.637 671.526,236.637C715.205,236.637 751.147,272.58 751.147,316.259C751.147,316.375 751.147,316.49 751.146,316.606Z" style="fill:rgb(242,242,242);fill-rule:nonzero;"/>
    </g>
    <g transform="matrix(1,0,0,1,-196.684,-100.617)">
        <path d="M884.005,363.14L895.229,341.708C885.164,329.553 852.141,314.812 852.141,314.812L807.446,274.131C806.218,269.449 801.954,266.159 797.114,266.159C791.254,266.159 786.433,270.981 786.433,276.84C786.433,281.651 789.683,285.896 794.327,287.152L842.613,345.063L884.005,363.14Z" style="fill:rgb(158,97,106);fill-rule:nonzero;"/>
    </g>
    <g transform="matrix(1,0,0,1,-196.684,-100.617)">
        <path d="M878.568,361.661L894.417,366.707C905.94,370.376 918.363,370.1 929.712,365.922C936.704,363.318 941.634,356.945 942.397,349.523C943.376,339.322 936.196,329.987 926.085,328.317C911.222,325.875 892.071,324.67 885.239,332.801L885.17,332.883L878.568,361.661Z" style="fill:rgb(63,61,86);fill-rule:nonzero;"/>
    </g>
    <circle cx="567.886" cy="246.828" r="79.828" style="fill:white;"/>
    <g transform="matrix(1,0,0,1,-196.684,-100.617)">
        <path d="M731.991,316.22C730.896,322.107 729.099,327.841 726.64,333.3C712.558,363.09 752.66,353.38 766.991,353.38C782.66,353.38 797.652,361.619 795.363,325.009C794.384,309.37 782.66,296.638 766.991,296.638C753.607,296.638 734.79,302.586 731.991,316.22Z" style="fill:rgb(47,46,65);fill-rule:nonzero;"/>
    </g>
    <circle cx="567.96" cy="229.701" r="23.055" style="fill:rgb(255,182,182);"/>
    <g transform="matrix(1,0,0,1,-196.684,-100.617)">
        <path d="M748.987,306.817C753.128,304.293 757.884,302.957 762.734,302.957C777.221,302.957 789.142,314.878 789.142,329.366C789.142,329.532 789.141,329.698 789.137,329.865C777.39,332.814 765.048,335.071 752.52,330.57L749.562,323.329L747.817,330.575C744.002,332.135 740.177,333.454 736.352,330.56C736.035,320.972 740.857,311.91 748.987,306.817Z" style="fill:rgb(47,46,65);fill-rule:nonzero;"/>
    </g>
    <g transform="matrix(1,0,0,1,-196.684,-100.617)">
        <path d="M826.64,400.525C798.05,433.057 747.927,436.679 714.956,408.597L721.803,389.491C724.951,382.586 731.679,377.966 739.255,377.507L743.611,377.24L753.997,368.282C753.997,368.282 781.983,367.282 781.568,366.804L798.52,377L798.506,376.93L805.17,377.338C812.746,377.795 819.475,382.416 822.622,389.322L826.64,400.525Z" style="fill:rgb(51,102,255);fill-rule:nonzero;"/>
    </g>
    <g transform="matrix(1,0,0,1,-196.684,-100.617)">
        <path d="M757.567,729.462L755.583,701.874C742.59,695.379 728.206,692.153 713.684,692.478C734.116,708.271 732.479,739.835 746.629,761.437C755.668,775.008 770.413,783.747 786.657,785.159L803.661,794.942C807.595,768.938 799.934,742.475 782.717,722.596C777.887,717.129 772.387,712.293 766.349,708.2C762.632,718.871 757.567,729.462 757.567,729.462Z" style="fill:rgb(242,242,242);fill-rule:nonzero;"/>
    </g>
    <g transform="matrix(1,0,0,1,-196.684,-100.617)">
        <path d="M240.567,240.462L238.583,212.874C225.59,206.379 211.206,203.153 196.684,203.478C217.116,219.271 215.479,250.835 229.629,272.437C238.668,286.008 253.413,294.747 269.657,296.159L286.661,305.942C290.595,279.938 282.934,253.475 265.717,233.596C260.887,228.129 255.387,223.293 249.349,219.2C245.632,229.871 240.567,240.462 240.567,240.462Z" style="fill:rgb(242,242,242);fill-rule:nonzero;"/>
    </g>
    <path d="M635.268,684.997L622.004,684.996L615.694,633.837L635.27,633.837L635.268,684.997Z" style="fill:rgb(158,97,106);fill-rule:nonzero;"/>
    <g transform="matrix(1,0,0,1,-196.684,-100.617)">
        <path d="M835.334,798.471L792.567,798.47L792.567,797.929C792.568,788.797 800.082,781.283 809.213,781.283L809.214,781.283L817.026,775.356L831.602,781.284L835.335,781.284L835.334,798.471Z" style="fill:rgb(47,46,65);fill-rule:nonzero;"/>
    </g>
    <path d="M752.165,684.997L738.902,684.996L732.592,633.837L752.168,633.837L752.165,684.997Z" style="fill:rgb(158,97,106);fill-rule:nonzero;"/>
    <g transform="matrix(1,0,0,1,-196.684,-100.617)">
        <path d="M952.232,798.471L909.465,798.47L909.465,797.929C909.465,788.797 916.979,781.283 926.111,781.283L926.112,781.283L933.924,775.356L948.5,781.284L952.233,781.284L952.232,798.471Z" style="fill:rgb(47,46,65);fill-rule:nonzero;"/>
    </g>
    <g transform="matrix(1,0,0,1,-196.684,-100.617)">
        <path d="M928.676,511.803L939.832,617.784C939.832,617.784 954.683,723.901 951.894,738.543C949.105,753.185 952.591,755.276 952.591,755.276L927.143,753.464C927.143,753.464 927.84,744.4 923.657,740.216C919.473,736.033 921.565,723.483 921.565,723.483L872.2,550.848L842.218,641.49C842.218,641.49 837.338,741.195 836.64,742.59C835.943,743.984 833.851,762.81 833.851,762.81L808.053,762.81C808.053,762.81 811.54,751.654 806.659,748.168C801.778,744.682 797.595,747.471 801.778,741.195C805.962,734.92 807.356,727.25 805.962,723.764C804.567,720.278 804.567,706.333 804.567,706.333C804.567,706.333 806.659,518.078 818.512,511.803C830.365,505.528 928.676,511.803 928.676,511.803Z" style="fill:rgb(47,46,65);fill-rule:nonzero;"/>
    </g>
    <circle cx="679.16" cy="169.163" r="27.439" style="fill:rgb(158,97,106);"/>
    <g transform="matrix(1,0,0,1,-196.684,-100.617)">
        <path d="M938.159,523.354C885.02,534.328 814.601,515.461 814.601,515.461L833.386,434.031L826.708,348.814C825.892,338.393 831.828,328.624 841.062,325.163L853.812,320.387L864.35,305.299L894.454,306.287L906.488,322.127L915.985,327.165L936.573,338.085L936.664,338.13L936.664,338.175L930.203,400.847L926.306,438.635C926.306,438.635 938.141,481.135 935.712,486.771C933.284,492.399 935.395,489.68 935.984,492.689C936.573,495.697 938.377,495.887 938.648,501.814C938.929,507.731 938.159,523.354 938.159,523.354Z" style="fill:rgb(63,61,86);fill-rule:nonzero;"/>
    </g>
    <g transform="matrix(1,0,0,1,-196.684,-100.617)">
        <path d="M1002.4,799.383L591.925,799.383C591.422,799.381 591.009,798.967 591.009,798.464C591.009,797.96 591.422,797.546 591.925,797.544L1002.4,797.544C1002.9,797.544 1003.32,797.959 1003.32,798.464C1003.32,798.968 1002.9,799.383 1002.4,799.383Z" style="fill:rgb(204,204,204);fill-rule:nonzero;"/>
    </g>
    <g transform="matrix(1,0,0,1,-196.684,-100.617)">
        <path d="M874.51,295.901C879.322,295.852 884.122,295.391 888.856,294.525C893.543,293.446 903.883,285.45 906.701,280.726C908.795,277.216 910.052,271.788 910.738,267.852C912.609,257.323 909.925,246.48 903.358,238.04C902.106,236.291 900.404,234.913 898.433,234.051C898.258,233.988 898.079,233.933 897.898,233.887C895.041,233.213 892.45,231.701 890.458,229.544C890.071,229.108 889.654,228.699 889.208,228.323C886.974,226.534 884.348,225.299 881.545,224.719C877.016,223.632 870.538,224.994 862.291,228.773C858.148,230.672 853.55,230.142 850.005,229.469C849.601,229.401 849.191,229.554 848.929,229.869C847.466,231.315 845.508,232.154 843.452,232.217C842.194,232.305 840.917,234.084 839.378,236.4C839.029,236.925 838.622,237.539 838.326,237.913L838.267,237.21L837.575,238.014C836.03,239.807 835.18,242.097 835.18,244.464C835.18,248.902 838.17,252.822 842.451,253.995C843.727,254.299 845.03,254.473 846.342,254.512C847.136,254.563 847.959,254.616 848.748,254.732C853.902,255.649 858.208,259.218 860.067,264.112C860.647,265.608 862.095,266.599 863.7,266.599C864.524,266.599 865.328,266.337 865.995,265.851C867.622,264.515 869.806,264.059 871.832,264.632C872.701,265.086 873.387,265.826 873.776,266.725C874.246,267.727 875.003,268.566 875.952,269.136C879.187,270.699 879.596,277.986 878.606,284.095C877.652,289.983 875.576,294.279 873.559,294.54C872.005,294.742 871.83,294.857 871.725,295.135L871.63,295.385L871.811,295.611C872.679,295.9 873.6,295.999 874.51,295.901Z" style="fill:rgb(47,46,65);fill-rule:nonzero;"/>
    </g>
    <g transform="matrix(1,0,0,1,-196.684,-100.617)">
        <path d="M764.57,428.272C764.57,428.272 764.57,428.272 764.57,428.272C720.23,428.272 683.743,391.785 683.743,347.445C683.743,303.104 720.23,266.617 764.57,266.617C808.911,266.617 845.398,303.104 845.398,347.445C845.348,391.766 808.892,428.222 764.57,428.272ZM764.57,268.617C764.57,268.617 764.57,268.617 764.57,268.617C721.327,268.617 685.743,304.201 685.743,347.445C685.743,390.688 721.327,426.272 764.57,426.272C807.814,426.272 843.398,390.688 843.398,347.445C843.349,304.22 807.795,268.666 764.57,268.617Z" style="fill:rgb(63,61,86);fill-rule:nonzero;"/>
    </g>
    <circle cx="288.886" cy="80.828" r="79.828" style="fill:white;"/>
    <circle cx="292.581" cy="62.94" r="26.03" style="fill:rgb(255,184,184);"/>
    <g id="f183d98d-beca-4def-af6d-fbe16b93cf6a-152" transform="matrix(1,0,0,1,-196.684,-100.617)">
        <path d="M512.184,146.361C512.184,146.361 518.961,133.405 504.051,132.227C504.051,132.227 491.339,120.696 478.383,130.119C478.383,130.119 471.316,130.119 467.451,138.116C467.451,138.116 461.893,136.008 460.671,141.65C460.671,141.65 456.604,153.428 460.671,164.029C464.739,174.629 466.09,175.807 466.09,175.807C466.09,175.807 463.236,162.652 479.503,161.475C495.771,160.297 510.695,150.106 512.05,163.062C513.406,176.019 514.896,170.166 514.896,170.166C514.896,170.166 527.772,151.661 512.184,146.361Z" style="fill:rgb(47,46,65);fill-rule:nonzero;"/>
    </g>
    <g transform="matrix(1,0,0,1,-196.684,-100.617)">
        <path d="M545.604,234.525C517.014,267.057 466.891,270.679 433.92,242.597L440.767,223.491C443.915,216.586 450.643,211.966 458.219,211.507L462.574,211.24L472.961,202.282C472.961,202.282 500.947,201.282 500.532,200.804L517.484,211L517.47,210.93L524.134,211.338C531.71,211.795 538.439,216.416 541.586,223.322L545.604,234.525Z" style="fill:rgb(51,102,255);fill-rule:nonzero;"/>
    </g>
    <g transform="matrix(1,0,0,1,-196.684,-100.617)">
        <path d="M485.57,262.272C485.57,262.272 485.57,262.272 485.57,262.272C441.23,262.272 404.743,225.785 404.743,181.445C404.743,137.104 441.23,100.617 485.57,100.617C529.911,100.617 566.398,137.104 566.398,181.445C566.348,225.766 529.892,262.222 485.57,262.272ZM485.57,102.617C485.57,102.617 485.57,102.617 485.57,102.617C442.327,102.617 406.743,138.201 406.743,181.445C406.743,224.688 442.327,260.272 485.57,260.272C528.814,260.272 564.398,224.688 564.398,181.445C564.349,138.22 528.795,102.666 485.57,102.617Z" style="fill:rgb(63,61,86);fill-rule:nonzero;"/>
    </g>
    <circle cx="102.563" cy="206.828" r="79.828" style="fill:white;"/>
    <g transform="matrix(1,0,0,1,-196.684,-100.617)">
        <path d="M262.248,281.477C265.548,270.957 273.055,261.309 283.436,257.753C293.817,254.196 309.018,259.614 316.823,267.392C331.099,281.62 334.583,330.498 324.775,345.944C322.824,345.84 316.092,345.764 314.117,345.69L311.324,336.38L311.324,345.598C308.178,345.501 305.008,345.434 301.813,345.397C279.685,345.123 261.491,327.149 260.946,305.026C260.691,294.78 260.947,285.622 262.248,281.477Z" style="fill:rgb(47,46,65);fill-rule:nonzero;"/>
    </g>
    <circle cx="101.379" cy="192.974" r="22.75" style="fill:rgb(158,97,106);"/>
    <g transform="matrix(1,0,0,1,-196.684,-100.617)">
        <path d="M278.429,273.611L304.624,260.494C315.515,265.402 322.913,275.868 323.907,287.773L324.56,295.593L313.591,292.801L312.389,282.801L310.527,292.021L305.464,290.733L305.513,275.208L300.447,290.722L282.367,286.568L278.429,273.611Z" style="fill:rgb(47,46,65);fill-rule:nonzero;"/>
    </g>
    <g transform="matrix(1,0,0,1,-196.684,-100.617)">
        <path d="M358.484,360.271C329.894,392.803 279.771,396.425 246.8,368.343L253.647,349.237C256.796,342.332 263.524,337.712 271.099,337.253L275.455,336.986L285.841,328.028C285.841,328.028 313.828,327.029 313.412,326.55L330.365,336.747L330.351,336.676L337.015,337.085C344.59,337.541 351.319,342.162 354.466,349.069L358.484,360.271Z" style="fill:rgb(51,102,255);fill-rule:nonzero;"/>
    </g>
    <g transform="matrix(1,0,0,1,-196.684,-100.617)">
        <path d="M299.247,388.272L299.247,388.272C254.906,388.272 218.42,351.785 218.42,307.445C218.42,263.104 254.906,226.617 299.247,226.617C343.588,226.617 380.075,263.104 380.075,307.445C380.025,351.766 343.569,388.222 299.247,388.272ZM299.247,228.617L299.247,228.617C256.004,228.617 220.42,264.201 220.42,307.445C220.42,350.688 256.004,386.272 299.247,386.272C342.491,386.272 378.075,350.688 378.075,307.445C378.026,264.22 342.472,228.666 299.247,228.617L299.247,228.617Z" style="fill:rgb(63,61,86);fill-rule:nonzero;"/>
    </g>
    <g transform="matrix(1,0,0,1,-196.684,-100.617)">
        <path d="M838.297,388.858L826.212,367.9C810.556,369.888 780.419,389.878 780.419,389.878L722.125,405.828C721.075,405.493 719.98,405.323 718.878,405.323C713.019,405.323 708.197,410.144 708.197,416.004C708.197,421.863 713.019,426.685 718.878,426.685C721.548,426.685 724.124,425.684 726.093,423.88L800.86,414.128L838.297,388.858Z" style="fill:rgb(158,97,106);fill-rule:nonzero;"/>
    </g>
    <g transform="matrix(1,0,0,1,-196.684,-100.617)">
        <path d="M834.136,392.657L861.193,369.994L865.129,351.752C866.677,344.453 863.936,336.877 858.077,332.256C849.987,325.965 838.259,327.028 831.433,334.672C821.409,345.914 810.133,361.44 813.339,371.565L813.371,371.667L834.136,392.657Z" style="fill:rgb(63,61,86);fill-rule:nonzero;"/>
    </g>
    <g transform="matrix(1,0,0,1,-196.684,-100.617)">
        <path d="M419.43,471.387L317.765,471.387C312.13,471.381 307.495,466.745 307.489,461.11L307.489,398.494C307.495,392.859 312.13,388.224 317.765,388.217L419.43,388.217C425.066,388.224 429.701,392.859 429.707,398.494L429.707,461.11C429.701,466.745 425.066,471.381 419.43,471.387Z" style="fill:rgb(230,230,230);fill-rule:nonzero;"/>
    </g>
    <g transform="matrix(1,0,0,1,-196.684,-100.617)">
        <path d="M379.037,463.322L324.912,463.322C319.634,463.316 315.293,458.975 315.287,453.697L315.287,405.907C315.293,400.629 319.634,396.288 324.912,396.283L412.284,396.283C417.562,396.288 421.903,400.629 421.909,405.907L421.909,420.451C421.882,443.959 402.546,463.295 379.037,463.322Z" style="fill:white;fill-rule:nonzero;"/>
    </g>
    <g transform="matrix(1,0,0,1,-196.684,-100.617)">
        <path d="M403.568,422.451L333.628,422.451C332.376,422.451 331.347,421.422 331.347,420.17C331.347,418.919 332.376,417.889 333.628,417.889L403.568,417.889C404.819,417.889 405.849,418.919 405.849,420.17C405.849,421.422 404.819,422.451 403.568,422.451Z" style="fill:rgb(51,102,255);fill-rule:nonzero;"/>
    </g>
    <g transform="matrix(1,0,0,1,-196.684,-100.617)">
        <path d="M344.568,431.465L333.628,431.465C332.376,431.465 331.347,430.435 331.347,429.183C331.347,427.932 332.376,426.902 333.628,426.902L344.568,426.902C345.82,426.902 346.849,427.932 346.849,429.183C346.849,430.435 345.82,431.465 344.568,431.465Z" style="fill:rgb(51,102,255);fill-rule:nonzero;"/>
    </g>
    <g transform="matrix(1,0,0,1,-196.684,-100.617)">
        <path d="M363.945,440.478L333.628,440.478C332.378,440.475 331.351,439.446 331.351,438.197C331.351,436.947 332.378,435.918 333.628,435.916L363.945,435.916C365.195,435.918 366.221,436.947 366.221,438.197C366.221,439.446 365.195,440.475 363.945,440.478Z" style="fill:rgb(51,102,255);fill-rule:nonzero;"/>
    </g>
    <circle cx="107.257" cy="286.353" r="21.506" style="fill:rgb(63,61,86);"/>
    <g transform="matrix(1,0,0,1,-196.684,-100.617)">
        <path d="M683.43,187.387L581.765,187.387C576.13,187.381 571.495,182.745 571.489,177.11L571.489,114.494C571.495,108.859 576.13,104.224 581.765,104.217L683.43,104.217C689.066,104.224 693.701,108.859 693.707,114.494L693.707,177.11C693.701,182.745 689.066,187.381 683.43,187.387Z" style="fill:rgb(230,230,230);fill-rule:nonzero;"/>
    </g>
    <g transform="matrix(1,0,0,1,-196.684,-100.617)">
        <path d="M643.037,179.322L588.912,179.322C583.634,179.316 579.293,174.975 579.287,169.697L579.287,121.907C579.293,116.629 583.634,112.288 588.912,112.283L676.284,112.283C681.562,112.288 685.903,116.629 685.909,121.907L685.909,136.451C685.882,159.959 666.546,179.295 643.037,179.322Z" style="fill:white;fill-rule:nonzero;"/>
    </g>
    <g transform="matrix(1,0,0,1,-196.684,-100.617)">
        <path d="M667.568,138.451L597.628,138.451C596.376,138.451 595.347,137.422 595.347,136.17C595.347,134.919 596.376,133.889 597.628,133.889L667.568,133.889C668.819,133.889 669.849,134.919 669.849,136.17C669.849,137.422 668.819,138.451 667.568,138.451Z" style="fill:rgb(51,102,255);fill-rule:nonzero;"/>
    </g>
    <g transform="matrix(1,0,0,1,-196.684,-100.617)">
        <path d="M608.568,147.465L597.628,147.465C596.376,147.465 595.347,146.435 595.347,145.183C595.347,143.932 596.376,142.902 597.628,142.902L608.568,142.902C609.82,142.902 610.849,143.932 610.849,145.183C610.849,146.435 609.82,147.465 608.568,147.465Z" style="fill:rgb(51,102,255);fill-rule:nonzero;"/>
    </g>
    <g transform="matrix(1,0,0,1,-196.684,-100.617)">
        <path d="M627.945,156.478L597.628,156.478C596.378,156.475 595.351,155.446 595.351,154.197C595.351,152.947 596.378,151.918 597.628,151.916L627.945,151.916C629.197,151.916 630.226,152.945 630.226,154.197C630.226,155.448 629.197,156.478 627.945,156.478Z" style="fill:rgb(51,102,255);fill-rule:nonzero;"/>
    </g>
    <circle cx="371.257" cy="77.353" r="21.506" style="fill:rgb(63,61,86);"/>
</svg>
