<?xml version="1.0" encoding="UTF-8" standalone="no"?>
<!DOCTYPE svg PUBLIC "-//W3C//DTD SVG 1.1//EN" "http://www.w3.org/Graphics/SVG/1.1/DTD/svg11.dtd">
<svg width="100%" height="100%" viewBox="0 0 335 303" version="1.1" xmlns="http://www.w3.org/2000/svg" xmlns:xlink="http://www.w3.org/1999/xlink" xml:space="preserve" xmlns:serif="http://www.serif.com/" style="fill-rule:evenodd;clip-rule:evenodd;stroke-linejoin:round;stroke-miterlimit:2;">
    <g id="Artboard1" transform="matrix(0.399471,0,0,0.339638,134.447,116.64)">
        <rect x="-336.562" y="-343.424" width="837.645" height="890.027" style="fill:none;"/>
        <g transform="matrix(2.50331,0,0,2.94431,-366.141,-368.131)">
            <path d="M21.41,161.072C21.426,111.176 61.942,70.67 111.844,70.67C161.756,70.67 202.278,111.192 202.278,161.104C202.278,211.016 161.756,251.538 111.844,251.538C94.549,251.538 78.382,246.673 64.635,238.236L64.635,261.613C64.635,285.47 45.266,304.839 21.409,304.839L21.409,161.072L21.41,161.072ZM111.844,114.207C137.727,114.207 158.741,135.22 158.741,161.104C158.741,186.987 137.727,208.001 111.844,208.001C85.96,208.001 64.946,186.987 64.946,161.104C64.946,135.22 85.96,114.207 111.844,114.207Z" style="fill:url(#_Linear1);"/>
        </g>
        <g transform="matrix(2.50331,0,0,2.94431,-366.141,-368.131)">
            <path d="M158.754,161.01L158.569,161.01L158.569,14.626C182.728,14.626 202.342,34.24 202.342,58.399L202.342,83.75C216.006,75.451 232.043,70.67 249.188,70.67C299.1,70.67 339.622,111.192 339.622,161.104C339.622,211.016 299.1,251.538 249.188,251.538C199.276,251.538 158.754,211.016 158.754,161.104L158.754,161.01ZM202.291,161.01L202.342,161.01L202.342,158.903C203.492,134.04 224.042,114.207 249.188,114.207C275.071,114.207 296.085,135.22 296.085,161.104C296.085,186.987 275.071,208.001 249.188,208.001C223.304,208.001 202.291,186.987 202.291,161.104L202.291,161.01Z" style="fill:url(#_Linear2);"/>
        </g>
    </g>
    <defs>
        <linearGradient id="_Linear1" x1="0" y1="0" x2="1" y2="0" gradientUnits="userSpaceOnUse" gradientTransform="matrix(180.868,0,0,234.169,21.4095,187.754)"><stop offset="0" style="stop-color:rgb(51,102,255);stop-opacity:1"/><stop offset="1" style="stop-color:rgb(9,26,122);stop-opacity:1"/></linearGradient>
        <linearGradient id="_Linear2" x1="0" y1="0" x2="1" y2="0" gradientUnits="userSpaceOnUse" gradientTransform="matrix(181.053,0,0,236.912,158.569,133.082)"><stop offset="0" style="stop-color:rgb(107,70,249);stop-opacity:1"/><stop offset="1" style="stop-color:rgb(255,12,170);stop-opacity:1"/></linearGradient>
    </defs>
</svg>
